<svg width="819" height="995" viewBox="0 0 819 995" fill="none" xmlns="http://www.w3.org/2000/svg">
<path d="M570.623 249.166C572.311 247.973 574.647 248.373 575.84 250.061L719.241 452.878C720.62 454.829 719.844 457.555 717.644 458.486L239.936 660.663C238.315 661.349 236.436 660.814 235.421 659.377L155.933 546.955C154.74 545.267 155.141 542.932 156.828 541.738L570.623 249.166Z" fill="#FF5F49"/>
<path d="M688.211 766.237C688.629 760.07 696.607 757.912 700.077 763.028L803.595 915.638C805.912 919.053 804.501 923.734 800.683 925.301L683.56 973.372C679.107 975.2 674.28 971.722 674.606 966.919L688.211 766.237Z" fill="#87CEE1"/>
<path d="M672.071 402.451C669.035 401.421 666.194 404.435 667.401 407.405L741.427 589.57C742.775 592.887 747.564 592.6 748.506 589.146L787.709 445.409C788.23 443.5 787.175 441.516 785.301 440.88L672.071 402.451Z" stroke="black" stroke-width="3.25046"/>
<path d="M409.699 529.479C409.703 531.546 408.03 533.225 405.963 533.23L294.055 533.453C291.987 533.457 290.308 531.784 290.304 529.717L289.71 231.64C289.706 229.573 291.379 227.894 293.446 227.89L405.354 227.667C407.421 227.663 409.1 229.335 409.105 231.402L409.699 529.479Z" fill="#FAC22D"/>
<path d="M239.96 481.716C239.821 483.779 238.036 485.338 235.973 485.199L232.627 484.974C230.565 484.835 229.005 483.05 229.144 480.988L241.97 290.635C242.109 288.572 243.893 287.013 245.956 287.152L249.302 287.377C251.365 287.516 252.924 289.301 252.785 291.363L239.96 481.716Z" fill="#FAC22D"/>
<path d="M290.639 429.476C290.753 431.54 289.172 433.306 287.108 433.421L266.43 434.565C264.366 434.679 262.6 433.098 262.486 431.034L251.946 240.541C251.832 238.477 253.413 236.711 255.477 236.597L276.155 235.453C278.219 235.339 279.985 236.919 280.099 238.983L290.639 429.476Z" fill="#FAC22D"/>
<path d="M181.715 76.5465L713.363 846.665" stroke="#242938" stroke-width="3.25046"/>
<path d="M317.112 569.149C320.061 568.638 322.388 571.623 321.171 574.358L207.657 829.505C206.059 833.098 200.711 832.111 200.5 828.185L187.943 594.878C187.841 592.983 189.172 591.312 191.041 590.988L317.112 569.149Z" stroke="black" stroke-width="3.25046"/>
<path d="M213.244 491.084C216.771 489.353 220.242 493.531 217.894 496.681L81.3248 679.897C78.5973 683.556 72.9389 680.077 74.973 675.992L151.531 522.226C151.897 521.491 152.495 520.896 153.233 520.534L213.244 491.084Z" stroke="black" stroke-width="3.25046"/>
<path d="M621.423 151.009C623.345 149.328 626.35 150.023 627.338 152.378L684.567 288.708C685.98 292.074 682.231 295.264 679.134 293.332L554.758 215.725C552.627 214.396 552.384 211.386 554.275 209.732L621.423 151.009Z" fill="#FAC22D"/>
<circle cx="378.774" cy="126.549" r="77.6047" fill="#87CEE1"/>
<circle cx="274.759" cy="126.549" r="13.4081" fill="#87CEE1"/>
<circle cx="283.698" cy="76.1669" r="6.90722" fill="#87CEE1"/>
<path d="M684.186 820.662L660.297 835.864L655.78 828.766L663.641 823.763L641.008 788.196L633.147 793.199L628.606 786.062L652.495 770.86L657.037 777.997L648.908 783.169L671.541 818.736L679.669 813.564L684.186 820.662Z" fill="black"/>
<path d="M712.368 758.281L705.308 762.774L698.29 751.745L691.573 756.019L714.206 791.586L722.106 786.559L726.622 793.658L702.962 808.714L698.445 801.616L706.307 796.613L683.674 761.046L676.881 765.369L683.899 776.398L676.877 780.866L665.318 762.701L700.808 740.116L712.368 758.281Z" fill="black"/>
<path d="M439.546 301.286L423.053 296.348L432.237 265.672L398.772 255.653L389.588 286.329L373.094 281.391L395.327 207.131L411.821 212.069L403.209 240.833L436.674 250.852L445.286 222.088L461.779 227.026L439.546 301.286Z" fill="#242938"/>
<path d="M545.536 292.647C543.803 298.437 541.299 303.418 538.024 307.589C534.803 311.776 530.949 315.079 526.463 317.498C522.045 319.879 517.16 321.311 511.806 321.792C506.453 322.273 500.828 321.631 494.932 319.865C489.142 318.132 484.143 315.593 479.935 312.25C475.727 308.906 472.405 305.018 469.97 300.584C467.604 296.114 466.199 291.236 465.756 285.952C465.365 280.684 466.036 275.155 467.77 269.365C469.456 263.734 471.917 258.799 475.155 254.559C478.461 250.281 482.331 246.925 486.764 244.49C491.267 242.018 496.186 240.568 501.524 240.14C506.877 239.659 512.449 240.286 518.239 242.019C524.135 243.784 529.187 246.339 533.395 249.682C537.619 252.973 540.906 256.88 543.257 261.404C545.676 265.89 547.064 270.821 547.423 276.195C547.851 281.533 547.222 287.017 545.536 292.647ZM529.123 287.733C530.125 284.387 530.54 281.067 530.368 277.774C530.265 274.444 529.549 271.423 528.22 268.709C526.89 265.996 525.001 263.607 522.551 261.543C520.171 259.441 517.254 257.873 513.802 256.839C510.296 255.79 506.971 255.489 503.827 255.937C500.699 256.331 497.861 257.305 495.312 258.857C492.764 260.41 490.505 262.54 488.536 265.25C486.637 267.923 485.186 270.932 484.184 274.279C483.134 277.785 482.685 281.123 482.835 284.293C483.039 287.48 483.771 290.448 485.031 293.199C486.291 295.949 488.119 298.349 490.516 300.398C492.928 302.393 495.887 303.916 499.393 304.965C502.846 305.999 506.128 306.345 509.24 306.004C512.421 305.625 515.321 304.64 517.938 303.051C520.556 301.462 522.798 299.384 524.666 296.817C526.588 294.267 528.073 291.239 529.123 287.733Z" fill="#242938"/>
<path d="M627.56 335.35C625.54 342.096 621.517 346.448 615.49 348.406C609.532 350.326 601.932 349.903 592.689 347.136L551.256 334.731L573.489 260.471L611.974 271.993C615.374 273.01 618.667 274.286 621.855 275.819C625.111 277.315 627.853 279.177 630.079 281.407C632.322 283.583 633.885 286.193 634.768 289.235C635.651 292.278 635.489 295.818 634.28 299.855C633.167 303.573 630.996 306.57 627.768 308.845C624.541 311.12 620.268 312.243 614.952 312.214C620.753 314.877 624.653 318.186 626.653 322.142C628.721 326.06 629.023 330.463 627.56 335.35ZM617.373 296.877C617.85 295.283 617.887 293.905 617.483 292.742C617.147 291.542 616.501 290.51 615.545 289.644C614.657 288.742 613.52 287.996 612.134 287.408C610.801 286.835 609.443 286.342 608.062 285.928L585.832 279.273L581.371 294.173L603.601 300.828C604.982 301.242 606.387 301.575 607.816 301.83C609.314 302.047 610.674 302.048 611.895 301.835C613.17 301.638 614.269 301.157 615.192 300.392C616.185 299.589 616.912 298.417 617.373 296.877ZM611.966 327.989C612.745 325.387 612.236 323.122 610.44 321.195C608.66 319.215 605.804 317.636 601.873 316.46L576.934 308.993L572.187 324.849L597.126 332.316C601.057 333.492 604.31 333.743 606.886 333.067C609.461 332.391 611.154 330.699 611.966 327.989Z" fill="#242938"/>
<path d="M642.507 338.783C643.811 334.427 646.117 330.979 649.424 328.439C652.748 325.845 656.621 324.024 661.045 322.975C665.521 321.942 670.362 321.626 675.567 322.027C680.841 322.39 686.028 323.335 691.127 324.862C693.943 325.705 696.344 326.482 698.33 327.192C700.317 327.903 702.315 328.674 704.323 329.507L705.205 326.559C706.366 322.681 705.719 319.333 703.264 316.514C700.862 313.711 697.217 311.578 692.33 310.115C687.868 308.779 683.135 308.057 678.132 307.948C673.145 307.787 668.222 308.281 663.363 309.43L660.535 294.519C666.265 293.166 672.157 292.528 678.211 292.605C684.335 292.644 690.504 293.594 696.719 295.454C700.756 296.663 704.579 298.299 708.186 300.363C711.846 302.443 714.907 304.98 717.368 307.974C719.882 310.984 721.567 314.441 722.424 318.344C723.298 322.194 723.003 326.562 721.539 331.449L706.63 381.249L690.296 376.358L693.564 365.442C689.752 368.7 684.963 370.681 679.196 371.385C673.481 372.106 667.703 371.591 661.86 369.842C658.247 368.76 654.972 367.23 652.034 365.25C649.133 363.34 646.808 361.052 645.06 358.387C643.311 355.722 642.149 352.741 641.573 349.443C641.067 346.108 641.378 342.554 642.507 338.783ZM670.496 356.365C673.736 357.336 676.883 357.844 679.937 357.89C683.06 357.899 685.925 357.512 688.532 356.73C691.155 355.894 693.388 354.624 695.23 352.918C697.125 351.228 698.446 349.135 699.194 346.638L700.029 343.849C697.553 342.645 695.181 341.675 692.913 340.938C690.645 340.201 688.634 339.57 686.881 339.045C678.807 336.628 672.38 335.861 667.601 336.745C662.875 337.646 660.042 339.663 659.104 342.797C657.243 349.012 661.04 353.535 670.496 356.365Z" fill="#242938"/>
<path d="M760.715 366.185C752.353 363.567 746.4 359.672 742.855 354.501C739.31 349.33 738.658 342.999 740.9 335.509C743.143 328.02 747.235 323.051 753.177 320.605C759.118 318.159 766.392 318.224 774.997 320.8L818.103 333.706L795.87 407.966L779.377 403.028L787.965 374.344L781.272 372.34L746.549 393.2L724.558 386.616L760.715 366.185ZM757.442 340.288C756.631 342.997 756.982 345.302 758.497 347.202C760.028 349.05 762.413 350.459 765.653 351.429L792.426 359.444L797.149 343.668L770.377 335.652C767.136 334.682 764.361 334.575 762.052 335.33C759.758 336.033 758.221 337.685 757.442 340.288Z" fill="#242938"/>
<path d="M190.839 308.413L179.03 302.095L201.768 259.593L177.807 246.774L155.069 289.276L143.26 282.958L171.705 229.788L219.285 255.242L190.839 308.413Z" fill="#242938"/>
<path d="M235.487 263.91L247.296 270.228L244.732 275.02C248.055 274.205 251.121 273.913 253.932 274.145C256.802 274.36 259.72 275.26 262.686 276.847C266.109 278.679 268.909 281.081 271.084 284.055C273.28 286.991 274.763 290.255 275.532 293.846C276.322 297.399 276.399 301.232 275.765 305.344C275.151 309.418 273.765 313.471 271.608 317.502C269.431 321.572 266.819 324.992 263.77 327.764C260.722 330.536 257.491 332.599 254.076 333.952C250.682 335.267 247.155 335.825 243.494 335.628C239.833 335.43 236.291 334.416 232.868 332.585C229.901 330.998 227.543 329.051 225.792 326.745C224.08 324.459 222.641 321.708 221.476 318.492L207.467 344.678L195.657 338.36L235.487 263.91ZM226.481 309.136C227.054 311.448 228.19 313.621 229.89 315.656C231.649 317.673 233.536 319.22 235.551 320.299C240.001 322.679 244.459 323.034 248.924 321.363C253.427 319.712 257.052 316.319 259.799 311.184C262.546 306.05 263.367 301.132 262.261 296.432C261.194 291.752 258.436 288.222 253.986 285.841C251.97 284.763 249.635 284.052 246.982 283.708C244.387 283.347 241.968 283.57 239.727 284.376L226.481 309.136Z" fill="#242938"/>
<path d="M336.759 352.357C334.541 356.502 331.861 359.911 328.719 362.584C325.615 365.277 322.166 367.199 318.371 368.348C314.635 369.48 310.689 369.815 306.533 369.353C302.378 368.891 298.189 367.531 293.968 365.272C289.822 363.054 286.404 360.345 283.714 357.145C281.023 353.944 279.093 350.466 277.923 346.709C276.811 342.935 276.495 338.999 276.975 334.902C277.493 330.825 278.861 326.714 281.079 322.569C283.235 318.537 285.876 315.156 289 312.425C292.183 309.676 295.653 307.716 299.409 306.546C303.225 305.359 307.2 305.015 311.335 305.515C315.49 305.977 319.641 307.317 323.786 309.535C328.008 311.793 331.464 314.523 334.155 317.723C336.865 320.886 338.766 324.373 339.858 328.185C341.007 331.98 341.303 335.954 340.744 340.107C340.244 344.242 338.916 348.325 336.759 352.357ZM325.007 346.069C326.289 343.673 327.119 341.207 327.498 338.67C327.935 336.116 327.857 333.701 327.263 331.427C326.67 329.153 325.6 327.039 324.052 325.086C322.562 323.115 320.582 321.469 318.109 320.146C315.599 318.803 313.111 318.059 310.645 317.914C308.199 317.731 305.885 318.033 303.702 318.822C301.519 319.611 299.467 320.886 297.547 322.647C295.685 324.39 294.113 326.46 292.831 328.856C291.488 331.366 290.628 333.841 290.252 336.282C289.914 338.742 290.013 341.119 290.548 343.41C291.083 345.702 292.105 347.815 293.615 349.747C295.145 351.642 297.165 353.261 299.675 354.604C302.147 355.927 304.596 356.698 307.021 356.92C309.505 357.123 311.868 356.822 314.109 356.015C316.351 355.209 318.382 353.972 320.203 352.305C322.063 350.658 323.664 348.58 325.007 346.069Z" fill="#242938"/>
<path d="M374.283 354.087C374.427 352.354 374.252 351.037 373.755 350.136C373.297 349.255 372.65 348.59 371.813 348.143C370.938 347.675 369.949 347.512 368.845 347.656C367.779 347.819 366.614 348.443 365.349 349.527C364.084 350.612 362.66 352.222 361.076 354.359C359.551 356.479 357.893 359.212 356.103 362.558C354.272 365.981 352.898 368.915 351.981 371.36C351.123 373.787 350.584 375.847 350.363 377.539C350.143 379.231 350.26 380.566 350.716 381.543C351.209 382.541 351.893 383.274 352.768 383.742C353.605 384.189 354.517 384.359 355.504 384.251C356.529 384.164 357.723 383.579 359.084 382.498L374.283 354.087ZM341.077 416.157L354.384 391.283C352.9 392.593 351.241 393.271 349.407 393.317C347.552 393.401 345.845 393.026 344.285 392.191C342.194 391.072 340.569 389.445 339.413 387.31C338.256 385.174 337.613 382.581 337.485 379.528C337.378 376.437 337.869 372.958 338.96 369.09C340.013 365.202 341.791 360.919 344.294 356.241C346.796 351.563 349.373 347.707 352.023 344.673C354.635 341.619 357.236 339.317 359.826 337.768C362.437 336.18 364.941 335.294 367.339 335.109C369.757 334.887 372.012 335.335 374.104 336.454C375.663 337.288 376.923 338.5 377.882 340.09C378.862 341.641 379.219 343.397 378.953 345.358L392.29 320.428L404.1 326.746L390.762 351.676C392.284 350.387 393.943 349.709 395.739 349.643C397.594 349.559 399.301 349.934 400.86 350.768C402.99 351.908 404.633 353.545 405.79 355.68C406.967 357.778 407.62 360.352 407.748 363.405C407.896 366.419 407.425 369.861 406.334 373.729C405.281 377.617 403.504 381.9 401.001 386.578C398.498 391.256 395.922 395.112 393.271 398.146C390.659 401.2 388.038 403.54 385.407 405.165C382.797 406.753 380.282 407.658 377.864 407.881C375.446 408.103 373.172 407.645 371.042 406.506C369.482 405.671 368.223 404.459 367.263 402.87C366.321 401.339 365.965 399.582 366.193 397.601L352.886 422.475L341.077 416.157ZM370.893 388.815C370.787 390.569 370.963 391.886 371.421 392.767C371.917 393.668 372.583 394.343 373.42 394.79C374.295 395.258 375.265 395.41 376.331 395.247C377.435 395.104 378.63 394.471 379.915 393.348C381.2 392.226 382.595 390.624 384.1 388.543C385.663 386.444 387.36 383.683 389.192 380.26C390.982 376.914 392.317 374.008 393.195 371.542C394.132 369.06 394.701 366.991 394.901 365.337C395.101 363.683 394.954 362.357 394.46 361.359C394.005 360.382 393.34 359.659 392.465 359.191C391.628 358.744 390.697 358.564 389.672 358.651C388.685 358.759 387.492 359.343 386.092 360.405L370.893 388.815Z" fill="#242938"/>
<path d="M418.241 401.672C416.858 405.628 416.961 409.597 418.55 413.577C420.196 417.54 423.473 420.834 428.379 423.458C432.22 425.513 435.864 426.704 439.309 427.031C442.812 427.34 446.12 427.055 449.232 426.176L450.823 437.74C445.569 439.332 440.685 439.728 436.173 438.928C431.698 438.148 427.197 436.548 422.672 434.127C418.564 431.929 415.108 429.2 412.303 425.938C409.499 422.677 407.454 419.137 406.17 415.319C404.907 411.464 404.439 407.447 404.766 403.268C405.132 399.11 406.424 394.958 408.641 390.813C410.798 386.781 413.448 383.429 416.59 380.756C419.79 378.066 423.269 376.135 427.025 374.965C430.84 373.778 434.826 373.415 438.981 373.877C443.157 374.301 447.318 375.622 451.463 377.84C455.761 380.139 459.263 382.966 461.968 386.322C464.694 389.639 466.55 393.347 467.537 397.446C468.562 401.565 468.7 406.017 467.95 410.801C467.221 415.548 465.503 420.45 462.797 425.508L418.241 401.672ZM455.002 407.983C456.225 404.235 455.921 400.55 454.092 396.93C452.282 393.271 449.514 390.445 445.786 388.451C442.059 386.457 438.153 385.712 434.067 386.217C430.002 386.684 426.749 388.466 424.309 391.563L455.002 407.983Z" fill="#242938"/>
<path d="M514.605 471.862C509.35 473.454 504.486 473.86 500.011 473.081C495.574 472.321 491.15 470.762 486.738 468.401C482.288 466.021 478.594 463.188 475.655 459.904C472.754 456.64 470.67 453.128 469.404 449.369C468.196 445.591 467.823 441.625 468.285 437.47C468.785 433.335 470.164 429.156 472.423 424.935C474.58 420.903 477.239 417.532 480.402 414.821C483.622 412.093 487.025 410.122 490.609 408.908C494.252 407.677 497.999 407.212 501.85 407.511C505.721 407.772 509.407 408.839 512.906 410.711C516.557 412.664 519.326 415.124 521.212 418.089C523.099 421.055 523.867 424.328 523.517 427.908L527.638 420.206L538.192 425.853L524.946 450.612L514.392 444.966C516.894 440.288 517.595 435.869 516.494 431.709C515.452 427.531 512.877 424.343 508.769 422.146C507.134 421.271 505.22 420.687 503.028 420.395C500.895 420.086 498.691 420.227 496.417 420.821C494.181 421.434 491.988 422.561 489.84 424.2C487.691 425.838 485.803 428.179 484.175 431.222C482.588 434.188 481.69 437.01 481.481 439.687C481.292 442.325 481.582 444.755 482.351 446.976C483.178 449.179 484.444 451.202 486.149 453.044C487.913 454.868 489.916 456.38 492.16 457.58C496.002 459.635 499.645 460.826 503.09 461.153C506.594 461.462 509.901 461.177 513.013 460.298L514.605 471.862Z" fill="#242938"/>
<path d="M578.386 505.984C573.132 507.576 568.267 507.982 563.793 507.203C559.356 506.443 554.932 504.884 550.52 502.523C546.07 500.143 542.375 497.31 539.436 494.026C536.535 490.762 534.452 487.25 533.185 483.491C531.977 479.713 531.604 475.747 532.066 471.592C532.567 467.457 533.946 463.278 536.204 459.057C538.361 455.025 541.021 451.654 544.183 448.943C547.404 446.215 550.806 444.244 554.391 443.03C558.033 441.799 561.78 441.334 565.631 441.633C569.503 441.894 573.188 442.961 576.687 444.833C580.338 446.786 583.107 449.246 584.994 452.211C586.88 455.177 587.648 458.45 587.299 462.03L591.419 454.328L601.973 459.975L588.727 484.734L578.173 479.088C580.676 474.41 581.377 469.991 580.276 465.831C579.233 461.653 576.658 458.465 572.551 456.268C570.915 455.393 569.002 454.809 566.81 454.517C564.676 454.208 562.472 454.349 560.198 454.943C557.962 455.556 555.77 456.683 553.621 458.322C551.473 459.96 549.584 462.301 547.957 465.344C546.369 468.31 545.471 471.132 545.263 473.809C545.074 476.447 545.364 478.877 546.132 481.098C546.959 483.301 548.225 485.324 549.93 487.166C551.694 488.99 553.698 490.502 555.942 491.702C559.783 493.758 563.426 494.948 566.872 495.275C570.375 495.584 573.683 495.299 576.795 494.42L578.386 505.984Z" fill="#242938"/>
<path d="M618.175 468.642L629.985 474.96L610.421 511.529L650.922 486.161L665.755 494.097L637.309 547.267L625.5 540.949L646.193 502.269L603.422 529.138L589.73 521.813L618.175 468.642Z" fill="#242938"/>
<path d="M680.758 544.095C674.79 540.804 670.854 536.913 668.952 532.422C667.05 527.932 667.533 523.005 670.402 517.642C673.271 512.279 677.159 509.126 682.068 508.18C686.976 507.235 692.511 508.411 698.672 511.707L729.536 528.219L701.091 581.389L689.282 575.071L700.269 554.533L695.477 551.969L665.777 562.496L650.031 554.073L680.758 544.095ZM682.272 523.846C681.234 525.785 681.146 527.597 682.006 529.28C682.887 530.926 684.488 532.369 686.808 533.61L705.976 543.865L712.019 532.569L692.851 522.314C690.531 521.073 688.432 520.562 686.554 520.78C684.696 520.96 683.269 521.982 682.272 523.846Z" fill="#242938"/>
</svg>
