<svg width="484" height="423" viewBox="0 0 484 423" fill="none" xmlns="http://www.w3.org/2000/svg">
<path d="M23.7959 202.567C10.9927 199.136 3.3947 185.976 6.8253 173.173L45.5834 28.5258C49.5011 13.9046 65.8106 6.51697 79.385 13.2147L443.311 192.778C453.577 197.844 458.837 209.455 455.874 220.513L437.628 288.606C434.198 301.409 421.038 309.007 408.234 305.577L23.7959 202.567Z" fill="#89CBD7" style="mix-blend-mode:multiply"/>
<path d="M96.6954 318.53H83.6095L68.3751 300.122L63.7853 304.81V318.53H53.6779V273.023H63.7853V292.31L81.9982 273.023H95.8654L74.8693 293.921L96.6954 318.53ZM150.992 273.023L131.363 327.417C129.899 331.356 127.766 334.074 124.967 335.571C122.167 337.069 118.831 337.817 114.957 337.817C113.623 337.817 112.19 337.687 110.66 337.427C109.13 337.166 107.535 336.727 105.875 336.108L107.975 326.831C109.374 327.352 110.66 327.71 111.832 327.905C113.004 328.133 114.046 328.247 114.957 328.247C117.984 328.247 120.052 326.88 121.158 324.146L122.965 319.751L105.582 273.023H116.08L128.58 307.446L140.152 273.023H150.992ZM162.858 273.023H172.965V277.124C174.886 275.399 176.822 274.113 178.776 273.267C180.761 272.388 183.024 271.948 185.563 271.948C188.492 271.948 191.21 272.551 193.717 273.755C196.223 274.927 198.372 276.571 200.162 278.687C201.953 280.77 203.369 283.293 204.41 286.255C205.452 289.185 205.973 292.375 205.973 295.825C205.973 299.308 205.452 302.515 204.41 305.444C203.369 308.374 201.953 310.897 200.162 313.013C198.372 315.096 196.223 316.724 193.717 317.896C191.21 319.067 188.492 319.653 185.563 319.653C183.024 319.653 180.761 319.198 178.776 318.286C176.822 317.375 174.886 316.056 172.965 314.331V336.743H162.858V273.023ZM172.965 306.323C174.169 307.658 175.699 308.7 177.555 309.448C179.443 310.164 181.249 310.523 182.975 310.523C186.783 310.523 189.876 309.172 192.252 306.47C194.661 303.768 195.865 300.22 195.865 295.825C195.865 291.431 194.661 287.866 192.252 285.132C189.876 282.398 186.783 281.03 182.975 281.03C181.249 281.03 179.443 281.388 177.555 282.105C175.699 282.788 174.169 283.797 172.965 285.132V306.323ZM258.854 312.036C255.924 314.966 252.832 316.968 249.576 318.042C246.354 319.116 242.854 319.653 239.078 319.653C235.27 319.653 231.803 319.084 228.678 317.944C225.585 316.805 222.949 315.21 220.768 313.159C218.619 311.076 216.959 308.569 215.787 305.64C214.648 302.71 214.078 299.439 214.078 295.825C214.078 292.375 214.648 289.185 215.787 286.255C216.959 283.293 218.522 280.77 220.475 278.687C222.46 276.571 224.788 274.927 227.457 273.755C230.126 272.551 232.958 271.948 235.953 271.948C239.078 271.948 241.796 272.599 244.108 273.901C246.419 275.204 248.095 277.108 249.137 279.614V273.023H258.17V294.214H249.137C249.137 290.21 248.03 287.02 245.817 284.644C243.636 282.235 240.787 281.03 237.272 281.03C235.872 281.03 234.391 281.323 232.828 281.909C231.298 282.463 229.882 283.342 228.58 284.546C227.311 285.75 226.253 287.28 225.406 289.136C224.56 290.991 224.137 293.221 224.137 295.825C224.137 298.364 224.544 300.562 225.358 302.417C226.171 304.24 227.229 305.754 228.531 306.958C229.866 308.13 231.429 309.025 233.219 309.644C235.042 310.23 236.914 310.523 238.834 310.523C242.122 310.523 244.97 310.018 247.379 309.009C249.82 307.967 251.92 306.6 253.678 304.907L258.854 312.036ZM300.553 304.517C300.553 309.139 299.088 312.638 296.158 315.015C293.229 317.358 289.127 318.53 283.854 318.53H268.668V273.023H278.727V290.649H283.951C289.16 290.649 293.229 291.805 296.158 294.116C299.088 296.395 300.553 299.862 300.553 304.517ZM290.445 304.614C290.445 302.954 289.859 301.733 288.688 300.952C287.516 300.138 285.937 299.732 283.951 299.732H278.727V309.448H283.951C285.937 309.448 287.516 309.041 288.688 308.228C289.859 307.414 290.445 306.209 290.445 304.614ZM306.022 273.023H316.129V318.53H306.022V273.023ZM370.914 290.942C370.393 293.319 369.645 295.76 368.668 298.267C367.724 300.773 366.487 303.198 364.957 305.542L372.623 312.622L366.324 319.849L359.049 312.72C356.705 314.868 354.134 316.561 351.334 317.798C348.535 319.035 345.442 319.653 342.057 319.653C339.387 319.653 336.881 319.198 334.537 318.286C332.193 317.375 330.175 316.138 328.483 314.575C326.79 313.013 325.455 311.19 324.479 309.107C323.502 306.991 323.014 304.696 323.014 302.222C323.014 297.957 323.795 294.474 325.358 291.773C326.953 289.071 328.841 286.76 331.022 284.839C329.166 282.495 327.734 280.151 326.725 277.808C325.716 275.431 325.211 272.876 325.211 270.142C325.211 267.668 325.651 265.422 326.529 263.403C327.408 261.353 328.564 259.611 329.996 258.179C331.429 256.746 333.105 255.656 335.026 254.907C336.979 254.126 339.046 253.735 341.227 253.735C343.44 253.735 345.507 254.077 347.428 254.761C349.381 255.412 351.074 256.356 352.506 257.593C353.938 258.83 355.045 260.327 355.826 262.085C356.64 263.843 357.047 265.861 357.047 268.14C357.047 270.321 356.656 272.29 355.875 274.048C355.126 275.773 354.134 277.336 352.897 278.735C351.66 280.135 350.276 281.421 348.746 282.593C347.216 283.765 345.686 284.871 344.156 285.913L358.024 299.048C358.837 297.42 359.537 295.728 360.123 293.97C360.742 292.212 361.279 290.438 361.734 288.648L370.914 290.942ZM342.74 310.523C344.661 310.523 346.435 310.164 348.063 309.448C349.723 308.7 351.253 307.69 352.652 306.421L337.32 291.528H337.223C336.018 292.798 335.026 294.214 334.244 295.776C333.496 297.339 333.121 299.097 333.121 301.05C333.121 303.849 334.033 306.128 335.856 307.886C337.711 309.644 340.006 310.523 342.74 310.523ZM335.318 270.142C335.318 271.932 335.481 273.543 335.807 274.976C336.165 276.408 336.946 277.954 338.151 279.614C339.355 278.833 340.478 278.052 341.52 277.271C342.594 276.457 343.522 275.578 344.303 274.634C345.117 273.69 345.751 272.681 346.207 271.607C346.695 270.5 346.94 269.279 346.94 267.944C346.94 266.414 346.419 265.177 345.377 264.233C344.335 263.289 343.082 262.817 341.617 262.817C339.697 262.817 338.167 263.517 337.027 264.917C335.888 266.317 335.318 268.058 335.318 270.142ZM96.6954 378.53H83.6095L68.3751 360.122L63.7853 364.81V378.53H53.6779V333.023H63.7853L63.7853 352.31L81.9982 333.023H95.8654L74.8693 353.921L96.6954 378.53ZM148.99 378.53H138.883V359.732H118.375V378.53H108.268V333.023H118.375V350.649H138.883V333.023H148.99V378.53ZM162.858 333.023H172.965V364.321L190.885 333.023H203.58V378.53H193.473V345.425L174.576 378.53H162.858V333.023ZM217.447 333.023H260.563V341.519H227.555V378.53H217.447V333.023ZM272.037 333.023H282.145V364.321L300.065 333.023H312.76V378.53H302.652V345.425L283.756 378.53H272.037V333.023Z" fill="#242938"/>
</svg>
