<svg width="12" height="22" viewBox="0 0 12 22" fill="none" xmlns="http://www.w3.org/2000/svg">
<path d="M9.22523 5.28306C10.7307 5.26398 11.1812 5.28268 11.1854 5.28268C11.2502 5.28802 11.3186 5.25939 11.3679 5.2094C11.4175 5.15942 11.4461 5.08996 11.4482 5.01669L11.5401 1.29779C11.5401 1.02645 11.5401 1.02645 10.6145 1.01234L10.5239 1.01081C10.3129 1.00814 10.1002 1.00204 9.88638 0.995548C8.90118 0.966545 7.88356 0.9364 6.91562 1.2436C5.91105 1.56263 5.09879 2.17705 4.56656 3.02082C3.99136 3.93289 3.6747 5.16476 3.6747 6.48938V9.11798H0.802218C0.6652 9.11798 0.553192 9.23667 0.549664 9.38512L0.460199 13.4002C0.458792 13.4734 0.484502 13.5444 0.531701 13.5971C0.578901 13.6497 0.643711 13.6799 0.71134 13.6803L3.64229 13.6978L3.7374 21.7298C3.73916 21.8794 3.85188 22 3.98996 22H7.61517C7.75359 22 7.86631 21.879 7.86772 21.729L7.94521 13.6803H10.6867C10.8128 13.6803 10.9191 13.5795 10.9367 13.4444L11.4457 9.49731C11.4556 9.41985 11.4345 9.34123 11.3876 9.2817C11.3408 9.22217 11.2724 9.18743 11.2002 9.18591L7.93147 9.12294L7.94802 6.30581C7.94802 6.20277 7.98465 5.29871 9.22523 5.28306Z" fill="#DBDADA"/>
</svg>
