<svg width="342" height="1471" viewBox="0 0 342 1471" fill="none" xmlns="http://www.w3.org/2000/svg">
<path d="M262.031 827.555C262.57 828.519 262.225 829.737 261.261 830.276L245.55 839.06C244.586 839.599 243.367 839.254 242.828 838.29C242.289 837.326 242.634 836.107 243.598 835.568L257.564 827.761L249.756 813.795C249.217 812.831 249.562 811.612 250.526 811.073C251.49 810.534 252.708 810.879 253.247 811.843L262.031 827.555ZM12.2853 680.53C14.0425 679.575 14.0421 679.575 14.0418 679.574C14.0419 679.574 14.0419 679.574 14.0422 679.575C14.0428 679.576 14.0443 679.579 14.0464 679.583C14.0508 679.591 14.0583 679.604 14.0689 679.623C14.0901 679.661 14.1238 679.721 14.1704 679.802C14.2636 679.965 14.4084 680.214 14.6079 680.545C15.0067 681.206 15.6239 682.196 16.4834 683.482C18.2023 686.054 20.8904 689.815 24.7388 694.513C32.4351 703.909 44.775 717.062 63.2898 731.973C100.315 761.792 162.069 798.674 260.83 826.606L259.741 830.455C160.502 802.387 98.2559 765.269 60.7808 735.088C42.0456 719.999 29.5105 706.652 21.6443 697.048C17.7114 692.246 14.9464 688.381 13.1575 685.704C12.263 684.365 11.6127 683.324 11.1824 682.61C10.9673 682.253 10.8072 681.979 10.6991 681.79C10.6451 681.695 10.6041 681.623 10.5757 681.572C10.5615 681.546 10.5504 681.526 10.5425 681.512C10.5386 681.505 10.5354 681.499 10.533 681.495C10.5318 681.492 10.5305 681.49 10.5299 681.489C10.5289 681.487 10.528 681.485 12.2853 680.53Z" fill="black"/>
<path d="M143.54 136.501C143.226 137.56 142.112 138.163 141.053 137.849L123.799 132.722C122.74 132.407 122.137 131.294 122.452 130.235C122.766 129.176 123.88 128.573 124.938 128.888L140.276 133.445L144.833 118.108C145.148 117.049 146.261 116.446 147.32 116.76C148.379 117.075 148.982 118.188 148.667 119.247L143.54 136.501ZM170.892 1.99999C171.875 3.74194 171.876 3.74156 171.876 3.74134C171.876 3.7415 171.876 3.74145 171.875 3.74175C171.874 3.74235 171.872 3.74362 171.869 3.74556C171.862 3.74944 171.85 3.75598 171.834 3.7652C171.802 3.78363 171.752 3.81273 171.685 3.85252C171.549 3.9321 171.345 4.05438 171.076 4.21942C170.54 4.54954 169.75 5.0505 168.757 5.72268C166.769 7.06742 163.971 9.0951 160.756 11.8084C154.322 17.2401 146.259 25.3896 139.697 36.274C126.647 57.9202 119.361 90.648 143.382 134.979L139.865 136.885C115.156 91.2836 122.504 57.0455 136.271 34.2088C143.118 22.8518 151.509 14.3806 158.176 8.75189C161.513 5.93503 164.427 3.82263 166.515 2.40984C167.559 1.70325 168.398 1.17107 168.98 0.812745C169.271 0.633565 169.498 0.497802 169.655 0.405387C169.734 0.359177 169.795 0.323799 169.838 0.299245C169.859 0.286968 169.876 0.277396 169.888 0.270528C169.894 0.267094 169.899 0.264336 169.902 0.262254C169.904 0.261214 169.906 0.260158 169.907 0.259638C169.908 0.258752 169.91 0.258035 170.892 1.99999Z" fill="#242938"/>
<path d="M320.463 1469.34C320.778 1470.4 321.891 1471 322.95 1470.69L340.204 1465.56C341.263 1465.24 341.866 1464.13 341.552 1463.07C341.237 1462.01 340.124 1461.41 339.065 1461.72L323.728 1466.28L319.17 1450.94C318.856 1449.89 317.742 1449.28 316.683 1449.6C315.625 1449.91 315.021 1451.02 315.336 1452.08L320.463 1469.34ZM293.111 1334.84C292.128 1336.58 292.128 1336.58 292.127 1336.58C292.128 1336.58 292.127 1336.58 292.128 1336.58C292.129 1336.58 292.131 1336.58 292.135 1336.58C292.142 1336.59 292.153 1336.59 292.169 1336.6C292.201 1336.62 292.251 1336.65 292.319 1336.69C292.454 1336.77 292.659 1336.89 292.927 1337.06C293.463 1337.39 294.253 1337.89 295.247 1338.56C297.234 1339.9 300.033 1341.93 303.247 1344.64C309.681 1350.08 317.745 1358.23 324.306 1369.11C337.356 1390.76 344.642 1423.48 320.622 1467.82L324.139 1469.72C348.848 1424.12 341.499 1389.88 327.732 1367.05C320.885 1355.69 312.495 1347.22 305.827 1341.59C302.49 1338.77 299.576 1336.66 297.488 1335.25C296.444 1334.54 295.606 1334.01 295.023 1333.65C294.732 1333.47 294.505 1333.33 294.348 1333.24C294.269 1333.2 294.208 1333.16 294.166 1333.14C294.144 1333.12 294.128 1333.11 294.116 1333.11C294.11 1333.1 294.105 1333.1 294.101 1333.1C294.099 1333.1 294.097 1333.1 294.097 1333.1C294.095 1333.1 294.094 1333.09 293.111 1334.84Z" fill="black"/>
<path d="M90.4479 1164.87C91.1445 1165.73 92.4041 1165.86 93.2613 1165.17L107.231 1153.81C108.088 1153.12 108.219 1151.86 107.522 1151C106.826 1150.14 105.566 1150.01 104.709 1150.71L92.2911 1160.8L82.2014 1148.38C81.5049 1147.52 80.2453 1147.39 79.388 1148.09C78.5307 1148.79 78.4005 1150.05 79.097 1150.9L90.4479 1164.87ZM305.996 999.109C320.98 1018.98 328.872 1034.54 331.409 1046.76C333.918 1058.85 331.189 1067.62 324.857 1074.29C318.399 1081.09 308 1085.91 294.775 1089.51C281.589 1093.09 265.865 1095.39 249.001 1097.3C215.414 1101.12 177.255 1103.44 146.905 1111.72C116.579 1120 92.9988 1134.52 90.0107 1163.41L93.9895 1163.82C96.7052 1137.56 117.977 1123.76 147.958 1115.58C177.914 1107.41 215.517 1105.14 249.453 1101.28C266.351 1099.36 282.329 1097.04 295.824 1093.37C309.279 1089.71 320.539 1084.64 327.758 1077.04C335.102 1069.31 338.067 1059.16 335.325 1045.95C332.611 1032.87 324.307 1016.75 309.19 996.701L305.996 999.109Z" fill="black"/>
<path d="M162.479 439.27C162.57 438.161 161.757 437.192 160.664 437.105C159.571 437.019 158.611 437.847 158.521 438.956L162.479 439.27ZM30.5052 599.212C29.7831 600.052 29.867 601.324 30.6927 602.052L44.148 613.92C44.9737 614.649 46.2284 614.557 46.9505 613.717C47.6726 612.876 47.5887 611.604 46.763 610.876L34.8027 600.327L45.2628 588.151C45.9849 587.31 45.9009 586.039 45.0752 585.31C44.2495 584.582 42.9948 584.673 42.2727 585.514L30.5052 599.212ZM160.5 439.113C158.521 438.956 158.521 438.956 158.521 438.956C158.52 438.957 158.52 438.958 158.52 438.96C158.52 438.964 158.519 438.97 158.519 438.978C158.517 438.994 158.515 439.02 158.512 439.055C158.506 439.124 158.497 439.23 158.483 439.371C158.457 439.652 158.416 440.073 158.357 440.626C158.239 441.731 158.05 443.359 157.769 445.439C157.206 449.599 156.272 455.562 154.79 462.747C151.826 477.127 146.677 496.363 137.943 515.839C120.465 554.813 88.8279 594.389 31.8676 598.522L32.1328 602.539C91.1722 598.255 123.785 557.122 141.557 517.492C150.448 497.665 155.674 478.125 158.678 463.554C160.181 456.264 161.13 450.208 161.704 445.968C161.991 443.848 162.184 442.181 162.306 441.041C162.367 440.471 162.41 440.032 162.438 439.734C162.452 439.584 162.462 439.471 162.469 439.393C162.472 439.354 162.475 439.324 162.476 439.304C162.477 439.293 162.478 439.286 162.478 439.28C162.479 439.277 162.479 439.275 162.479 439.273C162.479 439.271 162.479 439.27 160.5 439.113Z" fill="black"/>
</svg>
