<svg width="364" height="1451" viewBox="0 0 364 1451" fill="none" xmlns="http://www.w3.org/2000/svg">
<path d="M152.613 59.6759C152.157 59.0615 151.29 58.9323 150.676 59.3875C150.061 59.8426 149.932 60.7097 150.387 61.3241L152.613 59.6759ZM110.886 127.462L110.291 126.212L110.886 127.462ZM94.8177 125.714L93.7468 126.592L93.8215 126.683L93.9105 126.76L94.8177 125.714ZM37.2135 159.354C37.9615 159.513 38.6963 159.035 38.8548 158.287L41.4365 146.097C41.595 145.349 41.117 144.614 40.369 144.455C39.6209 144.297 38.8861 144.775 38.7276 145.523L36.4327 156.359L25.5971 154.064C24.849 153.905 24.1142 154.383 23.9558 155.131C23.7973 155.879 24.2753 156.614 25.0234 156.773L37.2135 159.354ZM37.0456 154.498C36.6886 153.822 35.8511 153.563 35.1749 153.92C34.4986 154.277 34.2399 155.115 34.5968 155.791L37.0456 154.498ZM32.4034 150.736C32.6523 151.459 33.4402 151.843 34.1632 151.594C34.8862 151.345 35.2705 150.557 35.0216 149.834L32.4034 150.736ZM33.5698 143.677C33.4703 142.919 32.775 142.385 32.0169 142.484C31.2588 142.584 30.7248 143.279 30.8243 144.037L33.5698 143.677ZM30.5536 138.534C30.5291 139.298 31.1287 139.937 31.893 139.962C32.6572 139.986 33.2967 139.387 33.3212 138.622L30.5536 138.534ZM34.1602 132.349C34.3368 131.605 33.8769 130.858 33.133 130.682C32.389 130.505 31.6427 130.965 31.4661 131.709L34.1602 132.349ZM33.1582 126.469C32.8666 127.176 33.2032 127.985 33.9101 128.277C34.6169 128.568 35.4263 128.232 35.7179 127.525L33.1582 126.469ZM38.6982 121.933C39.1226 121.297 38.951 120.437 38.3149 120.013C37.6788 119.589 36.8192 119.76 36.3948 120.396L38.6982 121.933ZM39.8092 116.071C39.2887 116.631 39.3207 117.507 39.8808 118.028C40.4409 118.548 41.3169 118.516 41.8375 117.956L39.8092 116.071ZM46.5936 113.798C47.2191 113.358 47.3695 112.495 46.9297 111.869C46.4898 111.244 45.6262 111.093 45.0007 111.533L46.5936 113.798ZM49.7854 108.759C49.0925 109.082 48.7931 109.906 49.1165 110.599C49.44 111.292 50.2639 111.591 50.9567 111.268L49.7854 108.759ZM56.9162 109.275C57.6645 109.117 58.1435 108.383 57.986 107.635C57.8286 106.887 57.0944 106.408 56.3461 106.565L56.9162 109.275ZM61.8539 105.931C61.0894 105.948 60.4836 106.582 60.5008 107.346C60.518 108.111 61.1516 108.716 61.9161 108.699L61.8539 105.931ZM68.1883 109.259C68.9381 109.409 69.6674 108.923 69.8172 108.173C69.9671 107.423 69.4807 106.694 68.7309 106.544L68.1883 109.259ZM74.0233 108.054C73.3064 107.787 72.5096 108.153 72.2434 108.87C71.9772 109.586 72.3425 110.383 73.0594 110.649L74.0233 108.054ZM78.8074 113.379C79.4687 113.763 80.3159 113.538 80.6998 112.877C81.0836 112.216 80.8587 111.369 80.1974 110.985L78.8074 113.379ZM84.7485 113.998C84.1356 113.541 83.2681 113.667 82.811 114.28C82.3538 114.893 82.4801 115.761 83.0931 116.218L84.7485 113.998ZM88.0073 120.379C88.5614 120.906 89.4378 120.884 89.9647 120.33C90.4916 119.775 90.4695 118.899 89.9154 118.372L88.0073 120.379ZM93.6697 122.246C93.1593 121.677 92.284 121.629 91.7146 122.14C91.1453 122.65 91.0975 123.525 91.608 124.095L93.6697 122.246ZM96.3838 129.001C96.9382 129.527 97.8146 129.505 98.3411 128.95C98.8676 128.396 98.845 127.52 98.2905 126.993L96.3838 129.001ZM102.043 130.898C101.543 130.32 100.669 130.256 100.09 130.755C99.5115 131.255 99.4475 132.129 99.9473 132.708L102.043 130.898ZM103.59 137.914C103.939 138.594 104.773 138.863 105.454 138.513C106.134 138.164 106.402 137.33 106.053 136.65L103.59 137.914ZM107.663 142.335C107.649 141.571 107.019 140.962 106.254 140.975C105.49 140.989 104.881 141.619 104.894 142.384L107.663 142.335ZM102.519 146.828C101.883 147.253 101.712 148.113 102.137 148.748C102.563 149.384 103.422 149.554 104.058 149.129L102.519 146.828ZM98.3995 151.03C99.1607 150.959 99.7198 150.284 99.6482 149.522C99.5767 148.761 98.9015 148.202 98.1402 148.274L98.3995 151.03ZM92.5512 147.225C91.9031 146.819 91.0488 147.016 90.643 147.664C90.2372 148.312 90.4336 149.166 91.0816 149.572L92.5512 147.225ZM88.4146 143.597C88.2572 144.345 88.7363 145.079 89.4846 145.237C90.2328 145.394 90.967 144.915 91.1243 144.167L88.4146 143.597ZM94.3562 139.381C94.9071 138.851 94.9237 137.974 94.3934 137.423C93.8631 136.872 92.9867 136.856 92.4358 137.386L94.3562 139.381ZM96.7029 133.91C96.0795 134.353 95.933 135.217 96.3757 135.84C96.8184 136.464 97.6827 136.61 98.3062 136.167L96.7029 133.91ZM103.807 132.692C104.471 132.313 104.701 131.467 104.322 130.803C103.943 130.139 103.097 129.909 102.433 130.288L103.807 132.692ZM107.186 127.737C106.503 128.082 106.231 128.915 106.577 129.597C106.922 130.279 107.755 130.552 108.437 130.206L107.186 127.737ZM114.211 127.481C114.914 127.182 115.242 126.369 114.943 125.665C114.644 124.961 113.831 124.634 113.127 124.933L114.211 127.481ZM117.758 123.17C117.033 123.412 116.642 124.197 116.884 124.922C117.127 125.647 117.912 126.038 118.637 125.795L117.758 123.17ZM124.346 124.24C125.094 124.083 125.574 123.348 125.416 122.6C125.259 121.852 124.525 121.373 123.777 121.53L124.346 124.24ZM128.688 120.724C127.929 120.818 127.39 121.509 127.483 122.268C127.577 123.027 128.268 123.566 129.027 123.472L128.688 120.724ZM135.051 122.847C135.811 122.762 136.358 122.076 136.273 121.317C136.188 120.557 135.503 120.01 134.743 120.095L135.051 122.847ZM139.336 119.309C138.596 119.5 138.15 120.254 138.34 120.995C138.531 121.736 139.285 122.182 140.026 121.991L139.336 119.309ZM145.975 119.543C146.635 119.158 146.858 118.31 146.473 117.65C146.088 116.989 145.24 116.766 144.58 117.151L145.975 119.543ZM148.35 114.473C147.763 114.962 147.683 115.835 148.173 116.422C148.663 117.01 149.536 117.089 150.123 116.599L148.35 114.473ZM154.717 112.026C155.196 111.43 155.101 110.558 154.505 110.08C153.908 109.601 153.037 109.696 152.558 110.292L154.717 112.026ZM155.19 106.273C154.832 106.949 155.09 107.787 155.766 108.145C156.442 108.503 157.28 108.245 157.637 107.569L155.19 106.273ZM160.107 101.438C160.322 100.704 159.902 99.9346 159.168 99.7194C158.435 99.5042 157.665 99.9246 157.45 100.658L160.107 101.438ZM158.498 95.8867C158.383 96.6427 158.903 97.3487 159.659 97.4636C160.415 97.5786 161.121 97.059 161.236 96.303L158.498 95.8867ZM161.744 89.7882C161.75 89.0236 161.135 88.3985 160.371 88.3921C159.606 88.3857 158.981 89.0003 158.975 89.7649L161.744 89.7882ZM158.764 84.8357C158.835 85.5971 159.509 86.1572 160.271 86.0869C161.032 86.0165 161.592 85.3423 161.522 84.5809L158.764 84.8357ZM160.542 78.1526C160.383 77.4047 159.648 76.9274 158.9 77.0865C158.152 77.2456 157.674 77.9808 157.833 78.7288L160.542 78.1526ZM156.581 73.9459C156.809 74.6757 157.586 75.0822 158.316 74.8539C159.045 74.6257 159.452 73.849 159.224 73.1193L156.581 73.9459ZM156.9 67.0364C156.582 66.3412 155.76 66.0356 155.065 66.3539C154.369 66.6722 154.064 67.4939 154.382 68.1891L156.9 67.0364ZM152.087 63.8526C152.485 64.5052 153.337 64.711 153.99 64.3125C154.642 63.9139 154.848 63.0618 154.45 62.4092L152.087 63.8526ZM38.6609 157.245C38.0703 156.337 37.5325 155.421 37.0456 154.498L34.5968 155.791C35.1233 156.788 35.7037 157.777 36.3397 158.755L38.6609 157.245ZM35.0216 149.834C34.3166 147.787 33.8387 145.726 33.5698 143.677L30.8243 144.037C31.1173 146.269 31.6375 148.511 32.4034 150.736L35.0216 149.834ZM33.3212 138.622C33.3898 136.488 33.6763 134.387 34.1602 132.349L31.4661 131.709C30.9401 133.925 30.6283 136.21 30.5536 138.534L33.3212 138.622ZM35.7179 127.525C36.5291 125.558 37.53 123.684 38.6982 121.933L36.3948 120.396C35.1258 122.298 34.0389 124.334 33.1582 126.469L35.7179 127.525ZM41.8375 117.956C43.2792 116.405 44.8726 115.008 46.5936 113.798L45.0007 111.533C43.1178 112.857 41.3791 114.382 39.8092 116.071L41.8375 117.956ZM50.9567 111.268C52.844 110.387 54.8379 109.712 56.9162 109.275L56.3461 106.565C54.0549 107.047 51.8597 107.79 49.7854 108.759L50.9567 111.268ZM61.9161 108.699C63.9498 108.653 66.0461 108.831 68.1883 109.259L68.7309 106.544C66.3917 106.076 64.0926 105.881 61.8539 105.931L61.9161 108.699ZM73.0594 110.649C74.952 111.352 76.8718 112.256 78.8074 113.379L80.1974 110.985C78.1317 109.786 76.0697 108.813 74.0233 108.054L73.0594 110.649ZM83.0931 116.218C84.7283 117.437 86.3688 118.821 88.0073 120.379L89.9154 118.372C88.2012 116.742 86.4767 115.287 84.7485 113.998L83.0931 116.218ZM91.608 124.095C92.3225 124.892 93.0357 125.724 93.7468 126.592L95.8886 124.837C95.1522 123.938 94.4124 123.075 93.6697 122.246L91.608 124.095ZM93.9105 126.76C94.7968 127.529 95.6201 128.276 96.3838 129.001L98.2905 126.993C97.4947 126.237 96.6404 125.462 95.7249 124.668L93.9105 126.76ZM99.9473 132.708C101.624 134.65 102.804 136.383 103.59 137.914L106.053 136.65C105.144 134.88 103.828 132.965 102.043 130.898L99.9473 132.708ZM104.894 142.384C104.93 144.402 103.991 145.843 102.519 146.828L104.058 149.129C106.199 147.698 107.717 145.425 107.663 142.335L104.894 142.384ZM98.1402 148.274C95.9718 148.478 93.8871 148.062 92.5512 147.225L91.0816 149.572C93.0705 150.818 95.8095 151.274 98.3995 151.03L98.1402 148.274ZM91.1243 144.167C91.369 143.003 92.2607 141.398 94.3562 139.381L92.4358 137.386C90.1478 139.589 88.8211 141.663 88.4146 143.597L91.1243 144.167ZM98.3062 136.167C99.8478 135.073 101.67 133.913 103.807 132.692L102.433 130.288C100.231 131.546 98.3302 132.754 96.7029 133.91L98.3062 136.167ZM108.437 130.206C109.404 129.716 110.418 129.218 111.481 128.712L110.291 126.212C109.208 126.727 108.174 127.236 107.186 127.737L108.437 130.206ZM111.481 128.712C112.422 128.264 113.331 127.855 114.211 127.481L113.127 124.933C112.211 125.322 111.266 125.747 110.291 126.212L111.481 128.712ZM118.637 125.795C120.704 125.103 122.594 124.608 124.346 124.24L123.777 121.53C121.925 121.919 119.931 122.442 117.758 123.17L118.637 125.795ZM129.027 123.472C131.229 123.2 133.059 123.07 135.051 122.847L134.743 120.095C132.961 120.295 130.834 120.459 128.688 120.724L129.027 123.472ZM140.026 121.991C141.971 121.491 143.92 120.742 145.975 119.543L144.58 117.151C142.762 118.211 141.053 118.868 139.336 119.309L140.026 121.991ZM150.123 116.599C150.882 115.966 151.66 115.268 152.46 114.497L150.54 112.503C149.783 113.232 149.054 113.885 148.35 114.473L150.123 116.599ZM152.46 114.497C153.271 113.717 154.022 112.891 154.717 112.026L152.558 110.292C151.935 111.068 151.263 111.806 150.54 112.503L152.46 114.497ZM157.637 107.569C158.664 105.631 159.481 103.573 160.107 101.438L157.45 100.658C156.872 102.631 156.122 104.514 155.19 106.273L157.637 107.569ZM161.236 96.303C161.561 94.1656 161.725 91.9826 161.744 89.7882L158.975 89.7649C158.957 91.8374 158.802 93.8886 158.498 95.8867L161.236 96.303ZM161.522 84.5809C161.322 82.4162 160.991 80.2627 160.542 78.1526L157.833 78.7288C158.26 80.7354 158.575 82.7815 158.764 84.8357L161.522 84.5809ZM159.224 73.1193C158.563 71.0073 157.784 68.9674 156.9 67.0364L154.382 68.1891C155.216 70.0096 155.954 71.9403 156.581 73.9459L159.224 73.1193ZM154.45 62.4092C153.866 61.4542 153.253 60.5409 152.613 59.6759L150.387 61.3241C150.976 62.1189 151.544 62.9636 152.087 63.8526L154.45 62.4092Z" fill="#E4E4E4"/>
<path d="M188.456 75.6053C188.956 75.0193 189.828 74.9448 190.404 75.4389C190.981 75.933 191.043 76.8087 190.543 77.3947L188.456 75.6053ZM182.846 248.295C182.673 249.044 181.931 249.519 181.188 249.356L169.08 246.7C168.337 246.537 167.875 245.798 168.047 245.049C168.22 244.3 168.962 243.825 169.705 243.988L180.467 246.349L182.964 235.499C183.136 234.75 183.879 234.275 184.622 234.438C185.365 234.601 185.827 235.34 185.655 236.089L182.846 248.295ZM189.5 76.5C190.543 77.3947 190.543 77.3945 190.543 77.3945C190.543 77.3949 190.543 77.3953 190.542 77.3961C190.541 77.3977 190.538 77.4006 190.535 77.4046C190.528 77.4126 190.517 77.4254 190.503 77.4428C190.473 77.4777 190.429 77.5313 190.369 77.6035C190.25 77.7477 190.072 77.9661 189.841 78.2566C189.379 78.8375 188.704 79.707 187.863 80.8496C186.181 83.1351 183.836 86.5121 181.2 90.8588C175.927 99.5547 169.499 112.116 164.885 127.57C155.666 158.444 153.668 200.893 182.672 247.25L180.328 248.75C150.832 201.607 152.834 158.306 162.24 126.805C166.938 111.071 173.479 98.289 178.847 89.438C181.531 85.0113 183.924 81.5641 185.65 79.2187C186.513 78.0459 187.21 77.1483 187.693 76.541C187.935 76.2374 188.123 76.0063 188.252 75.8497C188.317 75.7715 188.366 75.7118 188.401 75.671C188.418 75.6505 188.431 75.6348 188.44 75.6239C188.445 75.6184 188.449 75.6141 188.451 75.611C188.453 75.6095 188.454 75.608 188.454 75.6073C188.455 75.6061 188.456 75.6053 189.5 76.5Z" fill="#242938"/>
<path d="M69.0126 399.945C69.5344 399.386 69.5042 398.51 68.9453 397.988C68.3863 397.466 67.5102 397.496 66.9885 398.055L69.0126 399.945ZM46.8749 504.67L46.4363 505.983L46.8749 504.67ZM57.5716 585.507C58.3237 585.369 58.822 584.648 58.6844 583.896L56.4429 571.639C56.3054 570.887 55.5841 570.388 54.8319 570.526C54.0798 570.663 53.5815 571.385 53.7191 572.137L55.7115 583.032L44.8162 585.025C44.0641 585.162 43.5658 585.883 43.7034 586.636C43.8409 587.388 44.5622 587.886 45.3143 587.748L57.5716 585.507ZM55.4837 581.059C54.885 580.583 54.014 580.683 53.5384 581.282C53.0627 581.88 53.1625 582.751 53.7612 583.227L55.4837 581.059ZM49.6281 579.576C50.1743 580.111 51.0509 580.102 51.586 579.555C52.1211 579.009 52.112 578.133 51.5658 577.597L49.6281 579.576ZM47.1839 572.739C46.7069 572.142 45.8357 572.044 45.2381 572.521C44.6405 572.998 44.5428 573.869 45.0198 574.467L47.1839 572.739ZM41.7898 570.016C42.2107 570.654 43.0694 570.831 43.7078 570.41C44.3462 569.989 44.5225 569.13 44.1016 568.492L41.7898 570.016ZM40.7826 562.823C40.4309 562.144 39.5954 561.879 38.9164 562.231C38.2375 562.582 37.9723 563.418 38.324 564.097L40.7826 562.823ZM35.9958 559.134C36.2936 559.838 37.106 560.168 37.8102 559.87C38.5145 559.572 38.844 558.76 38.5462 558.056L35.9958 559.134ZM36.2635 551.874C36.0314 551.145 35.2527 550.743 34.5241 550.975C33.7955 551.207 33.393 551.986 33.6251 552.714L36.2635 551.874ZM32.1507 547.449C32.3309 548.192 33.0794 548.648 33.8225 548.468C34.5656 548.288 35.0219 547.539 34.8416 546.796L32.1507 547.449ZM33.5668 540.322C33.452 539.566 32.746 539.047 31.99 539.162C31.2341 539.276 30.7144 539.982 30.8292 540.738L33.5668 540.322ZM30.1999 535.3C30.2603 536.062 30.9272 536.631 31.6894 536.571C32.4517 536.51 33.0206 535.843 32.9602 535.081L30.1999 535.3ZM32.7539 528.502C32.7681 527.737 32.1598 527.106 31.3953 527.092C30.6308 527.078 29.9996 527.686 29.9854 528.45L32.7539 528.502ZM30.3296 522.971C30.2459 523.731 30.7943 524.415 31.5543 524.498C32.3144 524.582 32.9983 524.034 33.082 523.274L30.3296 522.971ZM34.2472 516.861C34.4434 516.122 34.0033 515.363 33.2642 515.167C32.5252 514.971 31.7671 515.411 31.5709 516.15L34.2472 516.861ZM33.465 510.862C33.1379 511.553 33.4331 512.378 34.1242 512.705C34.8154 513.033 35.6408 512.737 35.9679 512.046L33.465 510.862ZM39.5278 507.163C40.1196 506.678 40.2069 505.806 39.7227 505.214C39.2386 504.622 38.3663 504.535 37.7745 505.019L39.5278 507.163ZM43.509 502.775C42.7449 502.803 42.1487 503.446 42.1774 504.21C42.206 504.974 42.8487 505.57 43.6128 505.542L43.509 502.775ZM49.3998 507.216C50.0766 507.571 50.9137 507.311 51.2694 506.634C51.6251 505.957 51.3647 505.12 50.6879 504.765L49.3998 507.216ZM55.1441 509.416C54.9422 508.679 54.1807 508.245 53.4432 508.447C52.7057 508.649 52.2715 509.41 52.4734 510.148L55.1441 509.416ZM49.825 514.106C49.1763 514.511 48.9784 515.365 49.3831 516.014C49.7878 516.663 50.6418 516.861 51.2905 516.456L49.825 514.106ZM45.8618 518.71C46.6011 518.515 47.0424 517.757 46.8475 517.018C46.6525 516.278 45.8951 515.837 45.1557 516.032L45.8618 518.71ZM38.7091 516.871C37.9445 516.879 37.3315 517.506 37.3399 518.27C37.3482 519.035 37.9749 519.648 38.7395 519.639L38.7091 516.871ZM33.0355 519.196C33.7898 519.322 34.5031 518.813 34.6288 518.058C34.7545 517.304 34.2449 516.591 33.4907 516.465L33.0355 519.196ZM27.1916 514.691C26.4828 514.404 25.6756 514.746 25.3888 515.454C25.1019 516.163 25.4439 516.97 26.1527 517.257L27.1916 514.691ZM21.0644 514.655C21.7119 515.061 22.5665 514.866 22.9732 514.219C23.3798 513.571 23.1845 512.716 22.537 512.31L21.0644 514.655ZM17.6879 508.304C17.1989 507.717 16.3259 507.637 15.7381 508.126C15.1503 508.615 15.0702 509.488 15.5592 510.075L17.6879 508.304ZM12.6657 505.154C12.9473 505.864 13.7519 506.212 14.4628 505.931C15.1736 505.649 15.5216 504.845 15.24 504.134L12.6657 505.154ZM13.8889 498.089C13.824 497.327 13.1537 496.762 12.3918 496.827C11.6299 496.892 11.065 497.562 11.1299 498.324L13.8889 498.089ZM11.1149 492.81C11.0609 493.573 11.6355 494.235 12.3982 494.289C13.1609 494.343 13.823 493.769 13.877 493.006L11.1149 492.81ZM14.7864 486.639C14.9414 485.89 14.4601 485.157 13.7113 485.002C12.9626 484.847 12.2299 485.329 12.0749 486.077L14.7864 486.639ZM13.3842 480.825C13.172 481.56 13.5955 482.328 14.3301 482.54C15.0647 482.752 15.8323 482.328 16.0444 481.594L13.3842 480.825ZM18.091 475.409C18.3565 474.692 17.9904 473.896 17.2733 473.63C16.5562 473.365 15.7597 473.731 15.4942 474.448L18.091 475.409ZM17.483 469.449C17.1843 470.153 17.5127 470.966 18.2166 471.265C18.9205 471.563 19.7332 471.235 20.0319 470.531L17.483 469.449ZM22.737 464.572C23.0691 463.884 22.7801 463.056 22.0913 462.724C21.4026 462.392 20.575 462.681 20.2429 463.369L22.737 464.572ZM22.6464 458.591C22.292 459.268 22.5539 460.105 23.2314 460.459C23.9089 460.814 24.7455 460.552 25.1 459.874L22.6464 458.591ZM28.2568 454.098C28.6351 453.434 28.403 452.588 27.7385 452.21C27.074 451.832 26.2286 452.064 25.8504 452.728L28.2568 454.098ZM28.5467 448.129C28.1518 448.784 28.3626 449.635 29.0174 450.03C29.6722 450.425 30.5231 450.214 30.918 449.559L28.5467 448.129ZM34.3985 443.971C34.8117 443.327 34.6251 442.471 33.9818 442.057C33.3384 441.644 32.4819 441.831 32.0686 442.474L34.3985 443.971ZM34.9962 438.02C34.5697 438.654 34.7385 439.515 35.3731 439.941C36.0078 440.368 36.868 440.199 37.2945 439.564L34.9962 438.02ZM41.0424 434.131C41.4841 433.507 41.3362 432.643 40.712 432.202C40.0878 431.76 39.2238 431.908 38.7821 432.532L41.0424 434.131ZM41.8977 428.213C41.4448 428.829 41.5771 429.696 42.1932 430.149C42.8093 430.601 43.6759 430.469 44.1288 429.853L41.8977 428.213ZM48.091 424.584C48.557 423.977 48.4433 423.108 47.8371 422.642C47.2309 422.176 46.3617 422.29 45.8957 422.896L48.091 424.584ZM49.1751 418.702C48.6992 419.3 48.7986 420.171 49.397 420.647C49.9955 421.123 50.8665 421.024 51.3424 420.425L49.1751 418.702ZM55.4989 415.305C55.9866 414.716 55.9046 413.843 55.3157 413.355C54.7268 412.867 53.8541 412.949 53.3663 413.538L55.4989 415.305ZM56.7935 409.466C56.2966 410.047 56.3651 410.921 56.9463 411.418C57.5275 411.914 58.4015 411.846 58.8983 411.265L56.7935 409.466ZM63.2338 406.29C63.7417 405.718 63.69 404.843 63.1183 404.335C62.5467 403.828 61.6716 403.879 61.1638 404.451L63.2338 406.29ZM64.7287 400.499C64.2122 401.063 64.2507 401.939 64.8145 402.455C65.3784 402.972 66.2542 402.933 66.7706 402.369L64.7287 400.499ZM58.1094 583.006C57.2077 582.383 56.3326 581.733 55.4837 581.059L53.7612 583.227C54.6578 583.939 55.5824 584.626 56.5356 585.284L58.1094 583.006ZM51.5658 577.597C50 576.064 48.5405 574.439 47.1839 572.739L45.0198 574.467C46.4436 576.25 47.9784 577.96 49.6281 579.576L51.5658 577.597ZM44.1016 568.492C42.893 566.659 41.7878 564.763 40.7826 562.823L38.324 564.097C39.3716 566.119 40.5255 568.098 41.7898 570.016L44.1016 568.492ZM38.5462 558.056C37.6852 556.019 36.9255 553.953 36.2635 551.874L33.6251 552.714C34.3119 554.871 35.1007 557.017 35.9958 559.134L38.5462 558.056ZM34.8416 546.796C34.3152 544.626 33.8917 542.461 33.5668 540.322L30.8292 540.738C31.1661 542.955 31.6051 545.199 32.1507 547.449L34.8416 546.796ZM32.9602 535.081C32.7814 532.824 32.7147 530.621 32.7539 528.502L29.9854 528.45C29.9444 530.663 30.0142 532.956 30.1999 535.3L32.9602 535.081ZM33.082 523.274C33.3358 520.967 33.7285 518.815 34.2472 516.861L31.5709 516.15C31.0124 518.254 30.5966 520.544 30.3296 522.971L33.082 523.274ZM35.9679 512.046C36.9858 509.895 38.1937 508.254 39.5278 507.163L37.7745 505.019C36.034 506.443 34.6021 508.459 33.465 510.862L35.9679 512.046ZM43.6128 505.542C44.4778 505.509 45.4177 505.643 46.4363 505.983L47.3135 503.357C46.0132 502.923 44.741 502.728 43.509 502.775L43.6128 505.542ZM46.4363 505.983C47.6086 506.375 48.5899 506.79 49.3998 507.216L50.6879 504.765C49.7225 504.257 48.5997 503.787 47.3135 503.357L46.4363 505.983ZM52.4734 510.148C52.7564 511.181 52.1731 512.642 49.825 514.106L51.2905 516.456C53.9253 514.812 55.9354 512.307 55.1441 509.416L52.4734 510.148ZM45.1557 516.032C43.2391 516.538 41.0532 516.845 38.7091 516.871L38.7395 519.639C41.3025 519.611 43.7158 519.275 45.8618 518.71L45.1557 516.032ZM33.4907 516.465C31.4171 516.12 29.2966 515.543 27.1916 514.691L26.1527 517.257C28.4542 518.189 30.7712 518.819 33.0355 519.196L33.4907 516.465ZM22.537 512.31C21.6295 511.74 20.7335 511.109 19.8544 510.414L18.1367 512.586C19.095 513.344 20.0729 514.032 21.0644 514.655L22.537 512.31ZM19.8544 510.414C19.0456 509.774 18.3249 509.07 17.6879 508.304L15.5592 510.075C16.3201 510.99 17.1787 511.828 18.1367 512.586L19.8544 510.414ZM15.24 504.134C14.5285 502.338 14.079 500.319 13.8889 498.089L11.1299 498.324C11.3392 500.779 11.8396 503.068 12.6657 505.154L15.24 504.134ZM13.877 493.006C14.0193 490.997 14.3244 488.871 14.7864 486.639L12.0749 486.077C11.5915 488.413 11.267 490.662 11.1149 492.81L13.877 493.006ZM16.0444 481.594C16.6218 479.595 17.3056 477.531 18.091 475.409L15.4942 474.448C14.6877 476.627 13.9822 478.755 13.3842 480.825L16.0444 481.594ZM20.0319 470.531C20.8589 468.582 21.7618 466.594 22.737 464.572L20.2429 463.369C19.2498 465.429 18.3284 467.457 17.483 469.449L20.0319 470.531ZM25.1 459.874C26.095 457.973 27.1482 456.046 28.2568 454.098L25.8504 452.728C24.7264 454.703 23.6574 456.658 22.6464 458.591L25.1 459.874ZM30.918 449.559C32.0327 447.71 33.1937 445.846 34.3985 443.971L32.0686 442.474C30.8503 444.371 29.6755 446.257 28.5467 448.129L30.918 449.559ZM37.2945 439.564C38.5066 437.761 39.7566 435.949 41.0424 434.131L38.7821 432.532C37.4838 434.367 36.2211 436.197 34.9962 438.02L37.2945 439.564ZM44.1288 429.853C45.4187 428.098 46.7401 426.341 48.091 424.584L45.8957 422.896C44.5328 424.669 43.1995 426.442 41.8977 428.213L44.1288 429.853ZM51.3424 420.425C52.7019 418.716 54.088 417.008 55.4989 415.305L53.3663 413.538C51.9439 415.256 50.5462 416.978 49.1751 418.702L51.3424 420.425ZM58.8983 411.265C60.3216 409.6 61.7673 407.941 63.2338 406.29L61.1638 404.451C59.6856 406.115 58.2282 407.787 56.7935 409.466L58.8983 411.265ZM66.7706 402.369C67.5132 401.559 68.2606 400.75 69.0126 399.945L66.9885 398.055C66.2305 398.867 65.4772 399.682 64.7287 400.499L66.7706 402.369Z" fill="#E4E4E4"/>
<path d="M160.655 722.341C161.396 722.531 162.151 722.085 162.341 721.345L165.442 709.276C165.632 708.535 165.186 707.781 164.445 707.59C163.705 707.4 162.95 707.846 162.76 708.587L160.004 719.315L149.276 716.558C148.535 716.368 147.781 716.814 147.59 717.555C147.4 718.295 147.846 719.05 148.587 719.24L160.655 722.341ZM258.312 514.212C266.348 527.625 270.076 539.579 270.619 550.376C271.162 561.164 268.529 570.888 263.703 579.86C254.011 597.877 235.515 612.806 216.18 627.009C196.974 641.119 176.886 654.54 164.634 669.417C158.48 676.89 154.209 684.831 153.032 693.523C151.852 702.239 153.805 711.55 159.808 721.705L162.192 720.295C156.445 710.575 154.694 701.886 155.776 693.895C156.861 685.88 160.817 678.407 166.772 671.177C178.739 656.647 198.401 643.506 217.82 629.241C237.11 615.069 256.114 599.811 266.141 581.172C271.174 571.815 273.956 561.594 273.385 550.237C272.814 538.89 268.902 526.5 260.688 512.788L258.312 514.212Z" fill="#242938"/>
<path d="M198.306 955.201C197.918 954.542 198.139 953.694 198.798 953.306C199.457 952.919 200.306 953.139 200.693 953.799L198.306 955.201ZM323.479 1004.98C322.938 1005.52 322.061 1005.52 321.521 1004.98L312.71 996.168C312.169 995.627 312.169 994.751 312.71 994.21C313.25 993.669 314.127 993.669 314.668 994.21L322.5 1002.04L330.331 994.21C330.872 993.669 331.749 993.669 332.289 994.21C332.83 994.751 332.83 995.627 332.289 996.168L323.479 1004.98ZM202.527 956.631C202.971 957.254 202.826 958.119 202.204 958.562C201.581 959.006 200.716 958.861 200.273 958.239L202.527 956.631ZM203.936 962.641C203.403 962.093 203.416 961.216 203.965 960.684C204.513 960.151 205.39 960.164 205.922 960.712L203.936 962.641ZM210.988 964.993C211.618 965.427 211.776 966.289 211.343 966.918C210.909 967.548 210.046 967.707 209.417 967.273L210.988 964.993ZM214.367 970.163C213.681 969.826 213.397 968.997 213.734 968.31C214.07 967.624 214.9 967.34 215.586 967.677L214.367 970.163ZM221.825 970.128C222.556 970.353 222.966 971.128 222.741 971.859C222.516 972.589 221.741 972.999 221.011 972.774L221.825 970.128ZM226.508 974.158C225.758 974.008 225.272 973.278 225.423 972.528C225.573 971.779 226.303 971.293 227.053 971.443L226.508 974.158ZM233.76 972.437C234.521 972.514 235.075 973.193 234.998 973.954C234.921 974.714 234.242 975.269 233.481 975.192L233.76 972.437ZM239.088 975.587C238.324 975.555 237.731 974.909 237.764 974.145C237.796 973.381 238.442 972.788 239.206 972.821L239.088 975.587ZM246.061 972.916C246.825 972.908 247.452 973.52 247.46 974.285C247.469 975.05 246.856 975.676 246.092 975.685L246.061 972.916ZM251.668 975.534C250.904 975.565 250.26 974.972 250.228 974.208C250.197 973.444 250.79 972.799 251.554 972.767L251.668 975.534ZM258.436 972.395C259.199 972.345 259.858 972.924 259.907 973.687C259.956 974.45 259.378 975.108 258.615 975.158L258.436 972.395ZM264.154 974.772C263.392 974.828 262.728 974.255 262.673 973.492C262.617 972.73 263.19 972.066 263.952 972.01L264.154 974.772ZM270.859 971.505C271.622 971.452 272.284 972.026 272.338 972.789C272.391 973.552 271.817 974.214 271.054 974.268L270.859 971.505ZM276.559 973.911C275.796 973.954 275.142 973.371 275.098 972.608C275.054 971.844 275.638 971.19 276.401 971.146L276.559 973.911ZM283.379 970.853C284.144 970.835 284.778 971.441 284.796 972.205C284.813 972.969 284.208 973.604 283.444 973.621L283.379 970.853ZM288.923 973.609C288.158 973.592 287.552 972.959 287.569 972.194C287.586 971.43 288.219 970.824 288.983 970.84L288.923 973.609ZM295.996 971.279C296.756 971.363 297.305 972.047 297.221 972.807C297.137 973.567 296.453 974.115 295.693 974.031L295.996 971.279ZM301.025 974.896C300.278 974.73 299.808 973.99 299.973 973.244C300.139 972.497 300.879 972.027 301.625 972.192L301.025 974.896ZM308.456 974.407C309.153 974.72 309.464 975.54 309.151 976.237C308.837 976.935 308.018 977.246 307.32 976.932L308.456 974.407ZM311.813 979.573C311.204 979.111 311.085 978.242 311.547 977.633C312.009 977.024 312.878 976.905 313.487 977.367L311.813 979.573ZM318.532 982.661C318.964 983.291 318.804 984.153 318.174 984.586C317.543 985.018 316.682 984.858 316.249 984.228L318.532 982.661ZM318.685 988.856C318.404 988.145 318.753 987.341 319.464 987.06C320.175 986.779 320.979 987.127 321.26 987.839L318.685 988.856ZM323.151 994.729C323.282 995.483 322.777 996.199 322.024 996.33C321.27 996.461 320.554 995.956 320.423 995.203L323.151 994.729ZM321.019 1000.53C320.976 999.77 321.559 999.116 322.322 999.072C323.086 999.028 323.74 999.612 323.784 1000.38L321.019 1000.53ZM200.693 953.799C201.277 954.793 201.889 955.736 202.527 956.631L200.273 958.239C199.586 957.276 198.93 956.264 198.306 955.201L200.693 953.799ZM205.922 960.712C207.498 962.336 209.192 963.755 210.988 964.993L209.417 967.273C207.475 965.934 205.642 964.398 203.936 962.641L205.922 960.712ZM215.586 967.677C217.572 968.651 219.656 969.46 221.825 970.128L221.011 972.774C218.717 972.068 216.496 971.207 214.367 970.163L215.586 967.677ZM227.053 971.443C229.228 971.88 231.468 972.204 233.76 972.437L233.481 975.192C231.113 974.952 228.783 974.615 226.508 974.158L227.053 971.443ZM239.206 972.821C241.46 972.916 243.748 972.942 246.061 972.916L246.092 975.685C243.739 975.712 241.4 975.685 239.088 975.587L239.206 972.821ZM251.554 972.767C253.84 972.673 256.137 972.543 258.436 972.395L258.615 975.158C256.302 975.307 253.982 975.439 251.668 975.534L251.554 972.767ZM263.952 972.01C266.265 971.841 268.576 971.667 270.859 971.505L271.054 974.268C268.775 974.429 266.476 974.602 264.154 974.772L263.952 972.01ZM276.401 971.146C278.764 971.011 281.095 970.906 283.379 970.853L283.444 973.621C281.199 973.674 278.901 973.777 276.559 973.911L276.401 971.146ZM288.983 970.84C291.393 970.893 293.737 971.029 295.996 971.279L295.693 974.031C293.53 973.792 291.269 973.66 288.923 973.609L288.983 970.84ZM301.625 972.192C304.039 972.728 306.328 973.45 308.456 974.407L307.32 976.932C305.393 976.066 303.289 975.398 301.025 974.896L301.625 972.192ZM313.487 977.367C315.403 978.822 317.097 980.571 318.532 982.661L316.249 984.228C314.985 982.388 313.498 980.853 311.813 979.573L313.487 977.367ZM321.26 987.839C322.078 989.906 322.711 992.197 323.151 994.729L320.423 995.203C320.012 992.835 319.425 990.729 318.685 988.856L321.26 987.839ZM323.784 1000.38C323.85 1001.54 323.884 1002.75 323.884 1004L321.115 1004C321.115 1002.8 321.083 1001.64 321.019 1000.53L323.784 1000.38Z" fill="#E4E4E4"/>
<path d="M189.053 1207.38C188.289 1207.41 187.646 1206.82 187.616 1206.05L187.134 1193.6C187.105 1192.84 187.7 1192.2 188.464 1192.17C189.228 1192.14 189.872 1192.73 189.901 1193.5L190.33 1204.56L201.397 1204.13C202.161 1204.11 202.805 1204.7 202.834 1205.46C202.864 1206.23 202.268 1206.87 201.504 1206.9L189.053 1207.38ZM174.185 972.383C164.449 977.933 158.649 984.382 155.674 991.513C152.693 998.657 152.478 1006.65 154.217 1015.4C157.713 1032.99 168.983 1053.16 180.594 1074.74C192.141 1096.2 203.971 1118.97 208.188 1141.47C212.425 1164.06 208.991 1186.44 190.016 1206.94L187.984 1205.06C206.258 1185.31 209.574 1163.88 205.467 1141.98C201.341 1119.97 189.733 1097.57 178.155 1076.05C166.641 1054.66 155.098 1034.04 151.501 1015.94C149.693 1006.84 149.861 998.253 153.118 990.447C156.381 982.628 162.675 975.758 172.814 969.978L174.185 972.383Z" fill="#242938"/>
<path d="M54.3436 1067.79C53.6334 1068.08 52.8279 1067.73 52.5444 1067.02L47.9241 1055.45C47.6406 1054.74 47.9864 1053.93 48.6965 1053.65C49.4067 1053.37 50.2122 1053.71 50.4957 1054.42L54.6026 1064.71L64.8891 1060.6C65.5992 1060.32 66.4047 1060.66 66.6882 1061.38C66.9718 1062.09 66.6259 1062.89 65.9158 1063.17L54.3436 1067.79ZM37.9994 944L39.2359 943.377L37.9994 944ZM68.2633 892.827C68.9108 892.421 69.7654 892.616 70.1721 893.263C70.5788 893.911 70.3836 894.766 69.7361 895.172L68.2633 892.827ZM53.9785 1062.54C54.2618 1061.83 55.0672 1061.48 55.7774 1061.76C56.4876 1062.05 56.8337 1062.85 56.5504 1063.56L53.9785 1062.54ZM58.6382 1057.89C58.3968 1058.61 57.6129 1059 56.8874 1058.76C56.1618 1058.52 55.7694 1057.74 56.0108 1057.01L58.6382 1057.89ZM57.9427 1049.98C58.0987 1049.23 58.832 1048.75 59.5805 1048.91C60.3291 1049.06 60.8094 1049.8 60.6535 1050.55L57.9427 1049.98ZM61.5112 1044.45C61.4596 1045.22 60.7993 1045.79 60.0365 1045.74C59.2736 1045.69 58.6969 1045.03 58.7485 1044.27L61.5112 1044.45ZM58.4724 1037.13C58.3585 1036.38 58.8791 1035.67 59.6352 1035.56C60.3913 1035.44 61.0966 1035.96 61.2105 1036.72L58.4724 1037.13ZM59.7649 1030.7C60.0035 1031.43 59.6081 1032.21 58.8816 1032.45C58.1552 1032.69 57.3728 1032.29 57.1342 1031.57L59.7649 1030.7ZM54.3099 1024.9C53.9618 1024.22 54.2316 1023.39 54.9124 1023.04C55.5933 1022.69 56.4274 1022.96 56.7754 1023.64L54.3099 1024.9ZM53.7867 1018.36C54.1873 1019.01 53.984 1019.86 53.3327 1020.26C52.6814 1020.66 51.8287 1020.46 51.4281 1019.81L53.7867 1018.36ZM47.3577 1013.65C46.9192 1013.02 47.0716 1012.16 47.698 1011.72C48.3244 1011.28 49.1877 1011.44 49.6262 1012.06L47.3577 1013.65ZM46.1099 1007.19C46.5654 1007.81 46.4367 1008.68 45.8225 1009.13C45.2083 1009.59 44.3412 1009.46 43.8857 1008.84L46.1099 1007.19ZM39.4015 1002.93C38.9344 1002.32 39.0465 1001.45 39.6519 1000.99C40.2574 1000.52 41.1268 1000.63 41.5938 1001.24L39.4015 1002.93ZM37.9114 996.506C38.3831 997.108 38.2776 997.978 37.6758 998.45C37.074 998.922 36.2037 998.816 35.732 998.214L37.9114 996.506ZM31.0557 992.485C30.5386 991.922 30.5761 991.046 31.1394 990.529C31.7027 990.012 32.5785 990.05 33.0956 990.613L31.0557 992.485ZM28.502 986.34C29.1069 986.808 29.218 987.677 28.7501 988.282C28.2823 988.887 27.4128 988.998 26.8079 988.53L28.502 986.34ZM20.656 985.199C19.9242 984.977 19.5109 984.204 19.7328 983.472C19.9546 982.74 20.7277 982.327 21.4594 982.549L20.656 985.199ZM14.8652 982.07C15.6189 981.941 16.3343 982.448 16.463 983.201C16.5916 983.955 16.085 984.67 15.3312 984.799L14.8652 982.07ZM9.47131 987.862C8.92118 988.394 8.0447 988.378 7.51363 987.828C6.98256 987.278 6.998 986.401 7.54813 985.87L9.47131 987.862ZM3.79886 991.183C4.12379 990.491 4.9483 990.193 5.64047 990.518C6.33264 990.843 6.63033 991.668 6.30541 992.36L3.79886 991.183ZM4.6761 999.102C4.65106 999.866 4.01124 1000.47 3.24702 1000.44C2.48279 1000.41 1.88355 999.775 1.90859 999.011L4.6761 999.102ZM2.88343 1005.46C2.62421 1004.74 2.99723 1003.94 3.71659 1003.68C4.43595 1003.43 5.22924 1003.8 5.48846 1004.52L2.88343 1005.46ZM9.39286 1009.91C9.99853 1010.38 10.1112 1011.25 9.64447 1011.85C9.17775 1012.46 8.30841 1012.57 7.70273 1012.1L9.39286 1009.91ZM13.5624 1014.95C12.8252 1014.75 12.3919 1013.99 12.5947 1013.25C12.7975 1012.51 13.5595 1012.08 14.2968 1012.28L13.5624 1014.95ZM21.1692 1013.16C21.9326 1013.2 22.5162 1013.85 22.4728 1014.62C22.4293 1015.38 21.7752 1015.96 21.0118 1015.92L21.1692 1013.16ZM26.5856 1016.08C25.821 1016.08 25.2015 1015.46 25.202 1014.7C25.2024 1013.93 25.8226 1013.31 26.5873 1013.31L26.5856 1016.08ZM33.3545 1013.07C34.1172 1013.02 34.7799 1013.59 34.8348 1014.35C34.8896 1015.12 34.3158 1015.78 33.5531 1015.83L33.3545 1013.07ZM39.1064 1015.27C38.3485 1015.37 37.6518 1014.83 37.5502 1014.08C37.4486 1013.32 37.9806 1012.62 38.7384 1012.52L39.1064 1015.27ZM45.3923 1011.35C46.1388 1011.18 46.878 1011.65 47.0434 1012.4C47.2087 1013.15 46.7376 1013.88 45.991 1014.05L45.3923 1011.35ZM51.4122 1012.63C50.6807 1012.85 49.9073 1012.44 49.6847 1011.71C49.4622 1010.98 49.8748 1010.21 50.6064 1009.98L51.4122 1012.63ZM56.909 1007.68C57.6101 1007.37 58.4258 1007.69 58.731 1008.39C59.0361 1009.1 58.7152 1009.91 58.0141 1010.22L56.909 1007.68ZM63.0615 1007.68C62.3996 1008.06 61.5527 1007.84 61.1698 1007.17C60.7869 1006.51 61.0131 1005.67 61.675 1005.28L63.0615 1007.68ZM67.0912 1001.49C67.6724 1000.99 68.5463 1001.06 69.0432 1001.64C69.54 1002.22 69.4716 1003.09 68.8904 1003.59L67.0912 1001.49ZM72.9023 999.476C72.4243 1000.07 71.553 1000.17 70.9562 999.691C70.3594 999.213 70.2631 998.342 70.7412 997.745L72.9023 999.476ZM74.0367 992.197C74.3262 991.489 75.1346 991.15 75.8423 991.439C76.55 991.729 76.8891 992.537 76.5996 993.245L74.0367 992.197ZM78.1264 987.629C78.0169 988.386 77.3147 988.911 76.558 988.801C75.8012 988.692 75.2764 987.99 75.3859 987.233L78.1264 987.629ZM75.4129 980.938C75.3079 980.18 75.8368 979.481 76.5941 979.376C77.3515 979.271 78.0507 979.8 78.1557 980.557L75.4129 980.938ZM76.644 975.201C76.9577 975.899 76.6467 976.718 75.9494 977.032C75.2521 977.346 74.4325 977.035 74.1188 976.337L76.644 975.201ZM70.6964 971.466C70.1555 970.926 70.1553 970.049 70.6958 969.508C71.2363 968.968 72.1129 968.967 72.6538 969.508L70.6964 971.466ZM68.4273 966.07C69.0594 966.501 69.223 967.362 68.7927 967.994C68.3624 968.626 67.5012 968.79 66.8691 968.359L68.4273 966.07ZM61.411 965.116C60.7384 964.753 60.4878 963.913 60.8514 963.24C61.215 962.567 62.0551 962.317 62.7277 962.68L61.411 965.116ZM58.1299 960.241C58.8048 960.601 59.0606 961.439 58.7011 962.114C58.3417 962.789 57.5032 963.045 56.8283 962.685L58.1299 960.241ZM51.0991 959.439C50.4487 959.037 50.2474 958.184 50.6495 957.534C51.0516 956.883 51.9048 956.682 52.5551 957.084L51.0991 959.439ZM48.3898 954.228C48.9958 954.694 49.1091 955.563 48.6428 956.169C48.1766 956.775 47.3073 956.888 46.7013 956.422L48.3898 954.228ZM41.7348 951.872C41.2218 951.305 41.2654 950.429 41.8324 949.916C42.3993 949.403 43.2748 949.447 43.7879 950.014L41.7348 951.872ZM40.7765 946.08C41.1891 946.724 41.0018 947.58 40.358 947.993C39.7143 948.406 38.8579 948.218 38.4453 947.575L40.7765 946.08ZM35.3708 941.088C35.1586 940.354 35.582 939.586 36.3166 939.374C37.0512 939.162 37.8188 939.585 38.031 940.32L35.3708 941.088ZM37.363 935.147C37.3474 935.912 36.715 936.519 35.9506 936.503C35.1861 936.488 34.579 935.855 34.5946 935.091L37.363 935.147ZM35.9375 927.748C36.1811 927.023 36.9662 926.633 37.691 926.877C38.4158 927.12 38.8058 927.905 38.5622 928.63L35.9375 927.748ZM40.7407 923.67C40.3785 924.344 39.539 924.596 38.8656 924.234C38.1922 923.872 37.9399 923.032 38.3021 922.359L40.7407 923.67ZM42.2358 916.241C42.6925 915.628 43.5599 915.501 44.1732 915.957C44.7864 916.414 44.9132 917.282 44.4565 917.895L42.2358 916.241ZM47.9608 913.6C47.4539 914.172 46.5789 914.225 46.0065 913.719C45.434 913.212 45.381 912.337 45.8879 911.764L47.9608 913.6ZM50.8779 906.589C51.4296 906.059 52.3061 906.077 52.8355 906.629C53.365 907.181 53.3469 908.057 52.7952 908.587L50.8779 906.589ZM56.925 904.832C56.3463 905.332 55.472 905.268 54.9722 904.689C54.4724 904.11 54.5363 903.236 55.115 902.736L56.925 904.832ZM60.6717 898.212C61.278 897.747 62.1472 897.86 62.6131 898.467C63.079 899.073 62.9652 899.942 62.3588 900.408L60.6717 898.212ZM66.8686 897.1C66.2418 897.538 65.3787 897.384 64.9407 896.758C64.5027 896.131 64.6558 895.268 65.2826 894.83L66.8686 897.1ZM52.558 1065.96C53.062 1064.79 53.5355 1063.65 53.9785 1062.54L56.5504 1063.56C56.0977 1064.7 55.6149 1065.86 55.1024 1067.05L52.558 1065.96ZM56.0108 1057.01C56.8381 1054.52 57.4811 1052.2 57.9427 1049.98L60.6535 1050.55C60.1664 1052.88 59.493 1055.32 58.6382 1057.89L56.0108 1057.01ZM58.7485 1044.27C58.9147 1041.81 58.8224 1039.46 58.4724 1037.13L61.2105 1036.72C61.5916 1039.25 61.6904 1041.81 61.5112 1044.45L58.7485 1044.27ZM57.1342 1031.57C56.4233 1029.4 55.4845 1027.2 54.3099 1024.9L56.7754 1023.64C58.004 1026.05 59.0021 1028.38 59.7649 1030.7L57.1342 1031.57ZM51.4281 1019.81C50.2225 1017.85 48.8667 1015.81 47.3577 1013.65L49.6262 1012.06C51.1589 1014.25 52.5462 1016.34 53.7867 1018.36L51.4281 1019.81ZM43.8857 1008.84C42.4903 1006.96 40.9959 1005 39.4015 1002.93L41.5938 1001.24C43.1957 1003.31 44.7012 1005.29 46.1099 1007.19L43.8857 1008.84ZM35.732 998.214C34.9824 997.258 34.2143 996.281 33.4277 995.282L35.6029 993.569C36.3905 994.569 37.16 995.548 37.9114 996.506L35.732 998.214ZM33.4277 995.282C32.6283 994.267 31.8371 993.337 31.0557 992.485L33.0956 990.613C33.9271 991.519 34.7633 992.503 35.6029 993.569L33.4277 995.282ZM26.8079 988.53C24.6215 986.839 22.5588 985.776 20.656 985.199L21.4594 982.549C23.7359 983.239 26.0952 984.478 28.502 986.34L26.8079 988.53ZM15.3312 984.799C13.0991 985.18 11.1157 986.275 9.47131 987.862L7.54813 985.87C9.53829 983.949 12.0137 982.556 14.8652 982.07L15.3312 984.799ZM6.30541 992.36C5.3216 994.455 4.75195 996.786 4.6761 999.102L1.90859 999.011C1.997 996.312 2.65836 993.612 3.79886 991.183L6.30541 992.36ZM5.48846 1004.52C6.23701 1006.6 7.5126 1008.46 9.39286 1009.91L7.70273 1012.1C5.37309 1010.31 3.79729 1007.99 2.88343 1005.46L5.48846 1004.52ZM14.2968 1012.28C15.3546 1012.57 16.517 1012.79 17.7905 1012.9L17.536 1015.66C16.1126 1015.53 14.7887 1015.29 13.5624 1014.95L14.2968 1012.28ZM17.7905 1012.9C18.9157 1013.01 20.0426 1013.09 21.1692 1013.16L21.0118 1015.92C19.8529 1015.85 18.6937 1015.77 17.536 1015.66L17.7905 1012.9ZM26.5873 1013.31C28.8624 1013.31 31.1234 1013.23 33.3545 1013.07L33.5531 1015.83C31.2543 1016 28.9265 1016.08 26.5856 1016.08L26.5873 1013.31ZM38.7384 1012.52C41.01 1012.22 43.2338 1011.82 45.3923 1011.35L45.991 1014.05C43.7527 1014.55 41.4517 1014.95 39.1064 1015.27L38.7384 1012.52ZM50.6064 1009.98C52.8102 1009.31 54.9182 1008.54 56.909 1007.68L58.0141 1010.22C55.918 1011.13 53.7095 1011.93 51.4122 1012.63L50.6064 1009.98ZM61.675 1005.28C63.6629 1004.13 65.4773 1002.87 67.0912 1001.49L68.8904 1003.59C67.1344 1005.09 65.1792 1006.45 63.0615 1007.68L61.675 1005.28ZM70.7412 997.745C72.117 996.028 73.2263 994.178 74.0367 992.197L76.5996 993.245C75.6815 995.489 74.4318 997.567 72.9023 999.476L70.7412 997.745ZM75.3859 987.233C75.5368 986.189 75.6148 985.112 75.6148 984L78.3838 984C78.3838 985.241 78.2967 986.451 78.1264 987.629L75.3859 987.233ZM75.6148 984C75.6148 982.908 75.5449 981.89 75.4129 980.938L78.1557 980.557C78.3064 981.644 78.3839 982.79 78.3838 984L75.6148 984ZM74.1188 976.337C73.2822 974.478 72.1197 972.889 70.6964 971.466L72.6538 969.508C74.2789 971.132 75.6503 972.992 76.644 975.201L74.1188 976.337ZM66.8691 968.359C65.1989 967.222 63.3628 966.171 61.411 965.116L62.7277 962.68C64.7083 963.751 66.641 964.854 68.4273 966.07L66.8691 968.359ZM56.8283 962.685C54.9377 961.678 53.0036 960.617 51.0991 959.439L52.5551 957.084C54.3837 958.215 56.2562 959.243 58.1299 960.241L56.8283 962.685ZM46.7013 956.422C44.9606 955.083 43.2861 953.586 41.7348 951.872L43.7879 950.014C45.2116 951.587 46.7596 952.973 48.3898 954.228L46.7013 956.422ZM38.4453 947.575C37.8484 946.643 37.286 945.661 36.7629 944.623L39.2359 943.377C39.7158 944.33 40.2308 945.229 40.7765 946.08L38.4453 947.575ZM36.7629 944.623C36.175 943.456 35.714 942.276 35.3708 941.088L38.031 940.32C38.326 941.341 38.724 942.361 39.2359 943.377L36.7629 944.623ZM34.5946 935.091C34.6452 932.607 35.1309 930.147 35.9375 927.748L38.5622 928.63C37.8301 930.808 37.407 932.988 37.363 935.147L34.5946 935.091ZM38.3021 922.359C39.4335 920.255 40.7703 918.208 42.2358 916.241L44.4565 917.895C43.0572 919.774 41.7972 921.706 40.7407 923.67L38.3021 922.359ZM45.8879 911.764C47.4993 909.945 49.186 908.213 50.8779 906.589L52.7952 908.587C51.149 910.167 49.5154 911.845 47.9608 913.6L45.8879 911.764ZM55.115 902.736C57.0755 901.043 58.966 899.523 60.6717 898.212L62.3588 900.408C60.6887 901.691 58.8399 903.178 56.925 904.832L55.115 902.736ZM65.2826 894.83C66.2003 894.188 66.9416 893.69 67.4552 893.351C67.712 893.182 67.912 893.052 68.0488 892.964C68.1172 892.92 68.1698 892.887 68.2058 892.864C68.2238 892.852 68.2377 892.844 68.2473 892.838C68.2521 892.834 68.2558 892.832 68.2585 892.83C68.2598 892.83 68.2609 892.829 68.2617 892.828C68.2621 892.828 68.2624 892.828 68.2627 892.828C68.2628 892.828 68.2629 892.828 68.263 892.828C68.2631 892.828 68.2631 892.828 68.2631 892.828C68.2632 892.827 68.2633 892.827 68.9997 894C69.7361 895.172 69.7361 895.172 69.7362 895.172C69.7362 895.172 69.7362 895.172 69.7362 895.172C69.7363 895.172 69.7363 895.172 69.7363 895.172C69.7363 895.172 69.7362 895.172 69.736 895.172C69.7358 895.172 69.7352 895.173 69.7344 895.173C69.7327 895.174 69.73 895.176 69.7262 895.178C69.7187 895.183 69.7069 895.191 69.691 895.201C69.6592 895.221 69.6109 895.252 69.5468 895.293C69.4187 895.375 69.2278 895.499 68.9803 895.663C68.4853 895.989 67.7645 896.474 66.8686 897.1L65.2826 894.83Z" fill="#E4E4E4"/>
<path d="M328.5 548L327.787 546.813L328.5 548ZM328.5 586.5L329.865 586.731L328.5 586.5ZM300.397 599.437L299.591 600.563L300.397 599.437ZM266.546 616.552C265.936 617.012 265.068 616.89 264.607 616.28L257.108 606.329C256.648 605.718 256.77 604.85 257.38 604.39C257.991 603.929 258.859 604.051 259.319 604.662L265.986 613.507L274.831 606.841C275.442 606.381 276.31 606.503 276.77 607.114C277.23 607.724 277.108 608.592 276.497 609.053L266.546 616.552ZM317.795 458.633C316.842 459.302 316.01 460.004 315.287 460.733L313.32 458.785C314.166 457.93 315.126 457.123 316.205 456.367L317.795 458.633ZM312.39 464.91C311.532 466.82 311.124 468.911 311.097 471.171L308.329 471.139C308.359 468.561 308.826 466.086 309.864 463.775L312.39 464.91ZM311.636 476.451C312.054 478.543 312.702 480.727 313.527 482.985L310.927 483.936C310.065 481.579 309.373 479.257 308.921 476.994L311.636 476.451ZM315.618 488.081C316.54 490.133 317.564 492.22 318.65 494.33L316.188 495.598C315.086 493.458 314.04 491.325 313.092 489.216L315.618 488.081ZM321.268 499.261C322.379 501.306 323.516 503.354 324.648 505.4L322.225 506.741C321.096 504.7 319.952 502.64 318.835 500.583L321.268 499.261ZM327.352 510.33C328.492 512.438 329.594 514.532 330.616 516.593L328.136 517.823C327.133 515.801 326.047 513.739 324.916 511.647L327.352 510.33ZM333.022 521.762C334.011 524.066 334.855 526.324 335.482 528.51L332.821 529.274C332.234 527.23 331.435 525.084 330.477 522.855L333.022 521.762ZM336.607 534.27C336.841 536.915 336.611 539.449 335.724 541.782L333.136 540.797C333.839 538.947 334.056 536.851 333.849 534.514L336.607 534.27ZM332.272 546.895C331.39 547.727 330.372 548.491 329.213 549.187L327.787 546.813C328.792 546.21 329.648 545.563 330.371 544.881L332.272 546.895ZM329.213 549.187C328.043 549.889 327.185 550.593 326.561 551.293L324.494 549.451C325.342 548.498 326.434 547.625 327.787 546.813L329.213 549.187ZM324.974 555.924C325.049 557.895 325.728 560.153 326.653 562.931L324.026 563.806C323.119 561.083 322.299 558.457 322.207 556.029L324.974 555.924ZM328.537 568.788C329.213 571.129 329.811 573.683 330.13 576.466L327.379 576.781C327.083 574.197 326.524 571.8 325.876 569.556L328.537 568.788ZM330.313 582.795C330.238 584.068 330.093 585.379 329.865 586.731L327.135 586.269C327.346 585.019 327.48 583.807 327.549 582.633L330.313 582.795ZM329.865 586.731C329.668 587.899 329.301 589.088 328.797 590.261L326.253 589.168C326.683 588.167 326.979 587.19 327.135 586.269L329.865 586.731ZM325.826 595.175C324.391 596.99 322.641 598.677 320.667 600.072L319.068 597.811C320.818 596.574 322.377 595.073 323.655 593.457L325.826 595.175ZM315.594 602.763C313.334 603.591 310.906 604.011 308.408 603.841L308.596 601.078C310.659 601.219 312.699 600.875 314.641 600.163L315.594 602.763ZM302.736 602.393C301.675 601.91 300.624 601.303 299.591 600.563L301.202 598.311C302.096 598.951 302.992 599.467 303.883 599.873L302.736 602.393ZM299.591 600.563C298.683 599.913 297.775 599.323 296.869 598.792L298.271 596.403C299.252 596.979 300.23 597.615 301.202 598.311L299.591 600.563ZM292.224 596.567C290.105 595.781 288.036 595.33 286.059 595.206L286.233 592.442C288.507 592.585 290.841 593.101 293.187 593.971L292.224 596.567ZM281.116 595.617C279.129 596.101 277.271 596.979 275.589 598.263L273.909 596.062C275.895 594.546 278.103 593.501 280.46 592.927L281.116 595.617ZM272.122 601.841C270.972 603.411 269.961 605.274 269.126 607.445L266.542 606.452C267.454 604.078 268.578 601.993 269.888 600.205L272.122 601.841ZM267.659 612.413C267.434 613.44 267.242 614.515 267.084 615.639L264.342 615.254C264.509 614.064 264.714 612.92 264.954 611.822L267.659 612.413Z" fill="#E4E4E4"/>
<path d="M313.372 40.4259L312.721 41.6478L313.372 40.4259ZM333.005 40.1639L331.702 39.6943L333.005 40.1639ZM298.742 49.6121L297.36 49.5271L298.742 49.6121ZM310.209 142.847C309.455 142.973 308.742 142.463 308.616 141.709L306.571 129.417C306.445 128.663 306.955 127.95 307.709 127.824C308.464 127.699 309.177 128.209 309.302 128.963L311.12 139.889L322.046 138.071C322.8 137.945 323.514 138.455 323.639 139.209C323.765 139.963 323.255 140.676 322.501 140.802L310.209 142.847ZM217.874 38.9289C218.932 38.3925 219.975 37.867 221.003 37.3531L222.241 39.8297C221.219 40.3411 220.18 40.8643 219.125 41.3989L217.874 38.9289ZM226.049 34.8701C228.228 33.8182 230.346 32.8265 232.416 31.9011L233.546 34.4291C231.506 35.341 229.413 36.3208 227.252 37.3638L226.049 34.8701ZM237.607 29.6859C239.856 28.7767 242.062 27.9568 244.243 27.235L245.113 29.8639C242.997 30.5641 240.848 31.3627 238.645 32.253L237.607 29.6859ZM249.699 25.63C252.031 25.0342 254.354 24.5621 256.693 24.2247L257.089 26.9654C254.855 27.2876 252.629 27.7395 250.385 28.3128L249.699 25.63ZM262.39 23.6776C264.733 23.5664 267.107 23.5945 269.536 23.7713L269.335 26.533C267.016 26.3642 264.753 26.3375 262.521 26.4435L262.39 23.6776ZM275.207 24.4403C277.468 24.8065 279.786 25.2971 282.178 25.9179L281.482 28.5981C279.169 27.9975 276.935 27.5253 274.764 27.1737L275.207 24.4403ZM287.613 27.5117C289.763 28.2116 291.977 29.0103 294.265 29.9115L293.25 32.4878C291.01 31.6053 288.848 30.8259 286.756 30.1448L287.613 27.5117ZM299.477 32.0851C301.546 32.9938 303.677 33.9808 305.877 35.0485L304.668 37.5395C302.497 36.4858 300.398 35.5138 298.363 34.6205L299.477 32.0851ZM310.895 37.5633C311.923 38.0936 312.965 38.6404 314.023 39.2039L312.721 41.6478C311.674 41.0898 310.642 40.5486 309.625 40.0241L310.895 37.5633ZM314.023 39.2039C314.685 39.5567 315.566 39.9528 316.597 40.3429L315.616 42.9324C314.503 42.5111 313.511 42.0683 312.721 41.6478L314.023 39.2039ZM320.998 41.6744C322.911 42.1133 324.858 42.3733 326.581 42.3193L326.668 45.0869C324.631 45.1507 322.435 44.8449 320.379 44.3733L320.998 41.6744ZM330.421 41.3352C331.007 40.9408 331.443 40.4149 331.702 39.6943L334.307 40.6335C333.837 41.9366 333.015 42.9273 331.966 43.633L330.421 41.3352ZM331.702 39.6943C332.131 38.5043 332.295 37.4755 332.27 36.5968L335.038 36.5181C335.075 37.8034 334.832 39.1792 334.307 40.6335L331.702 39.6943ZM330.195 32.6627C328.767 31.5906 326.633 30.9043 324.037 30.7343L324.218 27.9712C327.145 28.1629 329.86 28.9486 331.858 30.4485L330.195 32.6627ZM318.531 31.0918C316.323 31.4983 314.064 32.2153 311.919 33.2438L310.722 30.747C313.094 29.6097 315.587 28.8182 318.03 28.3686L318.531 31.0918ZM307.226 36.1856C305.451 37.6176 303.903 39.3219 302.707 41.2962L300.339 39.8615C301.718 37.5837 303.49 35.6422 305.487 34.0307L307.226 36.1856ZM300.633 46.3095C300.371 47.3786 300.197 48.5074 300.123 49.6971L297.36 49.5271C297.443 48.1749 297.642 46.8824 297.943 45.6505L300.633 46.3095ZM300.123 49.6971C300.06 50.7338 300.08 51.7925 300.175 52.8745L297.417 53.1185C297.31 51.9124 297.287 50.7147 297.36 49.5271L300.123 49.6971ZM301.109 57.979C301.646 60.0014 302.373 62.0865 303.238 64.239L300.669 65.2712C299.775 63.0468 299.007 60.8511 298.433 58.69L301.109 57.979ZM305.375 69.1575C306.292 71.1456 307.278 73.1747 308.296 75.2527L305.81 76.4711C304.791 74.3912 303.792 72.337 302.86 70.317L305.375 69.1575ZM310.685 80.1377C311.665 82.1614 312.643 84.2256 313.582 86.3267L311.053 87.4562C310.131 85.3912 309.166 83.355 308.193 81.3444L310.685 80.1377ZM315.719 91.385C316.561 93.5143 317.339 95.6823 318.016 97.8877L315.369 98.7007C314.717 96.5765 313.965 94.4777 313.144 92.4035L315.719 91.385ZM319.431 103.248C319.923 105.504 320.289 107.797 320.491 110.127L317.733 110.367C317.541 108.167 317.195 105.991 316.726 103.839L319.431 103.248ZM320.649 115.715C320.575 118.003 320.326 120.321 319.872 122.669L317.153 122.143C317.579 119.945 317.812 117.773 317.881 115.626L320.649 115.715ZM318.457 128.1C317.757 130.23 316.876 132.378 315.796 134.546L313.318 133.31C314.34 131.26 315.169 129.235 315.826 127.235L318.457 128.1ZM313.058 139.391C312.45 140.353 311.8 141.318 311.108 142.287L308.855 140.677C309.518 139.75 310.138 138.828 310.718 137.911L313.058 139.391Z" fill="#E4E4E4"/>
<path d="M266.647 1446.21C266.486 1446.95 266.961 1447.69 267.708 1447.85L279.888 1450.48C280.635 1450.65 281.372 1450.17 281.533 1449.42C281.695 1448.68 281.22 1447.94 280.472 1447.78L269.646 1445.44L271.984 1434.61C272.146 1433.86 271.671 1433.13 270.923 1432.97C270.176 1432.81 269.439 1433.28 269.278 1434.03L266.647 1446.21ZM279.5 1329.5C278.495 1330.45 278.495 1330.45 278.495 1330.45C278.496 1330.45 278.496 1330.45 278.496 1330.45C278.498 1330.46 278.5 1330.46 278.503 1330.46C278.51 1330.47 278.52 1330.48 278.535 1330.49C278.563 1330.52 278.606 1330.57 278.664 1330.63C278.778 1330.76 278.95 1330.95 279.171 1331.2C279.615 1331.69 280.26 1332.44 281.056 1333.4C282.648 1335.33 284.844 1338.14 287.246 1341.67C292.055 1348.74 297.661 1358.63 300.919 1370.01C304.175 1381.37 305.075 1394.16 300.553 1407.09C296.034 1420.01 286.046 1433.22 267.25 1445.34L268.751 1447.66C287.954 1435.28 298.405 1421.62 303.167 1408C307.925 1394.4 306.95 1381 303.581 1369.24C300.215 1357.49 294.445 1347.33 289.535 1340.11C287.078 1336.5 284.828 1333.62 283.19 1331.64C282.371 1330.64 281.704 1329.88 281.24 1329.36C281.008 1329.09 280.826 1328.89 280.702 1328.76C280.639 1328.69 280.591 1328.64 280.558 1328.6C280.541 1328.59 280.529 1328.57 280.52 1328.56C280.515 1328.56 280.512 1328.55 280.509 1328.55C280.508 1328.55 280.507 1328.55 280.506 1328.55C280.505 1328.55 280.504 1328.55 279.5 1329.5Z" fill="#242938"/>
</svg>
