<svg width="45" height="40" viewBox="0 0 45 40" fill="none" xmlns="http://www.w3.org/2000/svg">
<path d="M0.610352 6.29339C0.610352 5.81786 0.995843 5.43237 1.47137 5.43237L9.91259 5.43237C10.3881 5.43237 10.7736 5.81786 10.7736 6.29339L10.7736 28.2947C10.7736 28.7702 10.3881 29.1557 9.91259 29.1557H1.47137C0.995842 29.1557 0.610352 28.7702 0.610352 28.2947L0.610352 6.29339Z" fill="white"/>
<path d="M14.5752 39.1388C14.5752 39.6144 14.9607 39.9999 15.4362 39.9999H30.5594C31.099 39.9999 31.5057 39.5092 31.4055 38.979L24.2832 1.2725C24.2063 0.865788 23.851 0.571289 23.4371 0.571289H15.4362C14.9607 0.571289 14.5752 0.95678 14.5752 1.43231V39.1388Z" fill="white"/>
<rect x="31.6421" y="26.8569" width="13.1429" height="12.4127" rx="6.20635" transform="rotate(-90 31.6421 26.8569)" fill="white"/>
</svg>
