<svg width="32" height="30" viewBox="0 0 32 30" fill="none" xmlns="http://www.w3.org/2000/svg">
<path d="M8.6807e-09 4.44158C3.88648e-09 3.96606 0.385491 3.58057 0.861018 3.58057L6.62496 3.58057C7.10048 3.58057 7.48597 3.96606 7.48597 4.44158L7.48597 20.1935C7.48597 20.669 7.10048 21.0545 6.62496 21.0545H0.861018C0.385491 21.0545 1.72284e-07 20.669 1.6749e-07 20.1935L8.6807e-09 4.44158Z" fill="#242938"/>
<path d="M10.2861 28.181C10.2861 28.6565 10.6716 29.042 11.1472 29.042H21.786C22.3256 29.042 22.7322 28.5514 22.6321 28.0212L17.4716 0.701209C17.3948 0.294501 17.0395 0 16.6256 0H11.1472C10.6716 0 10.2861 0.385491 10.2861 0.861018V28.181Z" fill="#242938"/>
<rect x="22.8572" y="19.3613" width="9.68067" height="9.14285" rx="4.57143" transform="rotate(-90 22.8572 19.3613)" fill="#242938"/>
</svg>
