<svg width="211" height="196" viewBox="0 0 211 196" fill="none" xmlns="http://www.w3.org/2000/svg">
<path d="M96.1271 166.864H47.3345V152.366H63.3908V79.7228H47.3345V65.1474H96.1271V79.7228H79.5252V152.366H96.1271V166.864ZM194.804 102.248H180.384V79.7228H166.666V152.366H182.8V166.864H134.475V152.366H150.532V79.7228H136.658V102.248H122.316V65.1474H194.804V102.248Z" fill="#242938"/>
<path d="M28.66 100.695L21.6239 103.243L20.4403 100.616L27.2993 98.1556C29.223 97.4857 29.8261 96.583 29.0804 94.9996C28.3856 93.4442 27.343 93.0556 25.2423 93.8133L18.5101 96.2816L17.3265 93.6547L24.2106 91.1465C27.3492 90.034 29.7664 91.1792 31.1561 94.2899C32.5449 97.2767 31.7226 99.6022 28.66 100.695Z" fill="#242938"/>
<path d="M16.4959 88.2944L16.0951 85.0508L23.7423 79.9447L15.533 80.3612L15.2387 77.9165L27.7044 77.252L28.077 80.0482L19.85 85.6371L28.7432 85.1653L29.0375 87.61L16.4959 88.2944Z" fill="#242938"/>
<path d="M24.3335 75.1368L24.7719 72.5465C25.8848 72.667 26.869 72.4087 27.1865 70.6752C27.3558 69.4756 26.8445 68.5784 25.8572 68.3425C24.8699 68.1065 24.4431 68.5486 23.8727 70.2659C22.9816 73.2226 21.7751 74.2818 19.4462 73.7378C17.3452 73.2578 16.0432 71.248 16.4559 68.5819C16.8936 65.868 18.4021 64.6057 20.9066 64.9386L20.5181 67.4333C19.3802 67.3607 18.7262 67.8623 18.5569 69.0619C18.3877 70.2614 18.8474 71.0071 19.6825 71.1593C20.5683 71.3394 21.0467 71.0488 21.6421 69.2836C22.509 66.4983 23.5367 65.156 26.1185 65.7161C28.346 66.2042 29.7751 68.3457 29.3382 71.1831C28.7016 74.403 26.8637 75.5454 24.3335 75.1368Z" fill="#242938"/>
<path d="M24.638 62.787L24.5363 62.7311C21.0811 60.952 19.7924 57.4065 21.3177 54.3623C22.542 51.7689 24.8383 50.5055 27.8088 51.7094L26.6345 54.2071C25.1372 53.691 24.1012 54.0453 23.4515 55.4138C22.6267 57.1175 23.5244 58.9064 25.8873 60.1458L25.9889 60.2017C28.3519 61.441 30.2237 61.1153 31.0985 59.3159C31.7482 57.9474 31.487 56.6938 30.1132 55.6908L31.2374 53.2889C33.9326 55.0195 34.4558 57.6503 33.1815 60.3394C31.3302 63.8823 28.144 64.5941 24.638 62.787Z" fill="#242938"/>
<path d="M26.8368 45.5531L28.6976 43.6194L32.5173 47.2017L35.8873 43.757L32.0676 40.1746L33.9284 38.2409L43.3248 47.0511L41.464 48.9848L37.5935 45.3745L34.2236 48.8192L38.0941 52.4296L36.2333 54.3633L26.8368 45.5531Z" fill="#242938"/>
<path d="M41.2134 40.3272L41.1366 40.2232C39.2387 36.9563 40.2309 33.428 43.4422 31.8001C46.7295 30.1522 50.3129 31.1984 52.2367 34.5413L52.3134 34.6453C54.2114 37.9122 53.3711 41.4007 49.9828 43.1164C46.6454 44.8601 43.0604 43.5662 41.2134 40.3272ZM49.7852 35.9701L49.7084 35.8661C48.477 33.7068 46.5181 32.8138 44.6219 33.8074C42.7507 34.7531 42.4336 36.7392 43.6908 38.9744L43.7675 39.0784C45.0756 41.3417 47.1348 42.0428 48.9049 41.1651C50.7761 40.2194 51.0674 38.1574 49.7852 35.9701Z" fill="#242938"/>
<path d="M54.7201 33.5024L54.6684 33.3505C53.8844 29.7094 56.0213 26.7501 59.6705 26.2896C63.3447 25.7812 66.503 27.8898 67.3379 31.559L67.3896 31.7109C68.1736 35.352 66.2144 38.3474 62.4133 38.8477C58.5363 39.3679 55.5291 37.0956 54.7201 33.5024ZM64.5008 32.0961L64.4491 31.9442C63.9267 29.558 62.3197 28.1181 60.1913 28.428C58.0629 28.7379 57.1099 30.4354 57.6582 32.8975L57.7099 33.0494C58.2331 35.5594 60.0421 36.8636 62.0186 36.5936C64.046 36.3515 65.049 34.5581 64.5008 32.0961Z" fill="#242938"/>
<path d="M70.6292 25.5478L73.4495 25.9261L72.8023 35.947L77.9091 36.5951L77.7704 38.7425L69.7924 37.6879L70.6292 25.5478Z" fill="#242938"/>
<path d="M82.3803 27.2816L90.2623 30.1226L89.5859 32.1694L84.4167 30.3223L83.5913 33.0313L87.7373 34.5644L87.1366 36.4667L82.9906 34.9336L82.0895 37.787L87.5151 39.7749L86.8387 41.8216L78.6752 38.888L82.3803 27.2816Z" fill="#242938"/>
<path d="M94.1884 32.0265L98.0595 34.5868C100.623 36.2428 101.606 38.2707 100.292 40.401L100.267 40.4492C99.2806 41.9535 97.8011 42.1329 96.3176 41.6901L96.3823 47.8636L93.7678 46.1795L93.681 40.5518L92.6042 39.8364L90.1017 43.7318L87.6408 42.1321L94.1884 32.0265ZM95.0509 39.1963C96.2813 39.9961 97.2256 39.9568 97.8318 38.9257L97.857 38.8776C98.5396 37.8265 98.0753 37.0755 96.8961 36.3038L95.5119 35.4195L93.6155 38.2838L95.0509 39.1963Z" fill="#242938"/>
<path d="M107.785 54.4619L114.543 51.4487L115.88 54.037L109.222 56.9823C107.349 57.8045 106.873 58.7158 107.644 60.2519C108.44 61.7401 109.483 62.1288 111.534 61.2189L118.09 58.3414L119.426 60.9297L112.744 63.923C109.681 65.264 107.263 64.2423 105.644 61.1899C104.153 58.1456 104.798 55.783 107.785 54.4619Z" fill="#242938"/>
<path d="M120.687 66.0607L121.315 69.245L114.075 74.8234L122.181 73.8556L122.653 76.3366L110.292 77.8002L109.767 75.0435L117.561 68.9063L108.772 69.9295L108.3 67.4484L120.687 66.0607Z" fill="#242938"/>
<path d="M113.75 79.6941L113.489 82.3213C112.351 82.2486 111.392 82.5827 111.227 84.4006C111.108 85.6285 111.746 86.5341 112.733 86.6465C113.695 86.8068 114.122 86.3646 114.566 84.6386C115.254 81.5692 116.335 80.5016 118.765 80.8545C120.891 81.1632 122.32 83.1818 122.109 85.8369C121.848 88.5877 120.466 89.982 117.962 89.7726L118.173 87.2411C119.336 87.266 119.914 86.6604 120.008 85.4804C120.101 84.3003 119.566 83.5742 118.781 83.45C117.87 83.3177 117.442 83.6363 116.999 85.4859C116.36 88.336 115.382 89.7067 112.826 89.3458C110.598 88.9811 108.967 86.9744 109.227 84.1C109.484 80.7312 111.271 79.4369 113.75 79.6941Z" fill="#242938"/>
<path d="M114.338 92.0303L114.44 92.0863C117.996 93.6741 119.487 97.0846 118.215 100.269C117.143 102.947 114.974 104.342 111.953 103.358L112.975 100.776C114.447 101.216 115.508 100.814 116.057 99.3892C116.78 97.6293 115.73 95.8798 113.343 94.812L113.241 94.756C110.803 93.6601 108.982 94.1376 108.234 95.9454C107.711 97.3223 108.023 98.604 109.447 99.5114L108.475 101.998C105.679 100.458 104.978 97.7911 106.075 95.0654C107.546 91.3739 110.706 90.4623 114.338 92.0303Z" fill="#242938"/>
<path d="M113.199 109.418L111.466 111.483L107.397 108.133L104.307 111.792L108.377 115.143L106.645 117.208L96.7241 109.034L98.4569 106.969L102.578 110.347L105.667 106.687L101.546 103.309L103.279 101.244L113.199 109.418Z" fill="#242938"/>
<path d="M99.2255 115.551L99.3023 115.655C101.377 118.834 100.614 122.426 97.5558 124.262C94.422 126.118 90.7892 125.292 88.6632 122.084L88.5865 121.98C86.5115 118.801 87.0722 115.22 90.307 113.297C93.5419 111.373 97.1763 112.447 99.2255 115.551ZM90.9872 120.524L91.0639 120.628C92.4723 122.699 94.4306 123.468 96.301 122.399C98.0954 121.349 98.3108 119.307 96.8765 117.159L96.7997 117.055C95.3655 114.908 93.2561 114.302 91.5627 115.284C89.7683 116.334 89.5529 118.376 90.9872 120.524Z" fill="#242938"/>
<path d="M86.189 123.272L86.2407 123.424C87.2528 127.006 85.37 130.106 81.7726 130.842C78.0993 131.598 74.8401 129.681 73.8281 126.099L73.7764 125.947C72.7643 122.366 74.4693 119.23 78.2695 118.481C82.0439 117.657 85.2028 119.766 86.189 123.272ZM76.5882 125.334L76.6399 125.486C77.3143 127.833 79.0226 129.205 81.0997 128.743C83.2278 128.309 84.0282 126.528 83.3279 124.105L83.2762 123.953C82.601 121.483 80.7415 120.274 78.7654 120.668C76.7384 121.034 75.9129 122.864 76.5882 125.334Z" fill="#242938"/>
<path d="M70.936 132.28L68.0954 132.074L68.0567 121.995L62.9337 121.643L62.8944 119.462L70.858 120.02L70.936 132.28Z" fill="#242938"/>
<path d="M59.0602 131.375L51.0126 128.998L51.5094 126.916L56.7721 128.445L57.4177 125.702L53.2021 124.439L53.6997 122.482L57.9152 123.745L58.6104 120.781L53.0666 119.16L53.5634 117.079L61.8409 119.521L59.0602 131.375Z" fill="#242938"/>
<path d="M46.9653 127.43L42.9478 125.161C40.312 123.65 39.1775 121.664 40.3875 119.479L40.4127 119.431C41.2952 117.871 42.721 117.54 44.279 117.962L43.7553 111.789L46.4423 113.328L46.9368 118.927L48.0627 119.546L50.2803 115.437L52.8138 116.891L46.9653 127.43ZM45.6709 120.338C44.3916 119.635 43.4744 119.75 42.9454 120.761L42.9202 120.809C42.3408 121.915 42.8045 122.666 44.0327 123.341L45.4655 124.128L47.129 121.077L45.6709 120.338Z" fill="#242938"/>
</svg>
