<svg width="490" height="474" viewBox="0 0 490 474" fill="none" xmlns="http://www.w3.org/2000/svg">
<path d="M152.642 173.253L143.866 178.261L125.562 146.706L107.76 156.974L126.064 188.529L117.288 193.538L94.4708 154.219L129.825 133.809L152.642 173.253Z" fill="#242938"/>
<path d="M141.86 126.796L150.636 121.788L152.642 125.294C153.394 122.789 154.522 120.786 155.776 119.033C157.03 117.28 158.785 115.777 161.041 114.525C163.549 113.022 166.307 112.271 169.065 112.02C171.823 111.77 174.581 112.146 177.088 113.022C179.721 113.899 182.229 115.401 184.611 117.405C186.993 119.408 188.998 121.913 190.754 124.918C192.509 127.923 193.637 130.929 194.264 134.059C194.765 137.064 194.891 140.07 194.389 142.699C193.888 145.454 192.885 147.958 191.255 150.212C189.625 152.466 187.619 154.345 185.112 155.847C182.855 157.099 180.724 157.851 178.593 158.101C176.462 158.352 174.08 158.101 171.572 157.6L182.855 177.009L174.08 182.018L141.86 126.796ZM167.435 150.713C169.19 151.214 170.945 151.339 172.951 151.089C174.957 150.838 176.712 150.212 178.217 149.336C181.476 147.457 183.482 144.703 184.234 141.197C184.987 137.69 184.234 133.934 181.978 130.177C179.721 126.421 176.963 123.916 173.453 122.664C169.942 121.537 166.683 121.913 163.298 123.791C161.794 124.668 160.414 125.92 159.161 127.422C157.907 128.925 157.03 130.678 156.653 132.431L167.435 150.713Z" fill="#242938"/>
<path d="M239.271 97.1193C241.026 100.25 242.154 103.255 242.656 106.386C243.157 109.516 243.032 112.396 242.154 115.276C241.402 118.156 240.023 120.786 238.017 123.29C236.011 125.795 233.504 127.923 230.37 129.676C227.236 131.429 224.227 132.556 221.093 133.057C217.958 133.558 214.95 133.308 212.066 132.556C209.183 131.805 206.55 130.428 204.168 128.424C201.786 126.421 199.655 123.916 197.9 120.911C196.144 117.906 195.016 114.9 194.515 111.77C194.013 108.639 194.138 105.634 194.891 102.754C195.643 99.8741 197.022 97.1193 199.028 94.7401C201.034 92.2357 203.541 90.107 206.55 88.3539C209.684 86.6009 212.818 85.3487 215.953 84.973C219.087 84.4721 222.096 84.7226 224.979 85.4739C227.863 86.2252 230.495 87.7278 233.003 89.6061C235.385 91.6096 237.516 94.114 239.271 97.1193ZM230.495 102.128C229.492 100.375 228.239 98.8724 226.734 97.495C225.23 96.2428 223.725 95.3662 221.97 94.7401C220.215 94.2393 218.46 93.9888 216.579 94.2393C214.699 94.4897 212.818 94.9906 211.063 96.1175C209.183 97.2445 207.678 98.4967 206.675 99.9993C205.547 101.502 204.92 103.13 204.544 104.883C204.168 106.636 204.168 108.389 204.544 110.393C204.92 112.271 205.672 114.149 206.675 115.902C207.804 117.781 209.057 119.283 210.436 120.535C211.815 121.788 213.445 122.664 215.075 123.165C216.705 123.666 218.46 123.916 220.34 123.666C222.221 123.415 223.976 122.789 225.857 121.788C227.737 120.786 229.116 119.408 230.245 118.031C231.373 116.528 232.125 114.9 232.501 113.147C232.877 111.394 232.877 109.641 232.501 107.763C232.25 105.885 231.498 104.006 230.495 102.128Z" fill="#242938"/>
<path d="M282.022 119.784L271.24 101.252C271.491 102.754 271.24 104.132 270.613 105.259C269.861 106.511 268.983 107.387 267.855 108.139C266.351 109.015 264.595 109.391 262.715 109.266C260.834 109.14 258.954 108.514 256.948 107.387C254.942 106.26 252.936 104.507 250.805 102.253C248.799 99.9993 246.668 97.1193 244.662 93.7384C242.656 90.3574 241.152 87.1017 240.274 84.2217C239.396 81.3416 238.895 78.712 239.02 76.4581C239.02 74.2041 239.522 72.2006 240.274 70.5728C241.152 68.9449 242.28 67.6927 243.91 66.8162C245.038 66.1901 246.292 65.8144 247.796 65.8144C249.175 65.8144 250.429 66.3153 251.682 67.1918L241.026 48.6594L249.802 43.6506L260.458 62.1831C260.207 60.6804 260.458 59.303 261.085 58.176C261.712 56.9238 262.715 56.0473 263.843 55.4212C265.473 54.5447 267.103 54.0438 268.983 54.169C270.864 54.2942 272.744 54.9203 274.75 56.0473C276.756 57.1743 278.762 58.8021 280.893 61.0561C282.899 63.31 285.03 66.1901 287.036 69.571C289.042 73.0771 290.547 76.2076 291.424 79.0877C292.302 81.9677 292.803 84.5973 292.803 86.9765C292.803 89.3557 292.427 91.234 291.549 92.987C290.672 94.6149 289.544 95.8671 287.914 96.8688C286.786 97.4949 285.532 97.8706 284.153 97.8706C282.774 97.8706 281.52 97.3697 280.266 96.4932L290.923 114.9L282.022 119.784ZM255.318 73.7032C254.315 72.9519 253.312 72.451 252.56 72.451C251.808 72.451 251.056 72.5763 250.429 72.9519C249.802 73.3276 249.3 73.9537 248.924 74.705C248.548 75.4563 248.548 76.4581 248.674 77.7103C248.924 78.9625 249.3 80.4651 250.053 82.3434C250.805 84.2217 251.933 86.3504 253.312 88.8548C254.817 91.3592 256.07 93.4879 257.324 94.9906C258.578 96.4932 259.581 97.7454 260.584 98.4967C261.587 99.3732 262.464 99.7489 263.342 99.8741C264.219 99.9993 264.846 99.8741 265.598 99.4985C266.225 99.1228 266.727 98.6219 266.977 97.8706C267.353 97.2445 267.353 96.2427 267.228 94.8653L255.318 73.7032ZM276.255 89.7313C277.383 90.4827 278.26 90.8583 279.013 90.9835C279.765 90.9835 280.517 90.8583 281.144 90.4827C281.771 90.107 282.272 89.4809 282.648 88.7296C283.024 87.9783 283.024 86.9765 282.899 85.7243C282.648 84.4721 282.272 82.8443 281.52 81.0912C280.768 79.2129 279.64 77.0842 278.26 74.5798C276.881 72.0754 275.502 70.0719 274.249 68.444C272.995 66.8162 271.867 65.6892 270.989 64.9379C269.986 64.1866 269.109 63.6857 268.231 63.5605C267.353 63.4352 266.727 63.5605 265.974 63.9361C265.348 64.3118 264.846 64.8127 264.47 65.4388C264.094 66.0649 263.969 67.0666 264.094 68.444L276.255 89.7313Z" fill="#242938"/>
<path d="M302.86 64.1116C304.816 66.5691 307.337 68.2271 310.6 68.7788C313.741 69.363 317.197 68.6964 320.934 66.658C323.888 65.0886 326.107 63.1977 327.776 61.1946C329.414 59.0706 330.655 56.923 331.315 54.5424L339.313 58.2331C338.162 62.1713 336.332 65.5137 334 67.9533C331.701 70.5139 328.756 72.5995 325.382 74.5406C322.339 76.2633 319.102 77.2604 315.856 77.7412C312.611 78.2219 309.566 78.0006 306.634 77.2306C303.702 76.4605 301.004 75.1094 298.418 73.2095C295.954 71.2771 293.844 68.7312 292.089 65.5717C290.366 62.5331 289.402 59.4207 288.988 56.4205C288.541 53.2994 288.764 50.2579 289.69 47.417C290.463 44.4876 291.971 41.8798 293.906 39.4166C295.963 36.9209 298.513 34.8117 301.588 33.2099C304.873 31.4222 308.11 30.4252 311.267 30.0978C314.545 29.738 317.622 30.0802 320.651 31.2131C323.648 32.2251 326.597 34.0276 329.192 36.4438C331.907 38.8275 334.3 41.9457 336.371 45.7985L302.86 64.1116ZM321.979 43.4323C320.055 41.0958 317.631 39.8006 314.554 39.4584C311.477 39.1161 308.539 39.7739 305.827 41.2783C302.994 42.8152 300.961 44.9156 299.518 47.7653C298.196 50.5826 297.908 53.3822 298.928 56.2202L321.979 43.4323Z" fill="#242938"/>
<path d="M351.637 109.824C348.664 106.951 346.718 103.803 345.565 100.534C344.52 97.3288 343.943 93.8147 343.834 89.9923C343.833 86.2325 344.375 82.7861 345.523 79.5447C346.608 76.4118 348.282 73.7634 350.265 71.5826C352.356 69.4645 354.819 67.7056 357.809 66.5397C360.798 65.3738 364.034 64.7839 367.687 64.7244C371.169 64.7106 374.339 65.239 377.303 66.3723C380.268 67.5057 382.811 69.1185 384.887 71.0398C386.962 72.9611 388.679 75.2534 389.865 77.9626C391.051 80.6718 391.724 83.5183 391.775 86.4394C391.809 89.64 391.146 92.2934 389.831 94.5707C388.516 96.848 386.675 98.5324 384.137 99.6694L390.713 99.5623L390.785 108.713L369.55 108.888L369.477 99.7365C373.519 99.7566 376.679 98.5449 379.05 96.4437C381.484 94.2341 382.552 91.3807 382.535 87.9005C382.51 86.44 382.205 84.9625 381.62 83.4681C381.035 81.9738 380.108 80.5709 378.838 79.2595C377.569 77.9482 376.111 76.9622 374.14 76.1134C372.278 75.3274 370.057 74.9124 367.476 74.8685C364.896 74.8246 362.733 75.3111 360.942 76.1567C359.151 77.0023 357.514 78.0817 356.483 79.3661C355.281 80.6962 354.404 82.2144 353.791 84.0291C353.178 85.8438 352.953 87.7382 352.899 89.5867C352.87 92.8958 353.434 95.6796 354.466 98.155C355.498 100.63 356.951 102.626 358.53 104.405L351.637 109.824Z" fill="#242938"/>
<path d="M352.228 164.309C349.344 161.429 347.338 158.299 346.21 155.043C345.082 151.788 344.58 148.281 344.58 144.525C344.58 140.768 345.207 137.262 346.335 134.132C347.464 131.001 349.093 128.372 351.099 126.243C353.231 124.114 355.738 122.361 358.621 121.234C361.505 120.107 364.89 119.481 368.526 119.481C372.036 119.481 375.17 120.107 378.179 121.234C381.188 122.361 383.695 123.989 385.826 125.867C387.958 127.871 389.587 130.125 390.716 132.879C391.969 135.509 392.471 138.389 392.471 141.394C392.471 144.525 391.844 147.28 390.465 149.534C389.211 151.788 387.205 153.541 384.698 154.542H391.342V163.683H370.03V154.542C374.042 154.542 377.301 153.415 379.683 151.287C382.065 149.033 383.319 146.278 383.319 142.772C383.319 141.394 383.068 139.892 382.441 138.389C381.815 136.886 380.937 135.384 379.809 134.132C378.555 132.879 377.051 131.752 375.17 131.001C373.289 130.125 371.033 129.749 368.4 129.749C365.893 129.749 363.636 130.125 361.756 131.001C359.875 131.878 358.371 132.879 357.242 134.257C355.989 135.634 355.111 137.137 354.484 138.89C353.857 140.643 353.607 142.521 353.607 144.525C353.607 147.781 354.108 150.661 355.111 153.04C356.114 155.419 357.493 157.548 359.248 159.301L352.228 164.309Z" fill="#242938"/>
<path d="M391.468 187.726H360.126L391.468 205.632V218.404H345.834V208.261H379.056L345.708 189.228V177.458H391.468V187.726Z" fill="#242938"/>
<path d="M363.385 246.203C363.511 241.069 364.639 237.062 367.021 234.182C369.278 231.302 372.788 229.924 377.427 229.924C382.065 229.924 385.576 231.427 387.958 234.307C390.34 237.187 391.593 241.319 391.593 246.579V273H345.959V262.857H363.636V258.725L345.959 242.697V229.298L363.385 246.203ZM377.427 239.942C375.797 239.942 374.543 240.568 373.666 241.695C372.788 242.822 372.412 244.45 372.412 246.453V262.857H382.191V246.453C382.191 244.45 381.814 242.822 380.937 241.695C380.059 240.568 379.056 239.942 377.427 239.942Z" fill="#242938"/>
<path d="M291.286 115.074C307.367 105.598 327.635 117.3 327.469 135.964L324.836 432.355C324.673 450.735 304.755 462.117 288.837 452.926L36.1045 307.011C20.1865 297.821 20.0846 274.88 35.9204 265.549L291.286 115.074Z" fill="#FF5F49"/>
<path d="M14.3923 262.548H12.2361V243.986H3.50171V262.548H1.36108V242.158H14.3923V262.548ZM32.6267 255.283C32.6267 256.418 32.4496 257.449 32.0955 258.376C31.7413 259.304 31.2413 260.106 30.5955 260.783C29.96 261.449 29.1892 261.97 28.283 262.345C27.3767 262.72 26.3611 262.908 25.2361 262.908C24.4653 262.908 23.7153 262.767 22.9861 262.486C22.2673 262.205 21.5955 261.788 20.9705 261.236V268.376H18.8298V247.986H20.9705V249.33C22.2934 248.205 23.7153 247.642 25.2361 247.642C26.3611 247.642 27.3767 247.83 28.283 248.205C29.1892 248.569 29.96 249.095 30.5955 249.783C31.2413 250.46 31.7413 251.272 32.0955 252.22C32.4496 253.158 32.6267 254.179 32.6267 255.283ZM30.4861 255.283C30.4861 254.47 30.3715 253.71 30.1423 253.001C29.9236 252.283 29.5903 251.663 29.1423 251.142C28.6944 250.621 28.1423 250.21 27.4861 249.908C26.8403 249.606 26.0903 249.455 25.2361 249.455C24.4236 249.455 23.6632 249.606 22.9548 249.908C22.2569 250.21 21.5955 250.699 20.9705 251.376V259.189C21.5955 259.866 22.2569 260.35 22.9548 260.642C23.6632 260.934 24.4236 261.08 25.2361 261.08C26.0903 261.08 26.8403 260.929 27.4861 260.626C28.1423 260.324 28.6944 259.913 29.1423 259.392C29.5903 258.871 29.9236 258.262 30.1423 257.564C30.3715 256.856 30.4861 256.095 30.4861 255.283ZM50.4705 255.314C50.4705 256.449 50.2882 257.481 49.9236 258.408C49.5694 259.335 49.0538 260.132 48.3767 260.798C47.71 261.455 46.908 261.97 45.9705 262.345C45.033 262.72 43.9861 262.908 42.8298 262.908C41.6944 262.908 40.658 262.72 39.7205 262.345C38.783 261.97 37.9757 261.455 37.2986 260.798C36.6319 260.132 36.1163 259.335 35.7517 258.408C35.3975 257.481 35.2205 256.449 35.2205 255.314C35.2205 254.21 35.3975 253.184 35.7517 252.236C36.1163 251.278 36.6319 250.465 37.2986 249.798C37.9757 249.121 38.783 248.595 39.7205 248.22C40.658 247.835 41.6944 247.642 42.8298 247.642C43.9861 247.642 45.033 247.835 45.9705 248.22C46.908 248.595 47.71 249.121 48.3767 249.798C49.0538 250.465 49.5694 251.278 49.9236 252.236C50.2882 253.184 50.4705 254.21 50.4705 255.314ZM48.3298 255.314C48.3298 254.481 48.2048 253.715 47.9548 253.017C47.7153 252.309 47.3559 251.689 46.8767 251.158C46.3975 250.626 45.8142 250.21 45.1267 249.908C44.4496 249.606 43.684 249.455 42.8298 249.455C41.9757 249.455 41.2048 249.606 40.5173 249.908C39.8403 250.21 39.2673 250.626 38.7986 251.158C38.3298 251.689 37.9705 252.309 37.7205 253.017C37.4809 253.715 37.3611 254.481 37.3611 255.314C37.3611 256.147 37.4809 256.918 37.7205 257.626C37.9705 258.324 38.3298 258.929 38.7986 259.439C39.2673 259.949 39.8403 260.35 40.5173 260.642C41.2048 260.934 41.9757 261.08 42.8298 261.08C43.684 261.08 44.4496 260.934 45.1267 260.642C45.8142 260.35 46.3975 259.949 46.8767 259.439C47.3559 258.929 47.7153 258.324 47.9548 257.626C48.2048 256.918 48.3298 256.147 48.3298 255.314ZM53.7673 247.986H55.908V259.736L63.783 247.986H66.7986V262.548H64.6423V250.267L56.4236 262.548H53.7673V247.986ZM64.7517 243.642C63.533 244.85 62.0486 245.455 60.2986 245.455C58.5486 245.455 57.0642 244.85 55.8455 243.642L57.0642 242.455C58.0434 243.434 59.1215 243.923 60.2986 243.923C61.4757 243.923 62.5538 243.434 63.533 242.455L64.7517 243.642ZM70.4705 260.72C70.96 260.616 71.4288 260.335 71.8767 259.876C72.3246 259.418 72.7153 258.783 73.0486 257.97C73.3819 257.158 73.6475 256.173 73.8455 255.017C74.0538 253.85 74.158 252.512 74.158 251.001V247.986H82.1111V260.72H85.033V267.533H83.1111V262.548H72.3923V267.533H70.4705V260.72ZM76.2986 251.001C76.2986 252.21 76.21 253.345 76.033 254.408C75.8663 255.46 75.6423 256.403 75.3611 257.236C75.0903 258.069 74.7778 258.788 74.4236 259.392C74.0694 259.986 73.7205 260.429 73.3767 260.72H79.9705V249.814H76.2986V251.001ZM88.7048 247.986H90.8455V259.736L98.7205 247.986H101.736V262.548H99.5798V250.267L91.3611 262.548H88.7048V247.986ZM137.408 262.548H133.22L128.345 256.658L126.877 258.158V262.548H123.642V247.986H126.877V254.158L132.705 247.986H137.142L130.424 254.673L137.408 262.548ZM154.783 247.986L148.502 265.392C148.033 266.653 147.351 267.522 146.455 268.001C145.559 268.481 144.491 268.72 143.252 268.72C142.825 268.72 142.366 268.679 141.877 268.595C141.387 268.512 140.877 268.371 140.345 268.173L141.017 265.205C141.465 265.371 141.877 265.486 142.252 265.548C142.627 265.621 142.96 265.658 143.252 265.658C144.22 265.658 144.882 265.22 145.236 264.345L145.814 262.939L140.252 247.986H143.611L147.611 259.001L151.314 247.986H154.783ZM158.58 247.986H161.814V249.298C162.429 248.746 163.049 248.335 163.674 248.064C164.309 247.783 165.033 247.642 165.845 247.642C166.783 247.642 167.653 247.835 168.455 248.22C169.257 248.595 169.944 249.121 170.517 249.798C171.09 250.465 171.543 251.272 171.877 252.22C172.21 253.158 172.377 254.179 172.377 255.283C172.377 256.397 172.21 257.423 171.877 258.361C171.543 259.298 171.09 260.106 170.517 260.783C169.944 261.449 169.257 261.97 168.455 262.345C167.653 262.72 166.783 262.908 165.845 262.908C165.033 262.908 164.309 262.762 163.674 262.47C163.049 262.179 162.429 261.757 161.814 261.205V268.376H158.58V247.986ZM161.814 258.642C162.2 259.069 162.689 259.403 163.283 259.642C163.887 259.871 164.465 259.986 165.017 259.986C166.236 259.986 167.226 259.554 167.986 258.689C168.757 257.824 169.142 256.689 169.142 255.283C169.142 253.876 168.757 252.736 167.986 251.861C167.226 250.986 166.236 250.548 165.017 250.548C164.465 250.548 163.887 250.663 163.283 250.892C162.689 251.111 162.2 251.434 161.814 251.861V258.642ZM189.299 260.47C188.361 261.408 187.372 262.048 186.33 262.392C185.299 262.736 184.179 262.908 182.97 262.908C181.752 262.908 180.642 262.725 179.642 262.361C178.653 261.996 177.809 261.486 177.111 260.83C176.424 260.163 175.892 259.361 175.517 258.423C175.153 257.486 174.97 256.439 174.97 255.283C174.97 254.179 175.153 253.158 175.517 252.22C175.892 251.272 176.392 250.465 177.017 249.798C177.653 249.121 178.398 248.595 179.252 248.22C180.106 247.835 181.012 247.642 181.97 247.642C182.97 247.642 183.84 247.85 184.58 248.267C185.319 248.684 185.856 249.293 186.189 250.095V247.986H189.08V254.767H186.189C186.189 253.486 185.835 252.465 185.127 251.705C184.429 250.934 183.517 250.548 182.392 250.548C181.944 250.548 181.47 250.642 180.97 250.83C180.481 251.007 180.028 251.288 179.611 251.673C179.205 252.059 178.866 252.548 178.595 253.142C178.325 253.736 178.189 254.449 178.189 255.283C178.189 256.095 178.319 256.798 178.58 257.392C178.84 257.975 179.179 258.46 179.595 258.845C180.023 259.22 180.523 259.507 181.095 259.705C181.679 259.892 182.278 259.986 182.892 259.986C183.944 259.986 184.856 259.824 185.627 259.501C186.408 259.168 187.08 258.731 187.642 258.189L189.299 260.47ZM14.3923 294.548H11.158V282.908H4.59546V294.548H1.36108V279.986H14.3923V294.548ZM18.8298 279.986H22.0642V281.298C22.6788 280.746 23.2986 280.335 23.9236 280.064C24.559 279.783 25.283 279.642 26.0955 279.642C27.033 279.642 27.9028 279.835 28.7048 280.22C29.5069 280.595 30.1944 281.121 30.7673 281.798C31.3403 282.465 31.7934 283.272 32.1267 284.22C32.46 285.158 32.6267 286.179 32.6267 287.283C32.6267 288.397 32.46 289.423 32.1267 290.361C31.7934 291.298 31.3403 292.106 30.7673 292.783C30.1944 293.449 29.5069 293.97 28.7048 294.345C27.9028 294.72 27.033 294.908 26.0955 294.908C25.283 294.908 24.559 294.762 23.9236 294.47C23.2986 294.179 22.6788 293.757 22.0642 293.205V300.376H18.8298V279.986ZM22.0642 290.642C22.4496 291.069 22.9392 291.403 23.533 291.642C24.1371 291.871 24.7153 291.986 25.2673 291.986C26.4861 291.986 27.4757 291.554 28.2361 290.689C29.0069 289.824 29.3923 288.689 29.3923 287.283C29.3923 285.876 29.0069 284.736 28.2361 283.861C27.4757 282.986 26.4861 282.548 25.2673 282.548C24.7153 282.548 24.1371 282.663 23.533 282.892C22.9392 283.111 22.4496 283.434 22.0642 283.861V290.642ZM50.4705 287.283C50.4705 288.418 50.2882 289.449 49.9236 290.376C49.5694 291.304 49.0538 292.106 48.3767 292.783C47.71 293.449 46.908 293.97 45.9705 294.345C45.033 294.72 43.9861 294.908 42.8298 294.908C41.6944 294.908 40.658 294.72 39.7205 294.345C38.783 293.97 37.9757 293.449 37.2986 292.783C36.6319 292.106 36.1163 291.304 35.7517 290.376C35.3975 289.449 35.2205 288.418 35.2205 287.283C35.2205 286.179 35.3975 285.158 35.7517 284.22C36.1163 283.272 36.6319 282.46 37.2986 281.783C37.9757 281.095 38.783 280.569 39.7205 280.205C40.658 279.83 41.6944 279.642 42.8298 279.642C43.9861 279.642 45.033 279.83 45.9705 280.205C46.908 280.569 47.71 281.095 48.3767 281.783C49.0538 282.46 49.5694 283.272 49.9236 284.22C50.2882 285.158 50.4705 286.179 50.4705 287.283ZM47.2517 287.283C47.2517 286.626 47.1475 286.007 46.9392 285.423C46.7413 284.83 46.4496 284.324 46.0642 283.908C45.6788 283.491 45.21 283.163 44.658 282.923C44.1163 282.673 43.5069 282.548 42.8298 282.548C42.1423 282.548 41.5278 282.673 40.9861 282.923C40.4444 283.163 39.9861 283.491 39.6111 283.908C39.2361 284.324 38.9444 284.83 38.7361 285.423C38.5382 286.007 38.4392 286.626 38.4392 287.283C38.4392 287.97 38.5382 288.595 38.7361 289.158C38.9444 289.72 39.2361 290.215 39.6111 290.642C39.9861 291.069 40.4444 291.403 40.9861 291.642C41.5278 291.871 42.1423 291.986 42.8298 291.986C43.5069 291.986 44.1163 291.871 44.658 291.642C45.21 291.403 45.6788 291.069 46.0642 290.642C46.4496 290.215 46.7413 289.72 46.9392 289.158C47.1475 288.595 47.2517 287.97 47.2517 287.283ZM58.658 283.376C58.4913 282.991 58.3038 282.731 58.0955 282.595C57.8975 282.46 57.684 282.392 57.4548 282.392C57.2153 282.392 56.9861 282.47 56.7673 282.626C56.559 282.783 56.3819 283.048 56.2361 283.423C56.0903 283.798 55.9705 284.304 55.8767 284.939C55.7934 285.564 55.7517 286.335 55.7517 287.251C55.7517 288.189 55.7934 288.97 55.8767 289.595C55.9705 290.21 56.0903 290.71 56.2361 291.095C56.3819 291.481 56.559 291.751 56.7673 291.908C56.9861 292.064 57.2153 292.142 57.4548 292.142C57.684 292.142 57.8975 292.074 58.0955 291.939C58.3038 291.804 58.4913 291.543 58.658 291.158V283.376ZM58.658 300.376V293.564C58.4913 294.012 58.2153 294.345 57.8298 294.564C57.4444 294.793 57.0382 294.908 56.6111 294.908C56.0382 294.908 55.5069 294.746 55.0173 294.423C54.5278 294.1 54.0955 293.621 53.7205 292.986C53.3455 292.34 53.0538 291.543 52.8455 290.595C52.6267 289.647 52.5173 288.533 52.5173 287.251C52.5173 285.97 52.6267 284.856 52.8455 283.908C53.0538 282.96 53.3455 282.173 53.7205 281.548C54.0955 280.913 54.5278 280.439 55.0173 280.126C55.5069 279.804 56.0382 279.642 56.6111 279.642C57.0382 279.642 57.4444 279.757 57.8298 279.986C58.2153 280.205 58.4913 280.538 58.658 280.986V274.158H61.8923V280.986C62.0694 280.538 62.3455 280.205 62.7205 279.986C63.1059 279.757 63.5121 279.642 63.9392 279.642C64.5225 279.642 65.059 279.804 65.5486 280.126C66.0382 280.439 66.4705 280.913 66.8455 281.548C67.2205 282.173 67.5121 282.96 67.7205 283.908C67.9392 284.856 68.0486 285.97 68.0486 287.251C68.0486 288.533 67.9392 289.647 67.7205 290.595C67.5121 291.543 67.2205 292.34 66.8455 292.986C66.4705 293.621 66.0382 294.1 65.5486 294.423C65.059 294.746 64.5225 294.908 63.9392 294.908C63.5121 294.908 63.1059 294.793 62.7205 294.564C62.3455 294.345 62.0694 294.012 61.8923 293.564V300.376H58.658ZM61.8923 291.158C62.0694 291.543 62.2569 291.804 62.4548 291.939C62.6632 292.074 62.8819 292.142 63.1111 292.142C63.3507 292.142 63.5746 292.064 63.783 291.908C64.0017 291.751 64.184 291.481 64.3298 291.095C64.4757 290.71 64.5903 290.21 64.6736 289.595C64.7673 288.97 64.8142 288.189 64.8142 287.251C64.8142 286.335 64.7673 285.564 64.6736 284.939C64.5903 284.304 64.4757 283.798 64.3298 283.423C64.184 283.048 64.0017 282.783 63.783 282.626C63.5746 282.47 63.3507 282.392 63.1111 282.392C62.8819 282.392 62.6632 282.46 62.4548 282.595C62.2569 282.731 62.0694 282.991 61.8923 283.376V291.158ZM85.408 287.283C85.408 288.418 85.2257 289.449 84.8611 290.376C84.5069 291.304 83.9913 292.106 83.3142 292.783C82.6475 293.449 81.8455 293.97 80.908 294.345C79.9705 294.72 78.9236 294.908 77.7673 294.908C76.6319 294.908 75.5955 294.72 74.658 294.345C73.7205 293.97 72.9132 293.449 72.2361 292.783C71.5694 292.106 71.0538 291.304 70.6892 290.376C70.335 289.449 70.158 288.418 70.158 287.283C70.158 286.179 70.335 285.158 70.6892 284.22C71.0538 283.272 71.5694 282.46 72.2361 281.783C72.9132 281.095 73.7205 280.569 74.658 280.205C75.5955 279.83 76.6319 279.642 77.7673 279.642C78.9236 279.642 79.9705 279.83 80.908 280.205C81.8455 280.569 82.6475 281.095 83.3142 281.783C83.9913 282.46 84.5069 283.272 84.8611 284.22C85.2257 285.158 85.408 286.179 85.408 287.283ZM82.1892 287.283C82.1892 286.626 82.085 286.007 81.8767 285.423C81.6788 284.83 81.3871 284.324 81.0017 283.908C80.6163 283.491 80.1475 283.163 79.5955 282.923C79.0538 282.673 78.4444 282.548 77.7673 282.548C77.0798 282.548 76.4653 282.673 75.9236 282.923C75.3819 283.163 74.9236 283.491 74.5486 283.908C74.1736 284.324 73.8819 284.83 73.6736 285.423C73.4757 286.007 73.3767 286.626 73.3767 287.283C73.3767 287.97 73.4757 288.595 73.6736 289.158C73.8819 289.72 74.1736 290.215 74.5486 290.642C74.9236 291.069 75.3819 291.403 75.9236 291.642C76.4653 291.871 77.0798 291.986 77.7673 291.986C78.4444 291.986 79.0538 291.871 79.5955 291.642C80.1475 291.403 80.6163 291.069 81.0017 290.642C81.3871 290.215 81.6788 289.72 81.8767 289.158C82.085 288.595 82.1892 287.97 82.1892 287.283ZM88.7048 279.986H91.9392V281.298C92.5538 280.746 93.1736 280.335 93.7986 280.064C94.434 279.783 95.158 279.642 95.9705 279.642C96.908 279.642 97.7778 279.835 98.5798 280.22C99.3819 280.595 100.069 281.121 100.642 281.798C101.215 282.465 101.668 283.272 102.002 284.22C102.335 285.158 102.502 286.179 102.502 287.283C102.502 288.397 102.335 289.423 102.002 290.361C101.668 291.298 101.215 292.106 100.642 292.783C100.069 293.449 99.3819 293.97 98.5798 294.345C97.7778 294.72 96.908 294.908 95.9705 294.908C95.158 294.908 94.434 294.762 93.7986 294.47C93.1736 294.179 92.5538 293.757 91.9392 293.205V300.376H88.7048V279.986ZM91.9392 290.642C92.3246 291.069 92.8142 291.403 93.408 291.642C94.0121 291.871 94.5903 291.986 95.1423 291.986C96.3611 291.986 97.3507 291.554 98.1111 290.689C98.8819 289.824 99.2673 288.689 99.2673 287.283C99.2673 285.876 98.8819 284.736 98.1111 283.861C97.3507 282.986 96.3611 282.548 95.1423 282.548C94.5903 282.548 94.0121 282.663 93.408 282.892C92.8142 283.111 92.3246 283.434 91.9392 283.861V290.642ZM106.174 279.986H109.408V290.001L115.142 279.986H119.205V294.548H115.97V283.955L109.924 294.548H106.174V279.986ZM125.845 288.501C126.002 289.501 126.476 290.335 127.267 291.001C128.069 291.658 129.142 291.986 130.486 291.986C131.538 291.986 132.45 291.824 133.22 291.501C134.002 291.168 134.674 290.731 135.236 290.189L136.892 292.47C135.955 293.408 134.96 294.048 133.908 294.392C132.866 294.736 131.726 294.908 130.486 294.908C129.361 294.908 128.314 294.72 127.345 294.345C126.377 293.97 125.538 293.449 124.83 292.783C124.122 292.106 123.564 291.304 123.158 290.376C122.762 289.449 122.564 288.418 122.564 287.283C122.564 286.179 122.747 285.163 123.111 284.236C123.486 283.298 124.007 282.491 124.674 281.814C125.351 281.126 126.158 280.595 127.095 280.22C128.033 279.835 129.069 279.642 130.205 279.642C131.382 279.642 132.45 279.845 133.408 280.251C134.366 280.647 135.184 281.225 135.861 281.986C136.549 282.746 137.085 283.679 137.47 284.783C137.856 285.876 138.049 287.116 138.049 288.501H125.845ZM134.392 285.658C134.226 284.72 133.741 283.97 132.939 283.408C132.137 282.835 131.226 282.548 130.205 282.548C129.184 282.548 128.267 282.835 127.455 283.408C126.642 283.97 126.153 284.72 125.986 285.658H134.392ZM154.142 294.548H150.908V288.533H144.345V294.548H141.111V279.986H144.345V285.626H150.908V279.986H154.142V294.548ZM172.345 287.408H169.455V282.908H166.705V291.642H169.939V294.548H160.252V291.642H163.47V282.908H160.689V287.408H157.814V279.986H172.345V287.408ZM175.22 290.361C175.22 289.507 175.45 288.762 175.908 288.126C176.366 287.481 176.965 286.944 177.705 286.517C178.455 286.09 179.309 285.772 180.267 285.564C181.236 285.345 182.22 285.236 183.22 285.236C183.773 285.236 184.247 285.246 184.642 285.267C185.038 285.288 185.439 285.319 185.845 285.361V284.783C185.845 284.022 185.549 283.455 184.955 283.08C184.372 282.705 183.601 282.517 182.642 282.517C181.767 282.517 180.877 282.642 179.97 282.892C179.064 283.132 178.205 283.486 177.392 283.955L176.08 281.423C177.038 280.871 178.064 280.439 179.158 280.126C180.262 279.804 181.424 279.642 182.642 279.642C183.434 279.642 184.21 279.731 184.97 279.908C185.741 280.085 186.429 280.376 187.033 280.783C187.648 281.189 188.137 281.72 188.502 282.376C188.866 283.022 189.049 283.824 189.049 284.783V294.548H185.845V292.408C185.335 293.199 184.58 293.814 183.58 294.251C182.59 294.689 181.523 294.908 180.377 294.908C179.668 294.908 178.997 294.809 178.361 294.611C177.736 294.423 177.194 294.137 176.736 293.751C176.278 293.366 175.908 292.892 175.627 292.33C175.356 291.757 175.22 291.1 175.22 290.361ZM181.205 292.017C181.84 292.017 182.434 291.939 182.986 291.783C183.549 291.616 184.043 291.392 184.47 291.111C184.898 290.819 185.231 290.47 185.47 290.064C185.72 289.658 185.845 289.21 185.845 288.72V288.173C185.335 288.09 184.856 288.043 184.408 288.033C183.96 288.022 183.564 288.017 183.22 288.017C181.637 288.017 180.439 288.225 179.627 288.642C178.825 289.059 178.424 289.574 178.424 290.189C178.424 291.408 179.351 292.017 181.205 292.017ZM209.236 291.642V299.533H206.314V294.548H193.517V279.986H196.752V291.642H203.314V279.986H206.549V291.642H209.236ZM210.986 279.986H214.22V290.001L219.955 279.986H224.017V294.548H220.783V283.955L214.736 294.548H210.986V279.986ZM228.455 279.986H231.689V290.001L237.424 279.986H241.486V294.548H238.252V283.955L232.205 294.548H228.455V279.986ZM1.36108 311.986H3.50171V323.736L11.3767 311.986H14.3923V326.548H12.2361V314.267L4.01733 326.548H1.36108V311.986ZM50.0642 322.392C50.0642 323.798 49.5434 324.845 48.5017 325.533C47.4705 326.21 45.9861 326.548 44.0486 326.548H36.2986V311.986H43.5642C44.2725 311.986 44.9705 312.043 45.658 312.158C46.3559 312.262 46.9757 312.455 47.5173 312.736C48.059 313.007 48.5017 313.387 48.8455 313.876C49.1892 314.366 49.3611 315.007 49.3611 315.798C49.3611 316.548 49.1788 317.179 48.8142 317.689C48.4496 318.199 47.7361 318.59 46.6736 318.861C47.9757 319.163 48.8663 319.611 49.3455 320.205C49.8246 320.788 50.0642 321.517 50.0642 322.392ZM47.2205 315.923C47.2205 315.475 47.1007 315.116 46.8611 314.845C46.6215 314.564 46.3246 314.35 45.9705 314.205C45.6267 314.048 45.2413 313.944 44.8142 313.892C44.3871 313.84 43.9705 313.814 43.5642 313.814H38.4392V318.001H43.5642C43.9913 318.001 44.4236 317.975 44.8611 317.923C45.2986 317.871 45.6944 317.767 46.0486 317.611C46.4028 317.444 46.684 317.231 46.8923 316.97C47.1111 316.699 47.2205 316.35 47.2205 315.923ZM47.9236 322.298C47.9236 321.444 47.5746 320.819 46.8767 320.423C46.1788 320.028 45.2257 319.83 44.0173 319.83H38.4392V324.72H44.0173C45.2257 324.72 46.1788 324.517 46.8767 324.111C47.5746 323.705 47.9236 323.1 47.9236 322.298ZM65.4236 311.986H67.5642V326.548H65.4236V311.986ZM55.1423 317.814H57.6423C59.2465 317.814 60.4653 318.163 61.2986 318.861C62.1423 319.548 62.5642 320.647 62.5642 322.158C62.5642 323.679 62.1423 324.793 61.2986 325.501C60.4653 326.199 59.2569 326.548 57.6736 326.548H53.0017V311.986H55.1423V317.814ZM60.4236 322.158C60.4236 321.356 60.184 320.736 59.7048 320.298C59.2257 319.861 58.5486 319.642 57.6736 319.642H55.1423V324.72H57.6736C58.5486 324.72 59.2257 324.496 59.7048 324.048C60.184 323.6 60.4236 322.97 60.4236 322.158ZM72.8142 319.611C72.8142 321.267 73.2621 322.595 74.158 323.595C75.0538 324.585 76.2882 325.08 77.8611 325.08C78.5903 325.08 79.2621 324.955 79.8767 324.705C80.5017 324.444 81.0382 324.074 81.4861 323.595C81.934 323.106 82.2778 322.528 82.5173 321.861C82.7673 321.184 82.8923 320.434 82.8923 319.611C82.8923 317.944 82.4548 316.616 81.5798 315.626C80.7048 314.626 79.4653 314.126 77.8611 314.126C76.1319 314.126 74.8559 314.626 74.033 315.626C73.2205 316.616 72.8142 317.944 72.8142 319.611ZM70.4705 316.376C70.4705 314.814 70.6319 313.387 70.9548 312.095C71.2882 310.804 71.7517 309.694 72.3455 308.767C72.9496 307.84 73.6632 307.116 74.4861 306.595C75.309 306.074 76.2205 305.814 77.2205 305.814C77.6892 305.814 78.085 305.861 78.408 305.955C78.7309 306.048 79.0173 306.163 79.2673 306.298C79.5278 306.423 79.7725 306.533 80.0017 306.626C80.2413 306.72 80.5225 306.767 80.8455 306.767C81.2725 306.767 81.6319 306.694 81.9236 306.548C82.2257 306.403 82.5903 306.158 83.0173 305.814L84.1267 307.095C83.6788 307.522 83.1528 307.882 82.5486 308.173C81.9444 308.455 81.3767 308.595 80.8455 308.595C80.4392 308.595 80.085 308.548 79.783 308.455C79.4809 308.361 79.1996 308.251 78.9392 308.126C78.6892 307.991 78.4288 307.876 78.158 307.783C77.8975 307.689 77.585 307.642 77.2205 307.642C76.585 307.642 75.9861 307.819 75.4236 308.173C74.8715 308.517 74.3871 309.022 73.9705 309.689C73.5538 310.345 73.2257 311.142 72.9861 312.08C72.7569 313.017 72.6423 314.074 72.6423 315.251C72.9028 314.783 73.2205 314.366 73.5955 314.001C73.9705 313.637 74.3871 313.33 74.8455 313.08C75.3038 312.819 75.7934 312.626 76.3142 312.501C76.835 312.376 77.3507 312.314 77.8611 312.314C78.8819 312.314 79.8298 312.47 80.7048 312.783C81.5798 313.085 82.335 313.543 82.9705 314.158C83.6163 314.762 84.1215 315.517 84.4861 316.423C84.8507 317.33 85.033 318.392 85.033 319.611C85.033 320.632 84.8507 321.59 84.4861 322.486C84.1215 323.382 83.6163 324.158 82.9705 324.814C82.335 325.46 81.5798 325.97 80.7048 326.345C79.8298 326.72 78.8819 326.908 77.8611 326.908C75.4132 326.908 73.5694 326.054 72.3298 324.345C71.0903 322.637 70.4705 319.981 70.4705 316.376ZM90.0798 320.017C90.2361 321.559 90.7986 322.788 91.7673 323.705C92.7361 324.621 93.9965 325.08 95.5486 325.08C96.6423 325.08 97.6163 324.856 98.4705 324.408C99.3246 323.96 99.9653 323.403 100.392 322.736L101.892 323.767C101.163 324.788 100.293 325.569 99.283 326.111C98.2725 326.642 97.0278 326.908 95.5486 326.908C94.4236 326.908 93.3923 326.72 92.4548 326.345C91.5173 325.97 90.7048 325.449 90.0173 324.783C89.3403 324.106 88.8142 323.304 88.4392 322.376C88.0642 321.449 87.8767 320.418 87.8767 319.283C87.8767 318.179 88.0434 317.163 88.3767 316.236C88.7205 315.298 89.21 314.491 89.8455 313.814C90.4913 313.126 91.2725 312.595 92.1892 312.22C93.1059 311.835 94.1319 311.642 95.2673 311.642C96.5069 311.642 97.5903 311.85 98.5173 312.267C99.4444 312.684 100.215 313.262 100.83 314.001C101.455 314.731 101.913 315.606 102.205 316.626C102.507 317.647 102.658 318.778 102.658 320.017H90.0798ZM100.392 318.189C100.153 316.595 99.5746 315.408 98.658 314.626C97.7413 313.845 96.6111 313.455 95.2673 313.455C94.5798 313.455 93.9444 313.569 93.3611 313.798C92.7778 314.017 92.2621 314.335 91.8142 314.751C91.3663 315.168 90.9913 315.673 90.6892 316.267C90.3871 316.85 90.1944 317.491 90.1111 318.189H100.392ZM119.97 319.283C119.97 320.418 119.793 321.449 119.439 322.376C119.085 323.304 118.585 324.106 117.939 324.783C117.304 325.449 116.533 325.97 115.627 326.345C114.72 326.72 113.705 326.908 112.58 326.908C111.809 326.908 111.059 326.767 110.33 326.486C109.611 326.205 108.939 325.788 108.314 325.236V332.376H106.174V311.986H108.314V313.33C109.637 312.205 111.059 311.642 112.58 311.642C113.705 311.642 114.72 311.83 115.627 312.205C116.533 312.569 117.304 313.095 117.939 313.783C118.585 314.46 119.085 315.272 119.439 316.22C119.793 317.158 119.97 318.179 119.97 319.283ZM117.83 319.283C117.83 318.47 117.715 317.71 117.486 317.001C117.267 316.283 116.934 315.663 116.486 315.142C116.038 314.621 115.486 314.21 114.83 313.908C114.184 313.606 113.434 313.455 112.58 313.455C111.767 313.455 111.007 313.606 110.299 313.908C109.601 314.21 108.939 314.699 108.314 315.376V323.189C108.939 323.866 109.601 324.35 110.299 324.642C111.007 324.934 111.767 325.08 112.58 325.08C113.434 325.08 114.184 324.929 114.83 324.626C115.486 324.324 116.038 323.913 116.486 323.392C116.934 322.871 117.267 322.262 117.486 321.564C117.715 320.856 117.83 320.095 117.83 319.283ZM123.642 311.986H125.783V323.736L133.658 311.986H136.674V326.548H134.517V314.267L126.299 326.548H123.642V311.986ZM171.83 323.798C171.215 324.757 170.372 325.517 169.299 326.08C168.236 326.632 166.97 326.908 165.502 326.908C164.366 326.908 163.325 326.72 162.377 326.345C161.429 325.97 160.616 325.449 159.939 324.783C159.273 324.106 158.752 323.304 158.377 322.376C158.002 321.449 157.814 320.418 157.814 319.283C157.814 318.179 157.986 317.158 158.33 316.22C158.674 315.272 159.163 314.465 159.799 313.798C160.434 313.121 161.21 312.595 162.127 312.22C163.054 311.835 164.08 311.642 165.205 311.642C165.653 311.642 166.111 311.694 166.58 311.798C167.049 311.903 167.491 312.064 167.908 312.283C168.325 312.491 168.7 312.746 169.033 313.048C169.366 313.34 169.616 313.689 169.783 314.095V311.986H171.705V317.814H169.783C169.783 317.168 169.663 316.58 169.424 316.048C169.194 315.517 168.877 315.059 168.47 314.673C168.064 314.288 167.58 313.991 167.017 313.783C166.455 313.564 165.851 313.455 165.205 313.455C164.33 313.455 163.564 313.606 162.908 313.908C162.262 314.21 161.72 314.621 161.283 315.142C160.845 315.663 160.512 316.278 160.283 316.986C160.064 317.684 159.955 318.449 159.955 319.283C159.955 320.116 160.08 320.887 160.33 321.595C160.59 322.293 160.96 322.897 161.439 323.408C161.929 323.918 162.512 324.324 163.189 324.626C163.877 324.929 164.648 325.08 165.502 325.08C166.585 325.08 167.549 324.871 168.392 324.455C169.236 324.038 169.882 323.475 170.33 322.767L171.83 323.798ZM189.814 322.392C189.814 323.798 189.293 324.845 188.252 325.533C187.22 326.21 185.736 326.548 183.799 326.548H176.049V311.986H183.314C184.023 311.986 184.72 312.043 185.408 312.158C186.106 312.262 186.726 312.455 187.267 312.736C187.809 313.007 188.252 313.387 188.595 313.876C188.939 314.366 189.111 315.007 189.111 315.798C189.111 316.548 188.929 317.179 188.564 317.689C188.2 318.199 187.486 318.59 186.424 318.861C187.726 319.163 188.616 319.611 189.095 320.205C189.575 320.788 189.814 321.517 189.814 322.392ZM186.97 315.923C186.97 315.475 186.851 315.116 186.611 314.845C186.372 314.564 186.075 314.35 185.72 314.205C185.377 314.048 184.991 313.944 184.564 313.892C184.137 313.84 183.72 313.814 183.314 313.814H178.189V318.001H183.314C183.741 318.001 184.174 317.975 184.611 317.923C185.049 317.871 185.444 317.767 185.799 317.611C186.153 317.444 186.434 317.231 186.642 316.97C186.861 316.699 186.97 316.35 186.97 315.923ZM187.674 322.298C187.674 321.444 187.325 320.819 186.627 320.423C185.929 320.028 184.976 319.83 183.767 319.83H178.189V324.72H183.767C184.976 324.72 185.929 324.517 186.627 324.111C187.325 323.705 187.674 323.1 187.674 322.298ZM207.689 319.314C207.689 320.449 207.507 321.481 207.142 322.408C206.788 323.335 206.273 324.132 205.595 324.798C204.929 325.455 204.127 325.97 203.189 326.345C202.252 326.72 201.205 326.908 200.049 326.908C198.913 326.908 197.877 326.72 196.939 326.345C196.002 325.97 195.194 325.455 194.517 324.798C193.851 324.132 193.335 323.335 192.97 322.408C192.616 321.481 192.439 320.449 192.439 319.314C192.439 318.21 192.616 317.184 192.97 316.236C193.335 315.278 193.851 314.465 194.517 313.798C195.194 313.121 196.002 312.595 196.939 312.22C197.877 311.835 198.913 311.642 200.049 311.642C201.205 311.642 202.252 311.835 203.189 312.22C204.127 312.595 204.929 313.121 205.595 313.798C206.273 314.465 206.788 315.278 207.142 316.236C207.507 317.184 207.689 318.21 207.689 319.314ZM205.549 319.314C205.549 318.481 205.424 317.715 205.174 317.017C204.934 316.309 204.575 315.689 204.095 315.158C203.616 314.626 203.033 314.21 202.345 313.908C201.668 313.606 200.903 313.455 200.049 313.455C199.194 313.455 198.424 313.606 197.736 313.908C197.059 314.21 196.486 314.626 196.017 315.158C195.549 315.689 195.189 316.309 194.939 317.017C194.7 317.715 194.58 318.481 194.58 319.314C194.58 320.147 194.7 320.918 194.939 321.626C195.189 322.324 195.549 322.929 196.017 323.439C196.486 323.949 197.059 324.35 197.736 324.642C198.424 324.934 199.194 325.08 200.049 325.08C200.903 325.08 201.668 324.934 202.345 324.642C203.033 324.35 203.616 323.949 204.095 323.439C204.575 322.929 204.934 322.324 205.174 321.626C205.424 320.918 205.549 320.147 205.549 319.314ZM210.986 311.986H213.127V318.361H216.08C216.267 313.882 217.715 311.642 220.424 311.642C223.33 311.642 224.783 314.189 224.783 319.283C224.783 324.366 223.33 326.908 220.424 326.908C217.674 326.908 216.226 324.663 216.08 320.173H213.127V326.548H210.986V311.986ZM220.424 325.173C221.903 325.173 222.642 323.21 222.642 319.283C222.642 315.376 221.903 313.423 220.424 313.423C218.955 313.423 218.22 315.376 218.22 319.283C218.22 323.21 218.955 325.173 220.424 325.173ZM14.3923 358.548H12.2361V345.814H3.50171V358.548H1.36108V343.986H14.3923V358.548ZM32.6267 351.283C32.6267 352.418 32.4496 353.449 32.0955 354.376C31.7413 355.304 31.2413 356.106 30.5955 356.783C29.96 357.449 29.1892 357.97 28.283 358.345C27.3767 358.72 26.3611 358.908 25.2361 358.908C24.4653 358.908 23.7153 358.767 22.9861 358.486C22.2673 358.205 21.5955 357.788 20.9705 357.236V364.376H18.8298V343.986H20.9705V345.33C22.2934 344.205 23.7153 343.642 25.2361 343.642C26.3611 343.642 27.3767 343.83 28.283 344.205C29.1892 344.569 29.96 345.095 30.5955 345.783C31.2413 346.46 31.7413 347.272 32.0955 348.22C32.4496 349.158 32.6267 350.179 32.6267 351.283ZM30.4861 351.283C30.4861 350.47 30.3715 349.71 30.1423 349.001C29.9236 348.283 29.5903 347.663 29.1423 347.142C28.6944 346.621 28.1423 346.21 27.4861 345.908C26.8403 345.606 26.0903 345.455 25.2361 345.455C24.4236 345.455 23.6632 345.606 22.9548 345.908C22.2569 346.21 21.5955 346.699 20.9705 347.376V355.189C21.5955 355.866 22.2569 356.35 22.9548 356.642C23.6632 356.934 24.4236 357.08 25.2361 357.08C26.0903 357.08 26.8403 356.929 27.4861 356.626C28.1423 356.324 28.6944 355.913 29.1423 355.392C29.5903 354.871 29.9236 354.262 30.1423 353.564C30.3715 352.856 30.4861 352.095 30.4861 351.283ZM50.4705 351.314C50.4705 352.449 50.2882 353.481 49.9236 354.408C49.5694 355.335 49.0538 356.132 48.3767 356.798C47.71 357.455 46.908 357.97 45.9705 358.345C45.033 358.72 43.9861 358.908 42.8298 358.908C41.6944 358.908 40.658 358.72 39.7205 358.345C38.783 357.97 37.9757 357.455 37.2986 356.798C36.6319 356.132 36.1163 355.335 35.7517 354.408C35.3975 353.481 35.2205 352.449 35.2205 351.314C35.2205 350.21 35.3975 349.184 35.7517 348.236C36.1163 347.278 36.6319 346.465 37.2986 345.798C37.9757 345.121 38.783 344.595 39.7205 344.22C40.658 343.835 41.6944 343.642 42.8298 343.642C43.9861 343.642 45.033 343.835 45.9705 344.22C46.908 344.595 47.71 345.121 48.3767 345.798C49.0538 346.465 49.5694 347.278 49.9236 348.236C50.2882 349.184 50.4705 350.21 50.4705 351.314ZM48.3298 351.314C48.3298 350.481 48.2048 349.715 47.9548 349.017C47.7153 348.309 47.3559 347.689 46.8767 347.158C46.3975 346.626 45.8142 346.21 45.1267 345.908C44.4496 345.606 43.684 345.455 42.8298 345.455C41.9757 345.455 41.2048 345.606 40.5173 345.908C39.8403 346.21 39.2673 346.626 38.7986 347.158C38.3298 347.689 37.9705 348.309 37.7205 349.017C37.4809 349.715 37.3611 350.481 37.3611 351.314C37.3611 352.147 37.4809 352.918 37.7205 353.626C37.9705 354.324 38.3298 354.929 38.7986 355.439C39.2673 355.949 39.8403 356.35 40.5173 356.642C41.2048 356.934 41.9757 357.08 42.8298 357.08C43.684 357.08 44.4496 356.934 45.1267 356.642C45.8142 356.35 46.3975 355.949 46.8767 355.439C47.3559 354.929 47.7153 354.324 47.9548 353.626C48.2048 352.918 48.3298 352.147 48.3298 351.314ZM59.2048 346.939C58.6111 345.949 57.8767 345.455 57.0017 345.455C56.2309 345.455 55.6528 345.903 55.2673 346.798C54.8923 347.694 54.7048 349.189 54.7048 351.283C54.7048 353.376 54.8923 354.866 55.2673 355.751C55.6528 356.637 56.2309 357.08 57.0017 357.08C57.8767 357.08 58.6111 356.59 59.2048 355.611V346.939ZM59.2048 357.564C58.6528 358.46 57.9184 358.908 57.0017 358.908C55.5121 358.908 54.3975 358.251 53.658 356.939C52.9184 355.626 52.5486 353.741 52.5486 351.283C52.5486 348.835 52.9184 346.949 53.658 345.626C54.3975 344.304 55.5121 343.642 57.0017 343.642C57.9184 343.642 58.6528 344.09 59.2048 344.986V338.158H61.3611V344.986C61.9132 344.09 62.6475 343.642 63.5642 343.642C65.0538 343.642 66.1684 344.304 66.908 345.626C67.6475 346.949 68.0173 348.835 68.0173 351.283C68.0173 353.741 67.6475 355.626 66.908 356.939C66.1684 358.251 65.0538 358.908 63.5642 358.908C62.6475 358.908 61.9132 358.46 61.3611 357.564V364.376H59.2048V357.564ZM61.3611 355.611C61.9548 356.59 62.6892 357.08 63.5642 357.08C64.335 357.08 64.908 356.637 65.283 355.751C65.6684 354.866 65.8611 353.376 65.8611 351.283C65.8611 349.189 65.6684 347.694 65.283 346.798C64.908 345.903 64.335 345.455 63.5642 345.455C62.6892 345.455 61.9548 345.949 61.3611 346.939V355.611ZM72.6111 352.017C72.7673 353.559 73.3298 354.788 74.2986 355.705C75.2673 356.621 76.5278 357.08 78.0798 357.08C79.1736 357.08 80.1475 356.856 81.0017 356.408C81.8559 355.96 82.4965 355.403 82.9236 354.736L84.4236 355.767C83.6944 356.788 82.8246 357.569 81.8142 358.111C80.8038 358.642 79.559 358.908 78.0798 358.908C76.9548 358.908 75.9236 358.72 74.9861 358.345C74.0486 357.97 73.2361 357.449 72.5486 356.783C71.8715 356.106 71.3455 355.304 70.9705 354.376C70.5955 353.449 70.408 352.418 70.408 351.283C70.408 350.179 70.5746 349.163 70.908 348.236C71.2517 347.298 71.7413 346.491 72.3767 345.814C73.0225 345.126 73.8038 344.595 74.7205 344.22C75.6371 343.835 76.6632 343.642 77.7986 343.642C79.0382 343.642 80.1215 343.85 81.0486 344.267C81.9757 344.684 82.7465 345.262 83.3611 346.001C83.9861 346.731 84.4444 347.606 84.7361 348.626C85.0382 349.647 85.1892 350.778 85.1892 352.017H72.6111ZM82.9236 350.189C82.684 348.595 82.1059 347.408 81.1892 346.626C80.2725 345.845 79.1423 345.455 77.7986 345.455C77.1111 345.455 76.4757 345.569 75.8923 345.798C75.309 346.017 74.7934 346.335 74.3455 346.751C73.8975 347.168 73.5225 347.673 73.2205 348.267C72.9184 348.85 72.7257 349.491 72.6423 350.189H82.9236ZM101.955 355.798C101.34 356.757 100.497 357.517 99.4236 358.08C98.3611 358.632 97.0955 358.908 95.6267 358.908C94.4913 358.908 93.4496 358.72 92.5017 358.345C91.5538 357.97 90.7413 357.449 90.0642 356.783C89.3975 356.106 88.8767 355.304 88.5017 354.376C88.1267 353.449 87.9392 352.418 87.9392 351.283C87.9392 350.179 88.1111 349.158 88.4548 348.22C88.7986 347.272 89.2882 346.465 89.9236 345.798C90.559 345.121 91.335 344.595 92.2517 344.22C93.1788 343.835 94.2048 343.642 95.3298 343.642C95.7778 343.642 96.2361 343.694 96.7048 343.798C97.1736 343.903 97.6163 344.064 98.033 344.283C98.4496 344.491 98.8246 344.746 99.158 345.048C99.4913 345.34 99.7413 345.689 99.908 346.095V343.986H101.83V349.814H99.908C99.908 349.168 99.7882 348.58 99.5486 348.048C99.3194 347.517 99.0017 347.059 98.5955 346.673C98.1892 346.288 97.7048 345.991 97.1423 345.783C96.5798 345.564 95.9757 345.455 95.3298 345.455C94.4548 345.455 93.6892 345.606 93.033 345.908C92.3871 346.21 91.8455 346.621 91.408 347.142C90.9705 347.663 90.6371 348.278 90.408 348.986C90.1892 349.684 90.0798 350.449 90.0798 351.283C90.0798 352.116 90.2048 352.887 90.4548 353.595C90.7153 354.293 91.085 354.897 91.5642 355.408C92.0538 355.918 92.6371 356.324 93.3142 356.626C94.0017 356.929 94.7725 357.08 95.6267 357.08C96.71 357.08 97.6736 356.871 98.5173 356.455C99.3611 356.038 100.007 355.475 100.455 354.767L101.955 355.798ZM119.424 355.798C118.809 356.757 117.965 357.517 116.892 358.08C115.83 358.632 114.564 358.908 113.095 358.908C111.96 358.908 110.918 358.72 109.97 358.345C109.023 357.97 108.21 357.449 107.533 356.783C106.866 356.106 106.345 355.304 105.97 354.376C105.595 353.449 105.408 352.418 105.408 351.283C105.408 350.179 105.58 349.158 105.924 348.22C106.267 347.272 106.757 346.465 107.392 345.798C108.028 345.121 108.804 344.595 109.72 344.22C110.648 343.835 111.674 343.642 112.799 343.642C113.247 343.642 113.705 343.694 114.174 343.798C114.642 343.903 115.085 344.064 115.502 344.283C115.918 344.491 116.293 344.746 116.627 345.048C116.96 345.34 117.21 345.689 117.377 346.095V343.986H119.299V349.814H117.377C117.377 349.168 117.257 348.58 117.017 348.048C116.788 347.517 116.47 347.059 116.064 346.673C115.658 346.288 115.174 345.991 114.611 345.783C114.049 345.564 113.444 345.455 112.799 345.455C111.924 345.455 111.158 345.606 110.502 345.908C109.856 346.21 109.314 346.621 108.877 347.142C108.439 347.663 108.106 348.278 107.877 348.986C107.658 349.684 107.549 350.449 107.549 351.283C107.549 352.116 107.674 352.887 107.924 353.595C108.184 354.293 108.554 354.897 109.033 355.408C109.523 355.918 110.106 356.324 110.783 356.626C111.47 356.929 112.241 357.08 113.095 357.08C114.179 357.08 115.142 356.871 115.986 356.455C116.83 356.038 117.476 355.475 117.924 354.767L119.424 355.798ZM123.642 343.986H125.783V355.736L133.658 343.986H136.674V358.548H134.517V346.267L126.299 358.548H123.642V343.986ZM141.111 343.986H143.252V350.361H146.205C146.392 345.882 147.84 343.642 150.549 343.642C153.455 343.642 154.908 346.189 154.908 351.283C154.908 356.366 153.455 358.908 150.549 358.908C147.799 358.908 146.351 356.663 146.205 352.173H143.252V358.548H141.111V343.986ZM150.549 357.173C152.028 357.173 152.767 355.21 152.767 351.283C152.767 347.376 152.028 345.423 150.549 345.423C149.08 345.423 148.345 347.376 148.345 351.283C148.345 355.21 149.08 357.173 150.549 357.173Z" fill="black"/>
</svg>
