<svg width="464" height="502" viewBox="0 0 464 502" fill="none" xmlns="http://www.w3.org/2000/svg">
<circle cx="252.002" cy="285.53" r="160" fill="#FBA22C"/>
<path d="M91.8816 225.723L89.5292 236.408L51.2829 228.093L46.5976 249.579L84.9619 257.875L82.6094 268.56L34.6885 258.215L43.9607 215.378L91.8816 225.723Z" fill="#242938"/>
<path d="M51.6579 191.576L57.1362 182.19L60.91 184.471C60.3426 181.779 60.1684 179.265 60.5054 176.908C60.7243 174.57 61.553 172.253 62.9913 169.956C64.6071 167.266 66.6552 164.988 69.0566 163.379C71.5564 161.633 74.1735 160.593 77.1244 160.104C80.0752 159.615 83.1042 159.597 86.4865 160.248C89.7507 160.918 93.1126 162.177 96.1986 163.967C99.4222 165.855 102.095 168.077 104.334 170.612C106.455 173.167 108.105 175.8 109.065 178.669C110.006 181.42 110.377 184.386 110.137 187.333C109.898 190.279 108.912 193.107 107.315 195.915C105.896 198.33 104.262 200.175 102.412 201.451C100.443 202.746 98.1999 203.845 95.5632 204.766L116.34 216.704L110.861 226.09L51.6579 191.576ZM88.1336 200.184C90.0026 199.753 91.813 198.969 93.5257 197.595C95.2384 196.221 96.5774 194.788 97.5233 193.178C99.6121 189.683 99.9702 185.99 98.7548 182.316C97.5395 178.642 94.8483 175.575 90.8188 173.216C86.7894 170.856 82.7583 169.949 78.8827 170.713C75.0072 171.476 72.0743 173.537 70.005 177.15C69.0592 178.76 68.3884 180.567 68.0124 182.688C67.6363 184.809 67.7128 186.734 68.3991 188.68L88.1336 200.184Z" fill="#242938"/>
<path d="M140.482 120.172C143.016 123.022 144.842 125.99 145.979 129.192C147.097 132.277 147.624 135.46 147.424 138.642C147.224 141.824 146.414 144.986 144.837 147.912C143.28 150.955 141.074 153.743 138.219 156.275C135.365 158.808 132.275 160.652 129.067 161.789C125.86 162.926 122.673 163.455 119.487 163.256C116.301 163.057 113.253 162.23 110.206 160.676C107.277 159.103 104.487 156.901 101.953 154.051C99.5564 151.299 97.6125 148.351 96.4753 145.149C95.22 141.966 94.8105 138.764 94.8927 135.601C95.0929 132.419 95.9029 129.257 97.4601 126.213C99.0173 123.169 101.223 120.382 104.078 117.849C107.051 115.298 110.023 113.473 113.211 112.218C116.418 111.081 119.605 110.553 122.81 110.869C125.996 111.068 129.182 111.993 132.111 113.566C135.295 115.219 138.066 117.303 140.482 120.172ZM132.449 127.317C130.956 125.627 129.286 124.329 127.537 123.287C125.669 122.264 123.86 121.595 121.894 121.437C120.045 121.259 118.137 121.454 116.17 122.022C114.202 122.59 112.431 123.611 110.757 125.22C109.064 126.712 107.764 128.381 106.975 130.207C106.186 132.033 105.771 133.919 105.71 135.746C105.669 137.69 106.099 139.557 106.904 141.482C107.708 143.408 108.847 145.157 110.34 146.847C111.833 148.538 113.523 149.953 115.252 150.878C116.982 151.802 118.909 152.452 120.777 152.748C122.645 153.043 124.554 152.848 126.383 152.182C128.213 151.515 130.103 150.475 131.796 148.983C133.489 147.492 134.789 145.823 135.578 143.997C136.367 142.17 136.9 140.265 136.823 138.34C136.865 136.395 136.434 134.529 135.748 132.584C135.101 130.874 133.962 129.125 132.449 127.317Z" fill="#242938"/>
<path d="M159.903 112.956C161.709 115.806 164.343 117.792 167.666 118.815C170.988 119.839 174.785 119.331 178.858 117.566C182.145 116.173 184.763 114.407 186.614 112.405C188.583 110.383 190.021 108.086 191.086 105.729L199.282 110.547C197.665 114.691 195.419 117.97 192.682 120.482C189.926 122.877 186.639 124.996 182.782 126.604C179.279 128.154 175.777 128.977 172.276 129.072C168.775 129.168 165.55 128.734 162.444 127.553C159.357 126.49 156.507 124.662 154.071 122.401C151.615 120.023 149.572 117.212 148.022 113.715C146.492 110.335 145.807 106.936 145.614 103.577C145.421 100.218 145.976 96.9769 147.179 93.9919C148.382 91.0069 150.116 88.2973 152.498 85.8435C154.881 83.3896 157.833 81.4469 161.336 79.8974C164.957 78.3284 168.577 77.4862 172.098 77.5082C175.599 77.4123 178.882 78.2003 182.028 79.6167C185.173 81.0332 188.082 83.2155 190.734 86.046C193.386 88.8764 195.683 92.4924 197.488 96.7955L159.903 112.956ZM182.505 92.7389C180.738 90.1251 178.261 88.3555 174.997 87.6855C171.733 87.0154 168.507 87.3079 165.457 88.6612C162.289 90.0341 159.847 92.1343 158.133 94.9619C156.419 97.7894 155.825 100.794 156.589 103.938L182.505 92.7389Z" fill="#242938"/>
<path d="M256.481 108.818L242.514 110.164L224.341 91.9813L219.91 97.4392L221.25 112.114L210.373 113.069L205.824 64.409L216.702 63.4538L218.666 84.0808L236.294 61.6598L251.106 60.2947L230.663 84.7568L256.481 108.818Z" fill="#242938"/>
<path d="M314.341 94.9884L304.765 92.8212L308.145 78.0908L299.08 76.0811L292.557 104.776L303.136 107.14L300.962 116.705L269.205 109.494L271.38 99.9293L281.959 102.294L288.481 73.5989L279.397 71.4713L276.017 86.2016L266.559 84.0148L272.113 59.7195L319.876 70.5752L314.341 94.9884Z" fill="#242938"/>
<path d="M350.265 122.946C347.703 127.246 344.455 129.601 340.422 130.148C336.39 130.695 331.946 129.494 327.11 126.662L313.116 118.324L338.299 76.3628L347.596 81.9675L337.802 98.2454L342.638 101.077C347.473 103.909 350.577 107.27 352.048 111.023C353.362 114.56 352.826 118.645 350.265 122.946ZM340.849 117.361C341.815 115.868 341.935 114.395 341.208 112.941C340.62 111.585 339.323 110.347 337.554 109.187L332.719 106.355L327.3 115.367L332.135 118.199C334.022 119.34 335.674 119.793 337.11 119.676C338.546 119.559 339.884 118.853 340.849 117.361ZM372.735 96.8152L382.033 102.42L356.849 144.381L347.552 138.776L372.735 96.8152Z" fill="#242938"/>
</svg>
