<svg width="22" height="19" viewBox="0 0 22 19" fill="none" xmlns="http://www.w3.org/2000/svg">
<path d="M7.1455 18.2993C14.9867 18.2993 19.2745 11.452 19.2745 5.51456C19.2745 5.32007 19.2707 5.12646 19.2624 4.93373C20.0948 4.29946 20.8183 3.50794 21.3889 2.60692C20.6251 2.96479 19.8031 3.20571 18.9408 3.31434C19.8209 2.75804 20.4966 1.87804 20.8154 0.828956C19.9917 1.34364 19.0796 1.71772 18.1084 1.91965C17.3305 1.04622 16.223 0.5 14.9967 0.5C12.6426 0.5 10.7335 2.51231 10.7335 4.99287C10.7335 5.34548 10.7709 5.68845 10.844 6.01741C7.30093 5.8295 4.15929 4.04147 2.05697 1.32262C1.69086 1.98667 1.47976 2.75804 1.47976 3.5811C1.47976 5.14004 2.23234 6.51633 3.37679 7.32143C2.6774 7.29865 2.0204 7.09628 1.4461 6.75944C1.44547 6.77829 1.44547 6.79667 1.44547 6.81682C1.44547 8.99295 2.91489 10.8099 4.86553 11.2216C4.50732 11.3246 4.13041 11.3798 3.74144 11.3798C3.46717 11.3798 3.19997 11.3513 2.94024 11.2987C3.48296 13.0841 5.05669 14.3833 6.92256 14.4197C5.46353 15.6251 3.6255 16.3431 1.6279 16.3431C1.28423 16.3431 0.944718 16.3225 0.611023 16.2809C2.49767 17.5555 4.73796 18.2993 7.14571 18.2993" fill="#DBDADA"/>
</svg>
