<svg width="200" height="200" viewBox="0 0 200 200" fill="none" xmlns="http://www.w3.org/2000/svg">
<path d="M43.8619 129.696L34.127 133.537L32.6615 129.929L42.1502 126.218C44.8103 125.205 45.6832 123.923 44.7559 121.749C43.8964 119.613 42.4971 119.116 39.5908 120.258L30.2746 123.976L28.8091 120.368L38.3347 116.588C42.6757 114.909 45.9063 116.402 47.6254 120.675C49.3503 124.775 48.0983 128.047 43.8619 129.696Z" fill="#242938"/>
<path d="M27.1595 113.058L26.7955 108.556L37.5171 101.123L26.2931 102.047L26.0293 98.6531L43.0748 97.2066L43.4255 101.087L31.8855 109.216L44.0458 108.188L44.3096 111.581L27.1595 113.058Z" fill="#242938"/>
<path d="M37.8781 94.6439L38.6244 91.0091C40.1402 91.1307 41.5012 90.729 42.0336 88.2955C42.333 86.6138 41.6843 85.3826 40.3469 85.0945C39.0096 84.8063 38.4006 85.4414 37.5231 87.8629C36.1368 92.028 34.4263 93.5572 31.2709 92.8953C28.4237 92.3131 26.7561 89.5616 27.4715 85.8222C28.2237 82.015 30.3589 80.1896 33.7665 80.5495L33.0939 84.0487C31.5412 83.9948 30.6181 84.7226 30.3187 86.4044C30.0193 88.0862 30.6061 89.108 31.74 89.2855C32.9417 89.4998 33.6126 89.0741 34.527 86.5848C35.8705 82.66 37.3524 80.7429 40.8529 81.4169C43.8727 82.005 45.7068 84.935 44.9487 88.9146C43.8956 93.4366 41.3166 95.1084 37.8781 94.6439Z" fill="#242938"/>
<path d="M38.352 77.773L38.2163 77.6992C33.5983 75.3634 32.0385 70.4746 34.2933 66.167C36.1116 62.5003 39.3187 60.6431 43.3072 62.1973L41.5627 65.7283C39.547 65.0714 38.1123 65.6087 37.1479 67.5437C35.9254 69.9532 37.0503 72.4096 40.2071 74.0386L40.3428 74.1123C43.4996 75.7413 46.0741 75.209 47.3704 72.6639C48.3348 70.7289 48.0489 68.9922 46.2294 67.6514L47.9002 64.2559C51.4831 66.5558 52.0491 70.2015 50.1571 74.0037C47.429 79.0202 43.0378 80.1457 38.352 77.773Z" fill="#242938"/>
<path d="M41.7861 54.1671L44.4374 51.3927L49.4534 56.2287L54.2517 51.284L49.2357 46.448L51.887 43.6736L64.2265 55.5668L61.5752 58.3412L56.4914 53.4683L51.6931 58.4129L56.7769 63.2858L54.1256 66.0602L41.7861 54.1671Z" fill="#242938"/>
<path d="M61.3792 46.9036L61.2805 46.762C58.8772 42.2929 60.4287 37.3392 64.8981 34.9387C69.4721 32.5072 74.2981 33.8142 76.7323 38.388L76.8311 38.5296C79.2343 42.9987 77.8922 47.8906 73.1766 50.4207C68.5288 52.9878 63.7146 51.3359 61.3792 46.9036ZM73.3098 40.4795L73.2111 40.338C71.6541 37.3831 69.034 36.2217 66.3931 37.6842C63.789 39.0788 63.2448 41.8572 64.8326 44.9168L64.9314 45.0583C66.5871 48.1547 69.3547 49.045 71.8172 47.749C74.4213 46.3543 74.9346 43.4713 73.3098 40.4795Z" fill="#242938"/>
<path d="M80.1133 37.5037L80.0514 37.2943C79.1876 32.2569 82.2681 28.047 87.2696 27.2535C92.3081 26.3921 96.4955 29.1965 97.4272 34.2707L97.4891 34.4801C98.3529 39.5175 95.5127 43.7703 90.3018 44.6256C84.9861 45.5119 81.0139 42.4733 80.1133 37.5037ZM93.5285 35.137L93.4666 34.9277C92.8888 31.6269 90.7788 29.6889 87.8593 30.2093C84.9397 30.7297 83.5447 33.1332 84.1535 36.5387L84.2154 36.748C84.7873 40.2213 87.1804 41.9619 89.8905 41.5033C92.6685 41.0816 94.1373 38.5425 93.5285 35.137Z" fill="#242938"/>
<path d="M102.468 26.2955L106.288 26.7042L104.842 40.6749L111.762 41.3638L111.452 44.3575L100.644 43.223L102.468 26.2955Z" fill="#242938"/>
<path d="M118.656 28.6871L129.172 32.2979L128.141 35.163L121.243 32.8173L119.974 36.6065L125.503 38.5595L124.583 41.2212L119.053 39.2683L117.673 43.2609L124.91 45.7911L123.879 48.6562L112.987 44.9287L118.656 28.6871Z" fill="#242938"/>
<path d="M134.912 35.1562L140.013 38.5448C143.392 40.734 144.61 43.5044 142.711 46.5121L142.674 46.5799C141.254 48.7063 139.239 49.0163 137.255 48.464L136.996 57.0195L133.549 54.7934L133.747 46.9956L132.329 46.0485L128.72 51.5524L125.476 49.437L134.912 35.1562ZM135.679 45.0596C137.301 46.1173 138.582 46.0236 139.461 44.5691L139.498 44.5013C140.481 43.0159 139.894 41.9941 138.34 40.9732L136.515 39.8048L133.785 43.8543L135.679 45.0596Z" fill="#242938"/>
<path d="M153.503 66.2596L162.879 61.7845L164.554 65.3305L155.319 69.7069C152.721 70.9291 152.02 72.2171 152.985 74.3226C153.986 76.3603 155.385 76.8577 158.229 75.5059L167.323 71.2282L168.998 74.7742L159.726 79.2184C155.478 81.2122 152.241 79.8913 150.208 75.7113C148.347 71.5372 149.359 68.2225 153.503 66.2596Z" fill="#242938"/>
<path d="M171.245 81.7938L171.923 86.2031L161.732 94.2761L172.844 92.5893L173.348 96.0257L156.403 98.5807L155.843 94.7625L166.821 85.8881L154.773 87.6805L154.269 84.2441L171.245 81.7938Z" fill="#242938"/>
<path d="M161.748 100.873L161.242 104.55C159.689 104.496 158.359 105.003 158.03 107.547C157.799 109.266 158.62 110.503 159.963 110.618C161.27 110.802 161.879 110.167 162.584 107.739C163.699 103.427 165.237 101.891 168.54 102.282C171.43 102.624 173.27 105.382 172.831 109.096C172.32 112.946 170.351 114.95 166.938 114.763L167.37 111.221C168.959 111.207 169.784 110.337 169.978 108.686C170.173 107.036 169.482 106.045 168.415 105.904C167.177 105.757 166.574 106.22 165.863 108.82C164.828 112.825 163.413 114.779 159.938 114.382C156.912 113.966 154.795 111.233 155.313 107.211C155.854 102.499 158.371 100.617 161.748 100.873Z" fill="#242938"/>
<path d="M162.518 117.717L162.653 117.791C167.419 119.856 169.262 124.547 167.346 129.039C165.731 132.817 162.691 134.852 158.623 133.606L160.164 129.965C162.148 130.517 163.62 129.912 164.449 127.903C165.536 125.42 164.201 123.025 161.002 121.636L160.866 121.563C157.599 120.137 155.086 120.879 153.962 123.43C153.17 125.371 153.524 127.144 155.417 128.35L153.95 131.856C150.22 129.827 149.413 126.138 151.065 122.293C153.281 117.086 157.648 115.684 162.518 117.717Z" fill="#242938"/>
<path d="M160.563 141.513L158.078 144.465L152.705 139.962L148.277 145.196L153.65 149.699L151.165 152.652L138.069 141.665L140.554 138.712L145.995 143.252L150.423 138.018L144.982 133.478L147.467 130.526L160.563 141.513Z" fill="#242938"/>
<path d="M141.513 150.038L141.612 150.18C144.261 154.519 143.018 159.553 138.746 162.236C134.37 164.951 129.464 163.952 126.747 159.575L126.648 159.434C123.999 155.094 124.965 150.086 129.483 147.273C134.001 144.459 138.895 145.803 141.513 150.038ZM130.003 157.305L130.101 157.447C131.905 160.272 134.531 161.261 137.141 159.694C139.646 158.158 140.055 155.306 138.22 152.376L138.122 152.234C136.288 149.304 133.446 148.55 131.082 149.987C128.577 151.523 128.169 154.376 130.003 157.305Z" fill="#242938"/>
<path d="M123.428 160.669L123.49 160.879C124.668 165.823 121.927 170.218 116.981 171.393C111.931 172.599 107.596 170.066 106.418 165.122L106.356 164.912C105.178 159.968 107.679 155.53 112.902 154.33C118.094 153.025 122.281 155.829 123.428 160.669ZM110.224 163.941L110.286 164.151C111.073 167.39 113.325 169.229 116.182 168.499C119.108 167.806 120.299 165.292 119.481 161.948L119.419 161.739C118.638 158.328 116.171 156.723 113.455 157.354C110.671 157.948 109.443 160.53 110.224 163.941Z" fill="#242938"/>
<path d="M101.957 173.324L98.0934 173.155L98.6087 159.118L91.6402 158.841L91.7097 155.805L102.541 156.249L101.957 173.324Z" fill="#242938"/>
<path d="M85.5911 172.066L74.8111 169.102L75.6016 166.194L82.6526 168.096L83.682 164.264L78.0362 162.687L78.8208 159.951L84.4666 161.529L85.5757 157.388L78.1487 155.37L78.9392 152.462L90.0273 155.505L85.5911 172.066Z" fill="#242938"/>
<path d="M68.9178 166.687L63.5965 163.706C60.1064 161.72 58.6793 159.011 60.4429 155.93L60.4798 155.862C61.7642 153.662 63.7165 153.142 65.8059 153.664L65.4421 145.121L69 147.144L69.3564 154.892L70.8486 155.703L74.0869 149.91L77.4413 151.822L68.9178 166.687ZM67.5603 156.902C65.8647 155.98 64.6143 156.178 63.8401 157.602L63.8033 157.669C62.9553 159.229 63.5421 160.25 65.1699 161.136L67.069 162.168L69.4963 157.867L67.5603 156.902Z" fill="#242938"/>
</svg>
