<svg width="358" height="40" viewBox="0 0 358 40" fill="none" xmlns="http://www.w3.org/2000/svg">
<path d="M66.0609 28.2638C70.6929 28.2638 73.3089 25.8398 73.3089 21.1598V10.8398H69.3969V20.9198C69.3969 24.0638 68.3889 25.1678 66.0849 25.1678C63.7329 25.1678 62.8929 23.9198 62.8929 21.0638V10.8398H58.9809V21.3038C58.9809 25.8638 61.5489 28.2638 66.0609 28.2638ZM76.4379 27.9998H79.9179V20.7518C79.9179 18.9038 81.0459 17.9918 82.5339 17.9918C84.0699 17.9918 84.7419 18.8078 84.7419 20.5118V27.9998H88.2219V20.0078C88.2219 16.6478 86.4699 15.1598 83.9979 15.1598C81.9099 15.1598 80.5419 16.1918 79.9179 17.4398V15.4478H76.4379V27.9998ZM95.7635 28.2638C99.0755 28.2638 101.043 26.8478 101.043 24.1358C101.043 21.4478 99.3155 20.6558 96.1715 20.1998C94.3475 19.9358 93.7475 19.6238 93.7475 18.8318C93.7475 18.0638 94.3955 17.5358 95.5235 17.5358C96.7235 17.5358 97.2995 18.0158 97.4915 19.0478H100.683C100.371 16.1678 98.2835 15.1598 95.4995 15.1598C92.9315 15.1598 90.5315 16.4558 90.5315 19.0718C90.5315 21.5198 91.8275 22.4798 95.1635 22.9838C96.9635 23.2478 97.7075 23.6078 97.7075 24.4718C97.7075 25.3358 97.0835 25.8398 95.7395 25.8398C94.2275 25.8398 93.6755 25.1918 93.5315 24.0638H90.2915C90.4115 26.7758 92.3795 28.2638 95.7635 28.2638ZM108.938 28.2638C112.586 28.2638 114.746 26.1998 114.938 23.2238H111.794C111.626 24.8318 110.498 25.6478 109.106 25.6478C107.162 25.6478 106.034 24.3518 106.034 21.8318V21.6398C106.034 19.2398 107.234 17.8958 109.034 17.8958C110.45 17.8958 111.338 18.5678 111.578 20.0318H114.866C114.554 16.4318 111.866 15.1598 108.962 15.1598C105.386 15.1598 102.482 17.6318 102.482 21.6878V21.8798C102.482 25.9838 105.266 28.2638 108.938 28.2638ZM117.125 27.9998H120.605V20.7518C120.605 18.9038 121.733 17.9918 123.221 17.9918C124.757 17.9918 125.429 18.8078 125.429 20.5118V27.9998H128.909V20.0078C128.909 16.6478 127.157 15.1598 124.685 15.1598C122.597 15.1598 121.229 16.1918 120.605 17.4398V9.75975H117.125V27.9998ZM137.747 25.6238C135.779 25.6238 134.675 24.1838 134.675 21.7838V21.5918C134.675 19.1918 135.827 17.7998 137.747 17.7998C139.691 17.7998 140.819 19.2398 140.819 21.6398V21.8078C140.819 24.1838 139.691 25.6238 137.747 25.6238ZM137.723 28.2638C141.491 28.2638 144.347 25.7438 144.347 21.7838V21.5918C144.347 17.6798 141.515 15.1598 137.747 15.1598C133.979 15.1598 131.123 17.7278 131.123 21.6638V21.8558C131.123 25.7678 133.979 28.2638 137.723 28.2638ZM152.536 25.6238C150.568 25.6238 149.464 24.1838 149.464 21.7838V21.5918C149.464 19.1918 150.616 17.7998 152.536 17.7998C154.48 17.7998 155.608 19.2398 155.608 21.6398V21.8078C155.608 24.1838 154.48 25.6238 152.536 25.6238ZM152.512 28.2638C156.28 28.2638 159.136 25.7438 159.136 21.7838V21.5918C159.136 17.6798 156.304 15.1598 152.536 15.1598C148.768 15.1598 145.912 17.7278 145.912 21.6638V21.8558C145.912 25.7678 148.768 28.2638 152.512 28.2638ZM161.565 27.9998H165.021V9.75975H161.565V27.9998ZM173.98 28.2638C177.412 28.2638 179.572 26.7518 179.98 24.0398H176.692C176.476 25.0958 175.684 25.7918 174.076 25.7918C172.18 25.7918 171.052 24.5918 170.956 22.5038H180.004V21.5438C180.004 17.0558 177.124 15.1598 173.884 15.1598C170.236 15.1598 167.428 17.7278 167.428 21.6878V21.8798C167.428 25.8878 170.188 28.2638 173.98 28.2638ZM171.004 20.3678C171.268 18.5918 172.324 17.5598 173.884 17.5598C175.54 17.5598 176.5 18.4718 176.62 20.3678H171.004ZM182.282 27.9998H185.762V21.7118C185.762 19.3118 187.25 18.4718 189.818 18.4958V15.2558C187.778 15.2798 186.554 16.1678 185.762 17.8478V15.4478H182.282V27.9998Z" fill="white"/>
<path d="M0.610352 6.29339C0.610352 5.81786 0.995843 5.43237 1.47137 5.43237L9.91259 5.43237C10.3881 5.43237 10.7736 5.81786 10.7736 6.29339L10.7736 28.2947C10.7736 28.7702 10.3881 29.1557 9.91259 29.1557H1.47137C0.995842 29.1557 0.610352 28.7702 0.610352 28.2947L0.610352 6.29339Z" fill="white"/>
<path d="M14.5752 39.1388C14.5752 39.6144 14.9607 39.9999 15.4362 39.9999H30.5594C31.099 39.9999 31.5057 39.5092 31.4055 38.979L24.2832 1.2725C24.2063 0.865788 23.851 0.571289 23.4371 0.571289H15.4362C14.9607 0.571289 14.5752 0.95678 14.5752 1.43231V39.1388Z" fill="white"/>
<rect x="31.6421" y="26.8569" width="13.1429" height="12.4127" rx="6.20635" transform="rotate(-90 31.6421 26.8569)" fill="white"/>
</svg>
