<svg width="1057" height="1156" viewBox="0 0 1057 1156" fill="none" xmlns="http://www.w3.org/2000/svg">
<path d="M330.782 543.988C330.299 543.315 330.452 542.378 331.125 541.894C331.798 541.411 332.735 541.565 333.218 542.238L330.782 543.988ZM398 745.53L397.729 744.055L398 745.53ZM359 709.113L358.71 707.641L359 709.113ZM328.908 822.479C328.119 822.227 327.684 821.383 327.936 820.594L332.041 807.733C332.293 806.944 333.137 806.509 333.926 806.761C334.715 807.013 335.151 807.857 334.899 808.646L331.25 820.077L342.681 823.726C343.471 823.978 343.906 824.822 343.654 825.612C343.402 826.401 342.558 826.836 341.769 826.584L328.908 822.479ZM332.827 817.396C333.536 816.968 334.458 817.196 334.887 817.905C335.315 818.614 335.087 819.536 334.378 819.964L332.827 817.396ZM340.93 815.525C340.269 816.024 339.329 815.893 338.829 815.232C338.33 814.571 338.461 813.63 339.122 813.131L340.93 815.525ZM346.343 806.939C346.938 806.363 347.888 806.379 348.464 806.974C349.04 807.569 349.025 808.519 348.429 809.095L346.343 806.939ZM353.847 803.347C353.307 803.975 352.36 804.046 351.732 803.505C351.104 802.965 351.034 802.017 351.574 801.39L353.847 803.347ZM357.407 793.839C357.879 793.158 358.814 792.989 359.495 793.461C360.176 793.933 360.345 794.867 359.873 795.548L357.407 793.839ZM364.104 788.9C363.686 789.616 362.768 789.857 362.052 789.44C361.337 789.022 361.095 788.104 361.512 787.388L364.104 788.9ZM365.945 778.913C366.295 778.162 367.188 777.837 367.939 778.187C368.689 778.537 369.014 779.43 368.664 780.181L365.945 778.913ZM371.734 772.941C371.438 773.715 370.57 774.101 369.797 773.805C369.023 773.508 368.636 772.641 368.933 771.867L371.734 772.941ZM371.968 762.786C372.196 761.99 373.027 761.529 373.823 761.757C374.619 761.985 375.08 762.816 374.852 763.612L371.968 762.786ZM376.749 755.971C376.578 756.782 375.783 757.301 374.972 757.13C374.162 756.96 373.643 756.165 373.813 755.354L376.749 755.971ZM375.33 745.917C375.421 745.094 376.162 744.5 376.985 744.59C377.809 744.681 378.403 745.422 378.312 746.245L375.33 745.917ZM378.828 738.376C378.812 739.205 378.128 739.864 377.3 739.848C376.472 739.833 375.813 739.149 375.828 738.321L378.828 738.376ZM375.338 728.843C375.229 728.022 375.807 727.268 376.629 727.16C377.45 727.051 378.204 727.629 378.312 728.45L375.338 728.843ZM376.595 720.613C376.85 721.401 376.419 722.247 375.631 722.503C374.843 722.758 373.997 722.327 373.741 721.539L376.595 720.613ZM369.43 713.696C368.861 713.094 368.888 712.144 369.49 711.575C370.092 711.006 371.042 711.033 371.61 711.636L369.43 713.696ZM364.09 707.511C364.907 707.648 365.459 708.421 365.322 709.238C365.185 710.055 364.412 710.607 363.595 710.47L364.09 707.511ZM355.042 711.771C354.268 712.065 353.402 711.676 353.108 710.901C352.814 710.127 353.203 709.26 353.978 708.966L355.042 711.771ZM347.218 713.35C347.773 712.735 348.721 712.685 349.337 713.24C349.952 713.794 350.002 714.742 349.447 715.358L347.218 713.35ZM347.255 722.751C347.367 723.572 346.792 724.328 345.971 724.44C345.15 724.551 344.394 723.977 344.283 723.156L347.255 722.751ZM347.205 730.623C346.757 729.926 346.958 728.998 347.654 728.549C348.35 728.101 349.279 728.302 349.727 728.998L347.205 730.623ZM355.677 735.442C356.322 735.961 356.424 736.906 355.904 737.551C355.385 738.196 354.441 738.298 353.795 737.779L355.677 735.442ZM360.233 742.014C359.503 741.622 359.228 740.713 359.619 739.983C360.011 739.253 360.92 738.978 361.65 739.369L360.233 742.014ZM369.947 742.801C370.739 743.043 371.185 743.882 370.942 744.674C370.699 745.466 369.86 745.912 369.068 745.669L369.947 742.801ZM376.496 747.388C375.678 747.256 375.121 746.487 375.253 745.669C375.384 744.851 376.154 744.294 376.971 744.426L376.496 747.388ZM385.995 745.14C386.823 745.141 387.494 745.814 387.493 746.642C387.492 747.471 386.819 748.141 385.991 748.14L385.995 745.14ZM393.571 747.707C392.748 747.801 392.004 747.21 391.91 746.387C391.816 745.564 392.406 744.821 393.229 744.726L393.571 747.707ZM402.061 742.704C402.812 742.354 403.705 742.679 404.055 743.429C404.405 744.18 404.08 745.073 403.329 745.423L402.061 742.704ZM409.912 740.095C409.413 740.757 408.473 740.888 407.811 740.389C407.15 739.89 407.019 738.949 407.518 738.288L409.912 740.095ZM411.088 729.92C411.262 729.11 412.059 728.594 412.869 728.767C413.679 728.941 414.195 729.738 414.022 730.548L411.088 729.92ZM414.908 722.519C414.887 723.347 414.199 724.002 413.371 723.982C412.543 723.962 411.888 723.274 411.908 722.446L414.908 722.519ZM411.42 712.866C411.326 712.043 411.917 711.299 412.74 711.205C413.563 711.111 414.307 711.702 414.401 712.525L411.42 712.866ZM413.194 704.653C413.348 705.468 412.812 706.252 411.998 706.405C411.184 706.559 410.4 706.023 410.246 705.209L413.194 704.653ZM408.118 695.725C407.912 694.922 408.396 694.105 409.198 693.899C410.001 693.693 410.818 694.176 411.024 694.978L408.118 695.725ZM408.904 687.371C409.142 688.165 408.691 689.001 407.897 689.238C407.103 689.476 406.268 689.025 406.03 688.231L408.904 687.371ZM403.046 678.955C402.777 678.171 403.194 677.318 403.978 677.049C404.762 676.781 405.615 677.198 405.883 677.982L403.046 678.955ZM403.226 670.556C403.515 671.332 403.12 672.196 402.344 672.485C401.567 672.774 400.704 672.378 400.415 671.602L403.226 670.556ZM396.874 662.488C396.563 661.72 396.934 660.846 397.703 660.536C398.471 660.225 399.345 660.596 399.655 661.364L396.874 662.488ZM396.634 654.095C396.959 654.857 396.605 655.738 395.843 656.063C395.081 656.388 394.2 656.034 393.874 655.272L396.634 654.095ZM389.935 646.317C389.593 645.562 389.928 644.673 390.683 644.332C391.438 643.99 392.326 644.325 392.668 645.08L389.935 646.317ZM389.368 637.94C389.722 638.689 389.401 639.583 388.651 639.936C387.902 640.289 387.008 639.968 386.655 639.219L389.368 637.94ZM382.402 630.406C382.035 629.664 382.34 628.764 383.083 628.397C383.826 628.031 384.725 628.336 385.092 629.079L382.402 630.406ZM381.563 622.05C381.94 622.788 381.647 623.691 380.909 624.068C380.171 624.444 379.267 624.151 378.891 623.414L381.563 622.05ZM374.372 614.732C373.984 614.001 374.262 613.093 374.994 612.704C375.726 612.316 376.634 612.594 377.022 613.326L374.372 614.732ZM373.293 606.4C373.69 607.127 373.422 608.039 372.695 608.436C371.968 608.833 371.057 608.566 370.66 607.839L373.293 606.4ZM365.903 599.284C365.495 598.563 365.749 597.648 366.47 597.24C367.191 596.832 368.106 597.086 368.514 597.807L365.903 599.284ZM364.601 590.983C365.017 591.699 364.774 592.617 364.058 593.033C363.341 593.45 362.423 593.207 362.007 592.49L364.601 590.983ZM357.026 584.064C356.599 583.354 356.828 582.432 357.539 582.006C358.249 581.579 359.17 581.808 359.597 582.518L357.026 584.064ZM355.505 575.8C355.94 576.505 355.721 577.43 355.016 577.865C354.311 578.3 353.387 578.081 352.952 577.376L355.505 575.8ZM347.747 569.087C347.301 568.388 347.505 567.461 348.204 567.015C348.902 566.569 349.829 566.774 350.275 567.472L347.747 569.087ZM345.999 560.869C346.454 561.562 346.261 562.492 345.569 562.946C344.876 563.401 343.946 563.209 343.492 562.516L345.999 560.869ZM338.05 554.381C337.583 553.697 337.76 552.764 338.445 552.297C339.129 551.83 340.063 552.007 340.529 552.692L338.05 554.381ZM336.049 546.221C336.526 546.898 336.363 547.834 335.686 548.311C335.008 548.787 334.072 548.624 333.596 547.947L336.049 546.221ZM328.677 819.717C330.094 818.986 331.477 818.211 332.827 817.396L334.378 819.964C332.971 820.814 331.53 821.621 330.052 822.383L328.677 819.717ZM339.122 813.131C341.665 811.21 344.072 809.137 346.343 806.939L348.429 809.095C346.074 811.374 343.575 813.527 340.93 815.525L339.122 813.131ZM351.574 801.39C353.656 798.973 355.6 796.447 357.407 793.839L359.873 795.548C358.008 798.238 356.001 800.847 353.847 803.347L351.574 801.39ZM361.512 787.388C363.13 784.616 364.607 781.782 365.945 778.913L368.664 780.181C367.288 783.13 365.769 786.046 364.104 788.9L361.512 787.388ZM368.933 771.867C370.093 768.841 371.104 765.804 371.968 762.786L374.852 763.612C373.964 766.712 372.926 769.833 371.734 772.941L368.933 771.867ZM373.813 755.354C374.489 752.138 374.994 748.978 375.33 745.917L378.312 746.245C377.965 749.407 377.444 752.662 376.749 755.971L373.813 755.354ZM375.828 738.321C375.891 734.948 375.724 731.767 375.338 728.843L378.312 728.45C378.72 731.54 378.892 734.872 378.828 738.376L375.828 738.321ZM373.741 721.539C372.664 718.221 371.205 715.575 369.43 713.696L371.61 711.636C373.776 713.928 375.424 717.008 376.595 720.613L373.741 721.539ZM363.595 710.47C362.297 710.253 360.864 710.275 359.289 710.584L358.71 707.641C360.601 707.269 362.399 707.228 364.09 707.511L363.595 710.47ZM359.289 710.584C357.702 710.897 356.289 711.298 355.042 711.771L353.978 708.966C355.4 708.427 356.977 707.982 358.71 707.641L359.289 710.584ZM349.447 715.358C347.567 717.445 346.878 719.984 347.255 722.751L344.283 723.156C343.797 719.589 344.699 716.147 347.218 713.35L349.447 715.358ZM349.727 728.998C351.151 731.208 353.15 733.407 355.677 735.442L353.795 737.779C351.054 735.571 348.827 733.139 347.205 730.623L349.727 728.998ZM361.65 739.369C364.143 740.705 366.919 741.872 369.947 742.801L369.068 745.669C365.858 744.685 362.902 743.443 360.233 742.014L361.65 739.369ZM376.971 744.426C379.823 744.884 382.837 745.136 385.995 745.14L385.991 748.14C382.676 748.136 379.504 747.871 376.496 747.388L376.971 744.426ZM393.229 744.726C394.705 744.557 396.205 744.335 397.729 744.055L398.271 747.005C396.681 747.297 395.114 747.53 393.571 747.707L393.229 744.726ZM397.729 744.055C399.335 743.76 400.775 743.304 402.061 742.704L403.329 745.423C401.791 746.14 400.105 746.668 398.271 747.005L397.729 744.055ZM407.518 738.288C409.178 736.088 410.367 733.291 411.088 729.92L414.022 730.548C413.232 734.237 411.896 737.466 409.912 740.095L407.518 738.288ZM411.908 722.446C411.981 719.497 411.813 716.295 411.42 712.866L414.401 712.525C414.806 716.065 414.984 719.408 414.908 722.519L411.908 722.446ZM410.246 705.209C409.674 702.173 408.961 699.006 408.118 695.725L411.024 694.978C411.881 698.315 412.608 701.545 413.194 704.653L410.246 705.209ZM406.03 688.231C405.126 685.212 404.129 682.116 403.046 678.955L405.883 677.982C406.979 681.178 407.988 684.311 408.904 687.371L406.03 688.231ZM400.415 671.602C399.301 668.609 398.119 665.568 396.874 662.488L399.655 661.364C400.91 664.468 402.102 667.535 403.226 670.556L400.415 671.602ZM393.874 655.272C392.611 652.313 391.296 649.326 389.935 646.317L392.668 645.08C394.038 648.107 395.362 651.115 396.634 654.095L393.874 655.272ZM386.655 639.219C385.276 636.294 383.856 633.354 382.402 630.406L385.092 629.079C386.554 632.041 387.981 634.997 389.368 637.94L386.655 639.219ZM378.891 623.414C377.414 620.52 375.906 617.624 374.372 614.732L377.022 613.326C378.564 616.232 380.079 619.142 381.563 622.05L378.891 623.414ZM370.66 607.839C369.096 604.976 367.509 602.123 365.903 599.284L368.514 597.807C370.128 600.658 371.722 603.525 373.293 606.4L370.66 607.839ZM362.007 592.49C360.361 589.66 358.7 586.849 357.026 584.064L359.597 582.518C361.278 585.316 362.948 588.139 364.601 590.983L362.007 592.49ZM352.952 577.376C351.225 574.578 349.488 571.813 347.747 569.087L350.275 567.472C352.025 570.211 353.769 572.99 355.505 575.8L352.952 577.376ZM343.492 562.516C341.677 559.754 339.862 557.04 338.05 554.381L340.529 552.692C342.351 555.365 344.176 558.093 345.999 560.869L343.492 562.516ZM333.596 547.947C332.655 546.61 331.717 545.29 330.782 543.988L333.218 542.238C334.16 543.548 335.104 544.876 336.049 546.221L333.596 547.947Z" fill="#E4E4E4"/>
<path d="M628.192 857.703C627.69 857.044 626.748 856.918 626.09 857.421C625.431 857.923 625.305 858.865 625.808 859.523L628.192 857.703ZM742.069 1081.11C742.896 1081.07 743.536 1080.37 743.499 1079.54L742.882 1066.06C742.845 1065.23 742.143 1064.59 741.316 1064.63C740.488 1064.67 739.848 1065.37 739.886 1066.2L740.433 1078.18L728.446 1078.73C727.618 1078.77 726.978 1079.47 727.016 1080.3C727.054 1081.13 727.755 1081.77 728.583 1081.73L742.069 1081.11ZM628.846 863.59C629.335 864.259 630.273 864.405 630.942 863.916C631.611 863.427 631.757 862.489 631.268 861.82L628.846 863.59ZM635.931 868.441C635.466 867.755 634.534 867.576 633.848 868.041C633.162 868.506 632.983 869.438 633.448 870.124L635.931 868.441ZM638.857 878.528C639.288 879.235 640.211 879.459 640.918 879.028C641.626 878.597 641.85 877.674 641.419 876.967L638.857 878.528ZM645.496 883.979C645.095 883.254 644.182 882.992 643.457 883.393C642.733 883.794 642.47 884.707 642.872 885.432L645.496 883.979ZM647.462 894.283C647.822 895.029 648.719 895.341 649.465 894.98C650.211 894.619 650.523 893.722 650.162 892.977L647.462 894.283ZM653.53 900.358C653.203 899.597 652.321 899.245 651.56 899.571C650.799 899.898 650.447 900.78 650.773 901.541L653.53 900.358ZM654.451 910.818C654.735 911.596 655.596 911.997 656.374 911.713C657.152 911.429 657.553 910.568 657.269 909.789L654.451 910.818ZM659.891 917.476C659.64 916.686 658.796 916.25 658.007 916.502C657.218 916.753 656.781 917.597 657.033 918.386L659.891 917.476ZM659.845 927.973C660.061 928.772 660.885 929.245 661.684 929.029C662.484 928.813 662.957 927.989 662.741 927.19L659.845 927.973ZM664.742 935.031C664.547 934.226 663.737 933.731 662.931 933.926C662.126 934.12 661.631 934.931 661.826 935.736L664.742 935.031ZM664.075 945.522C664.253 946.331 665.054 946.842 665.863 946.663C666.672 946.484 667.183 945.684 667.004 944.875L664.075 945.522ZM668.721 952.746C668.545 951.937 667.746 951.423 666.937 951.599C666.127 951.775 665.614 952.574 665.79 953.384L668.721 952.746ZM667.979 963.227C668.165 964.034 668.97 964.538 669.778 964.352C670.585 964.166 671.089 963.36 670.903 962.553L667.979 963.227ZM672.784 970.352C672.58 969.549 671.764 969.063 670.961 969.267C670.158 969.471 669.673 970.287 669.877 971.09L672.784 970.352ZM672.559 980.849C672.796 981.642 673.631 982.094 674.425 981.857C675.219 981.62 675.671 980.785 675.434 979.991L672.559 980.849ZM677.87 987.6C677.601 986.816 676.748 986.399 675.964 986.668C675.181 986.937 674.764 987.791 675.033 988.574L677.87 987.6ZM678.608 998.095C678.922 998.861 679.798 999.229 680.564 998.915C681.331 998.601 681.698 997.725 681.385 996.959L678.608 998.095ZM684.578 1004.26C684.228 1003.51 683.336 1003.18 682.585 1003.53C681.834 1003.88 681.509 1004.78 681.859 1005.53L684.578 1004.26ZM686.416 1014.58C686.811 1015.31 687.721 1015.58 688.449 1015.19C689.178 1014.79 689.449 1013.88 689.055 1013.15L686.416 1014.58ZM693.013 1020.08C692.586 1019.37 691.664 1019.14 690.954 1019.57C690.245 1020 690.015 1020.92 690.442 1021.63L693.013 1020.08ZM695.908 1030.18C696.372 1030.87 697.304 1031.05 697.99 1030.59C698.677 1030.12 698.857 1029.19 698.393 1028.5L695.908 1030.18ZM702.995 1035.03C702.504 1034.36 701.566 1034.21 700.898 1034.71C700.23 1035.2 700.087 1036.13 700.577 1036.8L702.995 1035.03ZM706.757 1044.83C707.276 1045.48 708.221 1045.58 708.866 1045.06C709.511 1044.54 709.614 1043.6 709.094 1042.95L706.757 1044.83ZM714.206 1049.1C713.667 1048.47 712.72 1048.4 712.091 1048.94C711.462 1049.48 711.39 1050.42 711.929 1051.05L714.206 1049.1ZM718.656 1058.61C719.218 1059.22 720.167 1059.26 720.776 1058.7C721.385 1058.14 721.424 1057.19 720.862 1056.58L718.656 1058.61ZM726.405 1062.44C725.828 1061.85 724.878 1061.83 724.284 1062.41C723.689 1062.98 723.674 1063.93 724.251 1064.53L726.405 1062.44ZM731.414 1071.7C732.007 1072.28 732.957 1072.27 733.535 1071.67C734.113 1071.08 734.1 1070.13 733.507 1069.55L731.414 1071.7ZM739.251 1075.03C738.646 1074.47 737.697 1074.5 737.131 1075.1C736.565 1075.71 736.597 1076.66 737.202 1077.22L739.251 1075.03ZM625.808 859.523C626.851 860.89 627.863 862.245 628.846 863.59L631.268 861.82C630.273 860.458 629.248 859.086 628.192 857.703L625.808 859.523ZM633.448 870.124C635.378 872.972 637.177 875.772 638.857 878.528L641.419 876.967C639.714 874.169 637.888 871.328 635.931 868.441L633.448 870.124ZM642.872 885.432C644.532 888.43 646.056 891.379 647.462 894.283L650.162 892.977C648.733 890.023 647.183 887.026 645.496 883.979L642.872 885.432ZM650.773 901.541C652.12 904.678 653.338 907.767 654.451 910.818L657.269 909.789C656.138 906.689 654.899 903.548 653.53 900.358L650.773 901.541ZM657.033 918.386C658.061 921.615 658.989 924.807 659.845 927.973L662.741 927.19C661.875 923.987 660.935 920.752 659.891 917.476L657.033 918.386ZM661.826 935.736C662.618 939.014 663.357 942.271 664.075 945.522L667.004 944.875C666.284 941.614 665.54 938.336 664.742 935.031L661.826 935.736ZM665.79 953.384C666.502 956.659 667.221 959.937 667.979 963.227L670.903 962.553C670.149 959.283 669.433 956.019 668.721 952.746L665.79 953.384ZM669.877 971.09C670.697 974.319 671.581 977.569 672.559 980.849L675.434 979.991C674.469 976.757 673.596 973.548 672.784 970.352L669.877 971.09ZM675.033 988.574C676.111 991.711 677.294 994.882 678.608 998.095L681.385 996.959C680.093 993.803 678.93 990.686 677.87 987.6L675.033 988.574ZM681.859 1005.53C683.248 1008.5 684.76 1011.52 686.416 1014.58L689.055 1013.15C687.427 1010.14 685.942 1007.18 684.578 1004.26L681.859 1005.53ZM690.442 1021.63C692.132 1024.44 693.95 1027.29 695.908 1030.18L698.393 1028.5C696.464 1025.65 694.675 1022.85 693.013 1020.08L690.442 1021.63ZM700.577 1036.8C702.514 1039.44 704.571 1042.11 706.757 1044.83L709.094 1042.95C706.935 1040.27 704.905 1037.63 702.995 1035.03L700.577 1036.8ZM711.929 1051.05C714.06 1053.54 716.3 1056.06 718.656 1058.61L720.862 1056.58C718.53 1054.05 716.313 1051.56 714.206 1049.1L711.929 1051.05ZM724.251 1064.53C726.539 1066.89 728.924 1069.28 731.414 1071.7L733.507 1069.55C731.037 1067.15 728.672 1064.78 726.405 1062.44L724.251 1064.53ZM737.202 1077.22C738.441 1078.38 739.703 1079.55 740.989 1080.72L743.011 1078.5C741.734 1077.34 740.481 1076.18 739.251 1075.03L737.202 1077.22Z" fill="#E4E4E4"/>
<path d="M551.945 440.277L552.971 439.182L551.945 440.277ZM563.445 475.527L562.508 474.356L563.445 475.527ZM559.445 408.527L558.875 407.14L559.445 408.527ZM731.98 372.368C731.845 371.551 731.073 370.998 730.256 371.133L716.936 373.335C716.119 373.47 715.566 374.242 715.701 375.059C715.836 375.876 716.608 376.429 717.425 376.294L729.265 374.337L731.222 386.177C731.357 386.994 732.129 387.547 732.946 387.412C733.764 387.277 734.317 386.505 734.182 385.688L731.98 372.368ZM478.117 299.391C477.865 301.175 477.628 302.918 477.406 304.622L480.381 305.009C480.601 303.316 480.837 301.584 481.087 299.811L478.117 299.391ZM476.417 312.954C476.026 316.625 475.723 320.107 475.513 323.423L478.507 323.612C478.714 320.346 479.013 316.907 479.4 313.271L476.417 312.954ZM475.18 331.886C475.132 335.611 475.233 339.12 475.495 342.455L478.486 342.221C478.232 338.988 478.133 335.571 478.18 331.924L475.18 331.886ZM476.568 350.9C477.221 354.513 478.112 357.934 479.258 361.234L482.092 360.249C480.999 357.104 480.147 353.834 479.52 350.366L476.568 350.9ZM482.584 369.108C484.135 372.208 485.943 375.237 488.022 378.265L490.495 376.567C488.486 373.64 486.75 370.73 485.267 367.766L482.584 369.108ZM493.115 385.048C495.223 387.645 497.533 390.278 500.052 392.99L502.25 390.949C499.767 388.275 497.502 385.692 495.444 383.157L493.115 385.048ZM505.901 399.068C508.249 401.434 510.747 403.877 513.4 406.421L515.477 404.256C512.836 401.724 510.356 399.298 508.03 396.955L505.901 399.068ZM519.464 412.167C521.905 414.458 524.462 416.835 527.136 419.312L529.175 417.112C526.503 414.636 523.952 412.264 521.517 409.979L519.464 412.167ZM533.294 425.007C535.751 427.277 538.298 429.63 540.937 432.076L542.977 429.876C540.336 427.428 537.787 425.074 535.33 422.803L533.294 425.007ZM547.062 437.767C548.328 438.948 549.614 440.149 550.92 441.372L552.971 439.182C551.663 437.958 550.375 436.755 549.107 435.573L547.062 437.767ZM550.92 441.372C551.997 442.38 553.274 443.75 554.622 445.381L556.934 443.469C555.526 441.765 554.161 440.297 552.971 439.182L550.92 441.372ZM559.774 452.56C561.755 455.762 563.457 459.172 564.448 462.405L567.316 461.526C566.226 457.968 564.39 454.318 562.325 450.981L559.774 452.56ZM565.04 470.484C564.634 471.99 563.833 473.296 562.508 474.356L564.382 476.698C566.231 475.22 567.373 473.354 567.936 471.265L565.04 470.484ZM562.508 474.356C561.26 475.355 560.048 476.122 558.882 476.687L560.189 479.387C561.581 478.713 562.981 477.82 564.382 476.698L562.508 474.356ZM552.566 477.893C550.016 477.592 547.606 476.286 545.44 474.106L543.312 476.22C545.837 478.762 548.842 480.474 552.214 480.872L552.566 477.893ZM541.413 468.478C540.122 466.04 539.057 463.234 538.274 460.181L535.368 460.927C536.203 464.179 537.347 467.211 538.761 469.882L541.413 468.478ZM537.026 453.121C536.729 450.208 536.677 447.192 536.901 444.159L533.909 443.939C533.672 447.149 533.727 450.341 534.042 453.426L537.026 453.121ZM537.944 437.069C538.594 434.168 539.522 431.322 540.752 428.605L538.019 427.368C536.698 430.285 535.708 433.327 535.017 436.413L537.944 437.069ZM544.258 422.43C545.926 420.048 547.896 417.841 550.193 415.876L548.242 413.596C545.745 415.734 543.606 418.13 541.801 420.709L544.258 422.43ZM556.004 411.842C557.269 411.139 558.605 410.495 560.016 409.914L558.875 407.14C557.357 407.764 555.915 408.46 554.547 409.22L556.004 411.842ZM560.016 409.914C561.518 409.297 563.076 408.771 564.688 408.329L563.895 405.436C562.173 405.908 560.498 406.472 558.875 407.14L560.016 409.914ZM572.525 406.845C575.721 406.472 579.075 406.326 582.568 406.351L582.59 403.351C579.001 403.326 575.522 403.475 572.177 403.865L572.525 406.845ZM590.683 406.674C593.976 406.897 597.363 407.221 600.829 407.606L601.16 404.624C597.666 404.237 594.235 403.907 590.886 403.68L590.683 406.674ZM608.951 408.578C612.264 408.995 615.716 409.446 619.132 409.875L619.505 406.898C616.045 406.464 612.703 406.027 609.326 405.601L608.951 408.578ZM627.297 410.851C630.686 411.23 634.11 411.573 637.555 411.846L637.793 408.855C634.387 408.585 630.997 408.246 627.63 407.87L627.297 410.851ZM645.802 412.351C649.242 412.493 652.695 412.543 656.151 412.468L656.087 409.469C652.702 409.542 649.312 409.494 645.926 409.354L645.802 412.351ZM664.439 412.035C667.883 411.743 671.321 411.301 674.743 410.679L674.206 407.728C670.887 408.331 667.543 408.761 664.185 409.046L664.439 412.035ZM682.874 408.836C686.193 407.925 689.486 406.817 692.743 405.482L691.605 402.707C688.466 403.993 685.288 405.062 682.08 405.943L682.874 408.836ZM700.311 401.92C703.307 400.317 706.26 398.495 709.164 396.431L707.425 393.986C704.626 395.976 701.781 397.731 698.896 399.275L700.311 401.92ZM715.728 391.26C718.263 389.059 720.75 386.648 723.184 384.01L720.979 381.976C718.618 384.534 716.21 386.868 713.761 388.995L715.728 391.26ZM728.57 377.683C729.632 376.333 730.682 374.935 731.72 373.486L729.281 371.739C728.269 373.152 727.246 374.514 726.212 375.828L728.57 377.683Z" fill="#E4E4E4"/>
<path d="M394 436L395.451 436.382L394 436ZM546 557L545.299 555.674L546 557ZM605.286 462.444L604.145 461.471L605.286 462.444ZM725.342 429.111L725.974 427.751L725.342 429.111ZM691.786 496.444L690.412 497.046L691.786 496.444ZM756.175 424.056L756.577 425.501L756.175 424.056ZM863.453 453.333L862.23 454.202L863.453 453.333ZM943.564 506.333L943.367 507.82L943.564 506.333ZM1031.79 452.889L1033 453.768L1031.79 452.889ZM1024.56 361.167L1025.49 359.99L1024.56 361.167ZM1012.12 380.556L1012.96 379.311L1012.12 380.556ZM1042.01 361.444L1043.34 362.138L1042.01 361.444ZM1042.73 274.778L1043.96 273.918L1042.73 274.778ZM899.618 89.0624C899.653 88.2347 899.01 87.5358 898.182 87.5013L884.694 86.9393C883.866 86.9048 883.167 87.5478 883.133 88.3755C883.098 89.2033 883.741 89.9022 884.569 89.9367L896.559 90.4363L896.059 102.426C896.025 103.254 896.668 103.953 897.495 103.987C898.323 104.021 899.022 103.378 899.056 102.551L899.618 89.0624ZM527.537 326.329C527.908 327.983 528.069 329.556 528.042 331.059L531.041 331.113C531.073 329.356 530.884 327.543 530.464 325.671L527.537 326.329ZM526.313 338.296C525.037 340.971 523.073 343.502 520.492 345.937L522.551 348.119C525.327 345.499 527.547 342.677 529.021 339.587L526.313 338.296ZM514.298 350.851C511.714 352.619 508.829 354.332 505.694 356.016L507.113 358.659C510.316 356.939 513.298 355.171 515.992 353.327L514.298 350.851ZM498.474 359.653C495.52 361.061 492.421 362.455 489.213 363.854L490.412 366.604C493.64 365.197 496.771 363.788 499.764 362.361L498.474 359.653ZM481.737 367.052C478.655 368.351 475.515 369.66 472.328 370.997L473.488 373.763C476.666 372.43 479.819 371.117 482.902 369.817L481.737 367.052ZM464.795 374.185C461.68 375.52 458.55 376.887 455.431 378.298L456.667 381.032C459.763 379.631 462.875 378.272 465.977 376.943L464.795 374.185ZM447.999 381.765C444.908 383.256 441.847 384.8 438.843 386.41L440.26 389.054C443.221 387.468 446.243 385.942 449.302 384.467L447.999 381.765ZM431.672 390.453C428.694 392.224 425.797 394.076 423.01 396.02L424.726 398.48C427.447 396.583 430.282 394.77 433.206 393.031L431.672 390.453ZM416.392 400.994C413.68 403.2 411.113 405.52 408.726 407.969L410.874 410.063C413.172 407.705 415.652 405.462 418.285 403.322L416.392 400.994ZM403.252 414.242C401.115 416.998 399.2 419.905 397.544 422.978L400.185 424.401C401.757 421.483 403.58 418.714 405.623 416.08L403.252 414.242ZM394.117 430.608C393.524 432.236 393 433.906 392.549 435.618L395.451 436.382C395.878 434.759 396.374 433.177 396.936 431.634L394.117 430.608ZM392.549 435.618C392.104 437.311 391.689 438.994 391.302 440.667L394.226 441.342C394.605 439.698 395.013 438.045 395.451 436.382L392.549 435.618ZM389.652 448.745C389.039 452.197 388.553 455.603 388.19 458.961L391.173 459.283C391.528 455.995 392.004 452.656 392.606 449.27L389.652 448.745ZM387.541 467.191C387.368 470.696 387.332 474.142 387.429 477.524L390.428 477.439C390.333 474.135 390.368 470.768 390.537 467.339L387.541 467.191ZM387.938 485.78C388.271 489.271 388.749 492.686 389.368 496.02L392.317 495.473C391.715 492.227 391.249 488.899 390.924 485.495L387.938 485.78ZM391.179 504.103C392.073 507.489 393.118 510.78 394.307 513.97L397.118 512.923C395.964 509.826 394.949 506.629 394.079 503.337L391.179 504.103ZM397.522 521.623C399.011 524.79 400.65 527.841 402.433 530.769L404.995 529.209C403.269 526.374 401.68 523.418 400.237 520.347L397.522 521.623ZM407.059 537.663C409.126 540.466 411.337 543.132 413.681 545.654L415.879 543.611C413.611 541.172 411.473 538.594 409.473 535.883L407.059 537.663ZM419.614 551.475C422.197 553.786 424.91 555.943 427.741 557.941L429.47 555.489C426.733 553.558 424.111 551.473 421.614 549.239L419.614 551.475ZM434.745 562.413C437.731 564.133 440.826 565.689 444.02 567.074L445.214 564.322C442.123 562.981 439.129 561.476 436.242 559.814L434.745 562.413ZM451.775 570.037C455.028 571.118 458.367 572.033 461.784 572.774L462.42 569.843C459.107 569.123 455.872 568.237 452.721 567.19L451.775 570.037ZM469.96 574.197C473.34 574.644 476.785 574.927 480.286 575.043L480.385 572.044C476.98 571.932 473.634 571.657 470.353 571.223L469.96 574.197ZM488.568 575.003C491.958 574.861 495.393 574.565 498.867 574.109L498.477 571.135C495.09 571.579 491.743 571.867 488.443 572.006L488.568 575.003ZM507.028 572.758C510.348 572.095 513.698 571.288 517.072 570.334L516.255 567.447C512.956 568.38 509.682 569.169 506.44 569.816L507.028 572.758ZM524.948 567.851C528.14 566.741 531.349 565.499 534.572 564.123L533.393 561.364C530.233 562.714 527.088 563.93 523.963 565.017L524.948 567.851ZM542.069 560.686C543.611 559.93 545.155 559.144 546.701 558.326L545.299 555.674C543.78 556.478 542.263 557.25 540.749 557.992L542.069 560.686ZM546.701 558.326C548.335 557.462 549.902 556.572 551.405 555.659L549.848 553.095C548.396 553.977 546.881 554.837 545.299 555.674L546.701 558.326ZM558.548 550.798C561.55 548.509 564.243 546.11 566.67 543.621L564.523 541.527C562.197 543.911 559.615 546.213 556.729 548.412L558.548 550.798ZM572.333 537.068C574.579 534.13 576.538 531.108 578.276 528.032L575.664 526.556C573.987 529.524 572.104 532.429 569.95 535.246L572.333 537.068ZM582.159 520.332C583.647 517.03 584.952 513.697 586.148 510.369L583.324 509.354C582.147 512.63 580.872 515.887 579.424 519.099L582.159 520.332ZM588.89 502.28C590.002 498.85 591.047 495.508 592.141 492.181L589.292 491.244C588.2 494.563 587.13 497.981 586.036 501.355L588.89 502.28ZM594.92 484.223C596.171 480.905 597.526 477.7 599.079 474.64L596.404 473.283C594.788 476.466 593.39 479.777 592.113 483.165L594.92 484.223ZM603.291 467.509C604.264 466.099 605.306 464.734 606.428 463.418L604.145 461.471C602.953 462.87 601.85 464.316 600.822 465.805L603.291 467.509ZM606.428 463.418C607.551 462.1 608.711 460.804 609.906 459.53L607.719 457.477C606.491 458.785 605.299 460.117 604.145 461.471L606.428 463.418ZM615.844 453.655C618.394 451.31 621.064 449.064 623.84 446.93L622.011 444.551C619.166 446.738 616.428 449.041 613.813 451.447L615.844 453.655ZM630.64 442.066C633.537 440.142 636.524 438.338 639.585 436.665L638.147 434.032C635.009 435.746 631.949 437.596 628.98 439.567L630.64 442.066ZM647.056 432.916C650.226 431.463 653.457 430.153 656.735 428.996L655.737 426.167C652.372 427.354 649.057 428.699 645.806 430.189L647.056 432.916ZM664.708 426.517C668.076 425.609 671.478 424.869 674.899 424.308L674.413 421.347C670.89 421.925 667.39 422.687 663.927 423.62L664.708 426.517ZM683.173 423.309C686.64 423.042 690.113 422.968 693.574 423.099L693.688 420.101C690.108 419.966 686.52 420.043 682.943 420.318L683.173 423.309ZM701.859 423.814C705.28 424.279 708.678 424.958 712.037 425.863L712.817 422.966C709.331 422.027 705.808 421.324 702.264 420.841L701.859 423.814ZM719.93 428.44C721.536 429.061 723.13 429.737 724.71 430.471L725.974 427.751C724.333 426.988 722.678 426.286 721.01 425.642L719.93 428.44ZM724.71 430.471C726.307 431.214 727.807 431.985 729.215 432.782L730.693 430.172C729.212 429.333 727.64 428.525 725.974 427.751L724.71 430.471ZM735.832 437.239C738.628 439.492 740.862 441.88 742.606 444.354L745.058 442.626C743.141 439.906 740.71 437.317 737.714 434.903L735.832 437.239ZM746.188 451.253C747.288 454.374 747.783 457.591 747.764 460.834L750.764 460.852C750.785 457.288 750.241 453.726 749.018 450.256L746.188 451.253ZM746.777 468.633C746.013 471.787 744.831 474.909 743.314 477.928L745.995 479.275C747.603 476.076 748.87 472.739 749.693 469.339L746.777 468.633ZM739.186 484.778C737.249 487.516 735.064 490.09 732.719 492.431L734.838 494.555C737.301 492.096 739.597 489.391 741.635 486.51L739.186 484.778ZM726.668 497.685C723.882 499.773 721.003 501.506 718.144 502.804L719.384 505.536C722.463 504.138 725.529 502.288 728.467 500.086L726.668 497.685ZM710.687 505.171C707.281 505.751 704.124 505.536 701.384 504.442L700.271 507.228C703.634 508.571 707.37 508.779 711.19 508.129L710.687 505.171ZM695.581 499.989C694.681 498.827 693.866 497.453 693.16 495.843L690.412 497.046C691.207 498.86 692.144 500.451 693.21 501.827L695.581 499.989ZM693.16 495.843C692.491 494.316 691.957 492.806 691.547 491.313L688.654 492.108C689.104 493.745 689.687 495.391 690.412 497.046L693.16 495.843ZM690.485 483.792C690.458 480.59 690.971 477.455 691.943 474.397L689.084 473.489C688.024 476.823 687.455 480.273 687.485 483.817L690.485 483.792ZM695.036 467.351C696.571 464.611 698.451 461.949 700.608 459.378L698.31 457.45C696.051 460.143 694.058 462.958 692.419 465.885L695.036 467.351ZM705.993 453.664C708.329 451.434 710.848 449.298 713.492 447.264L711.663 444.886C708.945 446.977 706.343 449.182 703.922 451.494L705.993 453.664ZM719.934 442.665C722.699 440.827 725.538 439.1 728.392 437.495L726.921 434.88C724.008 436.519 721.105 438.284 718.273 440.166L719.934 442.665ZM735.414 433.796C738.496 432.278 741.536 430.914 744.459 429.718L743.323 426.941C740.335 428.164 737.232 429.556 734.089 431.104L735.414 433.796ZM751.875 426.948C753.521 426.396 755.094 425.913 756.577 425.501L755.774 422.61C754.235 423.038 752.612 423.537 750.921 424.104L751.875 426.948ZM756.577 425.501C758.055 425.09 759.55 424.707 761.059 424.351L760.371 421.431C758.823 421.796 757.29 422.189 755.774 422.61L756.577 425.501ZM768.322 422.872C771.348 422.351 774.415 421.94 777.508 421.644L777.222 418.657C774.055 418.961 770.913 419.382 767.813 419.915L768.322 422.872ZM784.905 421.159C787.987 421.05 791.08 421.057 794.168 421.186L794.292 418.188C791.127 418.057 787.957 418.049 784.799 418.161L784.905 421.159ZM801.555 421.728C804.629 422.054 807.685 422.505 810.705 423.087L811.272 420.141C808.166 419.543 805.027 419.08 801.871 418.745L801.555 421.728ZM817.911 424.743C820.896 425.546 823.831 426.484 826.701 427.565L827.758 424.757C824.794 423.641 821.765 422.673 818.69 421.846L817.911 424.743ZM833.489 430.449C836.267 431.772 838.964 433.242 841.564 434.866L843.153 432.321C840.453 430.635 837.655 429.11 834.779 427.74L833.489 430.449ZM847.608 439.057C850.025 440.916 852.334 442.929 854.519 445.103L856.635 442.976C854.358 440.71 851.952 438.613 849.436 436.679L847.608 439.057ZM859.447 450.546C860.408 451.726 861.336 452.944 862.23 454.202L864.676 452.464C863.743 451.153 862.775 449.882 861.774 448.652L859.447 450.546ZM862.23 454.202C863.133 455.472 864.037 456.723 864.944 457.954L867.359 456.174C866.463 454.958 865.569 453.721 864.676 452.464L862.23 454.202ZM869.432 463.846C871.379 466.315 873.349 468.695 875.354 470.983L877.61 469.005C875.643 466.761 873.706 464.421 871.787 461.988L869.432 463.846ZM880.387 476.448C882.573 478.701 884.808 480.849 887.108 482.888L889.098 480.644C886.859 478.658 884.678 476.562 882.54 474.359L880.387 476.448ZM892.855 487.646C895.321 489.547 897.866 491.331 900.505 492.994L902.105 490.456C899.549 488.845 897.081 487.116 894.686 485.27L892.855 487.646ZM906.979 496.728C909.7 498.157 912.519 499.469 915.45 500.66L916.579 497.881C913.739 496.726 911.008 495.456 908.374 494.072L906.979 496.728ZM922.468 503.21C925.355 504.14 928.347 504.965 931.454 505.681L932.128 502.758C929.102 502.06 926.192 501.258 923.388 500.354L922.468 503.21ZM938.76 507.131C940.27 507.384 941.805 507.614 943.367 507.82L943.761 504.846C942.232 504.644 940.731 504.419 939.256 504.172L938.76 507.131ZM943.367 507.82C945.065 508.045 946.772 508.173 948.487 508.211L948.552 505.211C946.944 505.176 945.346 505.056 943.761 504.846L943.367 507.82ZM956.656 507.735C959.97 507.289 963.289 506.546 966.592 505.551L965.727 502.679C962.56 503.632 959.396 504.339 956.255 504.762L956.656 507.735ZM974.219 502.809C977.285 501.533 980.325 500.063 983.321 498.434L981.888 495.798C978.974 497.383 976.028 498.807 973.067 500.039L974.219 502.809ZM990.262 494.335C993.076 492.543 995.839 490.627 998.534 488.617L996.74 486.212C994.1 488.182 991.398 490.055 988.651 491.805L990.262 494.335ZM1004.85 483.644C1007.44 481.491 1009.95 479.266 1012.37 477L1010.32 474.811C1007.94 477.038 1005.47 479.223 1002.93 481.336L1004.85 483.644ZM1018.1 471.378C1020.49 468.922 1022.75 466.447 1024.88 463.986L1022.61 462.023C1020.52 464.439 1018.29 466.872 1015.95 469.286L1018.1 471.378ZM1029.99 457.778C1031.04 456.425 1032.05 455.086 1033 453.768L1030.57 452.01C1029.64 453.298 1028.66 454.608 1027.62 455.934L1029.99 457.778ZM1033 453.768C1033.92 452.498 1034.79 451.174 1035.62 449.801L1033.04 448.257C1032.26 449.56 1031.44 450.813 1030.57 452.01L1033 453.768ZM1039.11 443.072C1040.38 440.246 1041.48 437.281 1042.4 434.22L1039.53 433.352C1038.64 436.298 1037.59 439.142 1036.38 441.845L1039.11 443.072ZM1044.25 426.909C1044.87 423.854 1045.33 420.737 1045.62 417.593L1042.64 417.315C1042.36 420.352 1041.91 423.362 1041.31 426.309L1044.25 426.909ZM1046 410.068C1046.02 406.921 1045.87 403.773 1045.54 400.658L1042.56 400.972C1042.88 403.972 1043.02 407.009 1043 410.048L1046 410.068ZM1044.4 393.198C1043.77 390.082 1042.94 387.029 1041.91 384.078L1039.08 385.064C1040.06 387.881 1040.85 390.804 1041.46 393.796L1044.4 393.198ZM1039 377.078C1037.59 374.208 1035.95 371.479 1034.08 368.937L1031.66 370.714C1033.42 373.103 1034.97 375.679 1036.31 378.402L1039 377.078ZM1029.09 363.158C1027.95 362.043 1026.75 360.985 1025.49 359.99L1023.63 362.343C1024.81 363.27 1025.92 364.257 1026.98 365.299L1029.09 363.158ZM1025.49 359.99C1024.19 358.961 1022.92 358.083 1021.67 357.345L1020.14 359.928C1021.26 360.591 1022.43 361.391 1023.63 362.343L1025.49 359.99ZM1014.6 354.546C1010.76 353.815 1007.4 354.574 1004.93 356.466L1006.75 358.848C1008.44 357.552 1010.9 356.897 1014.04 357.493L1014.6 354.546ZM1000.94 363.482C1000.51 366.435 1001.12 369.744 1002.88 372.981L1005.52 371.547C1004.02 368.804 1003.58 366.145 1003.91 363.915L1000.94 363.482ZM1007.6 378.91C1008.69 379.912 1009.91 380.88 1011.28 381.8L1012.96 379.311C1011.71 378.471 1010.6 377.597 1009.63 376.703L1007.6 378.91ZM1011.28 381.8C1013.18 383.074 1015.07 383.884 1016.94 384.275L1017.55 381.338C1016.1 381.036 1014.57 380.396 1012.96 379.311L1011.28 381.8ZM1026.65 382.633C1029.97 380.817 1032.91 377.906 1035.41 374.757L1033.07 372.89C1030.68 375.886 1028.04 378.455 1025.21 380.001L1026.65 382.633ZM1040.58 367.131C1041.63 365.344 1042.56 363.636 1043.34 362.138L1040.68 360.751C1039.91 362.219 1039.01 363.879 1038 365.607L1040.58 367.131ZM1043.34 362.138C1044.13 360.612 1044.9 359.081 1045.64 357.544L1042.94 356.245C1042.21 357.751 1041.46 359.253 1040.68 360.751L1043.34 362.138ZM1048.99 350.027C1050.3 346.813 1051.47 343.581 1052.48 340.339L1049.62 339.447C1048.64 342.6 1047.5 345.75 1046.21 348.891L1048.99 350.027ZM1054.63 332.363C1055.39 328.965 1055.96 325.56 1056.32 322.158L1053.34 321.845C1052.99 325.124 1052.44 328.413 1051.7 331.704L1054.63 332.363ZM1056.75 313.874C1056.74 310.409 1056.49 306.954 1055.97 303.517L1053.01 303.963C1053.5 307.248 1053.74 310.557 1053.75 313.881L1056.75 313.874ZM1054.23 295.381C1053.32 292.098 1052.13 288.841 1050.67 285.62L1047.94 286.861C1049.34 289.942 1050.47 293.054 1051.35 296.189L1054.23 295.381ZM1046.79 278.271C1045.91 276.81 1044.97 275.359 1043.96 273.918L1041.5 275.638C1042.47 277.025 1043.38 278.419 1044.23 279.821L1046.79 278.271ZM1043.96 273.918C1043.01 272.555 1042.02 271.194 1041 269.835L1038.6 271.636C1039.6 272.97 1040.57 274.304 1041.5 275.638L1043.96 273.918ZM1035.97 263.46C1033.86 260.899 1031.64 258.343 1029.34 255.795L1027.11 257.809C1029.39 260.326 1031.58 262.847 1033.66 265.368L1035.97 263.46ZM1023.81 249.881C1021.51 247.482 1019.13 245.088 1016.69 242.702L1014.59 244.846C1017.01 247.213 1019.37 249.585 1021.65 251.96L1023.81 249.881ZM1010.86 237.112C1008.42 234.825 1005.95 232.546 1003.43 230.274L1001.42 232.501C1003.92 234.761 1006.39 237.026 1008.8 239.297L1010.86 237.112ZM997.401 224.905C994.887 222.694 992.344 220.49 989.784 218.295L987.831 220.573C990.384 222.761 992.916 224.956 995.419 227.158L997.401 224.905ZM983.64 213.07C981.074 210.904 978.497 208.746 975.919 206.598L973.999 208.903C976.573 211.048 979.145 213.201 981.705 215.363L983.64 213.07ZM969.724 201.452C967.131 199.303 964.542 197.163 961.971 195.035L960.058 197.346C962.631 199.476 965.218 201.614 967.81 203.762L969.724 201.452ZM955.78 189.903C953.181 187.743 950.606 185.595 948.066 183.46L946.136 185.756C948.681 187.896 951.26 190.048 953.863 192.21L955.78 189.903ZM941.925 178.258C939.346 176.055 936.813 173.866 934.339 171.693L932.359 173.947C934.846 176.131 937.389 178.329 939.977 180.539L941.925 178.258ZM928.34 166.344C925.814 164.053 923.365 161.781 921.008 159.529L918.935 161.698C921.314 163.971 923.782 166.261 926.326 168.566L928.34 166.344ZM915.298 153.923C912.868 151.466 910.566 149.035 908.411 146.632L906.178 148.635C908.37 151.079 910.706 153.546 913.165 156.033L915.298 153.923ZM903.241 140.559C901.07 137.858 899.116 135.199 897.406 132.584L894.895 134.226C896.668 136.935 898.681 139.674 900.902 142.438L903.241 140.559ZM893.461 125.761C891.916 122.656 890.778 119.635 890.084 116.698L887.165 117.388C887.921 120.588 889.148 123.827 890.775 127.098L893.461 125.761ZM889.309 109.107C889.442 105.997 890.167 102.966 891.562 100.009L888.849 98.7296C887.282 102.051 886.461 105.473 886.312 108.98L889.309 109.107ZM895.739 93.6227C896.741 92.4404 897.871 91.2671 899.135 90.1039L897.104 87.8961C895.756 89.1368 894.539 90.399 893.45 91.6827L895.739 93.6227Z" fill="#E4E4E4"/>
<path d="M506.318 314.715C506.713 313.987 506.443 313.077 505.715 312.682C504.987 312.287 504.076 312.557 503.681 313.285L506.318 314.715ZM262.444 341L261.609 342.246L262.444 341ZM179 207L178.158 208.241L179 207ZM179 159L180.232 159.855L179 159ZM6.65824 55.6709C7.02872 56.4119 7.92973 56.7122 8.6707 56.3417L20.7455 50.3044C21.4864 49.9339 21.7868 49.0329 21.4163 48.2919C21.0458 47.551 20.1448 47.2506 19.4038 47.6211L8.6707 52.9876L3.30417 42.2545C2.93368 41.5135 2.03268 41.2132 1.29171 41.5837C0.550738 41.9542 0.2504 42.8552 0.620882 43.5961L6.65824 55.6709ZM11.1766 50.6714C11.4831 49.9017 11.1077 49.0293 10.3381 48.7228C9.56843 48.4163 8.69603 48.7917 8.38951 49.5613L11.1766 50.6714ZM11.8134 42.03C11.434 42.7664 11.7234 43.671 12.4598 44.0504C13.1962 44.4299 14.1008 44.1405 14.4802 43.404L11.8134 42.03ZM19.6295 34.8348C20.1029 34.155 19.9356 33.2201 19.2558 32.7466C18.5759 32.2732 17.641 32.4406 17.1676 33.1204L19.6295 34.8348ZM22.2893 26.5774C21.7426 27.1998 21.804 28.1476 22.4264 28.6943C23.0488 29.241 23.9966 29.1796 24.5433 28.5572L22.2893 26.5774ZM31.6648 21.5438C32.2956 21.0069 32.3717 20.0602 31.8348 19.4294C31.2979 18.7985 30.3512 18.7224 29.7203 19.2593L31.6648 21.5438ZM36.3727 14.2291C35.6844 14.6901 35.5 15.6218 35.961 16.3101C36.422 16.9985 37.3537 17.1828 38.042 16.7218L36.3727 14.2291ZM46.7179 11.7512C47.4632 11.3895 47.7742 10.4921 47.4125 9.74684C47.0508 9.00154 46.1534 8.69056 45.4081 9.05225L46.7179 11.7512ZM53.077 5.81608C52.2982 6.09852 51.8958 6.95882 52.1783 7.73762C52.4607 8.51641 53.321 8.91878 54.0998 8.63634L53.077 5.81608ZM63.7215 5.79761C64.5285 5.61055 65.0311 4.80469 64.844 3.99765C64.657 3.19062 63.8511 2.68803 63.0441 2.87508L63.7215 5.79761ZM71.1989 1.36502C70.3785 1.48024 69.8069 2.23869 69.9221 3.05907C70.0373 3.87945 70.7958 4.45109 71.6162 4.33586L71.1989 1.36502ZM81.6375 3.45199C82.4653 3.42055 83.1109 2.72398 83.0795 1.89615C83.0481 1.06832 82.3515 0.422711 81.5237 0.454148L81.6375 3.45199ZM89.7991 0.4542C88.9713 0.423412 88.2752 1.06956 88.2444 1.89742C88.2136 2.72527 88.8598 3.42134 89.6876 3.45213L89.7991 0.4542ZM99.7353 4.27435C100.557 4.37773 101.307 3.79522 101.411 2.97327C101.514 2.15132 100.932 1.40119 100.11 1.2978L99.7353 4.27435ZM108.275 2.60423C107.462 2.44637 106.674 2.97767 106.517 3.79091C106.359 4.60416 106.89 5.3914 107.703 5.54926L108.275 2.60423ZM117.527 7.87019C118.325 8.09258 119.153 7.62593 119.375 6.82791C119.597 6.02989 119.131 5.20269 118.333 4.98031L117.527 7.87019ZM126.223 7.44777C125.441 7.17602 124.586 7.59012 124.314 8.37271C124.042 9.15529 124.456 10.01 125.239 10.2818L126.223 7.44777ZM134.644 13.961C135.403 14.2924 136.287 13.9456 136.618 13.1863C136.95 12.4271 136.603 11.5429 135.844 11.2115L134.644 13.961ZM143.312 14.7513C142.575 14.3733 141.671 14.6645 141.293 15.4017C140.915 16.1389 141.206 17.0429 141.943 17.4208L143.312 14.7513ZM150.736 22.3769C151.441 22.8121 152.365 22.5935 152.8 21.8886C153.236 21.1837 153.017 20.2595 152.312 19.8243L150.736 22.3769ZM159.201 24.3947C158.526 23.9141 157.589 24.0716 157.109 24.7464C156.628 25.4212 156.786 26.3578 157.46 26.8383L159.201 24.3947ZM165.416 33.0314C166.047 33.5682 166.994 33.4918 167.531 32.8608C168.067 32.2299 167.991 31.2832 167.36 30.7464L165.416 33.0314ZM173.472 36.3393C172.882 35.7579 171.932 35.7651 171.351 36.3553C170.77 36.9455 170.777 37.8952 171.367 38.4766L173.472 36.3393ZM178.19 45.8748C178.721 46.5107 179.667 46.5957 180.303 46.0647C180.939 45.5338 181.024 44.5878 180.493 43.9519L178.19 45.8748ZM185.543 50.5329C185.066 49.855 184.131 49.6916 183.453 50.1678C182.775 50.6441 182.612 51.5796 183.088 52.2575L185.543 50.5329ZM188.399 60.7763C188.797 61.5029 189.709 61.7693 190.435 61.3713C191.162 60.9733 191.428 60.0617 191.03 59.3351L188.399 60.7763ZM194.674 66.7982C194.346 66.0373 193.464 65.686 192.703 66.0136C191.942 66.3411 191.591 67.2235 191.918 67.9844L194.674 66.7982ZM195.305 77.4086C195.536 78.2041 196.368 78.6619 197.163 78.431C197.959 78.2001 198.417 77.3679 198.186 76.5723L195.305 77.4086ZM200.094 84.6653C199.945 83.8503 199.164 83.3102 198.349 83.4588C197.534 83.6074 196.994 84.3886 197.143 85.2036L200.094 84.6653ZM198.304 95.1412C198.347 95.9685 199.053 96.604 199.88 96.5606C200.707 96.5172 201.343 95.8114 201.3 94.9841L198.304 95.1412ZM201.315 103.322C201.355 102.494 200.716 101.791 199.889 101.751C199.061 101.711 198.358 102.35 198.318 103.177L201.315 103.322ZM197.23 113.159C197.092 113.976 197.642 114.75 198.459 114.888C199.276 115.027 200.05 114.477 200.188 113.66L197.23 113.159ZM198.448 121.729C198.658 120.928 198.179 120.108 197.377 119.898C196.576 119.688 195.756 120.168 195.546 120.969L198.448 121.729ZM192.51 130.523C192.22 131.299 192.614 132.163 193.39 132.453C194.166 132.743 195.03 132.349 195.32 131.573L192.51 130.523ZM192.134 139.218C192.48 138.465 192.151 137.575 191.398 137.228C190.646 136.882 189.755 137.212 189.409 137.965L192.134 139.218ZM184.779 147.003C184.372 147.724 184.626 148.639 185.348 149.047C186.069 149.454 186.984 149.199 187.391 148.478L184.779 147.003ZM183.174 155.457C183.623 154.761 183.422 153.833 182.725 153.384C182.029 152.936 181.1 153.137 180.652 153.833L183.174 155.457ZM174.688 162.424C174.193 163.087 174.329 164.027 174.993 164.523C175.656 165.019 176.596 164.883 177.092 164.219L174.688 162.424ZM171.849 170.808C172.385 170.177 172.309 169.231 171.678 168.694C171.047 168.157 170.1 168.234 169.563 168.865L171.849 170.808ZM162.59 176.32C161.994 176.895 161.977 177.845 162.552 178.441C163.127 179.038 164.076 179.055 164.673 178.48L162.59 176.32ZM158.301 184.047C158.953 183.535 159.067 182.593 158.556 181.941C158.045 181.289 157.102 181.175 156.45 181.686L158.301 184.047ZM147.977 187.291C147.248 187.684 146.975 188.594 147.368 189.323C147.761 190.053 148.671 190.325 149.4 189.932L147.977 187.291ZM141.47 193.333C142.26 193.082 142.697 192.239 142.446 191.449C142.196 190.66 141.352 190.223 140.563 190.473L141.47 193.333ZM130.809 192.003C129.981 191.988 129.298 192.647 129.283 193.475C129.268 194.304 129.927 194.987 130.756 195.002L130.809 192.003ZM122.087 193.275C122.85 193.598 123.731 193.241 124.054 192.478C124.377 191.715 124.02 190.835 123.257 190.512L122.087 193.275ZM118.057 184.824C118.299 184.031 117.853 183.193 117.061 182.951C116.269 182.708 115.43 183.154 115.188 183.947L118.057 184.824ZM123.803 179.807C122.974 179.795 122.293 180.457 122.282 181.285C122.27 182.114 122.932 182.795 123.76 182.806L123.803 179.807ZM133.543 184.589C134.337 184.827 135.173 184.377 135.411 183.583C135.65 182.79 135.199 181.953 134.406 181.715L133.543 184.589ZM142.373 184.582C141.607 184.266 140.731 184.631 140.415 185.397C140.099 186.163 140.464 187.04 141.23 187.355L142.373 184.582ZM150.559 191.662C151.298 192.036 152.2 191.74 152.574 191.001C152.948 190.262 152.652 189.359 151.913 188.985L150.559 191.662ZM159.31 192.943C158.588 192.537 157.673 192.793 157.267 193.516C156.861 194.238 157.117 195.152 157.839 195.558L159.31 192.943ZM166.763 200.838C167.468 201.274 168.392 201.057 168.828 200.352C169.264 199.648 169.047 198.723 168.342 198.287L166.763 200.838ZM175.359 202.765C174.666 202.311 173.736 202.504 173.281 203.196C172.827 203.888 173.02 204.818 173.712 205.273L175.359 202.765ZM182.198 211.117C182.861 211.613 183.801 211.477 184.297 210.813C184.793 210.15 184.657 209.21 183.993 208.714L182.198 211.117ZM190.286 213.81C189.664 213.263 188.716 213.324 188.169 213.946C187.623 214.568 187.684 215.516 188.306 216.063L190.286 213.81ZM195.331 222.942C195.89 223.554 196.839 223.597 197.451 223.038C198.062 222.479 198.105 221.53 197.546 220.918L195.331 222.942ZM202.754 227.17C202.253 226.51 201.313 226.38 200.652 226.88C199.992 227.381 199.862 228.322 200.363 228.982L202.754 227.17ZM205.836 237.131C206.259 237.843 207.179 238.078 207.892 237.655C208.604 237.233 208.839 236.312 208.416 235.6L205.836 237.131ZM212.26 242.743C211.897 241.999 210.999 241.689 210.255 242.052C209.51 242.415 209.2 243.313 209.563 244.058L212.26 242.743ZM213.487 253.109C213.785 253.881 214.653 254.266 215.426 253.967C216.199 253.669 216.584 252.801 216.285 252.028L213.487 253.109ZM218.995 259.633C218.735 258.846 217.887 258.419 217.1 258.679C216.314 258.939 215.887 259.787 216.146 260.574L218.995 259.633ZM219.07 270.075C219.301 270.871 220.134 271.328 220.929 271.097C221.725 270.865 222.182 270.033 221.951 269.237L219.07 270.075ZM224.148 276.938C223.922 276.141 223.093 275.678 222.296 275.904C221.499 276.13 221.036 276.959 221.262 277.756L224.148 276.938ZM224.065 287.382C224.307 288.174 225.145 288.621 225.937 288.379C226.73 288.137 227.176 287.299 226.935 286.507L224.065 287.382ZM229.383 294.058C229.111 293.275 228.256 292.861 227.474 293.134C226.691 293.406 226.277 294.26 226.549 295.043L229.383 294.058ZM230.206 304.465C230.537 305.224 231.421 305.571 232.181 305.241C232.94 304.91 233.288 304.026 232.957 303.266L230.206 304.465ZM236.381 310.355C235.99 309.625 235.081 309.35 234.351 309.741C233.62 310.133 233.345 311.042 233.737 311.772L236.381 310.355ZM239.049 320.437C239.524 321.116 240.459 321.281 241.138 320.806C241.817 320.331 241.982 319.396 241.507 318.717L239.049 320.437ZM246.325 324.909C245.784 324.282 244.837 324.213 244.21 324.754C243.583 325.296 243.513 326.243 244.055 326.87L246.325 324.909ZM251.167 334.132C251.782 334.688 252.731 334.639 253.286 334.024C253.841 333.409 253.793 332.461 253.178 331.906L251.167 334.132ZM259.249 336.896C258.586 336.4 257.646 336.534 257.149 337.197C256.652 337.86 256.787 338.8 257.45 339.297L259.249 336.896ZM265.813 344.917C266.523 345.345 267.445 345.116 267.872 344.406C268.3 343.697 268.071 342.775 267.361 342.347L265.813 344.917ZM274.202 346.159C273.466 345.779 272.561 346.067 272.181 346.803C271.801 347.539 272.09 348.444 272.826 348.824L274.202 346.159ZM281.813 353.084C282.573 353.414 283.457 353.067 283.787 352.307C284.118 351.548 283.77 350.664 283.011 350.333L281.813 353.084ZM290.266 353.297C289.492 353 288.625 353.387 288.329 354.161C288.032 354.934 288.419 355.802 289.193 356.098L290.266 353.297ZM298.579 359.427C299.366 359.685 300.213 359.256 300.472 358.469C300.73 357.682 300.301 356.835 299.514 356.577L298.579 359.427ZM307.017 358.889C306.222 358.659 305.39 359.117 305.16 359.913C304.93 360.709 305.388 361.541 306.184 361.771L307.017 358.889ZM315.8 364.337C316.605 364.535 317.417 364.043 317.615 363.238C317.812 362.434 317.32 361.621 316.515 361.424L315.8 364.337ZM324.172 363.177C323.361 363.005 322.565 363.522 322.392 364.332C322.219 365.142 322.736 365.939 323.547 366.112L324.172 363.177ZM333.309 368.002C334.125 368.144 334.902 367.598 335.044 366.782C335.187 365.966 334.641 365.189 333.825 365.046L333.309 368.002ZM341.583 366.286C340.763 366.167 340.002 366.735 339.883 367.555C339.764 368.375 340.332 369.136 341.152 369.255L341.583 366.286ZM351.011 370.504C351.835 370.594 352.575 369.999 352.664 369.175C352.754 368.352 352.159 367.611 351.335 367.522L351.011 370.504ZM359.159 368.259C358.333 368.193 357.61 368.809 357.545 369.635C357.479 370.461 358.095 371.183 358.921 371.249L359.159 368.259ZM368.839 371.859C369.666 371.894 370.366 371.252 370.402 370.425C370.437 369.597 369.795 368.897 368.968 368.862L368.839 371.859ZM376.824 369.083C375.995 369.072 375.315 369.735 375.304 370.563C375.293 371.391 375.956 372.072 376.784 372.083L376.824 369.083ZM386.723 372.022C387.551 372 388.205 371.312 388.184 370.484C388.163 369.656 387.474 369.001 386.646 369.023L386.723 372.022ZM394.496 368.694C393.669 368.742 393.038 369.452 393.086 370.279C393.134 371.106 393.844 371.737 394.671 371.689L394.496 368.694ZM404.584 370.899C405.408 370.815 406.008 370.079 405.924 369.255C405.841 368.431 405.105 367.831 404.28 367.914L404.584 370.899ZM412.076 366.979C411.256 367.093 410.683 367.85 410.797 368.671C410.911 369.491 411.668 370.064 412.489 369.95L412.076 366.979ZM422.31 368.342C423.124 368.188 423.659 367.403 423.505 366.589C423.351 365.776 422.566 365.241 421.752 365.395L422.31 368.342ZM429.425 363.773C428.618 363.962 428.117 364.769 428.306 365.575C428.495 366.382 429.302 366.883 430.109 366.694L429.425 363.773ZM439.741 364.147C440.535 363.911 440.988 363.076 440.753 362.282C440.517 361.488 439.682 361.035 438.888 361.27L439.741 364.147ZM446.337 358.858C445.556 359.133 445.146 359.99 445.421 360.771C445.697 361.553 446.553 361.963 447.335 361.687L446.337 358.858ZM456.624 358.048C457.384 357.718 457.734 356.835 457.404 356.075C457.075 355.315 456.191 354.966 455.431 355.295L456.624 358.048ZM462.502 351.972C461.764 352.348 461.47 353.251 461.845 353.989C462.221 354.728 463.124 355.022 463.862 354.646L462.502 351.972ZM472.578 349.746C473.282 349.309 473.498 348.385 473.062 347.681C472.625 346.977 471.7 346.76 470.996 347.197L472.578 349.746ZM477.463 342.851C476.793 343.339 476.645 344.277 477.133 344.946C477.62 345.616 478.558 345.764 479.228 345.276L477.463 342.851ZM487.035 338.981C487.652 338.429 487.706 337.481 487.153 336.863C486.601 336.245 485.653 336.192 485.035 336.744L487.035 338.981ZM490.605 331.325C490.037 331.927 490.065 332.877 490.667 333.445C491.27 334.013 492.22 333.986 492.788 333.383L490.605 331.325ZM499.258 325.711C499.756 325.049 499.623 324.109 498.961 323.611C498.298 323.113 497.358 323.247 496.86 323.909L499.258 325.711ZM501.237 317.501C500.801 318.206 501.019 319.13 501.724 319.566C502.429 320.002 503.353 319.784 503.789 319.079L501.237 317.501ZM9.4229 55.4744C9.97096 53.8303 10.556 52.2295 11.1766 50.6714L8.38951 49.5613C7.74742 51.1735 7.14273 52.8281 6.57685 54.5257L9.4229 55.4744ZM14.4802 43.404C16.0494 40.3585 17.7707 37.504 19.6295 34.8348L17.1676 33.1204C15.2318 35.9002 13.4423 38.8686 11.8134 42.03L14.4802 43.404ZM24.5433 28.5572C26.7766 26.0146 29.1562 23.679 31.6648 21.5438L29.7203 19.2593C27.1022 21.4877 24.619 23.925 22.2893 26.5774L24.5433 28.5572ZM38.042 16.7218C40.818 14.8628 43.7161 13.208 46.7179 11.7512L45.4081 9.05225C42.2857 10.5676 39.2671 12.2908 36.3727 14.2291L38.042 16.7218ZM54.0998 8.63634C57.2256 7.50275 60.4388 6.55845 63.7215 5.79761L63.0441 2.87508C59.6491 3.66196 56.3202 4.63988 53.077 5.81608L54.0998 8.63634ZM71.6162 4.33586C74.9106 3.87316 78.2568 3.58037 81.6375 3.45199L81.5237 0.454148C78.0452 0.586241 74.5977 0.887661 71.1989 1.36502L71.6162 4.33586ZM89.6876 3.45213C93.0229 3.57617 96.3774 3.852 99.7353 4.27435L100.11 1.2978C96.6669 0.864774 93.2246 0.581595 89.7991 0.4542L89.6876 3.45213ZM107.703 5.54926C110.993 6.18775 114.272 6.96311 117.527 7.87019L118.333 4.98031C115.002 4.05203 111.644 3.25819 108.275 2.60423L107.703 5.54926ZM125.239 10.2818C128.415 11.3848 131.555 12.6129 134.644 13.961L135.844 11.2115C132.684 9.83247 129.473 8.57616 126.223 7.44777L125.239 10.2818ZM141.943 17.4208C144.943 18.9587 147.879 20.6125 150.736 22.3769L152.312 19.8243C149.386 18.0176 146.381 16.3249 143.312 14.7513L141.943 17.4208ZM157.46 26.8383C160.21 28.7962 162.867 30.8624 165.416 33.0314L167.36 30.7464C164.743 28.5202 162.018 26.4012 159.201 24.3947L157.46 26.8383ZM171.367 38.4766C173.77 40.8434 176.049 43.3114 178.19 45.8748L180.493 43.9519C178.288 41.3114 175.942 38.7721 173.472 36.3393L171.367 38.4766ZM183.088 52.2575C185.019 55.006 186.795 57.8476 188.399 60.7763L191.03 59.3351C189.371 56.3054 187.536 53.3694 185.543 50.5329L183.088 52.2575ZM191.918 67.9844C193.236 71.045 194.37 74.1882 195.305 77.4086L198.186 76.5723C197.216 73.2298 196.039 69.9698 194.674 66.7982L191.918 67.9844ZM197.143 85.2036C197.735 88.4479 198.126 91.7621 198.304 95.1412L201.3 94.9841C201.116 91.4761 200.709 88.0346 200.094 84.6653L197.143 85.2036ZM198.318 103.177C198.161 106.45 197.802 109.779 197.23 113.159L200.188 113.66C200.78 110.163 201.152 106.716 201.315 103.322L198.318 103.177ZM195.546 120.969C194.723 124.114 193.714 127.3 192.51 130.523L195.32 131.573C196.559 128.257 197.599 124.975 198.448 121.729L195.546 120.969ZM189.409 137.965C188.036 140.949 186.495 143.963 184.779 147.003L187.391 148.478C189.147 145.368 190.726 142.28 192.134 139.218L189.409 137.965ZM180.652 153.833C179.73 155.265 178.769 156.702 177.768 158.145L180.232 159.855C181.253 158.385 182.233 156.919 183.174 155.457L180.652 153.833ZM177.768 158.145C176.736 159.631 175.71 161.056 174.688 162.424L177.092 164.219C178.135 162.823 179.182 161.369 180.232 159.855L177.768 158.145ZM169.563 168.865C167.197 171.647 164.869 174.123 162.59 176.32L164.673 178.48C167.027 176.21 169.423 173.661 171.849 170.808L169.563 168.865ZM156.45 181.686C153.511 183.991 150.679 185.836 147.977 187.291L149.4 189.932C152.263 188.39 155.238 186.449 158.301 184.047L156.45 181.686ZM140.563 190.473C136.948 191.62 133.673 192.054 130.809 192.003L130.756 195.002C133.964 195.06 137.564 194.573 141.47 193.333L140.563 190.473ZM123.257 190.512C121.188 189.636 119.721 188.495 118.87 187.4C118.004 186.284 117.885 185.386 118.057 184.824L115.188 183.947C114.63 185.772 115.285 187.675 116.501 189.24C117.732 190.825 119.655 192.245 122.087 193.275L123.257 190.512ZM123.76 182.806C126.201 182.841 129.431 183.354 133.543 184.589L134.406 181.715C130.117 180.428 126.602 179.846 123.803 179.807L123.76 182.806ZM141.23 187.355C144.061 188.522 147.166 189.945 150.559 191.662L151.913 188.985C148.459 187.237 145.283 185.781 142.373 184.582L141.23 187.355ZM157.839 195.558C160.65 197.139 163.623 198.894 166.763 200.838L168.342 198.287C165.169 196.322 162.159 194.546 159.31 192.943L157.839 195.558ZM173.712 205.273C175.162 206.226 176.644 207.215 178.158 208.241L179.842 205.759C178.316 204.724 176.822 203.726 175.359 202.765L173.712 205.273ZM178.158 208.241C179.556 209.19 180.901 210.148 182.198 211.117L183.993 208.714C182.66 207.717 181.277 206.732 179.842 205.759L178.158 208.241ZM188.306 216.063C190.865 218.312 193.197 220.607 195.331 222.942L197.546 220.918C195.338 218.502 192.927 216.13 190.286 213.81L188.306 216.063ZM200.363 228.982C202.389 231.656 204.201 234.375 205.836 237.131L208.416 235.6C206.726 232.752 204.852 229.938 202.754 227.17L200.363 228.982ZM209.563 244.058C211.017 247.042 212.31 250.062 213.487 253.109L216.285 252.028C215.083 248.914 213.757 245.815 212.26 242.743L209.563 244.058ZM216.146 260.574C217.187 263.726 218.145 266.896 219.07 270.075L221.951 269.237C221.02 266.039 220.052 262.832 218.995 259.633L216.146 260.574ZM221.262 277.756C222.172 280.969 223.09 284.184 224.065 287.382L226.935 286.507C225.969 283.34 225.058 280.15 224.148 276.938L221.262 277.756ZM226.549 295.043C227.651 298.212 228.853 301.357 230.206 304.465L232.957 303.266C231.639 300.242 230.465 297.169 229.383 294.058L226.549 295.043ZM233.737 311.772C235.311 314.711 237.066 317.603 239.049 320.437L241.507 318.717C239.597 315.988 237.904 313.198 236.381 310.355L233.737 311.772ZM244.055 326.87C246.199 329.353 248.558 331.776 251.167 334.132L253.178 331.906C250.661 329.633 248.388 327.298 246.325 324.909L244.055 326.87ZM257.45 339.297C258.781 340.295 260.166 341.278 261.609 342.246L263.28 339.755C261.881 338.815 260.538 337.863 259.249 336.896L257.45 339.297ZM261.609 342.246C262.957 343.151 264.36 344.042 265.813 344.917L267.361 342.347C265.948 341.496 264.586 340.631 263.28 339.755L261.609 342.246ZM272.826 348.824C275.679 350.298 278.68 351.719 281.813 353.084L283.011 350.333C279.934 348.993 276.993 347.6 274.202 346.159L272.826 348.824ZM289.193 356.098C292.225 357.26 295.358 358.371 298.579 359.427L299.514 356.577C296.337 355.535 293.251 354.44 290.266 353.297L289.193 356.098ZM306.184 361.771C309.323 362.679 312.532 363.535 315.8 364.337L316.515 361.424C313.286 360.631 310.116 359.785 307.017 358.889L306.184 361.771ZM323.547 366.112C326.756 366.795 330.013 367.426 333.309 368.002L333.825 365.046C330.565 364.477 327.344 363.853 324.172 363.177L323.547 366.112ZM341.152 369.255C344.411 369.727 347.7 370.145 351.011 370.504L351.335 367.522C348.059 367.166 344.806 366.753 341.583 366.286L341.152 369.255ZM358.921 371.249C362.213 371.512 365.522 371.716 368.839 371.859L368.968 368.862C365.688 368.72 362.416 368.518 359.159 368.259L358.921 371.249ZM376.784 372.083C380.098 372.126 383.413 372.107 386.723 372.022L386.646 369.023C383.376 369.107 380.099 369.126 376.824 369.083L376.784 372.083ZM394.671 371.689C397.989 371.495 401.296 371.233 404.584 370.899L404.28 367.914C401.037 368.244 397.773 368.503 394.496 368.694L394.671 371.689ZM412.489 369.95C415.791 369.492 419.068 368.957 422.31 368.342L421.752 365.395C418.559 366 415.332 366.527 412.076 366.979L412.489 369.95ZM430.109 366.694C433.364 365.932 436.578 365.084 439.741 364.147L438.888 361.27C435.784 362.19 432.626 363.023 429.425 363.773L430.109 366.694ZM447.335 361.687C450.496 360.572 453.595 359.361 456.624 358.048L455.431 355.295C452.469 356.579 449.435 357.765 446.337 358.858L447.335 361.687ZM463.862 354.646C466.854 353.124 469.763 351.492 472.578 349.746L470.996 347.197C468.256 348.896 465.422 350.487 462.502 351.972L463.862 354.646ZM479.228 345.276C481.941 343.302 484.547 341.205 487.035 338.981L485.035 336.744C482.625 338.899 480.097 340.933 477.463 342.851L479.228 345.276ZM492.788 333.383C495.076 330.956 497.237 328.4 499.258 325.711L496.86 323.909C494.907 326.507 492.819 328.977 490.605 331.325L492.788 333.383ZM503.789 319.079C504.668 317.657 505.512 316.203 506.318 314.715L503.681 313.285C502.902 314.722 502.087 316.127 501.237 317.501L503.789 319.079Z" fill="#E4E4E4"/>
<path d="M317.512 690.681C316.729 690.95 316.312 691.804 316.581 692.587C316.851 693.371 317.704 693.787 318.488 693.518L317.512 690.681ZM468.389 700.627L469.393 699.512L468.389 700.627ZM434.333 861.766L434.592 860.289L434.333 861.766ZM429.5 832.096L428.476 831L429.5 832.096ZM430.389 933.312L430.518 934.807L430.389 933.312ZM18.4743 1054.58C17.6884 1054.32 16.8389 1054.74 16.577 1055.53L12.3079 1068.33C12.0459 1069.12 12.4707 1069.97 13.2566 1070.23C14.0425 1070.49 14.892 1070.07 15.154 1069.28L18.9487 1057.9L30.3329 1061.69C31.1188 1061.95 31.9683 1061.53 32.2302 1060.74C32.4922 1059.96 32.0675 1059.11 31.2816 1058.85L18.4743 1054.58ZM19.2785 1061.31C19.7252 1062.01 20.6529 1062.21 21.3506 1061.76C22.0483 1061.32 22.2518 1060.39 21.8052 1059.69L19.2785 1061.31ZM26.7423 1065.82C26.1475 1065.24 25.1979 1065.26 24.6212 1065.85C24.0445 1066.45 24.059 1067.4 24.6537 1067.97L26.7423 1065.82ZM33.6062 1073.96C34.3673 1074.29 35.2494 1073.94 35.5765 1073.18C35.9035 1072.41 35.5516 1071.53 34.7905 1071.21L33.6062 1073.96ZM42.3353 1073.34C41.5175 1073.21 40.7472 1073.76 40.6146 1074.58C40.482 1075.4 41.0375 1076.17 41.8552 1076.3L42.3353 1073.34ZM52.3807 1076.94C53.209 1076.93 53.8688 1076.24 53.8545 1075.42C53.8402 1074.59 53.1572 1073.93 52.3289 1073.94L52.3807 1076.94ZM60.4564 1073.51C59.6307 1073.57 59.0153 1074.3 59.082 1075.12C59.1486 1075.95 59.872 1076.56 60.6978 1076.5L60.4564 1073.51ZM70.9825 1075.53C71.8071 1075.45 72.4105 1074.72 72.3303 1073.89C72.2502 1073.07 71.5168 1072.47 70.6922 1072.55L70.9825 1075.53ZM78.9235 1071.82C78.0974 1071.88 77.4782 1072.6 77.5404 1073.43C77.6027 1074.25 78.3228 1074.87 79.1489 1074.81L78.9235 1071.82ZM89.3484 1074.32C90.1768 1074.31 90.8377 1073.62 90.8247 1072.8C90.8117 1071.97 90.1297 1071.31 89.3014 1071.32L89.3484 1074.32ZM97.6267 1071.46C96.7994 1071.42 96.0937 1072.05 96.0506 1072.88C96.0074 1073.71 96.643 1074.41 97.4703 1074.46L97.6267 1071.46ZM107.551 1075.49C108.369 1075.62 109.137 1075.06 109.265 1074.24C109.394 1073.43 108.834 1072.66 108.016 1072.53L107.551 1075.49ZM116.217 1074.2C115.414 1074 114.598 1074.49 114.395 1075.29C114.192 1076.09 114.678 1076.91 115.481 1077.11L116.217 1074.2ZM125.126 1080.17C125.899 1080.47 126.767 1080.08 127.064 1079.31C127.361 1078.54 126.975 1077.67 126.201 1077.37L125.126 1080.17ZM133.846 1080.72C133.103 1080.36 132.203 1080.66 131.837 1081.4C131.47 1082.15 131.774 1083.05 132.517 1083.41L133.846 1080.72ZM141.36 1088.4C142.06 1088.84 142.987 1088.63 143.431 1087.94C143.875 1087.24 143.668 1086.31 142.969 1085.86L141.36 1088.4ZM149.814 1090.6C149.151 1090.1 148.211 1090.24 147.715 1090.9C147.218 1091.56 147.354 1092.5 148.017 1093L149.814 1090.6ZM155.882 1099.47C156.494 1100.03 157.443 1099.98 158.001 1099.37C158.559 1098.76 158.516 1097.81 157.904 1097.25L155.882 1099.47ZM163.683 1103.07C163.133 1102.46 162.184 1102.4 161.566 1102.95C160.947 1103.5 160.891 1104.45 161.442 1105.07L163.683 1103.07ZM167.336 1112.99C167.761 1113.7 168.682 1113.93 169.393 1113.51C170.104 1113.09 170.337 1112.16 169.912 1111.45L167.336 1112.99ZM173.453 1119.12C173.196 1118.33 172.35 1117.9 171.562 1118.16C170.774 1118.41 170.344 1119.26 170.6 1120.05L173.453 1119.12ZM171.811 1129.43C171.745 1130.26 172.361 1130.98 173.187 1131.05C174.012 1131.12 174.735 1130.5 174.801 1129.67L171.811 1129.43ZM172.569 1137.99C172.925 1137.24 172.607 1136.34 171.859 1135.99C171.112 1135.63 170.216 1135.95 169.86 1136.7L172.569 1137.99ZM164.103 1144.22C163.483 1144.77 163.427 1145.72 163.977 1146.34C164.527 1146.96 165.475 1147.02 166.095 1146.47L164.103 1144.22ZM159.058 1151.21C159.797 1150.84 160.095 1149.94 159.722 1149.2C159.349 1148.46 158.447 1148.16 157.707 1148.53L159.058 1151.21ZM148.525 1151.59C147.709 1151.74 147.167 1152.52 147.314 1153.33C147.461 1154.15 148.241 1154.69 149.056 1154.54L148.525 1151.59ZM140.615 1155.05C141.442 1155.1 142.154 1154.47 142.204 1153.65C142.255 1152.82 141.625 1152.11 140.799 1152.06L140.615 1155.05ZM131.48 1149.88C130.72 1149.55 129.836 1149.89 129.505 1150.65C129.174 1151.41 129.522 1152.3 130.281 1152.63L131.48 1149.88ZM123.084 1148C123.698 1148.55 124.647 1148.51 125.203 1147.89C125.759 1147.28 125.713 1146.33 125.099 1145.77L123.084 1148ZM119.494 1138.11C119.142 1137.36 118.248 1137.04 117.498 1137.39C116.749 1137.75 116.427 1138.64 116.78 1139.39L119.494 1138.11ZM114.189 1131.32C114.348 1132.13 115.135 1132.66 115.949 1132.5C116.762 1132.35 117.292 1131.56 117.133 1130.75L114.189 1131.32ZM116.114 1120.66C116.054 1119.84 115.335 1119.22 114.509 1119.28C113.683 1119.34 113.062 1120.06 113.122 1120.88L116.114 1120.66ZM112.527 1112.52C112.583 1113.35 113.299 1113.97 114.126 1113.92C114.952 1113.86 115.576 1113.15 115.52 1112.32L112.527 1112.52ZM114.862 1101.87C114.816 1101.05 114.108 1100.41 113.28 1100.46C112.453 1100.51 111.82 1101.21 111.867 1102.04L114.862 1101.87ZM111.455 1093.64C111.489 1094.46 112.188 1095.11 113.016 1095.07C113.843 1095.04 114.487 1094.34 114.453 1093.51L111.455 1093.64ZM114.146 1083.07C114.132 1082.25 113.449 1081.59 112.621 1081.6C111.793 1081.61 111.132 1082.3 111.146 1083.12L114.146 1083.07ZM111.106 1074.7C111.099 1075.53 111.766 1076.21 112.594 1076.21C113.423 1076.22 114.099 1075.55 114.106 1074.72L111.106 1074.7ZM114.371 1064.3C114.408 1063.47 113.767 1062.77 112.939 1062.73C112.111 1062.7 111.411 1063.34 111.374 1064.17L114.371 1064.3ZM111.89 1055.74C111.825 1056.57 112.441 1057.29 113.267 1057.36C114.093 1057.42 114.815 1056.81 114.881 1055.98L111.89 1055.74ZM115.954 1045.63C116.061 1044.81 115.481 1044.06 114.66 1043.95C113.838 1043.84 113.086 1044.42 112.979 1045.24L115.954 1045.63ZM114.259 1036.88C114.114 1037.7 114.658 1038.48 115.474 1038.62C116.289 1038.77 117.068 1038.23 117.213 1037.41L114.259 1036.88ZM119.36 1027.25C119.559 1026.45 119.068 1025.64 118.264 1025.44C117.46 1025.24 116.647 1025.73 116.448 1026.53L119.36 1027.25ZM118.728 1018.37C118.48 1019.16 118.921 1020 119.711 1020.25C120.502 1020.5 121.343 1020.06 121.591 1019.27L118.728 1018.37ZM125.093 1009.53C125.407 1008.76 125.04 1007.88 124.273 1007.57C123.506 1007.26 122.63 1007.62 122.316 1008.39L125.093 1009.53ZM125.827 1000.65C125.456 1001.39 125.756 1002.29 126.497 1002.66C127.237 1003.03 128.139 1002.74 128.509 1001.99L125.827 1000.65ZM133.59 993.009C134.035 992.31 133.829 991.382 133.13 990.938C132.43 990.493 131.503 990.7 131.059 991.399L133.59 993.009ZM135.929 984.42C135.426 985.078 135.551 986.02 136.21 986.523C136.868 987.026 137.809 986.9 138.312 986.242L135.929 984.42ZM145.021 978.402C145.593 977.804 145.572 976.854 144.973 976.282C144.375 975.709 143.425 975.73 142.852 976.329L145.021 978.402ZM148.991 970.45C148.368 970.996 148.306 971.944 148.853 972.567C149.399 973.19 150.347 973.251 150.97 972.705L148.991 970.45ZM159.091 966.312C159.767 965.834 159.929 964.898 159.451 964.221C158.973 963.545 158.037 963.383 157.361 963.861L159.091 966.312ZM164.48 959.249C163.768 959.672 163.533 960.592 163.956 961.305C164.379 962.017 165.3 962.252 166.012 961.829L164.48 959.249ZM174.835 957.101C175.58 956.74 175.892 955.843 175.531 955.097C175.17 954.352 174.273 954.04 173.527 954.401L174.835 957.101ZM180.734 951.162C179.969 951.48 179.608 952.358 179.926 953.123C180.245 953.888 181.123 954.249 181.888 953.931L180.734 951.162ZM190.935 950.498C191.718 950.228 192.134 949.374 191.864 948.591C191.594 947.808 190.74 947.392 189.957 947.662L190.935 950.498ZM197.463 945.263C196.668 945.498 196.215 946.332 196.45 947.127C196.685 947.921 197.519 948.374 198.314 948.139L197.463 945.263ZM207.673 945.624C208.478 945.428 208.971 944.616 208.775 943.811C208.579 943.007 207.768 942.513 206.963 942.709L207.673 945.624ZM214.639 940.982C213.828 941.15 213.307 941.944 213.475 942.755C213.643 943.567 214.437 944.088 215.248 943.92L214.639 940.982ZM224.801 942.131C225.618 941.993 226.169 941.219 226.031 940.402C225.894 939.585 225.12 939.035 224.303 939.172L224.801 942.131ZM232.066 937.972C231.246 938.088 230.675 938.847 230.791 939.667C230.907 940.488 231.666 941.059 232.486 940.943L232.066 937.972ZM242.146 939.722C242.969 939.63 243.562 938.888 243.47 938.065C243.377 937.241 242.635 936.649 241.812 936.741L242.146 939.722ZM249.616 935.947C248.791 936.023 248.183 936.753 248.259 937.578C248.335 938.403 249.065 939.01 249.89 938.935L249.616 935.947ZM259.595 938.153C260.422 938.095 261.045 937.378 260.987 936.552C260.929 935.725 260.212 935.102 259.386 935.16L259.595 938.153ZM267.213 934.673C266.385 934.718 265.752 935.426 265.797 936.253C265.842 937.08 266.55 937.714 267.377 937.668L267.213 934.673ZM277.108 937.216C277.936 937.184 278.581 936.487 278.549 935.659C278.517 934.831 277.82 934.186 276.992 934.218L277.108 937.216ZM284.824 933.959C283.996 933.982 283.343 934.672 283.366 935.5C283.389 936.328 284.079 936.981 284.907 936.958L284.824 933.959ZM294.656 936.745C295.484 936.731 296.145 936.049 296.131 935.221C296.118 934.392 295.435 933.732 294.607 933.745L294.656 936.745ZM302.436 933.647C301.608 933.655 300.942 934.332 300.95 935.161C300.957 935.989 301.634 936.655 302.463 936.647L302.436 933.647ZM312.222 936.598C313.05 936.596 313.721 935.923 313.719 935.095C313.718 934.267 313.045 933.596 312.217 933.598L312.222 936.598ZM320.041 933.602C319.213 933.6 318.54 934.27 318.537 935.098C318.535 935.927 319.205 936.6 320.033 936.602L320.041 933.602ZM329.799 936.647C330.627 936.653 331.303 935.985 331.308 935.157C331.313 934.328 330.646 933.653 329.817 933.647L329.799 936.647ZM337.637 933.702C336.808 933.696 336.131 934.362 336.125 935.191C336.119 936.019 336.785 936.696 337.614 936.702L337.637 933.702ZM347.385 936.778C348.214 936.784 348.89 936.118 348.897 935.289C348.903 934.461 348.236 933.784 347.408 933.778L347.385 936.778ZM355.222 933.832C354.393 933.827 353.718 934.494 353.713 935.323C353.708 936.151 354.375 936.827 355.204 936.832L355.222 933.832ZM364.982 936.875C365.81 936.877 366.483 936.207 366.485 935.378C366.487 934.55 365.817 933.877 364.989 933.875L364.982 936.875ZM372.798 933.876C371.969 933.878 371.299 934.551 371.301 935.38C371.303 936.208 371.976 936.878 372.804 936.876L372.798 933.876ZM382.589 936.82C383.417 936.812 384.082 936.134 384.074 935.305C384.066 934.477 383.388 933.812 382.56 933.82L382.589 936.82ZM390.363 933.715C389.535 933.729 388.875 934.412 388.889 935.241C388.904 936.069 389.587 936.729 390.416 936.714L390.363 933.715ZM400.205 936.485C401.033 936.461 401.685 935.77 401.66 934.941C401.636 934.113 400.945 933.462 400.116 933.487L400.205 936.485ZM407.91 933.211C407.082 933.246 406.439 933.944 406.473 934.772C406.508 935.6 407.206 936.243 408.034 936.209L407.91 933.211ZM417.822 935.722C418.649 935.673 419.28 934.964 419.231 934.137C419.183 933.31 418.473 932.679 417.646 932.727L417.822 935.722ZM425.421 932.209C424.595 932.271 423.976 932.991 424.038 933.817C424.1 934.643 424.82 935.262 425.646 935.2L425.421 932.209ZM435.278 934.255C436.098 934.135 436.666 933.374 436.546 932.554C436.426 931.734 435.665 931.167 434.845 931.286L435.278 934.255ZM442.076 929.869C441.272 930.068 440.782 930.882 440.981 931.686C441.181 932.49 441.995 932.98 442.799 932.781L442.076 929.869ZM451.937 929.87C452.708 929.567 453.087 928.696 452.784 927.925C452.48 927.155 451.61 926.775 450.839 927.079L451.937 929.87ZM457.517 924.013C456.785 924.401 456.505 925.309 456.893 926.041C457.281 926.773 458.188 927.052 458.92 926.665L457.517 924.013ZM467.066 921.56C467.733 921.07 467.876 920.131 467.385 919.463C466.895 918.796 465.956 918.653 465.288 919.143L467.066 921.56ZM470.921 914.449C470.318 915.017 470.29 915.967 470.859 916.569C471.427 917.172 472.376 917.2 472.979 916.632L470.921 914.449ZM479.449 909.508C479.957 908.853 479.838 907.911 479.184 907.403C478.529 906.895 477.587 907.014 477.079 907.668L479.449 909.508ZM481.207 901.613C480.783 902.324 481.017 903.245 481.728 903.669C482.44 904.093 483.361 903.86 483.785 903.148L481.207 901.613ZM488.074 894.545C488.388 893.779 488.022 892.903 487.255 892.588C486.489 892.274 485.612 892.641 485.298 893.407L488.074 894.545ZM487.699 886.46C487.472 887.257 487.934 888.086 488.73 888.313C489.527 888.54 490.357 888.078 490.584 887.281L487.699 886.46ZM492.6 877.912C492.722 877.093 492.157 876.329 491.338 876.207C490.519 876.084 489.755 876.649 489.633 877.468L492.6 877.912ZM490.375 870.128C490.33 870.955 490.964 871.663 491.791 871.708C492.618 871.753 493.325 871.119 493.371 870.292L490.375 870.128ZM493.224 860.289C493.136 859.465 492.397 858.868 491.574 858.956C490.75 859.044 490.153 859.783 490.241 860.606L493.224 860.289ZM488.747 852.924C488.975 853.721 489.805 854.182 490.602 853.954C491.398 853.726 491.86 852.896 491.632 852.1L488.747 852.924ZM487.691 842.445C487.296 841.717 486.385 841.448 485.657 841.843C484.929 842.238 484.659 843.149 485.055 843.877L487.691 842.445ZM480.725 837.37C481.245 838.016 482.189 838.118 482.834 837.598C483.479 837.078 483.581 836.134 483.062 835.489L480.725 837.37ZM475.589 828.177C474.931 827.674 473.99 827.8 473.486 828.458C472.983 829.116 473.109 830.057 473.767 830.561L475.589 828.177ZM467.143 826.511C467.892 826.864 468.786 826.544 469.14 825.795C469.493 825.045 469.173 824.151 468.424 823.798L467.143 826.511ZM458.355 820.731C457.535 820.611 456.774 821.179 456.654 821.999C456.535 822.819 457.103 823.58 457.922 823.699L458.355 820.731ZM450.233 823.564C451.057 823.473 451.65 822.731 451.558 821.908C451.466 821.084 450.724 820.491 449.901 820.583L450.233 823.564ZM439.738 823.381C438.982 823.72 438.644 824.608 438.983 825.364C439.322 826.12 440.21 826.458 440.966 826.119L439.738 823.381ZM434.288 830.052C434.954 829.56 435.095 828.62 434.603 827.954C434.11 827.288 433.171 827.147 432.505 827.639L434.288 830.052ZM425.12 835.333C424.714 836.056 424.971 836.97 425.693 837.376C426.415 837.782 427.33 837.525 427.736 836.803L425.12 835.333ZM425.4 843.894C425.515 843.073 424.942 842.316 424.122 842.201C423.301 842.087 422.543 842.66 422.429 843.48L425.4 843.894ZM423.458 854.153C423.749 854.928 424.614 855.321 425.389 855.03C426.165 854.738 426.557 853.874 426.266 853.098L423.458 854.153ZM430.504 858.688C429.815 858.228 428.884 858.414 428.424 859.103C427.964 859.792 428.149 860.723 428.838 861.183L430.504 858.688ZM439.326 863.914C440.152 863.979 440.874 863.362 440.939 862.536C441.003 861.71 440.387 860.988 439.561 860.923L439.326 863.914ZM447.435 860.866C446.611 860.947 446.009 861.682 446.09 862.506C446.172 863.33 446.906 863.933 447.731 863.851L447.435 860.866ZM458.038 861.491C458.814 861.202 459.21 860.339 458.921 859.562C458.632 858.786 457.769 858.39 456.992 858.679L458.038 861.491ZM464.009 855.183C463.311 855.628 463.104 856.555 463.549 857.254C463.994 857.953 464.921 858.159 465.62 857.714L464.009 855.183ZM473.765 851.025C474.342 850.43 474.327 849.481 473.732 848.904C473.137 848.328 472.187 848.343 471.611 848.938L473.765 851.025ZM476.662 842.82C476.183 843.496 476.343 844.432 477.019 844.911C477.695 845.389 478.632 845.229 479.11 844.553L476.662 842.82ZM484.443 835.587C484.814 834.846 484.513 833.945 483.772 833.574C483.031 833.204 482.13 833.504 481.76 834.245L484.443 835.587ZM484.983 826.891C484.686 827.665 485.073 828.532 485.847 828.829C486.621 829.125 487.488 828.738 487.784 827.964L484.983 826.891ZM490.985 818.103C491.202 817.304 490.73 816.48 489.931 816.262C489.132 816.045 488.307 816.517 488.09 817.317L490.985 818.103ZM489.934 809.461C489.772 810.273 490.299 811.063 491.111 811.226C491.923 811.388 492.714 810.861 492.876 810.049L489.934 809.461ZM494.516 799.838C494.617 799.016 494.033 798.267 493.211 798.166C492.388 798.064 491.64 798.649 491.538 799.471L494.516 799.838ZM492.31 791.416C492.253 792.242 492.876 792.958 493.703 793.015C494.529 793.072 495.245 792.449 495.302 791.622L492.31 791.416ZM495.684 781.32C495.689 780.491 495.022 779.816 494.193 779.811C493.365 779.806 492.689 780.474 492.685 781.302L495.684 781.32ZM492.535 773.2C492.57 774.027 493.27 774.67 494.097 774.634C494.925 774.599 495.567 773.899 495.532 773.071L492.535 773.2ZM494.781 762.792C494.695 761.968 493.958 761.369 493.134 761.454C492.31 761.54 491.711 762.277 491.797 763.101L494.781 762.792ZM490.762 755.063C490.888 755.882 491.654 756.443 492.473 756.316C493.292 756.19 493.853 755.424 493.727 754.605L490.762 755.063ZM491.817 744.461C491.636 743.653 490.834 743.144 490.026 743.325C489.217 743.506 488.709 744.307 488.889 745.116L491.817 744.461ZM486.899 737.287C487.127 738.084 487.958 738.544 488.754 738.316C489.551 738.088 490.011 737.257 489.783 736.461L486.899 737.287ZM486.517 726.628C486.222 725.854 485.355 725.466 484.581 725.762C483.807 726.058 483.419 726.925 483.715 727.698L486.517 726.628ZM480.545 720.307C480.904 721.053 481.8 721.368 482.547 721.009C483.294 720.65 483.608 719.754 483.249 719.007L480.545 720.307ZM478.15 709.919C477.695 709.227 476.765 709.034 476.073 709.489C475.38 709.944 475.188 710.874 475.643 711.567L478.15 709.919ZM470.853 705.256C471.402 705.876 472.35 705.935 472.971 705.386C473.591 704.837 473.65 703.889 473.101 703.268L470.853 705.256ZM465.615 696.299C464.968 695.781 464.024 695.884 463.506 696.53C462.988 697.177 463.091 698.121 463.738 698.639L465.615 696.299ZM457.547 694.126C458.238 694.582 459.169 694.392 459.625 693.701C460.082 693.01 459.892 692.08 459.201 691.623L457.547 694.126ZM450.64 686.637C449.902 686.261 448.999 686.554 448.622 687.292C448.246 688.03 448.539 688.934 449.277 689.31L450.64 686.637ZM442.305 686.127C443.073 686.439 443.948 686.07 444.259 685.302C444.571 684.534 444.202 683.66 443.434 683.348L442.305 686.127ZM434.093 680.094C433.299 679.861 432.465 680.315 432.231 681.11C431.997 681.905 432.452 682.739 433.247 682.972L434.093 680.094ZM425.799 681.077C426.608 681.252 427.407 680.738 427.582 679.929C427.758 679.119 427.244 678.32 426.434 678.145L425.799 681.077ZM416.713 676.461C415.891 676.353 415.138 676.931 415.029 677.752C414.921 678.573 415.499 679.327 416.32 679.435L416.713 676.461ZM408.652 678.656C409.479 678.716 410.197 678.095 410.257 677.268C410.317 676.442 409.696 675.724 408.869 675.664L408.652 678.656ZM399.033 675.282C398.205 675.276 397.529 675.943 397.524 676.772C397.518 677.6 398.185 678.276 399.014 678.282L399.033 675.282ZM391.288 678.415C392.116 678.381 392.76 677.683 392.726 676.856C392.693 676.028 391.995 675.384 391.167 675.417L391.288 678.415ZM381.365 676.077C380.54 676.154 379.934 676.885 380.011 677.71C380.088 678.534 380.819 679.141 381.644 679.064L381.365 676.077ZM373.952 679.93C374.774 679.822 375.352 679.069 375.244 678.247C375.136 677.426 374.382 676.848 373.561 676.956L373.952 679.93ZM363.865 678.446C363.049 678.589 362.503 679.367 362.646 680.183C362.789 680.999 363.567 681.544 364.383 681.401L363.865 678.446ZM356.77 682.859C357.581 682.691 358.103 681.897 357.935 681.086C357.766 680.274 356.972 679.753 356.161 679.921L356.77 682.859ZM346.603 682.083C345.798 682.28 345.305 683.092 345.502 683.896C345.699 684.701 346.51 685.194 347.315 684.997L346.603 682.083ZM339.803 686.939C340.602 686.721 341.074 685.897 340.856 685.097C340.639 684.298 339.814 683.826 339.015 684.044L339.803 686.939ZM329.607 686.758C328.814 687 328.368 687.838 328.609 688.63C328.85 689.423 329.688 689.87 330.481 689.628L329.607 686.758ZM323.085 691.972C323.872 691.713 324.3 690.865 324.042 690.078C323.783 689.291 322.935 688.863 322.148 689.122L323.085 691.972ZM16.6584 1056.67C17.4928 1058.34 18.3662 1059.88 19.2785 1061.31L21.8052 1059.69C20.9541 1058.36 20.1324 1056.91 19.3416 1055.33L16.6584 1056.67ZM24.6537 1067.97C27.4034 1070.64 30.3956 1072.58 33.6062 1073.96L34.7905 1071.21C31.9085 1069.97 29.2243 1068.23 26.7423 1065.82L24.6537 1067.97ZM41.8552 1076.3C45.2125 1076.84 48.7306 1077 52.3807 1076.94L52.3289 1073.94C48.7934 1074 45.4635 1073.85 42.3353 1073.34L41.8552 1076.3ZM60.6978 1076.5C64.0182 1076.23 67.4608 1075.88 70.9825 1075.53L70.6922 1072.55C67.1474 1072.89 63.7445 1073.24 60.4564 1073.51L60.6978 1076.5ZM79.1489 1074.81C82.4743 1074.56 85.8749 1074.37 89.3484 1074.32L89.3014 1071.32C85.7523 1071.38 82.2898 1071.57 78.9235 1071.82L79.1489 1074.81ZM97.4703 1074.46C100.773 1074.63 104.135 1074.96 107.551 1075.49L108.016 1072.53C104.487 1071.98 101.022 1071.64 97.6267 1071.46L97.4703 1074.46ZM115.481 1077.11C118.652 1077.91 121.868 1078.92 125.126 1080.17L126.201 1077.37C122.829 1076.08 119.5 1075.03 116.217 1074.2L115.481 1077.11ZM132.517 1083.41C135.433 1084.85 138.382 1086.5 141.36 1088.4L142.969 1085.86C139.901 1083.92 136.859 1082.21 133.846 1080.72L132.517 1083.41ZM148.017 1093C149.355 1094 150.699 1095.05 152.049 1096.16L153.951 1093.84C152.568 1092.71 151.189 1091.63 149.814 1090.6L148.017 1093ZM152.049 1096.16C153.406 1097.27 154.682 1098.38 155.882 1099.47L157.904 1097.25C156.663 1096.12 155.346 1094.98 153.951 1093.84L152.049 1096.16ZM161.442 1105.07C163.866 1107.79 165.812 1110.44 167.336 1112.99L169.912 1111.45C168.28 1108.72 166.217 1105.92 163.683 1103.07L161.442 1105.07ZM170.6 1120.05C171.691 1123.4 172.042 1126.54 171.811 1129.43L174.801 1129.67C175.066 1126.36 174.657 1122.82 173.453 1119.12L170.6 1120.05ZM169.86 1136.7C168.508 1139.54 166.53 1142.07 164.103 1144.22L166.095 1146.47C168.787 1144.08 171.025 1141.23 172.569 1137.99L169.86 1136.7ZM157.707 1148.53C154.845 1149.97 151.726 1151.01 148.525 1151.59L149.056 1154.54C152.537 1153.91 155.933 1152.79 159.058 1151.21L157.707 1148.53ZM140.799 1152.06C137.556 1151.86 134.392 1151.15 131.48 1149.88L130.281 1152.63C133.545 1154.05 137.057 1154.83 140.615 1155.05L140.799 1152.06ZM125.099 1145.77C122.877 1143.76 120.961 1141.23 119.494 1138.11L116.78 1139.39C118.412 1142.85 120.563 1145.71 123.084 1148L125.099 1145.77ZM117.133 1130.75C116.836 1129.22 116.621 1127.61 116.496 1125.89L113.504 1126.11C113.637 1127.94 113.868 1129.67 114.189 1131.32L117.133 1130.75ZM116.496 1125.89C116.371 1124.17 116.243 1122.43 116.114 1120.66L113.122 1120.88C113.251 1122.65 113.379 1124.39 113.504 1126.11L116.496 1125.89ZM115.52 1112.32C115.285 1108.89 115.06 1105.41 114.862 1101.87L111.867 1102.04C112.066 1105.59 112.291 1109.09 112.527 1112.52L115.52 1112.32ZM114.453 1093.51C114.311 1090.06 114.204 1086.58 114.146 1083.07L111.146 1083.12C111.205 1086.66 111.312 1090.16 111.455 1093.64L114.453 1093.51ZM114.106 1074.72C114.133 1071.26 114.217 1067.78 114.371 1064.3L111.374 1064.17C111.218 1067.68 111.133 1071.2 111.106 1074.7L114.106 1074.72ZM114.881 1055.98C115.154 1052.52 115.508 1049.06 115.954 1045.63L112.979 1045.24C112.526 1048.73 112.167 1052.23 111.89 1055.74L114.881 1055.98ZM117.213 1037.41C117.82 1033.99 118.532 1030.6 119.36 1027.25L116.448 1026.53C115.602 1029.95 114.877 1033.4 114.259 1036.88L117.213 1037.41ZM121.591 1019.27C122.624 1015.96 123.787 1012.71 125.093 1009.53L122.316 1008.39C120.977 1011.66 119.785 1014.99 118.728 1018.37L121.591 1019.27ZM128.509 1001.99C130.047 998.924 131.736 995.925 133.59 993.009L131.059 991.399C129.147 994.405 127.408 997.493 125.827 1000.65L128.509 1001.99ZM138.312 986.242C140.378 983.54 142.61 980.923 145.021 978.402L142.852 976.329C140.364 978.931 138.06 981.632 135.929 984.42L138.312 986.242ZM150.97 972.705C153.506 970.48 156.209 968.346 159.091 966.312L157.361 963.861C154.393 965.956 151.607 968.155 148.991 970.45L150.97 972.705ZM166.012 961.829C167.48 960.957 168.988 960.108 170.538 959.283L169.129 956.635C167.538 957.482 165.989 958.353 164.48 959.249L166.012 961.829ZM170.538 959.283C171.95 958.532 173.383 957.805 174.835 957.101L173.527 954.401C172.041 955.121 170.575 955.865 169.129 956.635L170.538 959.283ZM181.888 953.931C184.833 952.704 187.851 951.561 190.935 950.498L189.957 947.662C186.817 948.744 183.741 949.909 180.734 951.162L181.888 953.931ZM198.314 948.139C201.377 947.233 204.498 946.396 207.673 945.624L206.963 942.709C203.744 943.492 200.576 944.342 197.463 945.263L198.314 948.139ZM215.248 943.92C218.387 943.269 221.573 942.674 224.801 942.131L224.303 939.172C221.04 939.721 217.817 940.323 214.639 940.982L215.248 943.92ZM232.486 940.943C235.671 940.493 238.892 940.087 242.146 939.722L241.812 936.741C238.531 937.109 235.281 937.518 232.066 937.972L232.486 940.943ZM249.89 938.935C253.098 938.64 256.334 938.381 259.595 938.153L259.386 935.16C256.105 935.389 252.847 935.65 249.616 935.947L249.89 938.935ZM267.377 937.668C270.6 937.492 273.845 937.342 277.108 937.216L276.992 934.218C273.714 934.345 270.454 934.495 267.213 934.673L267.377 937.668ZM284.907 936.958C288.142 936.868 291.393 936.798 294.656 936.745L294.607 933.745C291.334 933.799 288.072 933.869 284.824 933.959L284.907 936.958ZM302.463 936.647C305.707 936.618 308.961 936.603 312.222 936.598L312.217 933.598C308.95 933.603 305.689 933.618 302.436 933.647L302.463 936.647ZM320.033 936.602C323.285 936.611 326.541 936.627 329.799 936.647L329.817 933.647C326.557 933.627 323.297 933.611 320.041 933.602L320.033 936.602ZM337.614 936.702C340.87 936.727 344.133 936.753 347.385 936.778L347.408 933.778C344.152 933.753 340.898 933.727 337.637 933.702L337.614 936.702ZM355.204 936.832C358.469 936.852 361.73 936.867 364.982 936.875L364.989 933.875C361.741 933.867 358.485 933.852 355.222 933.832L355.204 936.832ZM372.804 936.876C376.077 936.869 379.34 936.852 382.589 936.82L382.56 933.82C379.319 933.852 376.065 933.869 372.798 933.876L372.804 936.876ZM390.416 936.714C393.696 936.656 396.961 936.581 400.205 936.485L400.116 933.487C396.885 933.582 393.633 933.657 390.363 933.715L390.416 936.714ZM408.034 936.209C411.321 936.073 414.584 935.912 417.822 935.722L417.646 932.727C414.427 932.916 411.181 933.076 407.91 933.211L408.034 936.209ZM425.646 935.2C427.278 935.078 428.902 934.947 430.518 934.807L430.259 931.818C428.655 931.957 427.042 932.087 425.421 932.209L425.646 935.2ZM430.518 934.807C432.123 934.668 433.71 934.484 435.278 934.255L434.845 931.286C433.335 931.507 431.806 931.684 430.259 931.818L430.518 934.807ZM442.799 932.781C445.945 932 448.996 931.028 451.937 929.87L450.839 927.079C448.023 928.187 445.097 929.119 442.076 929.869L442.799 932.781ZM458.92 926.665C461.774 925.155 464.494 923.451 467.066 921.56L465.288 919.143C462.838 920.945 460.242 922.571 457.517 924.013L458.92 926.665ZM472.979 916.632C475.307 914.436 477.47 912.059 479.449 909.508L477.079 907.668C475.195 910.097 473.137 912.359 470.921 914.449L472.979 916.632ZM483.785 903.148C485.402 900.432 486.837 897.562 488.074 894.545L485.298 893.407C484.117 896.289 482.748 899.026 481.207 901.613L483.785 903.148ZM490.584 887.281C491.439 884.277 492.115 881.152 492.6 877.912L489.633 877.468C489.167 880.584 488.518 883.583 487.699 886.46L490.584 887.281ZM493.371 870.292C493.457 868.719 493.5 867.123 493.5 865.504H490.5C490.5 867.069 490.458 868.611 490.375 870.128L493.371 870.292ZM493.5 865.504C493.5 863.739 493.406 861.999 493.224 860.289L490.241 860.606C490.412 862.212 490.5 863.846 490.5 865.504H493.5ZM491.632 852.1C490.657 848.688 489.324 845.452 487.691 842.445L485.055 843.877C486.584 846.693 487.833 849.724 488.747 852.924L491.632 852.1ZM483.062 835.489C480.837 832.726 478.323 830.267 475.589 828.177L473.767 830.561C476.305 832.501 478.646 834.789 480.725 837.37L483.062 835.489ZM468.424 823.798C465.223 822.287 461.84 821.239 458.355 820.731L457.922 823.699C461.098 824.162 464.196 825.12 467.143 826.511L468.424 823.798ZM449.901 820.583C446.508 820.961 443.097 821.875 439.738 823.381L440.966 826.119C444.043 824.739 447.153 823.908 450.233 823.564L449.901 820.583ZM432.505 827.639C431.14 828.648 429.796 829.767 428.476 831L430.524 833.192C431.763 832.035 433.019 830.99 434.288 830.052L432.505 827.639ZM428.476 831C427.147 832.242 426.027 833.719 425.12 835.333L427.736 836.803C428.511 835.423 429.447 834.199 430.524 833.192L428.476 831ZM422.429 843.48C421.925 847.101 422.223 850.865 423.458 854.153L426.266 853.098C425.234 850.348 424.954 847.099 425.4 843.894L422.429 843.48ZM428.838 861.183C430.339 862.185 432.086 862.895 434.074 863.244L434.592 860.289C433.001 860.01 431.646 859.451 430.504 858.688L428.838 861.183ZM434.074 863.244C435.864 863.557 437.614 863.78 439.326 863.914L439.561 860.923C437.948 860.797 436.292 860.586 434.592 860.289L434.074 863.244ZM447.731 863.851C451.38 863.491 454.815 862.689 458.038 861.491L456.992 858.679C454.016 859.786 450.833 860.53 447.435 860.866L447.731 863.851ZM465.62 857.714C468.568 855.838 471.281 853.589 473.765 851.025L471.611 848.938C469.276 851.347 466.744 853.443 464.009 855.183L465.62 857.714ZM479.11 844.553C481.072 841.782 482.848 838.779 484.443 835.587L481.76 834.245C480.226 837.315 478.527 840.185 476.662 842.82L479.11 844.553ZM487.784 827.964C488.995 824.803 490.061 821.505 490.985 818.103L488.09 817.317C487.19 820.63 486.155 823.831 484.983 826.891L487.784 827.964ZM492.876 810.049C493.543 806.712 494.089 803.3 494.516 799.838L491.538 799.471C491.12 802.862 490.586 806.2 489.934 809.461L492.876 810.049ZM495.302 791.622C495.538 788.21 495.664 784.769 495.684 781.32L492.685 781.302C492.665 784.69 492.54 788.068 492.31 791.416L495.302 791.622ZM495.532 773.071C495.385 769.628 495.134 766.194 494.781 762.792L491.797 763.101C492.143 766.443 492.39 769.817 492.535 773.2L495.532 773.071ZM493.727 754.605C493.195 751.165 492.558 747.775 491.817 744.461L488.889 745.116C489.615 748.362 490.24 751.686 490.762 755.063L493.727 754.605ZM489.783 736.461C488.81 733.066 487.721 729.778 486.517 726.628L483.715 727.698C484.886 730.763 485.948 733.969 486.899 737.287L489.783 736.461ZM483.249 719.007C481.691 715.764 479.99 712.72 478.15 709.919L475.643 711.567C477.401 714.244 479.038 717.17 480.545 720.307L483.249 719.007ZM473.101 703.268C471.911 701.923 470.675 700.668 469.393 699.512L467.385 701.741C468.577 702.815 469.733 703.989 470.853 705.256L473.101 703.268ZM469.393 699.512C468.155 698.397 466.895 697.326 465.615 696.299L463.738 698.639C464.974 699.631 466.19 700.664 467.385 701.741L469.393 699.512ZM459.201 691.623C456.424 689.787 453.566 688.129 450.64 686.637L449.277 689.31C452.106 690.752 454.866 692.354 457.547 694.126L459.201 691.623ZM443.434 683.348C440.378 682.107 437.261 681.026 434.093 680.094L433.247 682.972C436.323 683.877 439.346 684.926 442.305 686.127L443.434 683.348ZM426.434 678.145C423.231 677.451 419.987 676.894 416.713 676.461L416.32 679.435C419.518 679.858 422.68 680.401 425.799 681.077L426.434 678.145ZM408.869 675.664C405.61 675.427 402.328 675.303 399.033 675.282L399.014 678.282C402.246 678.303 405.462 678.425 408.652 678.656L408.869 675.664ZM391.167 675.417C387.902 675.549 384.632 675.772 381.365 676.077L381.644 679.064C384.861 678.764 388.079 678.544 391.288 678.415L391.167 675.417ZM373.561 676.956C370.315 677.383 367.08 677.883 363.865 678.446L364.383 681.401C367.558 680.845 370.751 680.351 373.952 679.93L373.561 676.956ZM356.161 679.921C352.945 680.588 349.756 681.312 346.603 682.083L347.315 684.997C350.436 684.234 353.59 683.518 356.77 682.859L356.161 679.921ZM339.015 684.044C335.829 684.911 332.69 685.819 329.607 686.758L330.481 689.628C333.537 688.698 336.647 687.797 339.803 686.939L339.015 684.044ZM322.148 689.122C320.584 689.636 319.039 690.156 317.512 690.681L318.488 693.518C320.002 692.998 321.535 692.482 323.085 691.972L322.148 689.122Z" fill="#E4E4E4"/>
<path d="M870 204V202.5V204ZM1053 372L1054.49 372.177L1053 372ZM963 499L964.335 499.683L963 499ZM983 610.5C983.829 610.5 984.5 609.829 984.5 609V595.5C984.5 594.672 983.829 594 983 594C982.172 594 981.5 594.672 981.5 595.5V607.5H969.5C968.672 607.5 968 608.172 968 609C968 609.829 968.672 610.5 969.5 610.5H983ZM594.762 316.481C596.487 316.758 598.19 317.011 599.873 317.24L600.277 314.267C598.618 314.041 596.939 313.792 595.238 313.519L594.762 316.481ZM607.833 318.161C611.298 318.49 614.674 318.714 617.965 318.838L618.079 315.841C614.846 315.718 611.527 315.498 608.117 315.174L607.833 318.161ZM626.125 318.945C629.597 318.901 632.973 318.743 636.258 318.476L636.016 315.486C632.8 315.747 629.493 315.902 626.087 315.945L626.125 318.945ZM644.323 317.585C647.754 317.102 651.084 316.497 654.32 315.78L653.671 312.851C650.511 313.551 647.259 314.142 643.905 314.614L644.323 317.585ZM662.187 313.771C665.498 312.811 668.708 311.732 671.831 310.545L670.765 307.741C667.716 308.899 664.582 309.953 661.352 310.89L662.187 313.771ZM679.331 307.421C682.443 306.009 685.468 304.492 688.418 302.884L686.982 300.25C684.093 301.825 681.133 303.309 678.091 304.689L679.331 307.421ZM695.435 298.809C698.321 297.033 701.139 295.173 703.903 293.246L702.187 290.785C699.465 292.683 696.695 294.511 693.862 296.255L695.435 298.809ZM710.452 288.488C713.139 286.459 715.784 284.374 718.398 282.248L716.504 279.92C713.914 282.028 711.298 284.09 708.644 286.093L710.452 288.488ZM724.601 277.086C727.158 274.916 729.695 272.716 732.225 270.501L730.249 268.244C727.726 270.453 725.201 272.642 722.66 274.798L724.601 277.086ZM738.265 265.185C740.771 262.973 743.279 260.757 745.805 258.549L743.831 256.29C741.298 258.504 738.784 260.725 736.28 262.936L738.265 265.185ZM751.872 253.3C754.405 251.137 756.963 248.993 759.56 246.88L757.667 244.553C755.048 246.684 752.47 248.844 749.924 251.019L751.872 253.3ZM765.827 241.91C768.454 239.885 771.128 237.9 773.859 235.968L772.126 233.519C769.358 235.477 766.651 237.487 763.996 239.535L765.827 241.91ZM780.457 231.486C783.223 229.687 786.053 227.948 788.958 226.279L787.464 223.678C784.508 225.376 781.631 227.144 778.822 228.972L780.457 231.486ZM795.952 222.482C798.871 220.989 801.868 219.57 804.953 218.235L803.761 215.481C800.615 216.843 797.56 218.29 794.586 219.812L795.952 222.482ZM812.325 215.273C815.38 214.139 818.521 213.088 821.756 212.127L820.903 209.251C817.603 210.231 814.398 211.304 811.281 212.46L812.325 215.273ZM829.436 210.067C832.593 209.308 835.839 208.635 839.179 208.053L838.665 205.098C835.262 205.69 831.954 206.377 828.735 207.15L829.436 210.067ZM847.1 206.874C850.321 206.473 853.626 206.156 857.023 205.928L856.822 202.934C853.37 203.166 850.007 203.489 846.73 203.897L847.1 206.874ZM864.924 205.564C866.595 205.522 868.287 205.5 870 205.5V202.5C868.261 202.5 866.544 202.522 864.848 202.565L864.924 205.564ZM870 205.5C871.662 205.5 873.326 205.531 874.993 205.591L875.101 202.593C873.399 202.532 871.698 202.5 870 202.5V205.5ZM882.978 206.105C886.286 206.409 889.598 206.826 892.909 207.351L893.379 204.388C890.005 203.853 886.628 203.428 883.253 203.117L882.978 206.105ZM900.788 208.803C904.043 209.485 907.292 210.268 910.531 211.148L911.317 208.252C908.023 207.358 904.717 206.561 901.403 205.866L900.788 208.803ZM918.221 213.421C921.394 214.435 924.552 215.539 927.691 216.727L928.753 213.922C925.567 212.715 922.359 211.594 919.134 210.563L918.221 213.421ZM935.137 219.721C938.207 221.028 941.254 222.414 944.273 223.875L945.58 221.175C942.519 219.693 939.427 218.287 936.311 216.961L935.137 219.721ZM951.434 227.509C954.387 229.077 957.308 230.716 960.192 232.421L961.718 229.838C958.796 228.111 955.835 226.45 952.842 224.86L951.434 227.509ZM967.033 236.632C969.854 238.439 972.634 240.307 975.368 242.234L977.096 239.781C974.326 237.83 971.509 235.936 968.651 234.106L967.033 236.632ZM981.855 246.977C984.528 249.004 987.152 251.087 989.72 253.22L991.637 250.912C989.034 248.751 986.376 246.641 983.668 244.586L981.855 246.977ZM995.81 258.462C998.318 260.7 1000.77 262.986 1003.15 265.314L1005.24 263.169C1002.83 260.808 1000.35 258.492 997.807 256.224L995.81 258.462ZM1008.79 271.035C1011.1 273.476 1013.35 275.958 1015.52 278.475L1017.79 276.518C1015.59 273.963 1013.31 271.445 1010.96 268.97L1008.79 271.035ZM1020.63 284.663C1022.73 287.303 1024.73 289.977 1026.65 292.678L1029.1 290.942C1027.15 288.197 1025.11 285.481 1022.98 282.799L1020.63 284.663ZM1031.14 299.323C1032.96 302.162 1034.68 305.025 1036.29 307.906L1038.91 306.443C1037.27 303.506 1035.52 300.591 1033.66 297.702L1031.14 299.323ZM1040.01 314.996C1041.5 318.03 1042.86 321.079 1044.09 324.135L1046.87 323.015C1045.61 319.888 1044.22 316.773 1042.7 313.675L1040.01 314.996ZM1046.84 331.638C1047.89 334.838 1048.79 338.039 1049.54 341.235L1052.46 340.554C1051.69 337.268 1050.76 333.981 1049.68 330.7L1046.84 331.638ZM1051.04 349.054C1051.54 352.368 1051.86 355.668 1051.99 358.945L1054.99 358.824C1054.85 355.433 1054.52 352.024 1054 348.607L1051.04 349.054ZM1051.94 366.887C1051.85 368.54 1051.7 370.186 1051.51 371.824L1054.49 372.177C1054.69 370.476 1054.84 368.767 1054.93 367.051L1051.94 366.887ZM1051.51 371.824C1051.33 373.35 1051.06 374.892 1050.72 376.447L1053.64 377.101C1054.01 375.453 1054.3 373.811 1054.49 372.177L1051.51 371.824ZM1048.56 383.705C1047.51 386.576 1046.22 389.482 1044.73 392.418L1047.4 393.777C1048.94 390.751 1050.28 387.735 1051.38 384.737L1048.56 383.705ZM1041.01 399.122C1039.41 401.798 1037.66 404.489 1035.79 407.192L1038.26 408.897C1040.16 406.149 1041.94 403.403 1043.58 400.664L1041.01 399.122ZM1031.29 413.442C1029.39 415.977 1027.4 418.517 1025.34 421.057L1027.68 422.943C1029.75 420.379 1031.76 417.81 1033.69 415.241L1031.29 413.442ZM1020.42 427.015C1018.35 429.463 1016.23 431.908 1014.09 434.346L1016.34 436.326C1018.5 433.877 1020.62 431.417 1022.71 428.951L1020.42 427.015ZM1008.94 440.142C1006.78 442.552 1004.6 444.952 1002.43 447.339L1004.65 449.357C1006.82 446.968 1009 444.563 1011.17 442.145L1008.94 440.142ZM997.206 453.08C995.003 455.501 992.82 457.906 990.679 460.288L992.91 462.294C995.045 459.918 997.223 457.519 999.425 455.099L997.206 453.08ZM985.504 466.105C983.315 468.596 981.19 471.06 979.152 473.492L981.452 475.419C983.471 473.009 985.58 470.563 987.758 468.086L985.504 466.105ZM974.215 479.554C972.119 482.213 970.155 484.829 968.359 487.396L970.817 489.116C972.574 486.605 974.502 484.035 976.571 481.412L974.215 479.554ZM964.06 494.005C963.192 495.459 962.391 496.897 961.665 498.317L964.335 499.683C965.029 498.328 965.798 496.947 966.636 495.542L964.06 494.005ZM961.665 498.317C960.932 499.749 960.243 501.201 959.599 502.67L962.346 503.875C962.967 502.461 963.63 501.063 964.335 499.683L961.665 498.317ZM956.835 509.86C955.824 512.905 954.986 516.005 954.319 519.145L957.254 519.769C957.898 516.735 958.706 513.742 959.682 510.806L956.835 509.86ZM953.046 526.732C952.651 529.904 952.422 533.103 952.353 536.314L955.353 536.378C955.419 533.268 955.641 530.171 956.023 527.102L953.046 526.732ZM952.495 543.996C952.679 547.183 953.018 550.369 953.509 553.541L956.474 553.082C955.998 550.004 955.668 546.913 955.49 543.823L952.495 543.996ZM954.968 561.078C955.691 564.187 956.56 567.27 957.572 570.312L960.418 569.365C959.436 566.41 958.592 563.417 957.89 560.399L954.968 561.078ZM960.261 577.501C961.488 580.448 962.854 583.345 964.355 586.177L967.006 584.772C965.549 582.023 964.222 579.21 963.03 576.347L960.261 577.501ZM968.202 592.821C969.904 595.523 971.738 598.15 973.699 600.689L976.073 598.855C974.171 596.393 972.392 593.844 970.74 591.222L968.202 592.821ZM978.628 606.581C979.701 607.766 980.805 608.926 981.939 610.061L984.061 607.939C982.962 606.84 981.892 605.716 980.852 604.567L978.628 606.581Z" fill="#E4E4E4"/>
</svg>
