<svg width="1057" height="611" viewBox="0 0 1057 611" fill="none" xmlns="http://www.w3.org/2000/svg">
<path d="M551.945 440.277L552.971 439.182L551.945 440.277ZM563.445 475.527L562.508 474.356L563.445 475.527ZM559.445 408.527L558.875 407.14L559.445 408.527ZM731.98 372.368C731.845 371.551 731.073 370.998 730.256 371.133L716.936 373.334C716.119 373.47 715.566 374.242 715.701 375.059C715.836 375.876 716.608 376.429 717.425 376.294L729.265 374.337L731.222 386.177C731.357 386.994 732.129 387.547 732.946 387.412C733.764 387.277 734.317 386.505 734.182 385.687L731.98 372.368ZM478.117 299.391C477.865 301.175 477.628 302.918 477.406 304.622L480.381 305.009C480.601 303.316 480.837 301.584 481.087 299.811L478.117 299.391ZM476.417 312.953C476.026 316.625 475.723 320.107 475.513 323.423L478.507 323.612C478.714 320.346 479.013 316.907 479.4 313.271L476.417 312.953ZM475.18 331.886C475.132 335.611 475.233 339.12 475.495 342.455L478.486 342.221C478.232 338.988 478.133 335.571 478.18 331.924L475.18 331.886ZM476.568 350.899C477.221 354.513 478.112 357.934 479.258 361.233L482.092 360.249C480.999 357.104 480.147 353.834 479.52 350.366L476.568 350.899ZM482.584 369.108C484.135 372.208 485.943 375.237 488.022 378.264L490.495 376.566C488.486 373.64 486.75 370.73 485.267 367.766L482.584 369.108ZM493.115 385.048C495.223 387.644 497.533 390.278 500.052 392.99L502.25 390.949C499.767 388.275 497.502 385.692 495.444 383.157L493.115 385.048ZM505.901 399.068C508.249 401.433 510.747 403.877 513.4 406.421L515.477 404.256C512.836 401.724 510.356 399.298 508.03 396.954L505.901 399.068ZM519.464 412.167C521.905 414.458 524.462 416.835 527.136 419.312L529.175 417.111C526.503 414.636 523.952 412.264 521.517 409.979L519.464 412.167ZM533.294 425.007C535.751 427.277 538.298 429.63 540.937 432.076L542.977 429.876C540.336 427.428 537.787 425.073 535.33 422.803L533.294 425.007ZM547.062 437.767C548.328 438.948 549.614 440.149 550.92 441.372L552.971 439.182C551.663 437.958 550.375 436.755 549.107 435.573L547.062 437.767ZM550.92 441.372C551.997 442.38 553.274 443.75 554.622 445.381L556.934 443.469C555.526 441.765 554.161 440.297 552.971 439.182L550.92 441.372ZM559.774 452.56C561.755 455.761 563.457 459.172 564.448 462.405L567.316 461.526C566.226 457.968 564.39 454.318 562.325 450.981L559.774 452.56ZM565.04 470.484C564.634 471.99 563.833 473.296 562.508 474.356L564.382 476.698C566.231 475.22 567.373 473.354 567.936 471.265L565.04 470.484ZM562.508 474.356C561.26 475.355 560.048 476.122 558.882 476.687L560.189 479.387C561.581 478.713 562.981 477.819 564.382 476.698L562.508 474.356ZM552.566 477.893C550.016 477.591 547.606 476.286 545.44 474.106L543.312 476.22C545.837 478.762 548.842 480.473 552.214 480.872L552.566 477.893ZM541.413 468.478C540.122 466.04 539.057 463.234 538.274 460.181L535.368 460.927C536.203 464.179 537.347 467.211 538.761 469.882L541.413 468.478ZM537.026 453.121C536.729 450.208 536.677 447.192 536.901 444.159L533.909 443.938C533.672 447.149 533.727 450.341 534.042 453.426L537.026 453.121ZM537.944 437.068C538.594 434.168 539.522 431.322 540.752 428.605L538.019 427.368C536.698 430.285 535.708 433.327 535.017 436.413L537.944 437.068ZM544.258 422.43C545.926 420.048 547.896 417.841 550.193 415.875L548.242 413.596C545.745 415.733 543.606 418.13 541.801 420.709L544.258 422.43ZM556.004 411.842C557.269 411.139 558.605 410.495 560.016 409.914L558.875 407.14C557.357 407.764 555.915 408.46 554.547 409.22L556.004 411.842ZM560.016 409.914C561.518 409.297 563.076 408.771 564.688 408.329L563.895 405.436C562.173 405.908 560.498 406.472 558.875 407.14L560.016 409.914ZM572.525 406.845C575.721 406.472 579.075 406.326 582.568 406.351L582.59 403.351C579.001 403.325 575.522 403.475 572.177 403.865L572.525 406.845ZM590.683 406.673C593.976 406.897 597.363 407.221 600.829 407.606L601.16 404.624C597.666 404.237 594.235 403.907 590.886 403.68L590.683 406.673ZM608.951 408.578C612.264 408.995 615.716 409.446 619.132 409.875L619.505 406.898C616.045 406.464 612.703 406.027 609.326 405.601L608.951 408.578ZM627.297 410.851C630.686 411.23 634.11 411.573 637.555 411.846L637.793 408.855C634.387 408.585 630.997 408.246 627.63 407.87L627.297 410.851ZM645.802 412.351C649.242 412.493 652.695 412.543 656.151 412.468L656.087 409.469C652.702 409.542 649.312 409.493 645.926 409.353L645.802 412.351ZM664.439 412.035C667.883 411.743 671.321 411.301 674.743 410.679L674.206 407.728C670.887 408.331 667.543 408.761 664.185 409.046L664.439 412.035ZM682.874 408.836C686.193 407.925 689.486 406.817 692.743 405.482L691.605 402.707C688.466 403.993 685.288 405.062 682.08 405.943L682.874 408.836ZM700.311 401.92C703.307 400.317 706.26 398.495 709.164 396.431L707.425 393.986C704.626 395.976 701.781 397.731 698.896 399.274L700.311 401.92ZM715.728 391.26C718.263 389.059 720.75 386.648 723.184 384.01L720.979 381.976C718.618 384.534 716.21 386.868 713.761 388.995L715.728 391.26ZM728.57 377.683C729.632 376.333 730.682 374.935 731.72 373.486L729.281 371.739C728.269 373.152 727.246 374.514 726.212 375.828L728.57 377.683Z" fill="#E4E4E4"/>
<path d="M394 436L395.451 436.382L394 436ZM546 557L545.299 555.674L546 557ZM605.286 462.444L604.145 461.471L605.286 462.444ZM725.342 429.111L725.974 427.751L725.342 429.111ZM691.786 496.444L690.412 497.046L691.786 496.444ZM756.175 424.055L756.577 425.501L756.175 424.055ZM863.453 453.333L862.23 454.202L863.453 453.333ZM943.564 506.333L943.367 507.82L943.564 506.333ZM1031.79 452.889L1033 453.768L1031.79 452.889ZM1024.56 361.167L1025.49 359.99L1024.56 361.167ZM1012.12 380.555L1012.96 379.311L1012.12 380.555ZM1042.01 361.444L1043.34 362.138L1042.01 361.444ZM1042.73 274.778L1043.96 273.917L1042.73 274.778ZM899.618 89.0623C899.653 88.2346 899.01 87.5357 898.182 87.5012L884.694 86.9392C883.866 86.9047 883.167 87.5477 883.133 88.3754C883.098 89.2031 883.741 89.9021 884.569 89.9366L896.559 90.4361L896.059 102.426C896.025 103.253 896.668 103.952 897.495 103.987C898.323 104.021 899.022 103.378 899.056 102.551L899.618 89.0623ZM527.537 326.329C527.908 327.983 528.069 329.556 528.042 331.058L531.041 331.113C531.073 329.356 530.884 327.543 530.464 325.671L527.537 326.329ZM526.313 338.295C525.037 340.971 523.073 343.502 520.492 345.937L522.551 348.119C525.327 345.499 527.547 342.677 529.021 339.587L526.313 338.295ZM514.298 350.851C511.714 352.619 508.829 354.332 505.694 356.016L507.113 358.659C510.316 356.939 513.298 355.17 515.992 353.327L514.298 350.851ZM498.474 359.653C495.52 361.06 492.421 362.455 489.213 363.854L490.412 366.604C493.64 365.197 496.771 363.787 499.764 362.361L498.474 359.653ZM481.737 367.052C478.655 368.351 475.515 369.66 472.328 370.997L473.488 373.763C476.666 372.43 479.819 371.117 482.902 369.816L481.737 367.052ZM464.795 374.185C461.68 375.52 458.55 376.887 455.431 378.298L456.667 381.031C459.763 379.631 462.875 378.272 465.977 376.942L464.795 374.185ZM447.999 381.765C444.908 383.255 441.847 384.8 438.843 386.409L440.26 389.054C443.221 387.467 446.243 385.942 449.302 384.467L447.999 381.765ZM431.672 390.452C428.694 392.224 425.797 394.076 423.01 396.02L424.726 398.48C427.447 396.583 430.282 394.77 433.206 393.031L431.672 390.452ZM416.392 400.994C413.68 403.2 411.113 405.52 408.726 407.969L410.874 410.063C413.172 407.705 415.652 405.462 418.285 403.322L416.392 400.994ZM403.252 414.242C401.115 416.998 399.2 419.905 397.544 422.978L400.185 424.401C401.757 421.483 403.58 418.714 405.623 416.08L403.252 414.242ZM394.117 430.607C393.524 432.236 393 433.905 392.549 435.618L395.451 436.382C395.878 434.758 396.374 433.177 396.936 431.634L394.117 430.607ZM392.549 435.618C392.104 437.311 391.689 438.994 391.302 440.667L394.226 441.342C394.605 439.698 395.013 438.045 395.451 436.382L392.549 435.618ZM389.652 448.745C389.039 452.197 388.553 455.603 388.19 458.96L391.173 459.283C391.528 455.995 392.004 452.656 392.606 449.27L389.652 448.745ZM387.541 467.191C387.368 470.696 387.332 474.142 387.429 477.524L390.428 477.438C390.333 474.135 390.368 470.767 390.537 467.339L387.541 467.191ZM387.938 485.78C388.271 489.27 388.749 492.686 389.368 496.02L392.317 495.473C391.715 492.227 391.249 488.899 390.924 485.495L387.938 485.78ZM391.179 504.102C392.073 507.489 393.118 510.78 394.307 513.97L397.118 512.923C395.964 509.826 394.949 506.629 394.079 503.336L391.179 504.102ZM397.522 521.623C399.011 524.79 400.65 527.841 402.433 530.769L404.995 529.209C403.269 526.374 401.68 523.418 400.237 520.347L397.522 521.623ZM407.059 537.663C409.126 540.466 411.337 543.131 413.681 545.654L415.879 543.611C413.611 541.172 411.473 538.594 409.473 535.882L407.059 537.663ZM419.614 551.475C422.197 553.785 424.91 555.943 427.741 557.941L429.47 555.489C426.733 553.558 424.111 551.473 421.614 549.239L419.614 551.475ZM434.745 562.413C437.731 564.133 440.826 565.689 444.02 567.074L445.214 564.322C442.123 562.981 439.129 561.476 436.242 559.813L434.745 562.413ZM451.775 570.037C455.028 571.118 458.367 572.032 461.784 572.774L462.42 569.842C459.107 569.123 455.872 568.237 452.721 567.19L451.775 570.037ZM469.96 574.197C473.34 574.644 476.785 574.927 480.286 575.043L480.385 572.044C476.98 571.932 473.634 571.656 470.353 571.223L469.96 574.197ZM488.568 575.003C491.958 574.861 495.393 574.564 498.867 574.109L498.477 571.135C495.09 571.579 491.743 571.867 488.443 572.006L488.568 575.003ZM507.028 572.758C510.348 572.095 513.698 571.288 517.072 570.334L516.255 567.447C512.956 568.38 509.682 569.169 506.44 569.816L507.028 572.758ZM524.948 567.85C528.14 566.741 531.349 565.499 534.572 564.122L533.393 561.364C530.233 562.714 527.088 563.93 523.963 565.017L524.948 567.85ZM542.069 560.686C543.611 559.93 545.155 559.144 546.701 558.326L545.299 555.674C543.78 556.478 542.263 557.25 540.749 557.991L542.069 560.686ZM546.701 558.326C548.335 557.461 549.902 556.572 551.405 555.659L549.848 553.095C548.396 553.977 546.881 554.837 545.299 555.674L546.701 558.326ZM558.548 550.798C561.55 548.509 564.243 546.11 566.67 543.621L564.523 541.526C562.197 543.911 559.615 546.212 556.729 548.412L558.548 550.798ZM572.333 537.068C574.579 534.13 576.538 531.108 578.276 528.032L575.664 526.556C573.987 529.524 572.104 532.429 569.95 535.245L572.333 537.068ZM582.159 520.332C583.647 517.03 584.952 513.697 586.148 510.369L583.324 509.354C582.147 512.63 580.872 515.887 579.424 519.099L582.159 520.332ZM588.89 502.28C590.002 498.85 591.047 495.508 592.141 492.181L589.292 491.244C588.2 494.563 587.13 497.981 586.036 501.355L588.89 502.28ZM594.92 484.223C596.171 480.905 597.526 477.7 599.079 474.64L596.404 473.282C594.788 476.466 593.39 479.777 592.113 483.165L594.92 484.223ZM603.291 467.509C604.264 466.099 605.306 464.734 606.428 463.417L604.145 461.471C602.953 462.869 601.85 464.316 600.822 465.805L603.291 467.509ZM606.428 463.417C607.551 462.1 608.711 460.804 609.906 459.53L607.719 457.477C606.491 458.785 605.299 460.117 604.145 461.471L606.428 463.417ZM615.844 453.655C618.394 451.309 621.064 449.063 623.84 446.929L622.011 444.551C619.166 446.738 616.428 449.041 613.813 451.447L615.844 453.655ZM630.64 442.066C633.537 440.142 636.524 438.337 639.585 436.665L638.147 434.032C635.009 435.746 631.949 437.595 628.98 439.567L630.64 442.066ZM647.056 432.916C650.226 431.463 653.457 430.152 656.735 428.996L655.737 426.167C652.372 427.354 649.057 428.699 645.806 430.189L647.056 432.916ZM664.708 426.517C668.076 425.609 671.478 424.869 674.899 424.308L674.413 421.347C670.89 421.925 667.39 422.687 663.927 423.62L664.708 426.517ZM683.173 423.309C686.64 423.042 690.113 422.968 693.574 423.099L693.688 420.101C690.108 419.966 686.52 420.043 682.943 420.318L683.173 423.309ZM701.859 423.814C705.28 424.279 708.678 424.958 712.037 425.863L712.817 422.966C709.331 422.027 705.808 421.323 702.264 420.841L701.859 423.814ZM719.93 428.44C721.536 429.061 723.13 429.737 724.71 430.471L725.974 427.751C724.333 426.988 722.678 426.286 721.01 425.642L719.93 428.44ZM724.71 430.471C726.307 431.213 727.807 431.985 729.215 432.782L730.693 430.172C729.212 429.333 727.64 428.525 725.974 427.751L724.71 430.471ZM735.832 437.239C738.628 439.491 740.862 441.88 742.606 444.354L745.058 442.626C743.141 439.906 740.71 437.317 737.714 434.903L735.832 437.239ZM746.188 451.253C747.288 454.374 747.783 457.591 747.764 460.834L750.764 460.852C750.785 457.288 750.241 453.725 749.018 450.256L746.188 451.253ZM746.777 468.633C746.013 471.787 744.831 474.909 743.314 477.927L745.995 479.275C747.603 476.076 748.87 472.739 749.693 469.339L746.777 468.633ZM739.186 484.778C737.249 487.516 735.064 490.09 732.719 492.431L734.838 494.554C737.301 492.096 739.597 489.391 741.635 486.51L739.186 484.778ZM726.668 497.685C723.882 499.773 721.003 501.506 718.144 502.804L719.384 505.536C722.463 504.137 725.529 502.288 728.467 500.086L726.668 497.685ZM710.687 505.171C707.281 505.751 704.124 505.536 701.384 504.441L700.271 507.228C703.634 508.57 707.37 508.779 711.19 508.129L710.687 505.171ZM695.581 499.989C694.681 498.827 693.866 497.453 693.16 495.842L690.412 497.046C691.207 498.86 692.144 500.451 693.21 501.827L695.581 499.989ZM693.16 495.842C692.491 494.316 691.957 492.805 691.547 491.313L688.654 492.108C689.104 493.745 689.687 495.391 690.412 497.046L693.16 495.842ZM690.485 483.792C690.458 480.59 690.971 477.455 691.943 474.397L689.084 473.489C688.024 476.823 687.455 480.273 687.485 483.817L690.485 483.792ZM695.036 467.351C696.571 464.611 698.451 461.949 700.608 459.378L698.31 457.45C696.051 460.142 694.058 462.958 692.419 465.885L695.036 467.351ZM705.993 453.664C708.329 451.434 710.848 449.298 713.492 447.264L711.663 444.886C708.945 446.977 706.343 449.182 703.922 451.494L705.993 453.664ZM719.934 442.665C722.699 440.826 725.538 439.1 728.392 437.495L726.921 434.88C724.008 436.519 721.105 438.284 718.273 440.166L719.934 442.665ZM735.414 433.795C738.496 432.278 741.536 430.914 744.459 429.718L743.323 426.941C740.335 428.164 737.232 429.556 734.089 431.104L735.414 433.795ZM751.875 426.948C753.521 426.396 755.094 425.913 756.577 425.501L755.774 422.61C754.235 423.038 752.612 423.537 750.921 424.104L751.875 426.948ZM756.577 425.501C758.055 425.09 759.55 424.706 761.059 424.35L760.371 421.431C758.823 421.796 757.29 422.189 755.774 422.61L756.577 425.501ZM768.322 422.871C771.348 422.351 774.415 421.94 777.508 421.644L777.222 418.657C774.055 418.96 770.913 419.381 767.813 419.915L768.322 422.871ZM784.905 421.159C787.987 421.05 791.08 421.057 794.168 421.186L794.292 418.188C791.127 418.056 787.957 418.049 784.799 418.161L784.905 421.159ZM801.555 421.728C804.629 422.054 807.685 422.505 810.705 423.087L811.272 420.141C808.166 419.543 805.027 419.079 801.871 418.745L801.555 421.728ZM817.911 424.743C820.896 425.545 823.831 426.484 826.701 427.565L827.758 424.757C824.794 423.641 821.765 422.672 818.69 421.846L817.911 424.743ZM833.489 430.449C836.267 431.771 838.964 433.242 841.564 434.866L843.153 432.321C840.453 430.635 837.655 429.11 834.779 427.74L833.489 430.449ZM847.608 439.057C850.025 440.916 852.334 442.929 854.519 445.102L856.635 442.976C854.358 440.71 851.952 438.613 849.436 436.679L847.608 439.057ZM859.447 450.546C860.408 451.726 861.336 452.944 862.23 454.202L864.676 452.464C863.743 451.153 862.775 449.882 861.774 448.652L859.447 450.546ZM862.23 454.202C863.133 455.472 864.037 456.723 864.944 457.953L867.359 456.174C866.463 454.958 865.569 453.721 864.676 452.464L862.23 454.202ZM869.432 463.846C871.379 466.315 873.349 468.695 875.354 470.982L877.61 469.005C875.643 466.76 873.706 464.421 871.787 461.988L869.432 463.846ZM880.387 476.448C882.573 478.701 884.808 480.849 887.108 482.888L889.098 480.643C886.859 478.658 884.678 476.562 882.54 474.359L880.387 476.448ZM892.855 487.646C895.321 489.547 897.866 491.331 900.505 492.994L902.105 490.456C899.549 488.845 897.081 487.115 894.686 485.27L892.855 487.646ZM906.979 496.728C909.7 498.157 912.519 499.469 915.45 500.66L916.579 497.881C913.739 496.726 911.008 495.456 908.374 494.072L906.979 496.728ZM922.468 503.21C925.355 504.14 928.347 504.965 931.454 505.681L932.128 502.758C929.102 502.06 926.192 501.258 923.388 500.354L922.468 503.21ZM938.76 507.13C940.27 507.383 941.805 507.613 943.367 507.82L943.761 504.846C942.232 504.644 940.731 504.419 939.256 504.172L938.76 507.13ZM943.367 507.82C945.065 508.045 946.772 508.173 948.487 508.21L948.552 505.211C946.944 505.176 945.346 505.056 943.761 504.846L943.367 507.82ZM956.656 507.735C959.97 507.288 963.289 506.546 966.592 505.551L965.727 502.678C962.56 503.632 959.396 504.339 956.255 504.762L956.656 507.735ZM974.219 502.809C977.285 501.533 980.325 500.063 983.321 498.434L981.888 495.798C978.974 497.383 976.028 498.807 973.067 500.039L974.219 502.809ZM990.262 494.335C993.076 492.543 995.839 490.627 998.534 488.617L996.74 486.212C994.1 488.181 991.398 490.055 988.651 491.805L990.262 494.335ZM1004.85 483.644C1007.44 481.491 1009.95 479.266 1012.37 476.999L1010.32 474.811C1007.94 477.038 1005.47 479.223 1002.93 481.336L1004.85 483.644ZM1018.1 471.378C1020.49 468.922 1022.75 466.446 1024.88 463.986L1022.61 462.023C1020.52 464.439 1018.29 466.872 1015.95 469.286L1018.1 471.378ZM1029.99 457.778C1031.04 456.425 1032.05 455.086 1033 453.768L1030.57 452.01C1029.64 453.298 1028.66 454.608 1027.62 455.934L1029.99 457.778ZM1033 453.768C1033.92 452.498 1034.79 451.174 1035.62 449.801L1033.04 448.257C1032.26 449.56 1031.44 450.813 1030.57 452.01L1033 453.768ZM1039.11 443.072C1040.38 440.246 1041.48 437.281 1042.4 434.22L1039.53 433.352C1038.64 436.298 1037.59 439.142 1036.38 441.845L1039.11 443.072ZM1044.25 426.909C1044.87 423.854 1045.33 420.737 1045.62 417.592L1042.64 417.315C1042.36 420.352 1041.91 423.362 1041.31 426.309L1044.25 426.909ZM1046 410.068C1046.02 406.921 1045.87 403.772 1045.54 400.658L1042.56 400.972C1042.88 403.972 1043.02 407.009 1043 410.048L1046 410.068ZM1044.4 393.198C1043.77 390.082 1042.94 387.029 1041.91 384.078L1039.08 385.063C1040.06 387.881 1040.85 390.803 1041.46 393.796L1044.4 393.198ZM1039 377.078C1037.59 374.207 1035.95 371.479 1034.08 368.937L1031.66 370.713C1033.42 373.103 1034.97 375.679 1036.31 378.402L1039 377.078ZM1029.09 363.158C1027.95 362.043 1026.75 360.985 1025.49 359.99L1023.63 362.343C1024.81 363.27 1025.92 364.257 1026.98 365.299L1029.09 363.158ZM1025.49 359.99C1024.19 358.961 1022.92 358.083 1021.67 357.345L1020.14 359.928C1021.26 360.591 1022.43 361.391 1023.63 362.343L1025.49 359.99ZM1014.6 354.546C1010.76 353.815 1007.4 354.574 1004.93 356.466L1006.75 358.848C1008.44 357.552 1010.9 356.897 1014.04 357.493L1014.6 354.546ZM1000.94 363.482C1000.51 366.435 1001.12 369.744 1002.88 372.981L1005.52 371.546C1004.02 368.804 1003.58 366.145 1003.91 363.915L1000.94 363.482ZM1007.6 378.91C1008.69 379.912 1009.91 380.879 1011.28 381.8L1012.96 379.311C1011.71 378.471 1010.6 377.596 1009.63 376.703L1007.6 378.91ZM1011.28 381.8C1013.18 383.074 1015.07 383.884 1016.94 384.275L1017.55 381.338C1016.1 381.036 1014.57 380.396 1012.96 379.311L1011.28 381.8ZM1026.65 382.633C1029.97 380.817 1032.91 377.906 1035.41 374.757L1033.07 372.89C1030.68 375.885 1028.04 378.455 1025.21 380.001L1026.65 382.633ZM1040.58 367.131C1041.63 365.344 1042.56 363.636 1043.34 362.138L1040.68 360.751C1039.91 362.219 1039.01 363.879 1038 365.607L1040.58 367.131ZM1043.34 362.138C1044.13 360.612 1044.9 359.081 1045.64 357.544L1042.94 356.245C1042.21 357.751 1041.46 359.253 1040.68 360.751L1043.34 362.138ZM1048.99 350.027C1050.3 346.813 1051.47 343.581 1052.48 340.339L1049.62 339.447C1048.64 342.6 1047.5 345.75 1046.21 348.891L1048.99 350.027ZM1054.63 332.363C1055.39 328.965 1055.96 325.56 1056.32 322.157L1053.34 321.845C1052.99 325.124 1052.44 328.413 1051.7 331.704L1054.63 332.363ZM1056.75 313.873C1056.74 310.409 1056.49 306.954 1055.97 303.517L1053.01 303.963C1053.5 307.248 1053.74 310.556 1053.75 313.88L1056.75 313.873ZM1054.23 295.381C1053.32 292.098 1052.13 288.841 1050.67 285.62L1047.94 286.861C1049.34 289.942 1050.47 293.054 1051.35 296.189L1054.23 295.381ZM1046.79 278.271C1045.91 276.81 1044.97 275.359 1043.96 273.917L1041.5 275.638C1042.47 277.025 1043.38 278.419 1044.23 279.821L1046.79 278.271ZM1043.96 273.917C1043.01 272.555 1042.02 271.194 1041 269.835L1038.6 271.636C1039.6 272.97 1040.57 274.304 1041.5 275.638L1043.96 273.917ZM1035.97 263.46C1033.86 260.899 1031.64 258.343 1029.34 255.795L1027.11 257.808C1029.39 260.326 1031.58 262.846 1033.66 265.368L1035.97 263.46ZM1023.81 249.881C1021.51 247.481 1019.13 245.088 1016.69 242.702L1014.59 244.846C1017.01 247.213 1019.37 249.585 1021.65 251.96L1023.81 249.881ZM1010.86 237.112C1008.42 234.825 1005.95 232.546 1003.43 230.274L1001.42 232.5C1003.92 234.76 1006.39 237.026 1008.8 239.297L1010.86 237.112ZM997.401 224.905C994.887 222.694 992.344 220.49 989.784 218.295L987.831 220.573C990.384 222.761 992.916 224.956 995.419 227.157L997.401 224.905ZM983.64 213.07C981.074 210.904 978.497 208.746 975.919 206.598L973.999 208.902C976.573 211.048 979.145 213.201 981.705 215.362L983.64 213.07ZM969.724 201.452C967.131 199.303 964.542 197.163 961.971 195.035L960.058 197.346C962.631 199.476 965.218 201.614 967.81 203.762L969.724 201.452ZM955.78 189.903C953.181 187.743 950.606 185.595 948.066 183.459L946.136 185.756C948.681 187.896 951.26 190.048 953.863 192.21L955.78 189.903ZM941.925 178.258C939.346 176.055 936.813 173.866 934.339 171.693L932.359 173.947C934.846 176.131 937.389 178.329 939.977 180.539L941.925 178.258ZM928.34 166.343C925.814 164.053 923.365 161.781 921.008 159.529L918.935 161.698C921.314 163.971 923.782 166.261 926.326 168.566L928.34 166.343ZM915.298 153.923C912.868 151.466 910.566 149.035 908.411 146.632L906.178 148.635C908.37 151.079 910.706 153.546 913.165 156.033L915.298 153.923ZM903.241 140.559C901.07 137.858 899.116 135.198 897.406 132.584L894.895 134.226C896.668 136.935 898.681 139.674 900.902 142.438L903.241 140.559ZM893.461 125.761C891.916 122.656 890.778 119.634 890.084 116.698L887.165 117.388C887.921 120.588 889.148 123.827 890.775 127.097L893.461 125.761ZM889.309 109.107C889.442 105.997 890.167 102.966 891.562 100.009L888.849 98.7294C887.282 102.051 886.461 105.473 886.312 108.979L889.309 109.107ZM895.739 93.6225C896.741 92.4403 897.871 91.267 899.135 90.1038L897.104 87.896C895.756 89.1367 894.539 90.3988 893.45 91.6826L895.739 93.6225Z" fill="#E4E4E4"/>
<path d="M506.318 314.715C506.713 313.987 506.443 313.076 505.715 312.681C504.987 312.286 504.076 312.557 503.681 313.285L506.318 314.715ZM262.444 341L261.609 342.246L262.444 341ZM179 207L178.158 208.241L179 207ZM179 159L180.232 159.855L179 159ZM6.65824 55.6708C7.02872 56.4118 7.92973 56.7121 8.6707 56.3416L20.7455 50.3043C21.4864 49.9338 21.7868 49.0328 21.4163 48.2918C21.0458 47.5508 20.1448 47.2505 19.4038 47.621L8.6707 52.9875L3.30417 42.2544C2.93368 41.5134 2.03268 41.2131 1.29171 41.5835C0.550738 41.954 0.2504 42.855 0.620882 43.596L6.65824 55.6708ZM11.1766 50.6712C11.4831 49.9016 11.1077 49.0292 10.3381 48.7227C9.56843 48.4161 8.69603 48.7916 8.38951 49.5612L11.1766 50.6712ZM11.8134 42.0299C11.434 42.7663 11.7234 43.6709 12.4598 44.0503C13.1962 44.4297 14.1008 44.1403 14.4802 43.4039L11.8134 42.0299ZM19.6295 34.8347C20.1029 34.1548 19.9356 33.2199 19.2558 32.7465C18.5759 32.2731 17.641 32.4404 17.1676 33.1203L19.6295 34.8347ZM22.2893 26.5773C21.7426 27.1997 21.804 28.1474 22.4264 28.6942C23.0488 29.2409 23.9966 29.1795 24.5433 28.5571L22.2893 26.5773ZM31.6648 21.5437C32.2956 21.0068 32.3717 20.0601 31.8348 19.4292C31.2979 18.7984 30.3512 18.7223 29.7203 19.2592L31.6648 21.5437ZM36.3727 14.229C35.6844 14.69 35.5 15.6217 35.961 16.31C36.422 16.9983 37.3537 17.1827 38.042 16.7217L36.3727 14.229ZM46.7179 11.7511C47.4632 11.3894 47.7742 10.492 47.4125 9.74672C47.0508 9.00142 46.1534 8.69044 45.4081 9.05213L46.7179 11.7511ZM53.077 5.81596C52.2982 6.0984 51.8958 6.9587 52.1783 7.73749C52.4607 8.51629 53.321 8.91866 54.0998 8.63622L53.077 5.81596ZM63.7215 5.79749C64.5285 5.61043 65.0311 4.80457 64.844 3.99753C64.657 3.1905 63.8511 2.68791 63.0441 2.87496L63.7215 5.79749ZM71.1989 1.3649C70.3785 1.48012 69.8069 2.23857 69.9221 3.05895C70.0373 3.87932 70.7958 4.45096 71.6162 4.33574L71.1989 1.3649ZM81.6375 3.45186C82.4653 3.42043 83.1109 2.72385 83.0795 1.89602C83.0481 1.06819 82.3515 0.422589 81.5237 0.454026L81.6375 3.45186ZM89.7991 0.454078C88.9713 0.42329 88.2752 1.06944 88.2444 1.89729C88.2136 2.72515 88.8598 3.42122 89.6876 3.45201L89.7991 0.454078ZM99.7353 4.27423C100.557 4.37761 101.307 3.7951 101.411 2.97315C101.514 2.1512 100.932 1.40106 100.11 1.29768L99.7353 4.27423ZM108.275 2.60411C107.462 2.44625 106.674 2.97754 106.517 3.79079C106.359 4.60404 106.89 5.39128 107.703 5.54914L108.275 2.60411ZM117.527 7.87007C118.325 8.09246 119.153 7.62581 119.375 6.82779C119.597 6.02977 119.131 5.20257 118.333 4.98018L117.527 7.87007ZM126.223 7.44765C125.441 7.17589 124.586 7.59 124.314 8.37259C124.042 9.15517 124.456 10.0099 125.239 10.2816L126.223 7.44765ZM134.644 13.9609C135.403 14.2923 136.287 13.9455 136.618 13.1862C136.95 12.427 136.603 11.5428 135.844 11.2114L134.644 13.9609ZM143.312 14.7511C142.575 14.3732 141.671 14.6644 141.293 15.4016C140.915 16.1387 141.206 17.0427 141.943 17.4207L143.312 14.7511ZM150.736 22.3767C151.441 22.812 152.365 22.5934 152.8 21.8885C153.236 21.1836 153.017 20.2594 152.312 19.8241L150.736 22.3767ZM159.201 24.3945C158.526 23.914 157.589 24.0714 157.109 24.7462C156.628 25.421 156.786 26.3576 157.46 26.8382L159.201 24.3945ZM165.416 33.0313C166.047 33.5681 166.994 33.4917 167.531 32.8607C168.067 32.2297 167.991 31.2831 167.36 30.7463L165.416 33.0313ZM173.472 36.3391C172.882 35.7578 171.932 35.765 171.351 36.3552C170.77 36.9454 170.777 37.8951 171.367 38.4764L173.472 36.3391ZM178.19 45.8747C178.721 46.5106 179.667 46.5956 180.303 46.0646C180.939 45.5336 181.024 44.5877 180.493 43.9518L178.19 45.8747ZM185.543 50.5327C185.066 49.8549 184.131 49.6914 183.453 50.1677C182.775 50.6439 182.612 51.5795 183.088 52.2574L185.543 50.5327ZM188.399 60.7762C188.797 61.5028 189.709 61.7692 190.435 61.3712C191.162 60.9732 191.428 60.0616 191.03 59.335L188.399 60.7762ZM194.674 66.7981C194.346 66.0372 193.464 65.6859 192.703 66.0134C191.942 66.341 191.591 67.2234 191.918 67.9843L194.674 66.7981ZM195.305 77.4084C195.536 78.204 196.368 78.6618 197.163 78.4309C197.959 78.1999 198.417 77.3678 198.186 76.5722L195.305 77.4084ZM200.094 84.6652C199.945 83.8502 199.164 83.31 198.349 83.4587C197.534 83.6073 196.994 84.3885 197.143 85.2035L200.094 84.6652ZM198.304 95.1411C198.347 95.9684 199.053 96.6039 199.88 96.5605C200.707 96.5171 201.343 95.8113 201.3 94.984L198.304 95.1411ZM201.315 103.322C201.355 102.494 200.716 101.791 199.889 101.751C199.061 101.711 198.358 102.35 198.318 103.177L201.315 103.322ZM197.23 113.159C197.092 113.976 197.642 114.75 198.459 114.888C199.276 115.026 200.05 114.476 200.188 113.66L197.23 113.159ZM198.448 121.729C198.658 120.928 198.179 120.108 197.377 119.898C196.576 119.688 195.756 120.168 195.546 120.969L198.448 121.729ZM192.51 130.523C192.22 131.299 192.614 132.163 193.39 132.453C194.166 132.743 195.03 132.349 195.32 131.573L192.51 130.523ZM192.134 139.218C192.48 138.465 192.151 137.574 191.398 137.228C190.646 136.882 189.755 137.212 189.409 137.964L192.134 139.218ZM184.779 147.003C184.372 147.724 184.626 148.639 185.348 149.046C186.069 149.454 186.984 149.199 187.391 148.478L184.779 147.003ZM183.174 155.457C183.623 154.761 183.422 153.833 182.725 153.384C182.029 152.936 181.1 153.137 180.652 153.833L183.174 155.457ZM174.688 162.423C174.193 163.087 174.329 164.027 174.993 164.523C175.656 165.019 176.596 164.882 177.092 164.219L174.688 162.423ZM171.849 170.808C172.385 170.177 172.309 169.23 171.678 168.694C171.047 168.157 170.1 168.234 169.563 168.865L171.849 170.808ZM162.59 176.32C161.994 176.895 161.977 177.845 162.552 178.441C163.127 179.038 164.076 179.055 164.673 178.48L162.59 176.32ZM158.301 184.047C158.953 183.535 159.067 182.592 158.556 181.941C158.045 181.289 157.102 181.175 156.45 181.686L158.301 184.047ZM147.977 187.291C147.248 187.684 146.975 188.594 147.368 189.323C147.761 190.052 148.671 190.325 149.4 189.932L147.977 187.291ZM141.47 193.333C142.26 193.082 142.697 192.239 142.446 191.449C142.196 190.66 141.352 190.223 140.563 190.473L141.47 193.333ZM130.809 192.002C129.981 191.988 129.298 192.647 129.283 193.475C129.268 194.304 129.927 194.987 130.756 195.002L130.809 192.002ZM122.087 193.274C122.85 193.598 123.731 193.241 124.054 192.478C124.377 191.715 124.02 190.835 123.257 190.512L122.087 193.274ZM118.057 184.823C118.299 184.031 117.853 183.193 117.061 182.95C116.269 182.708 115.43 183.154 115.188 183.946L118.057 184.823ZM123.803 179.807C122.974 179.795 122.293 180.457 122.282 181.285C122.27 182.113 122.932 182.794 123.76 182.806L123.803 179.807ZM133.543 184.589C134.337 184.827 135.173 184.377 135.411 183.583C135.65 182.79 135.199 181.953 134.406 181.715L133.543 184.589ZM142.373 184.582C141.607 184.266 140.731 184.631 140.415 185.397C140.099 186.163 140.464 187.04 141.23 187.355L142.373 184.582ZM150.559 191.662C151.298 192.036 152.2 191.74 152.574 191.001C152.948 190.262 152.652 189.359 151.913 188.985L150.559 191.662ZM159.31 192.943C158.588 192.537 157.673 192.793 157.267 193.515C156.861 194.238 157.117 195.152 157.839 195.558L159.31 192.943ZM166.763 200.838C167.468 201.274 168.392 201.056 168.828 200.352C169.264 199.648 169.047 198.723 168.342 198.287L166.763 200.838ZM175.359 202.765C174.666 202.311 173.736 202.503 173.281 203.196C172.827 203.888 173.02 204.818 173.712 205.273L175.359 202.765ZM182.198 211.117C182.861 211.613 183.801 211.477 184.297 210.813C184.793 210.149 184.657 209.209 183.993 208.714L182.198 211.117ZM190.286 213.809C189.664 213.263 188.716 213.324 188.169 213.946C187.623 214.568 187.684 215.516 188.306 216.063L190.286 213.809ZM195.331 222.942C195.89 223.554 196.839 223.596 197.451 223.038C198.062 222.479 198.105 221.53 197.546 220.918L195.331 222.942ZM202.754 227.17C202.253 226.51 201.313 226.38 200.652 226.88C199.992 227.381 199.862 228.321 200.363 228.982L202.754 227.17ZM205.836 237.131C206.259 237.843 207.179 238.078 207.892 237.655C208.604 237.232 208.839 236.312 208.416 235.6L205.836 237.131ZM212.26 242.743C211.897 241.999 210.999 241.689 210.255 242.052C209.51 242.415 209.2 243.313 209.563 244.057L212.26 242.743ZM213.487 253.108C213.785 253.881 214.653 254.266 215.426 253.967C216.199 253.669 216.584 252.8 216.285 252.028L213.487 253.108ZM218.995 259.633C218.735 258.846 217.887 258.419 217.1 258.679C216.314 258.939 215.887 259.787 216.146 260.573L218.995 259.633ZM219.07 270.075C219.301 270.871 220.134 271.328 220.929 271.096C221.725 270.865 222.182 270.033 221.951 269.237L219.07 270.075ZM224.148 276.938C223.922 276.141 223.093 275.678 222.296 275.904C221.499 276.13 221.036 276.959 221.262 277.756L224.148 276.938ZM224.065 287.382C224.307 288.174 225.145 288.62 225.937 288.379C226.73 288.137 227.176 287.299 226.935 286.507L224.065 287.382ZM229.383 294.058C229.111 293.275 228.256 292.861 227.474 293.133C226.691 293.405 226.277 294.26 226.549 295.043L229.383 294.058ZM230.206 304.464C230.537 305.224 231.421 305.571 232.181 305.24C232.94 304.91 233.288 304.026 232.957 303.266L230.206 304.464ZM236.381 310.355C235.99 309.625 235.081 309.35 234.351 309.741C233.62 310.133 233.345 311.042 233.737 311.772L236.381 310.355ZM239.049 320.437C239.524 321.116 240.459 321.281 241.138 320.806C241.817 320.331 241.982 319.396 241.507 318.717L239.049 320.437ZM246.325 324.909C245.784 324.282 244.837 324.213 244.21 324.754C243.583 325.295 243.513 326.243 244.055 326.87L246.325 324.909ZM251.167 334.132C251.782 334.687 252.731 334.639 253.286 334.024C253.841 333.409 253.793 332.461 253.178 331.906L251.167 334.132ZM259.249 336.896C258.586 336.399 257.646 336.534 257.149 337.197C256.652 337.86 256.787 338.8 257.45 339.297L259.249 336.896ZM265.813 344.917C266.523 345.344 267.445 345.116 267.872 344.406C268.3 343.697 268.071 342.775 267.361 342.347L265.813 344.917ZM274.202 346.159C273.466 345.779 272.561 346.067 272.181 346.803C271.801 347.539 272.09 348.444 272.826 348.824L274.202 346.159ZM281.813 353.083C282.573 353.414 283.457 353.067 283.787 352.307C284.118 351.548 283.77 350.664 283.011 350.333L281.813 353.083ZM290.266 353.296C289.492 353 288.625 353.387 288.329 354.16C288.032 354.934 288.419 355.801 289.193 356.098L290.266 353.296ZM298.579 359.427C299.366 359.685 300.213 359.256 300.472 358.469C300.73 357.682 300.301 356.835 299.514 356.576L298.579 359.427ZM307.017 358.889C306.222 358.659 305.39 359.117 305.16 359.913C304.93 360.709 305.388 361.541 306.184 361.771L307.017 358.889ZM315.8 364.337C316.605 364.535 317.417 364.043 317.615 363.238C317.812 362.434 317.32 361.621 316.515 361.424L315.8 364.337ZM324.172 363.177C323.361 363.005 322.565 363.522 322.392 364.332C322.219 365.142 322.736 365.939 323.547 366.112L324.172 363.177ZM333.309 368.002C334.125 368.144 334.902 367.598 335.044 366.782C335.187 365.966 334.641 365.189 333.825 365.046L333.309 368.002ZM341.583 366.286C340.763 366.167 340.002 366.735 339.883 367.555C339.764 368.375 340.332 369.136 341.152 369.254L341.583 366.286ZM351.011 370.504C351.835 370.594 352.575 369.999 352.664 369.175C352.754 368.352 352.159 367.611 351.335 367.522L351.011 370.504ZM359.159 368.259C358.333 368.193 357.61 368.809 357.545 369.635C357.479 370.461 358.095 371.183 358.921 371.249L359.159 368.259ZM368.839 371.859C369.666 371.894 370.366 371.252 370.402 370.425C370.437 369.597 369.795 368.897 368.968 368.861L368.839 371.859ZM376.824 369.083C375.995 369.072 375.315 369.735 375.304 370.563C375.293 371.391 375.956 372.072 376.784 372.083L376.824 369.083ZM386.723 372.022C387.551 372 388.205 371.312 388.184 370.484C388.163 369.655 387.474 369.001 386.646 369.023L386.723 372.022ZM394.496 368.694C393.669 368.742 393.038 369.452 393.086 370.279C393.134 371.106 393.844 371.737 394.671 371.689L394.496 368.694ZM404.584 370.899C405.408 370.815 406.008 370.079 405.924 369.255C405.841 368.431 405.105 367.83 404.28 367.914L404.584 370.899ZM412.076 366.979C411.256 367.093 410.683 367.85 410.797 368.671C410.911 369.491 411.668 370.064 412.489 369.95L412.076 366.979ZM422.31 368.342C423.124 368.188 423.659 367.403 423.505 366.589C423.351 365.775 422.566 365.241 421.752 365.395L422.31 368.342ZM429.425 363.773C428.618 363.961 428.117 364.768 428.306 365.575C428.495 366.382 429.302 366.883 430.109 366.694L429.425 363.773ZM439.741 364.146C440.535 363.911 440.988 363.076 440.753 362.282C440.517 361.488 439.682 361.035 438.888 361.27L439.741 364.146ZM446.337 358.858C445.556 359.133 445.146 359.99 445.421 360.771C445.697 361.552 446.553 361.962 447.335 361.687L446.337 358.858ZM456.624 358.048C457.384 357.718 457.734 356.835 457.404 356.075C457.075 355.315 456.191 354.966 455.431 355.295L456.624 358.048ZM462.502 351.972C461.764 352.348 461.47 353.251 461.845 353.989C462.221 354.728 463.124 355.022 463.862 354.646L462.502 351.972ZM472.578 349.746C473.282 349.309 473.498 348.385 473.062 347.681C472.625 346.977 471.7 346.76 470.996 347.197L472.578 349.746ZM477.463 342.851C476.793 343.338 476.645 344.277 477.133 344.946C477.62 345.616 478.558 345.764 479.228 345.276L477.463 342.851ZM487.035 338.981C487.652 338.429 487.706 337.48 487.153 336.863C486.601 336.245 485.653 336.192 485.035 336.744L487.035 338.981ZM490.605 331.325C490.037 331.927 490.065 332.877 490.667 333.445C491.27 334.013 492.22 333.985 492.788 333.383L490.605 331.325ZM499.258 325.711C499.756 325.049 499.623 324.109 498.961 323.611C498.298 323.113 497.358 323.246 496.86 323.909L499.258 325.711ZM501.237 317.501C500.801 318.206 501.019 319.13 501.724 319.566C502.429 320.001 503.353 319.784 503.789 319.079L501.237 317.501ZM9.4229 55.4743C9.97096 53.8302 10.556 52.2293 11.1766 50.6712L8.38951 49.5612C7.74742 51.1734 7.14273 52.828 6.57685 54.5256L9.4229 55.4743ZM14.4802 43.4039C16.0494 40.3584 17.7707 37.5039 19.6295 34.8347L17.1676 33.1203C15.2318 35.9001 13.4423 38.8685 11.8134 42.0299L14.4802 43.4039ZM24.5433 28.5571C26.7766 26.0145 29.1562 23.6789 31.6648 21.5437L29.7203 19.2592C27.1022 21.4876 24.619 23.9249 22.2893 26.5773L24.5433 28.5571ZM38.042 16.7217C40.818 14.8626 43.7161 13.2079 46.7179 11.7511L45.4081 9.05213C42.2857 10.5674 39.2671 12.2907 36.3727 14.229L38.042 16.7217ZM54.0998 8.63622C57.2256 7.50262 60.4388 6.55833 63.7215 5.79749L63.0441 2.87496C59.6491 3.66184 56.3202 4.63976 53.077 5.81596L54.0998 8.63622ZM71.6162 4.33574C74.9106 3.87304 78.2568 3.58025 81.6375 3.45186L81.5237 0.454026C78.0452 0.586119 74.5977 0.887539 71.1989 1.3649L71.6162 4.33574ZM89.6876 3.45201C93.0229 3.57604 96.3774 3.85187 99.7353 4.27423L100.11 1.29768C96.6669 0.864652 93.2246 0.581473 89.7991 0.454078L89.6876 3.45201ZM107.703 5.54914C110.993 6.18763 114.272 6.96299 117.527 7.87007L118.333 4.98018C115.002 4.05191 111.644 3.25807 108.275 2.60411L107.703 5.54914ZM125.239 10.2816C128.415 11.3847 131.555 12.6128 134.644 13.9609L135.844 11.2114C132.684 9.83234 129.473 8.57603 126.223 7.44765L125.239 10.2816ZM141.943 17.4207C144.943 18.9586 147.879 20.6124 150.736 22.3767L152.312 19.8241C149.386 18.0175 146.381 16.3248 143.312 14.7511L141.943 17.4207ZM157.46 26.8382C160.21 28.7961 162.867 30.8623 165.416 33.0313L167.36 30.7463C164.743 28.5201 162.018 26.4011 159.201 24.3945L157.46 26.8382ZM171.367 38.4764C173.77 40.8433 176.049 43.3113 178.19 45.8747L180.493 43.9518C178.288 41.3113 175.942 38.772 173.472 36.3391L171.367 38.4764ZM183.088 52.2574C185.019 55.0059 186.795 57.8475 188.399 60.7762L191.03 59.335C189.371 56.3053 187.536 53.3693 185.543 50.5327L183.088 52.2574ZM191.918 67.9843C193.236 71.0448 194.37 74.1881 195.305 77.4084L198.186 76.5722C197.216 73.2297 196.039 69.9697 194.674 66.7981L191.918 67.9843ZM197.143 85.2035C197.735 88.4478 198.126 91.762 198.304 95.1411L201.3 94.984C201.116 91.476 200.709 88.0345 200.094 84.6652L197.143 85.2035ZM198.318 103.177C198.161 106.45 197.802 109.779 197.23 113.159L200.188 113.66C200.78 110.163 201.152 106.716 201.315 103.322L198.318 103.177ZM195.546 120.969C194.723 124.114 193.714 127.3 192.51 130.523L195.32 131.573C196.559 128.257 197.599 124.975 198.448 121.729L195.546 120.969ZM189.409 137.964C188.036 140.949 186.495 143.962 184.779 147.003L187.391 148.478C189.147 145.368 190.726 142.28 192.134 139.218L189.409 137.964ZM180.652 153.833C179.73 155.265 178.769 156.702 177.768 158.145L180.232 159.855C181.253 158.385 182.233 156.919 183.174 155.457L180.652 153.833ZM177.768 158.145C176.736 159.631 175.71 161.056 174.688 162.423L177.092 164.219C178.135 162.823 179.182 161.369 180.232 159.855L177.768 158.145ZM169.563 168.865C167.197 171.647 164.869 174.123 162.59 176.32L164.673 178.48C167.027 176.209 169.423 173.661 171.849 170.808L169.563 168.865ZM156.45 181.686C153.511 183.99 150.679 185.836 147.977 187.291L149.4 189.932C152.263 188.39 155.238 186.449 158.301 184.047L156.45 181.686ZM140.563 190.473C136.948 191.62 133.673 192.054 130.809 192.002L130.756 195.002C133.964 195.059 137.564 194.572 141.47 193.333L140.563 190.473ZM123.257 190.512C121.188 189.636 119.721 188.495 118.87 187.4C118.004 186.284 117.885 185.386 118.057 184.823L115.188 183.946C114.63 185.772 115.285 187.675 116.501 189.24C117.732 190.825 119.655 192.245 122.087 193.274L123.257 190.512ZM123.76 182.806C126.201 182.841 129.431 183.354 133.543 184.589L134.406 181.715C130.117 180.428 126.602 179.846 123.803 179.807L123.76 182.806ZM141.23 187.355C144.061 188.522 147.166 189.945 150.559 191.662L151.913 188.985C148.459 187.237 145.283 185.781 142.373 184.582L141.23 187.355ZM157.839 195.558C160.65 197.139 163.623 198.894 166.763 200.838L168.342 198.287C165.169 196.322 162.159 194.546 159.31 192.943L157.839 195.558ZM173.712 205.273C175.162 206.225 176.644 207.214 178.158 208.241L179.842 205.759C178.316 204.724 176.822 203.726 175.359 202.765L173.712 205.273ZM178.158 208.241C179.556 209.189 180.901 210.148 182.198 211.117L183.993 208.714C182.66 207.717 181.277 206.732 179.842 205.759L178.158 208.241ZM188.306 216.063C190.865 218.312 193.197 220.607 195.331 222.942L197.546 220.918C195.338 218.502 192.927 216.13 190.286 213.809L188.306 216.063ZM200.363 228.982C202.389 231.656 204.201 234.375 205.836 237.131L208.416 235.6C206.726 232.752 204.852 229.938 202.754 227.17L200.363 228.982ZM209.563 244.057C211.017 247.042 212.31 250.062 213.487 253.108L216.285 252.028C215.083 248.914 213.757 245.815 212.26 242.743L209.563 244.057ZM216.146 260.573C217.187 263.726 218.145 266.896 219.07 270.075L221.951 269.237C221.02 266.039 220.052 262.832 218.995 259.633L216.146 260.573ZM221.262 277.756C222.172 280.969 223.09 284.184 224.065 287.382L226.935 286.507C225.969 283.34 225.058 280.15 224.148 276.938L221.262 277.756ZM226.549 295.043C227.651 298.211 228.853 301.357 230.206 304.464L232.957 303.266C231.639 300.242 230.465 297.169 229.383 294.058L226.549 295.043ZM233.737 311.772C235.311 314.711 237.066 317.603 239.049 320.437L241.507 318.717C239.597 315.988 237.904 313.198 236.381 310.355L233.737 311.772ZM244.055 326.87C246.199 329.352 248.558 331.776 251.167 334.132L253.178 331.906C250.661 329.633 248.388 327.298 246.325 324.909L244.055 326.87ZM257.45 339.297C258.781 340.295 260.166 341.278 261.609 342.246L263.28 339.754C261.881 338.815 260.538 337.862 259.249 336.896L257.45 339.297ZM261.609 342.246C262.957 343.151 264.36 344.041 265.813 344.917L267.361 342.347C265.948 341.496 264.586 340.631 263.28 339.754L261.609 342.246ZM272.826 348.824C275.679 350.298 278.68 351.719 281.813 353.083L283.011 350.333C279.934 348.993 276.993 347.6 274.202 346.159L272.826 348.824ZM289.193 356.098C292.225 357.26 295.358 358.371 298.579 359.427L299.514 356.576C296.337 355.535 293.251 354.44 290.266 353.296L289.193 356.098ZM306.184 361.771C309.323 362.679 312.532 363.535 315.8 364.337L316.515 361.424C313.286 360.631 310.116 359.785 307.017 358.889L306.184 361.771ZM323.547 366.112C326.756 366.795 330.013 367.426 333.309 368.002L333.825 365.046C330.565 364.477 327.344 363.853 324.172 363.177L323.547 366.112ZM341.152 369.254C344.411 369.727 347.7 370.145 351.011 370.504L351.335 367.522C348.059 367.166 344.806 366.753 341.583 366.286L341.152 369.254ZM358.921 371.249C362.213 371.512 365.522 371.716 368.839 371.859L368.968 368.861C365.688 368.72 362.416 368.518 359.159 368.259L358.921 371.249ZM376.784 372.083C380.098 372.126 383.413 372.107 386.723 372.022L386.646 369.023C383.376 369.107 380.099 369.126 376.824 369.083L376.784 372.083ZM394.671 371.689C397.989 371.495 401.296 371.233 404.584 370.899L404.28 367.914C401.037 368.244 397.773 368.503 394.496 368.694L394.671 371.689ZM412.489 369.95C415.791 369.492 419.068 368.957 422.31 368.342L421.752 365.395C418.559 366 415.332 366.527 412.076 366.979L412.489 369.95ZM430.109 366.694C433.364 365.932 436.578 365.084 439.741 364.146L438.888 361.27C435.784 362.19 432.626 363.023 429.425 363.773L430.109 366.694ZM447.335 361.687C450.496 360.572 453.595 359.36 456.624 358.048L455.431 355.295C452.469 356.579 449.435 357.765 446.337 358.858L447.335 361.687ZM463.862 354.646C466.854 353.124 469.763 351.492 472.578 349.746L470.996 347.197C468.256 348.896 465.422 350.487 462.502 351.972L463.862 354.646ZM479.228 345.276C481.941 343.302 484.547 341.204 487.035 338.981L485.035 336.744C482.625 338.899 480.097 340.933 477.463 342.851L479.228 345.276ZM492.788 333.383C495.076 330.956 497.237 328.4 499.258 325.711L496.86 323.909C494.907 326.507 492.819 328.977 490.605 331.325L492.788 333.383ZM503.789 319.079C504.668 317.657 505.512 316.203 506.318 314.715L503.681 313.285C502.902 314.722 502.087 316.127 501.237 317.501L503.789 319.079Z" fill="#E4E4E4"/>
<path d="M870 204V202.5V204ZM1053 372L1054.49 372.176L1053 372ZM963 499L964.335 499.683L963 499ZM983 610.5C983.829 610.5 984.5 609.828 984.5 609V595.5C984.5 594.672 983.829 594 983 594C982.172 594 981.5 594.672 981.5 595.5V607.5H969.5C968.672 607.5 968 608.172 968 609C968 609.828 968.672 610.5 969.5 610.5H983ZM594.762 316.481C596.487 316.758 598.19 317.011 599.873 317.239L600.277 314.267C598.618 314.041 596.939 313.792 595.238 313.519L594.762 316.481ZM607.833 318.16C611.298 318.489 614.674 318.714 617.965 318.838L618.079 315.84C614.846 315.718 611.527 315.498 608.117 315.174L607.833 318.16ZM626.125 318.945C629.597 318.901 632.973 318.743 636.258 318.476L636.016 315.486C632.8 315.747 629.493 315.902 626.087 315.945L626.125 318.945ZM644.323 317.585C647.754 317.102 651.084 316.497 654.32 315.78L653.671 312.851C650.511 313.551 647.259 314.142 643.905 314.614L644.323 317.585ZM662.187 313.771C665.498 312.811 668.708 311.731 671.831 310.545L670.765 307.741C667.716 308.899 664.582 309.953 661.352 310.89L662.187 313.771ZM679.331 307.421C682.443 306.009 685.468 304.492 688.418 302.883L686.982 300.25C684.093 301.825 681.133 303.309 678.091 304.689L679.331 307.421ZM695.435 298.809C698.321 297.032 701.139 295.173 703.903 293.245L702.187 290.785C699.465 292.683 696.695 294.511 693.862 296.255L695.435 298.809ZM710.452 288.488C713.139 286.459 715.784 284.374 718.398 282.247L716.504 279.92C713.914 282.028 711.298 284.09 708.644 286.093L710.452 288.488ZM724.601 277.086C727.158 274.916 729.695 272.716 732.225 270.501L730.249 268.244C727.726 270.453 725.201 272.642 722.66 274.798L724.601 277.086ZM738.265 265.185C740.771 262.973 743.279 260.757 745.805 258.549L743.831 256.29C741.298 258.504 738.784 260.725 736.28 262.936L738.265 265.185ZM751.872 253.3C754.405 251.137 756.963 248.993 759.56 246.88L757.667 244.553C755.048 246.684 752.47 248.844 749.924 251.019L751.872 253.3ZM765.827 241.91C768.454 239.885 771.128 237.9 773.859 235.968L772.126 233.519C769.358 235.477 766.651 237.487 763.996 239.534L765.827 241.91ZM780.457 231.486C783.223 229.687 786.053 227.948 788.958 226.279L787.464 223.678C784.508 225.376 781.631 227.144 778.822 228.971L780.457 231.486ZM795.952 222.482C798.871 220.989 801.868 219.57 804.953 218.234L803.761 215.481C800.615 216.843 797.56 218.29 794.586 219.811L795.952 222.482ZM812.325 215.273C815.38 214.139 818.521 213.087 821.756 212.127L820.903 209.251C817.603 210.231 814.398 211.303 811.281 212.46L812.325 215.273ZM829.436 210.067C832.593 209.308 835.839 208.635 839.179 208.053L838.665 205.098C835.262 205.69 831.954 206.376 828.735 207.15L829.436 210.067ZM847.1 206.874C850.321 206.473 853.626 206.156 857.023 205.927L856.822 202.934C853.37 203.166 850.007 203.489 846.73 203.896L847.1 206.874ZM864.924 205.564C866.595 205.522 868.287 205.5 870 205.5V202.5C868.261 202.5 866.544 202.522 864.848 202.565L864.924 205.564ZM870 205.5C871.662 205.5 873.326 205.531 874.993 205.591L875.101 202.593C873.399 202.532 871.698 202.5 870 202.5V205.5ZM882.978 206.104C886.286 206.409 889.598 206.826 892.909 207.351L893.379 204.388C890.005 203.853 886.628 203.428 883.253 203.117L882.978 206.104ZM900.788 208.802C904.043 209.485 907.292 210.268 910.531 211.147L911.317 208.252C908.023 207.358 904.717 206.561 901.403 205.866L900.788 208.802ZM918.221 213.421C921.394 214.435 924.552 215.538 927.691 216.727L928.753 213.922C925.567 212.715 922.359 211.594 919.134 210.563L918.221 213.421ZM935.137 219.721C938.207 221.028 941.254 222.414 944.273 223.875L945.58 221.175C942.519 219.693 939.427 218.287 936.311 216.961L935.137 219.721ZM951.434 227.509C954.387 229.077 957.308 230.716 960.192 232.421L961.718 229.838C958.796 228.11 955.835 226.449 952.842 224.86L951.434 227.509ZM967.033 236.632C969.854 238.438 972.634 240.307 975.368 242.234L977.096 239.781C974.326 237.829 971.509 235.936 968.651 234.106L967.033 236.632ZM981.855 246.977C984.528 249.004 987.152 251.087 989.72 253.22L991.637 250.912C989.034 248.751 986.376 246.641 983.668 244.586L981.855 246.977ZM995.81 258.462C998.318 260.7 1000.77 262.986 1003.15 265.314L1005.24 263.169C1002.83 260.808 1000.35 258.492 997.807 256.224L995.81 258.462ZM1008.79 271.035C1011.1 273.476 1013.35 275.958 1015.52 278.475L1017.79 276.518C1015.59 273.963 1013.31 271.445 1010.96 268.97L1008.79 271.035ZM1020.63 284.663C1022.73 287.303 1024.73 289.977 1026.65 292.677L1029.1 290.942C1027.15 288.197 1025.11 285.48 1022.98 282.799L1020.63 284.663ZM1031.14 299.323C1032.96 302.162 1034.68 305.025 1036.29 307.906L1038.91 306.443C1037.27 303.506 1035.52 300.59 1033.66 297.702L1031.14 299.323ZM1040.01 314.996C1041.5 318.03 1042.86 321.079 1044.09 324.135L1046.87 323.015C1045.61 319.888 1044.22 316.773 1042.7 313.675L1040.01 314.996ZM1046.84 331.638C1047.89 334.838 1048.79 338.039 1049.54 341.234L1052.46 340.554C1051.69 337.268 1050.76 333.981 1049.68 330.7L1046.84 331.638ZM1051.04 349.054C1051.54 352.368 1051.86 355.668 1051.99 358.945L1054.99 358.824C1054.85 355.433 1054.52 352.024 1054 348.607L1051.04 349.054ZM1051.94 366.886C1051.85 368.54 1051.7 370.186 1051.51 371.824L1054.49 372.176C1054.69 370.475 1054.84 368.767 1054.93 367.051L1051.94 366.886ZM1051.51 371.824C1051.33 373.35 1051.06 374.892 1050.72 376.447L1053.64 377.101C1054.01 375.453 1054.3 373.811 1054.49 372.176L1051.51 371.824ZM1048.56 383.705C1047.51 386.576 1046.22 389.482 1044.73 392.418L1047.4 393.777C1048.94 390.751 1050.28 387.735 1051.38 384.737L1048.56 383.705ZM1041.01 399.122C1039.41 401.798 1037.66 404.489 1035.79 407.192L1038.26 408.897C1040.16 406.148 1041.94 403.402 1043.58 400.664L1041.01 399.122ZM1031.29 413.441C1029.39 415.977 1027.4 418.517 1025.34 421.057L1027.68 422.943C1029.75 420.378 1031.76 417.81 1033.69 415.241L1031.29 413.441ZM1020.42 427.015C1018.35 429.463 1016.23 431.908 1014.09 434.346L1016.34 436.326C1018.5 433.877 1020.62 431.417 1022.71 428.951L1020.42 427.015ZM1008.94 440.142C1006.78 442.552 1004.6 444.952 1002.43 447.338L1004.65 449.357C1006.82 446.968 1009 444.563 1011.17 442.145L1008.94 440.142ZM997.206 453.08C995.003 455.501 992.82 457.906 990.679 460.288L992.91 462.294C995.045 459.918 997.223 457.519 999.425 455.099L997.206 453.08ZM985.504 466.105C983.315 468.596 981.19 471.06 979.152 473.492L981.452 475.419C983.471 473.009 985.58 470.563 987.758 468.086L985.504 466.105ZM974.215 479.554C972.119 482.212 970.155 484.829 968.359 487.396L970.817 489.116C972.574 486.605 974.502 484.035 976.571 481.412L974.215 479.554ZM964.06 494.005C963.192 495.459 962.391 496.897 961.665 498.317L964.335 499.683C965.029 498.328 965.798 496.947 966.636 495.542L964.06 494.005ZM961.665 498.317C960.932 499.749 960.243 501.201 959.599 502.67L962.346 503.875C962.967 502.46 963.63 501.063 964.335 499.683L961.665 498.317ZM956.835 509.859C955.824 512.905 954.986 516.005 954.319 519.145L957.254 519.769C957.898 516.735 958.706 513.742 959.682 510.805L956.835 509.859ZM953.046 526.732C952.651 529.904 952.422 533.103 952.353 536.314L955.353 536.378C955.419 533.267 955.641 530.171 956.023 527.102L953.046 526.732ZM952.495 543.996C952.679 547.183 953.018 550.369 953.509 553.541L956.474 553.082C955.998 550.004 955.668 546.913 955.49 543.823L952.495 543.996ZM954.968 561.078C955.691 564.187 956.56 567.269 957.572 570.312L960.418 569.365C959.436 566.41 958.592 563.417 957.89 560.399L954.968 561.078ZM960.261 577.501C961.488 580.448 962.854 583.345 964.355 586.177L967.006 584.772C965.549 582.023 964.222 579.21 963.03 576.347L960.261 577.501ZM968.202 592.821C969.904 595.523 971.738 598.15 973.699 600.689L976.073 598.855C974.171 596.393 972.392 593.844 970.74 591.222L968.202 592.821ZM978.628 606.58C979.701 607.766 980.805 608.926 981.939 610.061L984.061 607.939C982.962 606.84 981.892 605.716 980.852 604.567L978.628 606.58Z" fill="#E4E4E4"/>
</svg>
