<svg width="432" height="268" viewBox="0 0 432 268" fill="none" xmlns="http://www.w3.org/2000/svg">
<path d="M397.285 -0.000122877C410.54 -0.000122432 421.285 10.745 421.285 23.9999L421.285 141C421.285 154.255 410.54 165 397.285 165L27.2851 165C14.0303 165 3.28515 154.255 3.28515 141L3.28516 23.9999C3.28516 10.745 14.0303 -0.000135766 27.2852 -0.00013532L397.285 -0.000122877Z" fill="#FED230"/>
<path d="M2.67749 192.351H12.7849V196.453C14.7055 194.727 16.6423 193.441 18.5955 192.595C20.5811 191.716 22.8435 191.277 25.3826 191.277C28.3123 191.277 31.0304 191.879 33.5369 193.083C36.0434 194.255 38.1918 195.899 39.9822 198.015C41.7725 200.098 43.1886 202.621 44.2302 205.583C45.2719 208.513 45.7927 211.703 45.7927 215.154C45.7927 218.637 45.2719 221.843 44.2302 224.773C43.1886 227.703 41.7725 230.225 39.9822 232.341C38.1918 234.425 36.0434 236.052 33.5369 237.224C31.0304 238.396 28.3123 238.982 25.3826 238.982C22.8435 238.982 20.5811 238.526 18.5955 237.615C16.6423 236.703 14.7055 235.385 12.7849 233.66L12.7849 256.072H2.67749L2.67749 192.351ZM12.7849 225.652C13.9893 226.986 15.5193 228.028 17.3748 228.777C19.2628 229.493 21.0694 229.851 22.7947 229.851C26.6033 229.851 29.6957 228.5 32.072 225.798C34.4809 223.096 35.6853 219.548 35.6853 215.154C35.6853 210.759 34.4809 207.195 32.072 204.46C29.6957 201.726 26.6033 200.359 22.7947 200.359C21.0694 200.359 19.2628 200.717 17.3748 201.433C15.5193 202.117 13.9893 203.126 12.7849 204.46L12.7849 225.652ZM54.6794 224.773C54.6794 222.104 55.3956 219.776 56.8279 217.79C58.2602 215.772 60.1319 214.096 62.4431 212.761C64.7869 211.426 67.4561 210.434 70.4509 209.783C73.4783 209.099 76.5544 208.757 79.6794 208.757C81.4047 208.757 82.8858 208.79 84.1228 208.855C85.3598 208.92 86.613 209.018 87.8826 209.148V207.341C87.8826 204.965 86.9548 203.191 85.0994 202.019C83.2764 200.847 80.8676 200.261 77.8728 200.261C75.1384 200.261 72.3552 200.652 69.5232 201.433C66.6912 202.182 64.0056 203.288 61.4666 204.753L57.365 196.843C60.3598 195.118 63.5662 193.767 66.9841 192.79C70.4347 191.781 74.0642 191.277 77.8728 191.277C80.3468 191.277 82.7719 191.553 85.1482 192.107C87.557 192.66 89.7055 193.572 91.5935 194.841C93.5141 196.111 95.044 197.771 96.1833 199.822C97.3227 201.84 97.8923 204.346 97.8923 207.341V237.859H87.8826V231.169C86.2875 233.643 83.9275 235.564 80.8025 236.931C77.71 238.298 74.3735 238.982 70.7927 238.982C68.5792 238.982 66.4796 238.673 64.4939 238.054C62.5408 237.468 60.8481 236.573 59.4158 235.369C57.9835 234.164 56.8279 232.683 55.949 230.925C55.1026 229.135 54.6794 227.084 54.6794 224.773ZM73.3806 229.949C75.3663 229.949 77.2218 229.704 78.947 229.216C80.7048 228.695 82.2511 227.995 83.5857 227.117C84.9203 226.205 85.962 225.115 86.7107 223.845C87.4919 222.576 87.8826 221.176 87.8826 219.646V217.937C86.2875 217.676 84.7901 217.53 83.3904 217.497C81.9906 217.465 80.7537 217.449 79.6794 217.449C74.7315 217.449 70.988 218.1 68.449 219.402C65.9425 220.704 64.6892 222.315 64.6892 224.236C64.6892 228.044 67.5863 229.949 73.3806 229.949ZM120.158 216.179C120.158 220.313 121.248 223.634 123.429 226.14C125.643 228.614 128.654 229.851 132.463 229.851C136.076 229.851 139.038 228.614 141.349 226.14C143.693 223.634 144.865 220.313 144.865 216.179C144.865 211.98 143.758 208.643 141.545 206.169C139.364 203.695 136.336 202.458 132.463 202.458C128.329 202.458 125.236 203.695 123.185 206.169C121.167 208.643 120.158 211.98 120.158 216.179ZM109.465 206.072C109.465 201.189 109.969 196.729 110.978 192.693C112.02 188.656 113.469 185.189 115.324 182.292C117.212 179.395 119.442 177.133 122.013 175.505C124.585 173.878 127.433 173.064 130.558 173.064C132.088 173.064 133.358 173.21 134.367 173.503C135.376 173.796 136.271 174.154 137.052 174.578C137.866 174.968 138.615 175.31 139.299 175.603C140.015 175.896 140.877 176.042 141.886 176.042C143.221 176.042 144.344 175.814 145.256 175.359C146.2 174.903 147.339 174.138 148.674 173.064L153.263 179.753C152.059 181.218 150.431 182.488 148.381 183.562C146.362 184.636 144.198 185.173 141.886 185.173C140.324 185.173 139.071 185.027 138.127 184.734C137.215 184.408 136.369 184.05 135.588 183.66C134.839 183.269 134.09 182.927 133.342 182.634C132.625 182.309 131.698 182.146 130.558 182.146C129.028 182.146 127.612 182.536 126.31 183.318C125.008 184.066 123.853 185.271 122.844 186.931C121.867 188.559 121.086 190.658 120.5 193.23C119.946 195.769 119.67 198.878 119.67 202.556C120.939 199.561 122.713 197.283 124.992 195.72C127.303 194.158 129.826 193.376 132.56 193.376C135.75 193.376 138.713 193.865 141.447 194.841C144.181 195.785 146.541 197.217 148.527 199.138C150.545 201.026 152.124 203.386 153.263 206.218C154.403 209.05 154.972 212.37 154.972 216.179C154.972 219.369 154.403 222.364 153.263 225.163C152.124 227.963 150.545 230.388 148.527 232.439C146.541 234.457 144.181 236.052 141.447 237.224C138.713 238.396 135.75 238.982 132.56 238.982C124.911 238.982 119.149 236.313 115.275 230.974C111.401 225.635 109.465 217.335 109.465 206.072ZM210.734 215.154C210.734 218.702 210.164 221.925 209.025 224.822C207.918 227.719 206.307 230.225 204.191 232.341C202.108 234.425 199.601 236.052 196.672 237.224C193.742 238.396 190.47 238.982 186.857 238.982C183.309 238.982 180.07 238.396 177.14 237.224C174.211 236.052 171.688 234.425 169.572 232.341C167.489 230.225 165.877 227.719 164.738 224.822C163.631 221.925 163.078 218.702 163.078 215.154C163.078 211.703 163.631 208.513 164.738 205.583C165.877 202.621 167.489 200.082 169.572 197.966C171.688 195.818 174.211 194.174 177.14 193.035C180.07 191.863 183.309 191.277 186.857 191.277C190.47 191.277 193.742 191.863 196.672 193.035C199.601 194.174 202.108 195.818 204.191 197.966C206.307 200.082 207.918 202.621 209.025 205.583C210.164 208.513 210.734 211.703 210.734 215.154ZM200.676 215.154C200.676 213.103 200.35 211.166 199.699 209.343C199.08 207.488 198.169 205.909 196.965 204.607C195.76 203.305 194.295 202.279 192.57 201.531C190.877 200.749 188.973 200.359 186.857 200.359C184.709 200.359 182.788 200.749 181.095 201.531C179.403 202.279 177.97 203.305 176.799 204.607C175.627 205.909 174.715 207.488 174.064 209.343C173.446 211.166 173.136 213.103 173.136 215.154C173.136 217.302 173.446 219.255 174.064 221.013C174.715 222.771 175.627 224.317 176.799 225.652C177.97 226.986 179.403 228.028 181.095 228.777C182.788 229.493 184.709 229.851 186.857 229.851C188.973 229.851 190.877 229.493 192.57 228.777C194.295 228.028 195.76 226.986 196.965 225.652C198.169 224.317 199.08 222.771 199.699 221.013C200.35 219.255 200.676 217.302 200.676 215.154ZM264.054 215.544H255.021V201.482H246.427V228.777H256.535V237.859H226.261V228.777H236.32V201.482H227.629V215.544H218.644V192.351H264.054V215.544ZM273.039 224.773C273.039 222.104 273.755 219.776 275.187 217.79C276.62 215.772 278.491 214.096 280.802 212.761C283.146 211.426 285.816 210.434 288.81 209.783C291.838 209.099 294.914 208.757 298.039 208.757C299.764 208.757 301.245 208.79 302.482 208.855C303.719 208.92 304.972 209.018 306.242 209.148V207.341C306.242 204.965 305.314 203.191 303.459 202.019C301.636 200.847 299.227 200.261 296.232 200.261C293.498 200.261 290.715 200.652 287.883 201.433C285.051 202.182 282.365 203.288 279.826 204.753L275.724 196.843C278.719 195.118 281.926 193.767 285.344 192.79C288.794 191.781 292.424 191.277 296.232 191.277C298.706 191.277 301.131 191.553 303.508 192.107C305.916 192.66 308.065 193.572 309.953 194.841C311.873 196.111 313.403 197.771 314.543 199.822C315.682 201.84 316.252 204.346 316.252 207.341V237.859H306.242V231.169C304.647 233.643 302.287 235.564 299.162 236.931C296.069 238.298 292.733 238.982 289.152 238.982C286.939 238.982 284.839 238.673 282.853 238.054C280.9 237.468 279.207 236.573 277.775 235.369C276.343 234.164 275.187 232.683 274.308 230.925C273.462 229.135 273.039 227.084 273.039 224.773ZM291.74 229.949C293.726 229.949 295.581 229.704 297.306 229.216C299.064 228.695 300.61 227.995 301.945 227.117C303.28 226.205 304.321 225.115 305.07 223.845C305.851 222.576 306.242 221.176 306.242 219.646V217.937C304.647 217.676 303.149 217.53 301.75 217.497C300.35 217.465 299.113 217.449 298.039 217.449C293.091 217.449 289.347 218.1 286.808 219.402C284.302 220.704 283.049 222.315 283.049 224.236C283.049 228.044 285.946 229.949 291.74 229.949Z" fill="black"/>
</svg>
